<?xml version="1.0" encoding="UTF-8"?>
<svg preserveAspectRatio="none" id="a" data-name="AW" xmlns="http://www.w3.org/2000/svg" width="500" height="36.196" viewBox="0 0 500 36.196">
  <path id="b" data-name="28" d="M225.08,7.392l-.003-.004s.002-.004,.003,.004ZM499.999,27.15c.001,.14,.002,.28,0,.42-.013,.817-.203,1.042-.884,1.042-4.343,0-8.685,0-13.028,.002-.556,0-1.113,.004-1.667,.043-.105,.007-.261,.172-.285,.287-.044,.216,.132,.477,.431,.494,.828,.046,1.659,.016,2.406,.016,.469,.456,.781,.935,1.449,.85,.414-.052,.839-.016,1.259-.008,.609,.011,.608,.015,1.393,.737,.662,.21,1.361,.12,2.04,.084,.674-.036,.964,.437,1.394,.827h1.678c.674,.674,1.384,1.341,2.031,2.064,.146,.163,.074,.522,.108,.855-.348,.368-.726,.767-1.103,1.166-.668,.298-1.37,.061-2.044,.155-.658,.091-.999-.346-1.373-.743-.964-.204-1.936-.077-2.903-.099-.84-.02-1.684-.05-2.52,.01-.678,.049-.957-.448-1.389-.828h-4.989c-.316-.293-.619-.574-.933-.866h-22.658c-.311-.29-.613-.572-.928-.865h-10.043c-.221-.221-.419-.419-.682-.682-1.008-.339-2.121-.077-3.215-.123-1.258-.053-2.521-.012-3.782-.012h-3.234c-.47-.484-.803-.864-1.461-.857-3.222,.036-6.444-.003-9.665,.033-.658,.007-.993-.368-1.464-.857h-2.391c-6.864,0-13.728-.01-20.592,.016-.676,.002-.951-.46-1.384-.832h-15.971c-.262,.245-.564,.527-.875,.816h-3.33c-.311-.29-.613-.572-.874-.815h-23.507c-.354,.309-.661,.577-.877,.765h-1.714c-.423-.442-.758-.872-1.418-.802-.554,.058-1.119,.012-1.771,.012-.257-.212-.568-.468-.964-.793h-13.423c-.484,.198-.766,1.108-1.674,.778-.274-.256-.576-.538-.887-.828h-1.643c-.317-.293-.62-.573-.875-.808h-10.932c-.432,.383-.714,.888-1.391,.827-.459-.041-.661,.431-.975,.69-.115,.044-.236,.129-.357,.129-2.522,.008-5.043,.006-7.565,.006-.14,0-.317,.055-.414-.01-.334-.225-.606-.626-.963-.715-.671-.167-1.364-.203-1.64-.938h-12.668c-.316-.295-.619-.576-.929-.865h-41.145c-.321-.295-.625-.573-.944-.866h-23.473c-.431-.39-.723-.83-1.394-.825-4.342,.031-8.685,.02-13.028,.011-.545-.001-1.101,.103-1.631-.106-.201-.201-.399-.399-.628-.628-1.063-.239-2.174-.063-3.276-.094-1.26-.035-2.521-.008-3.782-.008-1.121,0-2.243,.034-3.362-.01-1.098-.042-2.21,.178-3.25-.11l-.68-.68h-16.736c-.325-.291-.631-.564-.968-.866h-17.577c-.321-.296-.626-.576-.94-.865h-20.964c-.326-.297-.63-.574-.877-.798H69.194c-.43,.395-.724,.899-1.397,.815-.679-.084-1.378,.103-2.039-.113q-.725-.708-1.539,.067h-14.303c-.237-.214-.542-.488-.876-.788H30.615c-.319-.294-.623-.574-.94-.866h-5.85c-.209-.209-.408-.408-.68-.68-1.113-.434-2.382,.073-3.585-.223-.198-.198-.396-.396-.61-.61-1.177-.409-2.443,.062-3.655-.285-.359-.409-.725-.828-1.373-.714-.76,.135-1.346-.148-1.784-.804h-1.729c-.244,.221-.548,.498-.875,.795h-.788c-.315,.29-.619,.57-.94,.866h-.808c-.47,.527-.92,1.073-1.629,.837-.883,.579-1.138,1.831-2.386,1.669-.727,.428-1.218,1.115-1.843,1.681-.125,0-.27-.027-.401,.005-.324,.079-.572,0-.717-.294-.037-.076-.028-.239,.027-.287,.897-.798,1.513-1.995,2.915-2.087,.495-.495,.991-.99,1.486-1.486,.272-.018,.545-.036,.854-.057,.579-.551,1.178-1.121,1.762-1.677,.429-.022,.873,.097,1.147-.36-.52-.797-1.294-1.369-1.932-2.067-.127-.032-.252-.071-.381-.095-.948-.183-.973-.205-.977-.951-.001-.28-.008-.561,.003-.84,.005-.13,.048-.259,.07-.369,.403-.411,.795-.811,1.182-1.205h10.917c.315-.292,.617-.572,.934-.866h6.674c.226-.226,.424-.424,.712-.713,.299-.027,.695-.06,1.091-.101,.266-.028,.674,.026,.773-.121,.575-.854,1.425-.659,2.237-.751,.348-.04,.655-.443,1.093-.763h1.505c.327-.29,.633-.562,.977-.866h1.608c.317-.295,.619-.576,.93-.866h1.639c.321-.295,.625-.573,.944-.866h1.582c.366-.314,.675-.578,.939-.805,.897-.045,1.73,.095,2.547-.118,.198-.198,.396-.396,.653-.654,.341-.022,.75-.104,1.146-.06,.668,.074,.979-.399,1.448-.853,.609,0,1.298,.003,1.988,0,.533-.003,.914,.206,.948,.554,.042,.415,.01,.817-.382,1.102-.357,.26-.556,.633-.437,1.067,.064,.236,.276,.605,.436,.613,1.115,.054,2.234,.028,3.307,.028,.34,.308,.644,.584,.887,.805h9.259c.429-.402,.731-.914,1.4-.808,.736,.117,1.363-.072,1.804-.714,.679-.1,1.325-.263,1.732-.891,.55-.033,1.1-.065,1.724-.102,.25-.226,.554-.502,.883-.8h1.625c.316-.291,.62-.571,.94-.866h1.613c.335-.301,.64-.575,.964-.866h1.61c.427-.413,.739-.912,1.405-.803,.74,.121,1.359-.087,1.801-.723,.543-.052,1.086-.104,1.579-.15,.615,.374,1.098,.787,1.374,1.4-.203,.203-.451,.372-.589,.605-.263,.445-.048,1.089-.603,1.432-.635,.393-.187,1.325-.882,1.748-.467,.284-.823,.748-1.192,1.097v.879c-.279,.315-.538,.606-.806,.909q.887,.37,10.431,.37c.286-.265,.589-.546,.905-.838h.803c.311-.291,.614-.573,.902-.842,.427-.02,.866,.093,1.145-.343,.473-.739,1.621-.333,2.028-1.189,.4-.05,.804-.167,1.197-.135,.653,.052,1.009-.338,1.379-.806h2.551c.454,.318,.975,.692,1.208,1.33l-.604,.603c-.222,.528-.126,1.088-.093,1.627,.013,.206,.305,.566,.471,.567,4.475,.031,8.951,.025,13.304,.025,.419-.334,.738-.587,1.057-.841,.829,.23,1.109-.791,1.754-.809,.656-.019,.925-.598,1.384-.734,.668-.198,1.26-.375,1.74-.918,.127-.144,.527-.047,.82-.061,.292-.272,.594-.554,.905-.845h.843c.412-.588,.958-.946,1.713-.897,.449-.587,1.006-.928,1.779-.779,.645,.124,.987-.326,1.398-.696,.298-.269,.869-.225,1.125,.022,.394,.381,.766,.784,1.055,1.083v1.738c-.541,.541-1.036,1.036-1.534,1.534,.008,.73-.282,1.312-.891,1.729,.181,.159,.359,.452,.54,.454,2.941,.029,5.883,.022,8.825,.015,.124,0,.247-.075,.37-.115,.198-.198,.365-.456,.601-.582,.455-.243,1.093-.051,1.43-.606,.258-.424,.731-.271,1.094-.403,.362-.131,.637-.502,.986-.799h.765c.214-.202,.413-.395,.617-.582,.405-.372,.814-.741,1.22-1.111,.95,.303,1.254-.996,2.177-.863,.431,.062,.619-.589,.965-.668,.659-.151,1.361-.112,2.045-.149,.14-.008,.28-.001,.424-.001,.598,.344,1.06,.829,1.424,1.41-.038,.829,.092,1.661-.109,2.488-.396,.369-.881,.724-.716,1.365,.059,.231,.296,.593,.455,.595,4.478,.032,8.956,.026,13.386,.026,.457-.37,.711-.928,1.396-.851,.476,.053,.64-.474,.987-.652,.34-.176,.772-.167,1.121-.33,.239-.112,.371-.45,.61-.561,.349-.163,.827-.115,1.114-.335,.551-.422,1.007-.969,1.506-1.468h.82l.928-.866h1.64c.219-.219,.409-.426,.617-.613,.265-.238,.955-.289,1.135-.111,.689,.684,1.373,1.372,2.045,2.043v3.362c.135,.135,.221,.297,.336,.321,.265,.056,.544,.061,.817,.061,5.043,.003,10.086,.002,15.156,.002,.288-.268,.59-.55,.901-.841h.762c.652-.581,1.27-1.131,1.888-1.681,1.235,.152,1.514-1.071,2.425-1.681,.966,0,2.074-.002,3.182,.001,.302,0,.534,.4,.551,.953,.009,.28-.007,.561,.005,.84,.005,.13,.05,.258,.078,.392,.812,.424,.776,1.353,.944,2.013h12.007c.301-.301,.59-.606,.897-.893,.39-.364,.68-.859,1.357-.799,.457,.04,.637-.472,.974-.678,.441-.269,1.092-.046,1.432-.603,.254-.417,.683-.398,1.321-.375,.519,.617,1.144,1.361,1.934,2.3-.007,.026-.009,.27,.082,.473,.099,.223,.327,.553,.5,.554,5.314,.029,10.628,.024,15.875,.024,.562-.562,1.057-1.057,1.553-1.553,.812-.24,1.646-.082,2.472-.129,.78,.361,1.151,1.181,1.994,1.668h4.857c.318,.293,.622,.574,.913,.842h15.961c.804-.804,1.593-1.6,2.394-2.383,.083-.081,.241-.086,.365-.127,1.193-.045,1.485,1.132,2.267,1.672h59.663c.294-.271,.598-.551,.918-.845h34.392c.335-.301,.64-.575,.876-.787h19.35c.427,.412,.74,.82,1.404,.817,6.164-.027,12.327-.019,18.491-.011,.683,0,1.376-.091,1.997,.074,.248,.248,.447,.447,.65,.649,.952,.224,1.924,.106,2.888,.106,12.608,.009,25.215,.011,37.822-.009,.667-.001,.969,.422,1.39,.822h9.223c.394,.384,.797,.76,1.179,1.158,.231,.241,.221,.885-.017,1.131-.381,.395-.784,.768-1.09,1.064h-2.578c-.426-.42-.745-.82-1.408-.814-3.782,.033-7.565,.022-11.347,.01-.542-.002-1.1,.124-1.621-.125-.202-.202-.4-.4-.603-.603-.954-.212-1.926-.1-2.891-.101-9.526-.009-19.051-.013-28.577,.01-.671,.002-.961-.438-1.392-.826h-20.113c-.318-.293-.622-.572-.941-.866h-48.723c-.298,.278-.601,.56-.917,.854h-45.458c-.117,.359-.237,.729-.415,1.275,.663,.475,1.343,.963,1.814,1.301v1.16c.294,.34,.665,.612,.804,.974,.137,.357-.036,.83,.447,1.127h19.316c.256-.237,.559-.517,.874-.809h1.65c.305,.285,.607,.567,.873,.815h10.092c.22-.22,.419-.419,.617-.617,.112-.067,.224-.193,.337-.193,6.711-.009,13.422-.008,20.045-.008,.47,.481,.801,.863,1.46,.857,3.502-.035,7.004-.016,10.506-.016,3.082,0,6.164,.02,9.245-.016,.657-.008,.995,.364,1.417,.806h14.349c.474-.158,.702-1.181,1.564-.723,.359-.335,.662-.617,.972-.907h4.171c.311,.29,.613,.572,.899,.838,.303,.019,.576,.036,.849,.053,.792,.793,1.585,1.585,2.424,2.424h9.161c.329,.29,.635,.56,.982,.866h4.175c.268-.25,.571-.533,.882-.823h.82c.202-.202,.383-.421,.602-.594,.517-.41,.795-1.147,1.652-1.097,.594,.035,.757-.749,1.332-.83,.26-.036,.548-.046,.769-.168,1.179-.651,1.172-.672,2.245-.67q.976,.799,1.755,.841c.303,.279,.607,.56,.919,.849h1.657c.206,.206,.388,.424,.606,.598,.515,.412,.807,1.071,1.652,1.12,.459,.027,.86,.635,1.345,.759,.411,.105,.798,.157,1.053,.507,.291,.4,.736,.27,1.1,.4,.362,.13,.637,.5,.989,.798h.761c.318,.293,.622,.573,.939,.866h4.982c.332,.299,.636,.574,.959,.866h6.656c.428,.407,.735,.828,1.402,.819,2.801-.039,5.603-.018,8.405-.011,.123,0,.245,.079,.368,.121,.198,.198,.396,.396,.594,.594,.123,.04,.244,.097,.371,.116,.137,.02,.28,.005,.419,.005,2.662,0,5.323,.023,7.985-.016,.667-.01,.972,.417,1.389,.822h25.16c.321,.292,.625,.568,.963,.875,.935,0,1.912,.003,2.89-.001,.677-.003,.86,.216,.868,1.06ZM76.79,10.974c-.099,.001-.231,.167-.286,.285-.092,.196,.038,.499,.345,.522,.826,.062,1.66,.021,2.491,.021s1.662,.01,2.492-.013c.101-.003,.231-.167,.286-.285,.092-.196-.043-.514-.344-.522-1.661-.044-3.323-.026-4.985-.008Zm-9.58-3.728c.049,.119,.182,.288,.282,.289,3.057,.033,6.115,.069,9.172,.039,.405-.004,.613-.461,.552-.929-.016-.123,.046-.256,.072-.384,.493-.493,.991-.98,1.472-1.483,.081-.085,.08-.243,.132-.36,.132-.295-.199-1.016-.482-1.018-.831-.006-1.663-.002-2.433-.002-.353,.317-.657,.59-.976,.877h-1.609c-.77,.761-.78,.738-1.808,.807-.265,.018-.661-.024-.766,.125-.442,.622-1.115,.685-1.747,.867-.363,.708-1.151,.585-1.72,.891-.08,.043-.168,.215-.141,.282Zm-35.29,1.521c.122,.186,.281,.489,.434,.492,1.923,.033,3.847,.026,5.771,.009,.098,0,.219-.168,.282-.284,.038-.07,.023-.225-.031-.281-.376-.388-.768-.761-1.102-1.087h-2.507c-.328,.299-.627,.571-.955,.869-.531,0-1.075-.015-1.617,.013-.102,.005-.292,.245-.277,.268Zm8.294,6.026c.582-.613,1.151-1.212,1.761-1.855-.116-.374-.232-.746-.346-1.112h-7.689c-.262,.245-.565,.527-.875,.817h-12.574c-.31,.289-.612,.571-.926,.864h-1.603c-.351,.307-.658,.576-.775,.679-.852,.308-1.623-.172-2.194,.59,.406,.355,.82,.716,1.37,1.197,.726,.25,1.728-.248,2.627,.231,.198,.198,.396,.396,.618,.618h4.157c.314,.293,.616,.575,.927,.865h5.851c.31,.29,.612,.572,.9,.841,2.407,0,4.788-.005,7.169,.007,.301,.002,.534-.071,.735-.416v-1.585c.292-.323,.567-.628,.866-.959v-.78Zm4.979,.848c.383-.498,.925-.457,1.418-.556,.502-.502,.99-.99,1.479-1.48,.26-.041,.538-.037,.773-.135,.216-.09,.565-.336,.541-.434-.072-.287-.357-.394-.636-.394-1.52,.002-3.04,0-4.729,0-.746,.72-1.485,1.185-1.347,2.159-1.025,.424-.507,1.816-1.45,2.312-.188,.099-.079,.43,.253,.555,.242,.091,.546,.018,.818,.018,.3-.284,.597-.565,.899-.852h.809c.402-.402,.838-.759,1.172-1.193Zm25.27-1.594c-.067-.219-.328-.538-.506-.54-2.79-.034-5.581-.024-8.243-.024-.42-.355-.73-.617-.995-.841-2.176,0-4.277-.002-6.377,.005-.123,0-.246,.077-.381,.122-.359,.407-.724,.833-1.371,.713-.622,.54-1.244,1.081-1.923,1.67h-.729c-.316,.291-.62,.572-.939,.866h-.756c-.354,.298-.658,.768-.983,.783-.627,.028-1.028,.282-1.403,.713-.181,.208-.4,.384-.607,.581,.25,.155,.473,.413,.696,.414,7.141,.021,14.283,.034,21.424-.008,.715-.004,.586-.772,.637-1.277,.8-.8,1.612-1.575,2.368-2.4,.148-.161,.161-.543,.09-.778Zm3.089-3.221c.113-.022,.275-.187,.275-.285,0-.098-.168-.274-.274-.283-2.604-.22-5.21-.22-7.814,0-.106,.009-.274,.185-.274,.283s.16,.257,.276,.285c1.221,.305,2.465,.055,3.767,.149,1.301-.09,2.682,.119,4.045-.15Zm1.632,5.179c.232-.267,.499-.573,.74-.85,.334,0,.61,.027,.875-.013,.109-.017,.231-.163,.283-.279,.085-.191-.047-.502-.343-.517-1.087-.054-2.178-.021-3.529-.021-.202,.603-.154,1.506-.885,1.959-.046,.029-.051,.205-.01,.275,.066,.113,.176,.258,.285,.274,.267,.039,.543,.013,.898,.013,.227-.264,.492-.571,.723-.841h.963Zm17.106,.37c-.408-.408-.802-.802-1.203-1.203h-6.685c-.296-.277-.595-.558-.888-.833-.295,.276-.595,.557-.904,.846h-1.782c-.145,1.104-1.382,.532-1.894,1.199-.513,.669-1.581,.352-2.044,1.163-.082,.144-.516,.052-.753,.153-.214,.091-.557,.338-.532,.441,.071,.291,.36,.389,.645,.389,4.873-.003,9.747,0,14.62-.008,.119,0,.252-.073,.353-.147,.108-.078,.281-.223,.262-.296-.208-.799,.456-1.181,.804-1.703Zm2.433-4.28c-.059-.116-.188-.277-.29-.279-.831-.023-1.664-.013-2.496-.013-1.109,0-2.221-.034-3.327,.022-.306,.015-.432,.332-.333,.527,.059,.116,.19,.279,.29,.28,1.941,.017,3.883,.033,5.824-.009,.302-.007,.432-.333,.332-.527Zm14.903,2.208c1.108,.056,2.22,.022,3.331,.022s2.221,.007,3.332-.013c.101-.002,.231-.164,.289-.28,.098-.195-.033-.521-.335-.527-2.22-.039-4.442-.025-6.663-.009-.1,0-.231,.164-.29,.281-.098,.195,.03,.511,.336,.526Zm-8.46-.819c1.111,0,2.221,.007,3.331-.012,.103-.002,.228-.154,.298-.265,.121-.191,.009-.535-.298-.541-2.22-.043-4.442-.027-6.663-.012-.102,0-.227,.154-.298,.265-.121,.191-.013,.522,.299,.54,1.107,.062,2.22,.024,3.33,.024Zm17.081,4.487c-.379-.395-.776-.773-1.136-1.124h-14.245l-.921,.863c-.536,0-1.09-.015-1.641,.013-.103,.005-.25,.168-.284,.285-.06,.207,.106,.502,.4,.503,5.84,.022,11.68,.018,17.52,.005,.102,0,.226-.153,.298-.262,.046-.07,.058-.233,.01-.283Zm2.679-7.85c-1.238,.006-2.478-.025-3.714,.021-.295,.011-.446,.309-.375,.508,.042,.117,.174,.265,.284,.282,.266,.041,.544,.013,.81,.013,.308,.293,.603,.574,.901,.858,.821,0,1.649,.033,2.47-.028,.166-.012,.39-.364,.441-.592,.146-.654-.198-1.065-.817-1.062Zm16.993,2.287c.092,.092,.209,.225,.315,.226,2.485,.013,4.971,.021,7.456-.017,.151-.002,.385-.378,.425-.607,.07-.402,.031-.826,.016-1.239-.014-.401-.345-.648-.837-.648-1.243,0-2.486,0-3.749,0-.286,.271-.583,.553-.886,.841h-1.739c-.234,.255-.487,.589-.8,.853-.283,.239-.389,.405-.202,.593Zm-12.625-.859c.084,.1,.202,.243,.306,.243,1.928,.015,3.855,.011,5.97,.011,.177-.214,.41-.562,.71-.836,.265-.241,.389-.406,.234-.591-.084-.1-.202-.243-.306-.243-1.928-.015-3.855-.011-5.97-.011-.177,.214-.41,.562-.711,.836-.265,.241-.389,.406-.234,.591Zm13.967,6.418c-.068-.112-.196-.268-.298-.269-2.231-.015-4.462-.012-6.693-.012-2.51,0-5.02-.017-7.529,.022-.307,.005-.426,.345-.31,.538,.068,.112,.196,.268,.298,.269,4.741,.013,9.482,.021,14.223-.01,.306-.002,.426-.345,.31-.538Zm14.303,.857c-.056-.118-.19-.283-.289-.284-4.181-.014-8.362-.022-12.542,.008-.301,.002-.439,.327-.346,.524,.056,.118,.189,.283,.289,.284,1.951,.017,3.902,.013,5.853,.013,2.23,0,4.46,.017,6.689-.021,.303-.005,.44-.326,.346-.524Zm3.089-7.019h.811l.913-.864c.26,0,.538,.028,.805-.013,.11-.017,.249-.167,.284-.284,.063-.204-.099-.501-.392-.504-3.044-.028-6.088-.027-9.132,.009-.151,.002-.387,.378-.427,.607-.07,.403-.031,.827-.017,1.242,.014,.402,.348,.649,.843,.648,1.799-.004,3.598-.002,5.42-.002,.286-.269,.584-.55,.891-.839Zm6.653,4.222c-1.941-.04-3.883-.025-5.824-.008-.099,0-.231,.167-.286,.285-.091,.197,.041,.503,.347,.521,.967,.057,1.94,.021,2.911,.021s1.942,.009,2.912-.013c.1-.002,.232-.167,.286-.285,.091-.197-.045-.516-.346-.522Zm10.454-5.905c-1.831,0-3.613,0-5.289,0-.405,.327-.715,.785-1.041,.797-.635,.023-.981,.361-1.406,.718-.392,.331-1.103,.037-1.42,.61-.323,.584-1.036,.211-1.432,.597-.075,.073-.166,.22-.138,.288,.049,.12,.18,.284,.284,.289,.552,.029,1.106,.013,1.633,.013,.341,.318,.643,.6,.953,.889,2.506,0,5.026,.004,7.546-.012,.1,0,.267-.172,.287-.285,.216-1.219,.169-2.439,.022-3.905Zm16.485,5.077c-.111,.017-.248,.167-.285,.284-.065,.204,.097,.503,.39,.505,3.05,.029,6.1,.018,9.167,.018,.378-.387,.765-.783,1.252-1.281,0-.985,.005-2.082-.008-3.178-.001-.115-.111-.228-.171-.342-.294-.294-.584-.592-.883-.881-.237-.229-.928-.335-1.113-.101-.455,.575-1.046,.795-1.7,.833-.522,.522-1.012,1.012-1.491,1.491-.37,.174-.82-.024-1.14,.298-.489,.492-.98,.981-1.475,1.476h-.818c-.305,.285-.605,.565-.926,.865-.253,0-.532-.028-.8,.013Zm-6.679-.033c.448-.697,1.058-.924,1.765-.952,.496-.496,.989-.989,1.496-1.495,.505-.08,1.08-.037,1.415-.575,.273-.438,.714-.32,1.143-.341,.282-.269,.562-.576,.883-.832,.286-.228,.398-.409,.24-.595-.085-.1-.206-.241-.312-.242-3.903-.012-7.806-.01-11.69-.01-.404,.274-.486,.67-.425,1.091,.109,.76-.151,1.341-.846,1.804,0,.518-.048,1.072,.025,1.61,.027,.2,.337,.512,.523,.515,1.942,.038,3.885,.023,5.783,.023Zm18.044,6.304c-.693-.693-1.386-1.386-2.09-2.09h-3.353c-.292,.269-.596,.549-.9,.83-4.201,0-8.403,0-12.604,.001-.557,0-1.114,0-1.669,.038-.105,.007-.257,.171-.285,.287-.052,.213,.123,.498,.418,.499,5.312,.021,10.624,.016,15.771,.016,.462,.351,.781,.798,1.108,.804,1.1,.018,2.217,.198,3.307-.095,.117-.031,.2-.189,.3-.288Zm70.609-4.389c.009,.356,.376,.613,.861,.608,.408-.005,.817-.001,1.211-.001,.519-.377,.591-.875,.302-1.385-.189-.333-.664-.505-.683-.939-.018-.417-.074-.78-.444-1.027l-1.25,1.25c0,.433-.01,.964,.004,1.495Zm-31.874,.114c.163,.165,.324,.47,.486,.471,2.212,.016,4.424-.007,6.637-.039,.099-.001,.196-.184,.294-.282l.097-.998-1.701-1.385v-1.04c-.286-.303-.772-.581-.803-.894-.112-1.104-.062-1.116-1.175-1.226-.548,.373-1.067,.806-1.372,1.422-.111,.225-.08,.52-.114,.784-.49,.49-.981,.981-1.474,1.474-.014,.71-.256,1.308-.876,1.714Zm-26.34-1.32c-.35,.053-.634,.045-.871,.146-.208,.089-.535,.342-.509,.452,.07,.296,.363,.379,.655,.378,3.499-.006,6.999-.003,10.498-.005,.3,0,.599-.608,.537-.979-.046-.273-.166-.475-.395-.684-.19-.173-.389-.41-.438-.649-.107-.528,.176-1.145-.181-1.602-.339-.434-.799-.765-.676-1.406-.362-.41-.719-.825-1.093-1.224-.055-.058-.262-.08-.28-.05-.392,.674-1.193,.56-1.724,.911-.572,.378-1.007,.963-1.514,1.47h-.849c-1.063,1.091-2.136,2.192-3.159,3.242Zm-8.497,.819c.507-.954,1.882-.443,2.363-1.442,.06-.124,.507-.062,.893-.097,.807-.806,1.679-1.677,2.509-2.506,.35-.021,.621-.037,.892-.053,.393-.393,.786-.786,1.179-1.179,.011-.134,.033-.269,.031-.403-.007-.507-.266-.89-.604-.89-2.489-.002-4.978-.001-7.363-.001-.492,.483-.888,.872-1.277,1.254,0,1.681-.017,3.349,.027,5.015,.004,.157,.372,.383,.602,.434,.237,.052,.669,.012,.745-.131Zm22.058,5.574c-.249-.327-.609-.618-.708-.98-.106-.39-.065-.809-.458-1.078h-1.655c-.309-.289-.611-.571-.886-.828h-15.145c-.405,.614-.98,.914-1.714,.902-.406,.628-1.055,.777-1.727,.9-.113,.021-.2,.187-.299,.286,.222,.14,.441,.398,.665,.402,1.817,.033,3.636,.015,5.454,.026,.117,0,.234,.103,.351,.159,.198,.198,.396,.395,.675,.675,4.942,0,9.965,.005,14.988-.021,.164,0,.326-.307,.46-.442Zm2.246-4.621h4.904c.828-.758,1.541-1.412,2.192-2.009,.018-.385,.031-.658,.044-.93,.786-.786,1.575-1.568,2.352-2.363,.081-.083,.089-.238,.131-.36,0-.278,.028-.559-.005-.833-.106-.887-.204-1.04-.879-1.037-3.75,.017-7.501,.006-11.251,.019-.104,0-.26,.142-.299,.251-.089,.243-.16,.506-.165,.763-.009,.531-.141,1.108,.408,1.495,.374,.263,.522,.66,.412,1.071-.253,.95,.695,1.407,.823,2.16,.075,.439,.209,.763,.519,1.042,.299,.27,.599,.538,.815,.731Zm22.927,5.374c-.482-.504-.963-1.013-1.478-1.482-.501-.456-.86-1.082-1.51-1.33-4.078,0-8.126-.001-12.174,.005-.122,0-.245,.078-.367,.119-.494,.494-.987,.987-1.399,1.399-.438,.262-.919,0-1.212,.378-.365,.471-.802,.67-1.421,.65-.298-.01-.429,.331-.32,.526,.064,.114,.195,.273,.296,.273,6.421,.013,12.842,.013,19.262,0,.104,0,.229-.148,.303-.256,.048-.07,.068-.236,.022-.284Zm11.739-1.717c-.084-.1-.202-.243-.306-.243-2.203-.014-4.406-.028-6.609,.01-.296,.005-.434,.324-.347,.519,.053,.117,.176,.266,.286,.282,.269,.041,.547,.013,.817,.013,.302,.285,.599,.566,.896,.846h4.317c.177-.214,.41-.562,.711-.836,.265-.241,.389-.406,.234-.591Zm3.541-4.641c-.001-.121,.043-.295,.129-.357,.63-.454,.819-1.073,.703-1.805-.105-.665,.399-.969,.844-1.439,0-.467,.048-1.02-.025-1.557-.027-.2-.338-.519-.52-.519-6.691-.019-13.382-.007-20.073,.014-.099,0-.227,.171-.284,.289-.032,.068,.022,.228,.089,.284,.442,.372,.78,.781,.621,1.432,.568,.595,1.138,1.191,1.698,1.777,.028,.415-.065,.808,.323,1.147,.628,.549,1.186,1.177,1.76,1.758h11.743c.697,0,1.396-.024,2.092,.006,.761,.033,.907-.412,.901-1.031Zm13.432,7.322c-.371-.372-.751-.753-1.13-1.134-1.257-.015-1.815-1.065-2.603-1.769-.309-.277-.579-.597-.843-.872-1.718,0-3.387,0-5.056,0-.301,.28-.602,.56-.916,.852h-.905c-.161,.47-.231,1.023-.517,1.421-.4,.558-.96,1-1.452,1.492,.086,.098,.159,.216,.262,.29,.102,.072,.235,.142,.354,.143,4.033,.007,8.065,.005,12.098,.008,.283,0,.509-.116,.706-.429Zm6.732-2.84c-.006-.51-.25-.934-.533-.935-1.362-.002-2.724-.007-4.086,.012-.098,.001-.216,.167-.28,.281-.039,.07-.029,.224,.024,.278,.373,.387,.762,.759,1.133,1.123,.882-.296,1.177,.529,1.734,.827,.266-.015,.532-.031,.798-.047,.385-.385,.771-.77,1.156-1.156,.02-.128,.057-.256,.056-.384Zm2.282-4.46c.366-.387,.743-.784,1.049-1.108,.042-.656,.077-1.204,.112-1.751,.836-.416,.574-1.473,1.182-2.023,.103-.094,.22-.183,.293-.298,.216-.34,.153-.947-.034-1.14-.21-.217-.428-.254-.742-.253-5.164,.015-10.328,.011-15.486,.011-.104,.104-.267,.189-.291,.303-.246,1.17-.226,1.164,.621,2.571,.126,.209,.065,.529,.115,1.059,.491,.389,1.141,.904,1.654,1.311,.013,1.475,.028,1.471,1.106,1.478,1.256,.008,2.513,.002,3.769,.002,1.954,0,3.908,.006,5.863-.007,.258-.002,.514-.099,.79-.155Zm9.49,7.548c-.051-.117-.049-.274-.129-.358-.477-.499-.97-.981-1.459-1.469-.032-.263,.023-.586-.11-.778-.617-.889-1.346-1.684-2.284-2.251-.101-.061-.275-.029-.408-.005-.652,.117-.904,1.047-1.725,.847-.098-.024-.261,.065-.342,.151-.657,.69-1.301,1.391-1.95,2.088,.122,.631-.267,1.006-.675,1.381-.053,.049-.063,.211-.023,.281,.065,.114,.184,.274,.287,.279,.551,.027,1.104,.013,1.656,.013,.297,.281,.594,.562,.889,.841,1.937,0,3.869,0,5.802-.001,.27,0,.599-.727,.472-1.018Zm17.647-3.383c-.013-.396-.355-.644-.854-.642-1.251,.005-2.502,.002-3.748,.002-.302-.284-.601-.566-.893-.841-3.351,0-6.687-.002-10.023,.012-.101,0-.254,.154-.292,.267-.083,.246-.184,.528-.135,.766,.049,.237,.244,.467,.423,.652,.775,.797,1.568,1.577,2.356,2.366,.375,.096,.826,.094,1.111,.311,.433,.329,.764,.692,1.397,.712,.325,.011,.636,.457,1.029,.767h7.562c.453-.453,.816-.707,1.023-1.055,.191-.321,.09-.91,.333-1.088,.817-.602,.737-1.408,.711-2.228Zm50.913-1.503c.684,.068,1.38,.021,2.071,.021s1.383,.012,2.073-.013c.101-.004,.23-.166,.286-.284,.092-.195-.04-.512-.342-.522-1.381-.048-2.764-.027-4.146-.009-.099,.001-.23,.167-.286,.284-.092,.195,.034,.491,.343,.522Zm-24.375-.84c1.529,.046,3.06,.021,4.591,.021s3.061,.005,4.591-.013c.1-.001,.232-.165,.289-.282,.095-.197-.04-.522-.341-.525-3.06-.033-6.121-.023-9.182-.008-.099,0-.232,.165-.289,.283-.095,.197,.037,.515,.342,.525Zm-18.213,6.409c-1.262-1.261-2.523-2.521-3.784-3.781-.35,.35-.742,.742-1.155,1.155v1.634c-.285,.307-.564,.606-.844,.907,.084,.09,.166,.262,.268,.275,1.765,.233,3.534,.219,5.301,.011,.108-.013,.198-.185,.213-.201Zm10.146-4.131c-.008-.198-.31-.549-.481-.551-2.775-.034-5.55-.025-8.325-.009-.099,0-.222,.17-.285,.287-.037,.07-.012,.23,.045,.283,.581,.54,1.015,1.338,2.004,1.175,1.083,1.083,2.162,2.162,3.262,3.262h1.911c.214-.258,.618-.65,.898-1.116,.192-.319,.211-.742,.307-1.118,.905-.528,.696-1.414,.663-2.212Zm9.104,4.733c-1.461-1.475-2.931-2.942-4.399-4.411-.098,.059-.244,.095-.286,.181-.279,.578-.188,1.345-.882,1.711-.178,.629-.238,1.298-.858,1.738-.149,.106-.172,.518-.112,.753,.057,.225,.294,.573,.458,.577,1.937,.04,3.876,.03,5.814,.014,.1,0,.222-.165,.288-.28,.04-.07,.03-.229-.023-.283Zm11.932-3.441c-.033-.832-.205-1.03-.884-1.029-3.195,.002-6.391-.001-9.586,.013-.102,0-.226,.154-.297,.264-.045,.07-.055,.233-.007,.283,.678,.697,1.359,1.392,2.061,2.065,.287,.275,.626,.494,.942,.739,.821-.221,1.06,.841,1.735,.819,.668-.021,.954,.44,1.423,.862,.748,0,1.575,.033,2.396-.025,.19-.014,.423-.309,.521-.527,.104-.232,.072-.525,.1-.792,.491-.491,.982-.982,1.599-1.599,0-.518,.009-.796-.002-1.073Zm16.025,4.382c-.306-.27-.625-.527-.915-.814-.571-.567-1.592-.342-2.025-1.161-.038-.071-.246-.06-.376-.071-.138-.011-.277-.002-.628-.002-.426-.522-.947-1.16-1.374-1.683h-1.026c-.308-.29-.607-.57-.963-.905-.854,.452-1.092-.528-1.69-.774-.913,.141-1.918-.386-2.791,.381v1.573c-.202,.245-.34,.497-.55,.649-.42,.304-.296,.726-.325,1.141-.545,.572-1.102,1.157-1.653,1.735,.183,.292,.408,.406,.691,.406,4.297-.003,8.594,0,12.891-.006,.123,0,.261-.046,.367-.111,.115-.071,.2-.19,.368-.358Zm12.531-4.052c-.078-.211-.357-.495-.548-.495-3.606-.015-7.213,.005-10.819,.034-.099,0-.197,.184-.334,.321,.252,.28,.542,.538,.75,.851,.357,.537,1.013,.306,1.42,.598,.435,.313,.749,.688,1.382,.732,.623,.043,.915,1.03,1.738,.804,.314,.256,.628,.513,1,.817h2.516c.908-.908,1.9-1.869,2.843-2.877,.144-.154,.136-.554,.051-.785Zm14.305,4.114c-.282-.301-.563-.602-.831-.888-.02-.427,.097-.871-.343-1.142-.545-.335-.461-.925-.6-1.429-.032-.117-.188-.2-.318-.331-2.478,0-4.989-.011-7.498,.026-.165,.002-.375,.351-.473,.578-.103,.236-.096,.519-.138,.781-.79,.79-1.581,1.581-2.371,2.371,.2,.149,.399,.426,.6,.428,3.772,.026,7.544,.02,11.316,.014,.123,0,.259-.055,.365-.123,.115-.074,.201-.192,.294-.284Zm8.776-3.789c-1.928-.002-3.855-.015-5.782,.025-.159,.003-.388,.361-.442,.588-.056,.235-.018,.568,.117,.759,.315,.443,.714,.827,1.002,1.149,1.265,0,2.366,0,3.467,0,.296-.281,.592-.562,.884-.84,.144,0,.283,.007,.42-.001,.537-.034,.76-.225,.813-.672,.054-.45-.212-1.006-.479-1.007Zm66.789,8.072c-.138-.183-.301-.479-.468-.486-1.106-.043-2.213-.022-3.232-.022-.47-.484-.8-.903-1.462-.855-.836,.06-1.688,.082-2.516-.017-.35-.042-.659-.435-1.184-.809h-1.833c-5.322,0-10.644-.013-15.966,.016-.674,.004-.954-.454-1.386-.83h-3.308c-.315-.293-.618-.575-.93-.866h-2.488c-.311-.29-.613-.572-.928-.865h-1.636c-.222-.222-.39-.472-.624-.608-.561-.325-1.264-.272-1.759-.874-.347-.422-1.046-.164-1.586-.168-2.38-.017-4.762-.033-7.142,.009-.658,.012-.993-.368-1.464-.857-2.837,0-5.765-.005-8.692,.008-.253,.001-.506,.122-.76,.187-.494,.496-.989,.991-1.483,1.486-.282,0-.562,0-.842,0-.396,.396-.841,.756-1.176,1.198-.387,.51-.949,.433-1.445,.593-.119,.038-.201,.189-.3,.288,.205,.147,.403,.409,.616,.421,.837,.049,1.679,.02,2.52,.02,4.202,0,8.403,.015,12.605-.016,.658-.005,.991,.372,1.461,.857,3.118,0,6.327,.02,9.534-.016,.676-.008,.95,.462,1.383,.833h13.396c.314,.293,.616,.575,.926,.865h9.213c.31,.289,.612,.571,.851,.794,3.991,0,7.906,.002,11.821-.013,.099,0,.294-.258,.282-.273Z"/>
</svg>
