<?xml version="1.0" encoding="UTF-8"?>
<svg preserveAspectRatio="none" id="a" data-name="AW" xmlns="http://www.w3.org/2000/svg" width="500" height="34.17" viewBox="0 0 500 34.17">
  <path id="b" data-name="18" d="M500,29.556v2.459c-.733,.751-1.428,1.464-2.101,2.155h-2.57c-.327-.3-.635-.583-.96-.88h-7.632c-.438-.396-.735-.848-1.417-.84-3.134,.038-6.268,.018-9.402,.012-.127,0-.254-.071-.38-.109-.201-.201-.403-.403-.636-.636-1.08-.246-2.211-.033-3.331-.105-.974-.063-1.964,.16-2.913-.155-.212-.211-.413-.413-.657-.657h-8.471c-.331-.295-.642-.572-.987-.88h-10.185c-.323-.3-.631-.586-.948-.88h-8.505c-.328-.3-.637-.583-.962-.88h-6.779c-.234-.234-.436-.436-.637-.637-.117-.062-.23-.165-.352-.177-.282-.026-.569-.008-.854-.008-3.562,0-7.123,.001-10.685-.005-.127,0-.253-.072-.38-.111-.201-.201-.403-.403-.604-.604-.124-.045-.244-.109-.372-.13-.139-.023-.284-.005-.427-.005-2.707,0-5.414-.024-8.12,.017-.675,.01-.996-.405-1.43-.83h-8.474c-.331-.295-.642-.573-.986-.88h-7.616c-.327-.302-.636-.587-.954-.88h-11.068c-.329-.301-.638-.583-.962-.88h-15.327c-.234-.234-.436-.436-.692-.692-1.042-.32-2.174-.067-3.288-.12-.995-.048-1.994-.01-2.991-.01h-3.255c-.317-.317-.519-.519-.736-.736-.664-.247-1.373-.109-2.066-.112-4.274-.015-8.548-.022-12.821,.008-.67,.005-1.006-.387-1.406-.828h-24.74c-.331-.294-.642-.571-.988-.879h-29.85l-.941-.877h-27.317c-.323-.298-.631-.582-.953-.879h-25.588c-.439-.388-.729-.843-1.412-.842-14.531,.02-29.062,.015-43.593,.015h-3.569c-.538-.382-.858-.795-1.208-.822-1.133-.087-2.277-.033-3.417-.033-20.087,0-40.174,.002-60.261-.009-.691,0-1.405,.169-2.073-.145-.11-.052-.26-.212-.243-.291,.024-.117,.175-.284,.284-.293,.696-.06,1.395-.112,2.093-.112,10.827-.006,21.654-.011,32.481,.011,.684,.001,.973-.455,1.412-.842h12.827l.89,.823h65.789c.311,.29,.619,.577,.939,.875h31.561c.344,.307,.654,.585,.982,.878h50.364c.435,.416,.751,.833,1.427,.831,8.69-.024,17.38-.02,26.07-.01,.837,0,1.684-.117,2.507,.116,.207,.207,.408,.408,.61,.61,.125,.041,.251,.118,.376,.118,1.425,.009,2.849,.005,4.274,.005,3.134,0,6.269,.021,9.402-.017,.679-.008,.988,.425,1.424,.835h11.9c.327,.296,.637,.576,.973,.88h16.182c.322,.297,.631,.582,.953,.879h8.512c.214,.214,.416,.415,.617,.617,.111,.075,.217,.202,.335,.215,.281,.032,.569,.01,.854,.01h7.584c.476,.45,.786,.883,1.465,.872,2.563-.042,5.128-.018,7.693-.011,.125,0,.25,.079,.375,.121,.201,.202,.403,.403,.604,.604,.125,.041,.251,.119,.376,.119,2.992,.007,5.983,.005,9.051,.005,.27,.229,.585,.495,.965,.818h9.29c.327,.296,.637,.577,.973,.88h6.78c.322,.297,.631,.582,.954,.88h9.365c.215,.215,.416,.416,.618,.618,.112,.075,.217,.2,.336,.214,.281,.032,.569,.01,.853,.01h9.294c.278,.278,.48,.48,.681,.681,.118,.058,.237,.166,.355,.166,3.134,.009,6.268,.01,9.403,.002,.267,0,.542-.055,.799-.133,.119-.036,.282-.193,.279-.29-.003-.104-.174-.283-.281-.29-1.121-.076-2.243-.124-3.502-.187-.211-.179-.525-.446-.904-.768h-5.873c-.327-.297-.637-.578-.97-.88h-5.075c-.32-.295-.63-.58-.955-.88h-5.086l-.619-.619c-.112-.074-.215-.178-.338-.212-.132-.037-.283-.008-.425-.008h-7.152c-.282-.282-.483-.483-.731-.732-1.055-.298-2.186-.065-3.303-.114-.995-.044-1.994-.009-2.991-.009h-3.234c-.333-.332-.534-.534-.736-.735-.126-.04-.252-.114-.378-.114-1.852-.007-3.704-.005-5.628-.005-.272-.232-.586-.5-.962-.821h-7.587c-.326-.297-.635-.579-.966-.88h-12.773c-.319-.294-.628-.579-.954-.879h-12.777c-.217-.217-.418-.418-.62-.62-.112-.073-.216-.177-.338-.211-.132-.037-.283-.008-.425-.008h-13.989c-.476-.459-.793-.881-1.47-.872-2.849,.04-5.698,.018-8.547,.011-.124,0-.249-.082-.373-.126-.201-.201-.403-.403-.604-.604-.126-.04-.251-.111-.378-.114-.57-.012-1.14-.005-1.709-.005h-7.693c-.285,0-.575-.034-.854,.007-.682,.101-.984-.424-1.421-.827h-17.887c-.326-.296-.635-.577-.968-.88h-15.334l-.954-.879h-11.043c-.34-.305-.65-.584-.979-.88h-19.591c-.435-.416-.75-.834-1.426-.832-6.838,.026-13.676,.021-20.514,.009-.694-.001-1.402,.127-2.071-.107-.215-.215-.416-.417-.631-.631-.671-.228-1.378-.103-2.073-.104-6.838-.011-13.676-.017-20.514,.009-.678,.003-.988-.423-1.424-.834h-23.012c-.327-.295-.637-.575-.975-.879h-41.82c-.324-.298-.633-.583-.932-.859h-17.066c-.331,.302-.641,.583-.964,.878h-52.083c-.438,.397-.736,.839-1.417,.838-14.104-.021-28.207-.016-42.311-.016h-3.264c-.311,.311-.513,.513-.714,.715-.266,.047-.531,.134-.797,.134-6.411,.008-12.822-.004-19.232,.021-.666,.003-1.014-.369-1.404-.824H15.837c-.333-.294-.645-.57-1.019-.901-4.762,0-9.6,.009-14.438-.02-.309-.002-.447-.335-.347-.537,.059-.119,.195-.284,.298-.285,2.278-.016,4.557-.012,6.808-.012,.327-.302,.635-.586,.958-.884h4.181c.367-.317,.68-.587,.899-.776,.679-.061,1.232-.11,1.786-.159,.536-.902,1.427-.682,2.252-.778,.354-.041,.666-.452,1.108-.777h5.808c.333-.295,.644-.572,.991-.88h11.041c.321-.299,.629-.586,.944-.879h11.073l.957-.88h11.908c.438-.393,.732-.848,1.415-.841,3.419,.036,6.838,.018,10.257,.012,.127,0,.254-.07,.381-.107,.201-.201,.403-.403,.62-.62,.662-.255,1.371-.114,2.064-.115,6.268-.013,12.537-.018,18.805,.007,.667,.003,1.012-.374,1.405-.825h26.451c.332-.294,.644-.569,.995-.879h24.763c.274,.255,.581,.543,.894,.834h57.242c.315,.294,.623,.581,.941,.879h20.465c.441,.375,.718,.85,1.406,.847,5.841-.028,11.682-.016,17.523-.016h2.435c.478,.489,.814,.883,1.485,.872,2.564-.042,5.128-.017,7.693-.017,3.419,0,6.838-.003,10.257,.004,.409,0,.817,.053,1.156,.076,.267,.267,.469,.469,.775,.775h7.545c3.277,0,6.553,.021,9.83-.017,.687-.008,.968,.465,1.421,.844h15.321c.321,.298,.629,.583,.95,.88h10.221c.316,.295,.623,.582,.942,.879h13.636l.626,.626c.114,.069,.223,.185,.343,.198,.282,.029,.569,.009,.854,.009,4.986,0,9.972,0,14.958,.004,.13,0,.259,.058,.395,.09,.385,.388,.717,.784,1.388,.777,3.419-.036,6.838-.019,10.257-.013,.409,0,.818,.052,1.158,.075,.266,.266,.468,.468,.773,.773,1.304,.007,2.715,.002,4.125,.003,1.282,0,2.566,.04,3.846-.016,.688-.03,.973,.456,1.413,.843h11.911c.322,.298,.63,.583,.951,.88h12.785c.316,.295,.623,.582,.942,.879h12.782c.222,.223,.424,.424,.695,.695,1.02,.351,2.153,.079,3.264,.126,1.28,.055,2.564,.013,3.846,.013h3.288c.294,.294,.495,.496,.706,.706,.953,.301,1.943,.088,2.918,.149,.835,.053,1.683-.126,2.498,.137,.208,.208,.409,.409,.718,.718,1.729,0,3.568,.032,5.404-.017,.687-.018,.973,.458,1.412,.844h8.492c.322,.298,.63,.583,.95,.88h7.657c.316,.295,.624,.582,.943,.88h4.232c.224,.224,.425,.425,.645,.645,.927,.387,1.919,.134,2.889,.179,.84,.039,1.683,.008,2.428,.008,.298,.297,.499,.499,.788,.788,1.713,.186,3.542-.049,5.258,.128,.287,.287,.488,.488,.793,.793,.88,0,1.862,.004,2.846-.002q.517-.003,1.405,.831h2.515c.32,.299,.628,.585,.945,.881h2.532c.316,.295,.623,.582,.943,.88h4.228c.227,.227,.428,.428,.698,.698,.598,.071,1.271,.15,1.945,.23,.385,.402,.727,.87,1.396,.76,.758-.125,1.383,.099,1.831,.804h1.662c.336,.295,.647,.569,1.003,.881h1.633c.32,.298,.627,.585,.944,.881h.735c1.057,1.057,2.061,2.061,3.072,3.072ZM105.436,16.245c-3.978-.034-7.956-.023-11.934-.023s-7.956-.002-11.934,.012c-.104,0-.234,.157-.305,.271-.122,.196-.002,.549,.31,.551,7.956,.028,15.912,.023,23.868,.011,.104,0,.234-.157,.305-.271,.122-.196,.003-.547-.31-.55Z"/>
</svg>
