<?xml version="1.0" encoding="UTF-8"?>
<svg preserveAspectRatio="none" id="a" data-name="AW" xmlns="http://www.w3.org/2000/svg" width="500" height="39.465" viewBox="0 0 500 39.465">
  <path id="b" data-name="27" d="M500,7.226v4.813c-.415,.498-.946,.808-.976,1.579-.03,.787-.156,.793-1.359,.815-.349,.321-.697,.642-1.058,.975h-.904c-.375,.341-.723,.658-1.092,.992h-1.765c-.47,.359-.802,.773-1.218,.888-.447,.123-.93,.073-1.238,.525v.707c-1.591,1.589-3.058,3.056-4.601,4.598-.17,.016-.479,.045-.788,.075-.908,.908-1.816,1.817-2.724,2.725q-1.06,.154-1.996,1.032h-1.896c-.36,.331-.708,.652-1.077,.992h-1.872c-.246,.246-.472,.473-.7,.7-.127,.082-.253,.235-.38,.235-3.84,.013-7.681,.01-11.428,.01-.537-.521-.895-1.085-1.659-.971-.314,.047-.641,.012-.962,.007q-.7-.011-2.064-.83c-.362-.217-1.03-.188-1.302,.078-.574,.561-1.137,1.133-1.713,1.709h-1.235c-.466,.596-1.053,1.347-1.486,1.901-.626,.068-.934,.101-1.241,.134-.568,.568-1.135,1.135-1.757,1.757-.408,.021-.873,.048-1.339,.069-.16,.007-.367-.063-.473,.013-.379,.269-.692,.644-1.093,.864-.249,.137-.668-.03-.911,.11-.401,.232-.722,.603-1.101,.937h-10.55c-.346-.323-.692-.646-1.052-.982h-3.772c-.395-.349-.746-.66-1.122-.992h-1.87c-.506-.725-1.16-1.08-1.887-.96-.68-.681-1.248-1.248-1.815-1.816-.312-.021-.625-.042-1.029-.069-.957-.954-1.963-1.958-2.892-2.884-.314,0-.475-.01-.635,.002-.794,.059-1.061,1.221-2.009,.962-.883,.422-1.404,1.254-2.117,1.872-.311,.018-.624,.037-.969,.057-.329,.307-.675,.63-1.031,.963h-.944c-.228,.228-.436,.48-.686,.677-.594,.467-.908,1.322-1.89,1.263-.688-.042-.874,.852-1.526,.952-.299,.045-.756,.016-.864,.191-.652,1.063-1.673,.714-2.656,.775-.312,.275-.663,.585-1.06,.935h-3.771c-.359,.336-.706,.659-1.062,.992h-2.846c-.363,.336-.711,.657-1.004,.928h-19.278c-.258-.258-.485-.485-.817-.817-.341-.031-.795-.069-1.249-.116-.305-.032-.765,.033-.886-.138-.51-.714-1.282-.794-2.012-1.002-.545-1.106-2.146-.53-2.7-1.686-.065-.135-.595-.047-1.164-.075-.183-.223-.446-.636-.798-.951-.399-.358-.408-.787-.482-1.258-.084-.538-.452-.711-1.039-.669-.658,.047-.753,.137-.862,.862-.024,.157-.004,.321-.004,.481q-1.256,1.353-2.594,1.733c-.568,.568-1.135,1.135-1.722,1.722h-.909c-.368,.34-.716,.661-1.075,.992h-1.875c-.371,.339-.72,.657-1.005,.918h-17.351c-.494-.448-.826-.978-1.598-.946-1.425,.059-2.856,.035-4.162,.007-.345-.345-.573-.572-.817-.817-.748-.28-1.547-.066-2.327-.137-.617-.056-1.262,.166-1.841-.177-.235-.236-.463-.463-.737-.737h-1.84c-.373-.333-.723-.646-1.111-.992h-2.811c-.703-.668-1.39-1.321-2.049-1.947-.524,0-1.023,.07-1.325-.418-.388-.629-1.085-.485-1.63-.663-1.719-1.719-3.422-3.422-5.125-5.125-.018-.313,.02-.644-.069-.936-.112-.364-.377-.514-.607-.411-.136,.061-.308,.206-.327,.334-.047,.314-.015,.639-.015,.957-.911,.911-1.839,1.8-2.71,2.743-.174,.188-.127,.581-.181,.879-.059,.136-.084,.305-.181,.404-1.355,1.37-2.719,2.729-4.082,4.092-.311,.024-.622,.048-.991,.077-.654,.622-1.34,1.276-2.017,1.92-.475,.03-.961-.106-1.314,.378-.176,.241-.471,.395-.712,.588-.482,0-.964-.008-1.445,.004-.147,.004-.311,.033-.435,.104-.134,.078-.261,.202-.341,.335-.528,.886-1.957,.219-2.325,1.358-.149,.043-.292,.12-.436,.12-4.014,.006-8.027,.005-12.115,.005-.31-.267-.663-.572-1.078-.929h-2.783l-1.077-.992h-.918c-.356-.333-.703-.656-1.063-.992h-1.88c-.591-.591-1.158-1.159-1.726-1.726-1.171-.118-1.97-.79-2.586-1.736-.026-.31-.053-.62-.08-.93-.908-.908-1.817-1.816-2.727-2.727,.109-.889-.382-1.474-1.048-2.003,0-.296,.03-.618-.014-.928-.018-.13-.177-.264-.304-.345-.08-.052-.277-.058-.326-.002-.908,1.033-2.291,1.73-2.392,3.34-.681,.681-1.32,1.414-2.063,2.019-.317,.258-.849,.251-1.284,.364-1.703,1.703-3.428,3.385-5.094,5.122-.487,.507-1.058,.566-1.583,.592-.643,.643-1.211,1.211-1.826,1.826h-1.839c-.374,.333-.724,.646-1.112,.992h-11.521c-.322-.299-.669-.622-1.026-.953h-1.878c-.37-.339-.718-.657-1.085-.992h-1.859c-.605-.605-1.172-1.173-1.756-1.756-.53-.215-1.157-.112-1.647-.648-1.191-1.301-2.479-2.514-3.728-3.763-.02-.313-.039-.626-.061-.973-.305-.327-.628-.674-.961-1.03v-.947c-.454-.453-.908-.906-1.279-1.276-1.9,1.9-3.802,3.802-5.508,5.508-.675,.055-.986,.08-1.357,.11-.652,.62-1.339,1.274-2.041,1.942h-.86c-.416,.345-.777,.644-1.138,.943-.951-.265-1.283,.827-2.013,.937-.785,.118-1.601,.027-2.522,.027-.287,.231-.645,.519-1.073,.864-.05,.015-.193,.094-.336,.094-3.211,.007-6.422,.005-9.632,.005-.16,0-.363,.063-.474-.011-.387-.257-.742-.561-1.198-.917h-1.782c-.365-.336-.713-.655-1.08-.992h-.917c-.356-.332-.703-.655-1.039-.969-.333-.016-.648-.03-.963-.046-2.384-2.384-4.768-4.768-7.167-7.167v-.92c-.336-.364-.657-.713-.992-1.076v-.877c-.34-.4-.764-.715-.916-1.13-.153-.414,.025-.948-.394-1.21-1.579,1.58-3.15,3.151-4.377,4.378-.868,.429-1.389,.199-1.76,.572-1.814,1.818-3.632,3.633-5.448,5.45-.308,.033-.615,.065-1.241,.132-.433,.554-1.021,1.306-1.487,1.902h-1.233c-.577,.577-1.144,1.144-1.775,1.775-.689,.08-1.447,.169-2.181,.255-.25,.25-.477,.477-.704,.704-.14,.049-.28,.142-.42,.142-3.853,.008-7.706,.006-11.559,.006-.161,0-.364,.063-.474-.011-.382-.261-.694-.732-1.1-.824-.78-.178-1.557-.247-1.881-1.074h-1.031c-.704-.668-1.391-1.321-2.042-1.939-.373-.032-.683-.059-.993-.086-.454-.454-.908-.908-1.363-1.362,0-.321,0-.642,0-.986-.646-.482-1.018-1.082-1.067-1.96-.021-.372-.69-.672-.825-1.083-.141-.428-.04-.928-.488-1.247-.42-.3-.584-.728-.508-1.231,.131-.864-.177-1.512-.835-2.079-.173-.149-.034-.614-.151-.885-.097-.224-.36-.377-.615-.626-3.515,3.515-7.03,7.03-10.58,10.58-.247,.012-.562,.027-.876,.043-.454,.454-.937,.884-1.355,1.368-.628,.727-1.857,.39-2.332,1.356-.624,.054-1.249,.108-2.008,.173-.251,.218-.603,.523-1.014,.879h-10.565c-.295-.273-.642-.594-1.004-.929h-1.884c-.357-.333-.703-.656-1.063-.992h-1.888c-.505-.702-1.143-1.087-1.998-1.044-1.706-1.706-3.408-3.408-5.114-5.114,.12-.895-.389-1.47-1.032-1.991v-.931c-.334-.362-.655-.711-.992-1.077v-2.831c-.243-.409-.466-.478-.698-.245-1.134,1.137-2.24,2.304-3.426,3.383-.294,.268-.848,.25-1.283,.363-1.703,1.703-3.428,3.384-5.094,5.122-.487,.508-1.063,.555-1.583,.592-.643,.643-1.211,1.211-1.781,1.781-.88-.091-1.479,.37-1.994,1.036h-.918c-.367,.339-.716,.66-1.077,.992h-.96c-.467,.693-1.114,1.061-1.966,1.033-.513,.682-1.159,.959-2.044,.907-.938-.056-1.897-.145-2.826,.109-.232,.232-.459,.459-.686,.687-.301,.048-.602,.136-.904,.138-2.89,.01-5.779,.009-8.669-.002-.134,0-.268-.121-.401-.186-.227-.227-.454-.454-.725-.725h-1.757c-.756-.37-1.102-1.367-2.097-1.006-.35-.323-.698-.644-1.061-.979h-.917c-.813-.81-1.609-1.603-2.404-2.394,0-.325,0-.646,0-.967-.909-.908-1.817-1.816-2.766-2.765-.088-.729-.257-1.479-.981-1.944-.023-.825-.399-1.435-1.009-1.998-1.178-1.089-2.283-2.257-3.455-3.429-2.485,2.5-4.97,4.999-7.455,7.499-.369,.371-.893,.138-1.318,.354-2.143,2.143-4.3,4.3-6.473,6.473-.513,.255-1.174,.084-1.646,.649-.718,.858-1.557,1.615-2.326,2.395h-.977c-.364,.336-.711,.656-1.003,.926H4.254c-.26-.26-.451-.613-.721-.692-1.066-.312-2.097-.629-2.656-2.303,.007,.104,.149-.384-.336-.736-.241-.175-.397-.47-.541-.649v-2.862c.276-.276,.658-.477,.703-.735,.167-.972,.64-1.711,1.385-2.327,.37-.305,.64-.753,1.04-.993,.37-.221,.856-.25,1.29-.363,.908-.908,1.816-1.816,2.742-2.742h.964c2.713-2.714,5.451-5.419,8.14-8.17,.495-.506,1.085-.502,1.584-.59,2.913-2.914,5.751-5.752,8.595-8.595h6.732c.344,.321,.691,.645,1.025,.957,.336,.016,.651,.032,.965,.047,.454,.454,.959,.869,1.349,1.373,.444,.575,1.103,.459,1.582,.594,1.098,1.098,2.12,2.12,3.158,3.158,.204,.534,.108,1.159,.647,1.646,1.181,1.067,2.271,2.235,3.323,3.287,.042,.445,.07,.754,.099,1.063,.568,.568,1.135,1.135,1.719,1.719,.184,.543,.078,1.188,.652,1.644,.624,.496,1.148,1.119,1.724,1.695,1.079,.311,2.194,.116,3.295,.147,1.123,.032,2.247,.007,3.473,.007,.296-.244,.652-.538,1.048-.865,.246-.028,.563-.131,.857-.086,.897,.138,1.523-.248,2.025-.952h2.132c.779-.833,1.614-1.807,2.548-2.676,.29-.269,.847-.251,1.281-.364,2.497-2.498,4.995-4.995,7.492-7.493,.308-.03,.617-.061,1.068-.105,1.047-1.047,2.207-2.143,3.285-3.314,.481-.522,1.077-.522,1.584-.591,1.551-1.551,3.019-3.035,4.508-4.498,.444-.436,.945-.813,1.419-1.217,1.065,.286,1.419-1.267,2.491-.964,.368-.284,.736-.569,1.198-.926h2.82c.284,.26,.633,.578,1.003,.917h.956c.769,.792,1.55,1.597,2.379,2.452v1.825c.337,.36,.661,.706,.978,1.045v1.897c-.338,.368-.657,.716-.921,1.004v11.573c.489,.489,.943,.943,1.404,1.404h.939c.356,.332,.703,.655,1.017,.948h7.705c.839-.775,.996-.856,2.008-1.043,2.838-2.838,5.661-5.691,8.528-8.499,.505-.494,.518-1.078,.635-1.89,1.481-1.481,3.062-3.061,4.721-4.721,.016-.163,.047-.472,.078-.78,.908-.908,1.817-1.816,2.725-2.725,.025-.311,.049-.622,.074-.94,.675-.584,.976-1.705,2.186-1.543,.362-.288,.7-.616,1.094-.853,.386-.233,.931,.031,1.298-.351,.223-.231,.453-.455,.701-.703h1.922c.319,.297,.666,.62,1.022,.951h.939c.803,.803,1.597,1.598,2.396,2.397v.94c.333,.357,.656,.703,.992,1.063v1.88c.251,.251,.478,.478,.721,.721,.423,.885,.171,1.846,.207,2.778,.044,1.122,.01,2.247,.01,3.371v2.741c.332,.332,.559,.559,.795,.795,.325,.914,.18,1.873,.147,2.807-.031,.861,.209,1.489,.839,2.088,.277,.263,.17,.891,.391,1.261,.239,.401,.658,.695,1.011,1.047,.567,.37,1.225,.081,1.826,.208,.276,.059,.581,.248,.756,.471,.479,.608,1.128,.414,1.737,.487,.767,.092,1.118-.463,1.608-.931h1.864c.7-.665,1.387-1.318,2.089-1.985h1.049c3.807-3.807,7.662-7.662,11.55-11.55,1.206-.03,1.214-.039,1.33-1.454,.924-.925,1.928-1.931,2.869-2.872,.035-.428,.061-.738,.087-1.049,.454-.454,.908-.908,1.365-1.365h.941c.357-.333,.703-.656,1.008-.941h4.863c.455,.742,1.207,.851,1.955,1.097,.552,.181,.954,.818,1.366,1.199v1.096c.697,.466,1.056,1.118,1.034,1.967,.684,.513,.955,1.161,.904,2.045-.054,.938-.147,1.897,.111,2.824,.233,.233,.46,.46,.75,.749,.024,.397,.097,.863,.067,1.323-.035,.529,.157,.926,.555,1.217,.46,.336,.302,.848,.454,1.263,.152,.414,.577,.729,.917,1.128v.929c1.133,1.109,2.277,2.229,3.45,3.378h.882c.362,.335,.709,.656,1.037,.96,2.443,0,4.851,.001,7.259-.003,.152,0,.304-.039,.455-.06,.227-.227,.446-.463,.683-.679,.464-.422,1.238-.038,1.658-.673,.26-.394,.666-.691,1.007-1.032,.113-.113,.21-.292,.344-.327,.296-.078,.61-.082,.751-.098,2.229-2.229,4.366-4.366,6.594-6.594,.016-.141-.055-.529,.107-.738,.389-.504,.904-.909,1.334-1.385,.197-.218,.483-.541,.439-.76-.19-.96,1.044-1.166,.994-2.015-.009-.16-.001-.321-.001-.325,1.88-1.88,3.682-3.682,5.533-5.533,.62,.141,1.084-.266,1.475-.769,.606-.379,1.255-.127,1.868-.209,.849-.113,1.561,.095,2.067,.828,.782,.106,1.438,.377,2.009,.999,.467,.509,.586,1.054,.581,1.591,.643,.643,1.211,1.211,1.831,1.831v5.685c.332,.376,.641,.727,.992,1.125v8.699c.439,.373,.925,.785,1.534,1.302,.104,.015,.416,.13,.708,.091,.88-.117,1.54,.195,2.043,.939h6.795c.284-.259,.632-.577,1.004-.916h.924c2.716-2.735,5.43-5.466,8.196-8.25v-.796c1.969-1.967,3.896-3.893,5.785-5.781v-1.182c.291-.258,.676-.55,.998-.9,.241-.262,.468-.481,.784-.436,.546,.077,.909-.204,1.202-.583,.226-.293,.462-.446,.808-.388,.794,.133,1.032-.613,1.536-.963h2.857c.356,.332,.702,.655,1.03,.961,.346,.021,.66,.04,.7,.043,1.272,1.272,2.398,2.398,3.604,3.603q.081,.749,.761,1.469c.459,.903-.062,1.88,.544,3.377-.132-.165,.155,.194,.483,.606,.033,.226,.148,.538,.109,.829-.116,.88,.193,1.541,.938,2.044v1.964c.657,.657,1.359,1.306,1.994,2.014,.368,.411,.835,.326,1.261,.468,.415,.138,.735,.561,1.133,.888,.258,.012,.573,.027,.905,.042,.337,.314,.683,.637,1.026,.957h8.638c.366-.337,.714-.657,1.078-.992h1.864c2.078-2.078,4.121-4.121,6.167-6.167-.172-.922,.423-1.453,1.022-1.984v-.987c.785-.778,1.592-1.561,2.375-2.365,.208-.214,.392-.477,.506-.751,.113-.274,.124-.591,.18-.888,1.363-1.362,2.725-2.724,4.087-4.087,.31-.027,.673,.039,.918-.102,.402-.229,.727-.593,1.122-.931h2.838c.336,.31,.685,.631,1.052,.969h.708c1.271,1.227,2.419,2.335,3.559,3.436,.024,.327-.076,.786,.09,.924,.649,.539,.779,1.267,1.049,1.992,.197,.53,.93,.848,.789,1.598,.445,.868,1.263,1.401,1.906,2.134v.908c.721,.579,1.051,1.696,2.253,1.517,.358,.299,.683,.656,1.083,.881,.385,.216,.935-.07,1.298,.354,.208,.243,.451,.457,.682,.688h1.904l1.062,.992h2.843c.251,.251,.478,.478,.755,.754,.683,.41,1.492,.116,2.263,.175,.624,.048,1.254,.01,1.776,.01,.333,.333,.56,.56,.796,.795,.913,.323,1.868,.125,2.808,.161,.801,.032,1.605,.007,2.408,.007h2.66c.389,.389,.616,.616,.904,.904h2.92c.243-.211,.595-.517,1.005-.872h2.807c1.105-1.167,2.203-2.328,3.43-3.624v-.685c.336-.364,.657-.713,.992-1.076v-.924c2.057-2.057,4.101-4.1,6.197-6.196h5.586c1.487,1.487,2.952,2.953,4.576,4.577v1.602c.331,.355,.655,.701,.992,1.063v1.87c.407,.499,.951,.801,.978,1.575,.027,.788,.153,.794,1.363,.823,.341,.317,.688,.64,1.043,.971h2.842c.369,.338,.717,.657,1.004,.919h7.716c.494-.448,.825-.992,1.598-.945,1.103,.068,2.214,.017,3.187,.017,.357-.357,.584-.584,.88-.879,.389-.025,.858-.117,1.312-.07,.76,.078,1.134-.435,1.587-.93h3.694c.776-.357,1.114-1.371,2.114-1.008,.687-.653,1.374-1.305,2.026-1.925,.372-.032,.832,.063,.967-.105,.533-.662,1.284-.757,1.992-1.046,.548-.224,.927-.862,1.381-1.316,1.249-1.249,2.497-2.498,3.746-3.746,.019-.313,.037-.627,.057-.972,.307-.329,.63-.675,.963-1.032v-.944c.796-.796,1.59-1.591,2.396-2.396h.931c.361-.332,.709-.653,1.039-.957h3.84c.245,.245,.442,.516,.705,.69,.62,.413,1.489,.252,2.005,1.013,.437,.645,1.096,1.139,1.643,1.686v1.926c.261,.261,.488,.488,.817,.817,.031,.344,.067,.799,.115,1.253,.032,.305-.017,.8,.139,.881,1.119,.575,.609,2.055,1.66,2.738,.922,.599,1.616,1.548,2.422,2.355,.763,.23,1.559,.079,2.345,.107,.6,.021,.599,.009,1.59,.936h7.725c.626-.596,1.313-1.25,1.987-1.892,.336-.017,.65-.033,.965-.049,.454-.454,.968-.864,1.347-1.374,.442-.596,1.129-.401,1.643-.653,.925-.925,1.833-1.833,2.741-2.742,.642,0,1.284,0,1.908,0,.356-.332,.703-.656,1.004-.938h5.788c.254,.254,.481,.481,.708,.708,1.029,.564,2.181-.033,3.24,.343,.428,.442,.807,.944,1.566,.862,.615-.066,1.186-.035,1.736,.473,.828,.765,1.091,.694,1.962-.091,.119-.107,.228-.226,.369-.367h3.802c.36-.336,.707-.66,1.063-.992,.304,0,.624,0,.945,0,.908-.909,1.816-1.817,2.725-2.725,.138-.055,.271-.133,.414-.161,1.189-.229,1.2-.236,1.23-1.483,1.022-1.022,2.035-2.052,3.069-3.061,.448-.437,.939-.828,1.41-1.24,.739,.141,1.166-.331,1.592-.807,1.019-.038,1.707-.636,2.328-1.36,.208-.243,.451-.456,.699-.704h.913c.365-.339,.712-.661,1.05-.976h4.81q.94,.885,1.994,1.03c.454,.454,.908,.908,1.366,1.367v.94c.333,.357,.657,.703,.944,1.011Z"/>
</svg>
