<?xml version="1.0" encoding="UTF-8"?>
<svg preserveAspectRatio="none" id="a" data-name="AW" xmlns="http://www.w3.org/2000/svg" width="500" height="28.603" viewBox="0 0 500 28.603">
  <path id="b" data-name="25" d="M490.249,14.295h-4.12c-.53-.754-1.203-1.163-2.143-.994-.32,.058-.646,.08-.97,.119-.6,.6-1.2,1.2-1.799,1.8-1.095,.171-1.103,.176-2.132-.861h-3.069c-.309,.285-.676,.623-1.063,.98h-.988c-.359-.337-.725-.679-1.061-.995h-4.075c-.499,.499-.979,.979-1.485,1.486v2.045c.301,.321,.643,.687,.994,1.062v1.511c-.171,0-.406,.071-.501-.014-.504-.455-.972-.949-1.497-1.474v-2.981c-.354-.39-.689-.76-1.039-1.146-.069-1.437-.136-1.521-1.305-1.527-1.02-.005-2.04-.004-3.059,0-.428,.002-.718,.353-.744,1.066-.014,.372-.061,.661-.548,.933-1.051-.95-1.998-2.091-3.123-3.022-.343,.023-.674,.045-1.005,.068-.419,1.166-1.848,.609-2.484,1.464,0,.484-.043,.996,.014,1.496,.045,.394-.008,.692-.353,.878-.23,.124-.444-.048-.727-.366-.451-.507-.954-.969-1.434-1.449-.333-.017-.666-.033-1.018-.051-.355-.329-.721-.667-1.068-.99-.376,.33-.752,.66-1.128,.991-.761-.148-1.238,.274-1.723,.782-.379,.397-.895,.274-1.37,.103-.599-.599-1.2-1.2-1.853-1.853h-2.01c-.189,.153-.501,.317-.687,.572-.373,.513-.889,.365-1.386,.398-.361-.337-.728-.68-1.087-1.015h-4.048c-.39,.358-.758,.696-1.062,.975h-2.047c-.798-.688-1.338-1.58-2.342-2.027-.604,.031-1.258,.065-1.806,.094-.567,.602-1.024,1.086-1.378,1.462v2.092c1.282,1.329,1.271,1.345,.435,2.478-.481-.481-.962-.961-1.442-1.442q-.156-1.395-1.741-1.741c-.601-.601-1.202-1.202-1.804-1.804-.202,.193-.515,.356-.576,.587-.078,.293-.048,.696,.103,.956,.843,1.455,1.017,1.808,.869,2.69-.045,.271-.336,.501-.515,.75-.481-.481-1.054-.901-1.421-1.457-.529-.804-1.652-.261-2.114-1.059,.341-.366,.683-.733,.98-1.051v-1.945c-.896-.943-1.712-1.803-2.478-2.609h-2.217c-.35,.862-1.144,1.001-1.997,1.122-.362,.051-.4,.465-.438,.82-.09,.835-.316,1.108-.645,.947-.364-.178-.39-.477-.378-.87,.02-.657-.308-1.011-.794-1.013-1.19-.005-2.379-.004-3.569,0-.401,.001-.67,.469-.726,1.108-.056,.636,.272,1.368-.456,1.895-1.555-1.217-2.727-2.871-4.236-4.007-1.408-.211-1.714,1.003-2.441,1.609-.406,.994,.72,1.329,.841,1.86-.488,.617-.9,1.138-1.304,1.65-.876-.72-.393-2.105-1.535-2.539-.015-.334-.031-.667-.052-1.125-.44-.383-.949-.826-1.616-1.405h-1.923c-.463,.221-.938,.73-1.303,1.26-.343,.497-.439,1.164-.669,1.827-.67-.857-1.817-1.247-1.625-2.5-.479-.676-1.005-1.303-1.732-1.675-.379,0-.72,.02-1.059-.005-.532-.039-.965,.106-1.316,.53-.317,.384-.678,.733-.98,1.056-.179,.85,.351,1.765-.487,2.459-.352-.318-.708-.638-1.082-.976h-1.026c-.097-.106-.268-.214-.312-.36-.092-.306-.088-.641-.176-.949-.176-.616-.428-.774-1.089-.738-.688,.037-.919,.242-.942,.886-.018,.509-.004,1.02-.004,1.559-.426,.639-1.233,1.081-1.055,2.104,.063,.36-.678,.68-1.227,.537-.286-.074-.632-.292-.75-.54-.13-.275-.03-.659-.03-.943-.373-.41-.708-.779-1.062-1.168v-2.984c-.523-.523-1.004-1.004-1.486-1.486h-2.041c-.86,.385-.116,1.649-1.079,1.983-.962-.961-1.923-1.923-2.945-2.945h-3.137c-.35,.338-.923,.737-1.278,1.278-.333,.507-.436,1.166-.759,2.106-.786-1.005-1.408-1.802-1.931-2.471-1.391,.241-2.64-.48-3.669,.556,0,1.33,.046,2.688-.029,4.04-.021,.384-.425,.516-.659,.364-.134-.087-.298-.232-.317-.369-.046-.329-.015-.669-.015-.871-.733-.849-1.387-1.605-2.041-2.361,.185-1.283-1.012-1.604-1.619-2.332-.336,.022-.771-.083-.98,.088-.906,.741-1.747,1.563-2.587,2.333l1.105,1.235v1.077c0,.17,.008,.34-.002,.51-.035,.638-.262,.855-.948,.881-.573,.021-1.088-.314-1.09-.739-.005-1.19,.03-2.381-.026-3.568-.013-.273-.325-.532-.502-.801h-.987c-.384-.355-.752-.695-1.102-1.019-.366,.026-.802-.078-1.008,.095-.906,.759-1.746,1.599-2.541,2.344,0,.85,.018,1.525-.016,2.197-.007,.126-.21,.32-.347,.344-.265,.047-.576-.172-.596-.534-.054-1.003-.019-2.01-.019-2.669-.992-1.126-1.774-2.012-2.476-2.81-.511,.039-1.075-.034-1.133,.105-.478,1.149-1.898,.571-2.506,1.43v1.043c-.477,.457-.966,.927-1.47,1.41-1.069-.202-.173-1.55-1.099-1.911h-2.205c-.328,.37-.78,.872-1.223,1.381-.228,.263-.19,1.036,.102,1.376,.221,.257,.477,.484,.718,.726-.214,.193-.403,.492-.649,.551-.292,.07-.748,.05-.936-.133-1.332-1.294-2.614-2.639-3.912-3.968-.554,.554-1.035,1.034-1.515,1.515-.021,.331-.041,.663-.073,1.163-.422,.348-.942,.777-1.519,1.254-.629-.235-1.088-.863-1.592-1.591v-1.737c-.563-.622-1.016-1.123-1.414-1.562h-3.133c-.496,.496-.977,.977-1.458,1.458-.077,1.181-.095,1.176-.721,1.433-.601-.601-1.202-1.202-1.887-1.887-.923,0-1.935-.041-2.939,.031-.226,.016-.562,.405-.603,.661-.078,.495-.031,.999-.576,1.357-.435-.483-.883-.981-1.396-1.551-.023-.201,.01-.557-.118-.841-.121-.266-.428-.659-.626-.643-.777,.062-1.226-.358-1.716-.842-.33-.325-1.115-.301-1.366-.054-.606,.596-1.157,1.259-1.818,1.784-.608,.483-.504,1.162-.717,1.755-.052,.145-.218,.317-.354,.34-.099,.017-.331-.183-.342-.301-.121-1.255-.855-2.076-1.779-2.666h-2.026c-.653,.653-1.253,1.254-1.922,1.922-.335-.29-.657-.809-1.017-.837-.909-.069-1.575-.42-2.076-1.131h-2.098c-.447,.465-.917,.954-1.414,1.47-.256,1.565-.311,1.615-1.778,1.585-.17-.003-.34,.007-.51-.002-.572-.029-.76-.239-.867-.961-.11-.748-.316-1.059-.75-1.074-.509-.018-1.02-.018-1.529,0-.487,.017-.753,.445-.795,1.042-.027,.387,.024,.712,.398,.85,.298,.11,.668,.036,.952,.163,.271,.121,.678,.408,.668,.603-.043,.797,.371,1.697-.384,2.368l-1.015,.072c-.612-.724-1.679-1.043-1.674-2.326,.003-.745-1.252-1.12-.972-2.127-.328-.374-.643-.76-.986-1.12-.469-.492-.956-.967-1.44-1.444-.226-.223-1.073-.21-1.369,.118-.474,.525-.962,.872-1.728,.813-.181-.014-.461,.413-.582,.687-.126,.286-.084,.641-.176,.948-.043,.143-.223,.333-.349,.338-.115,.005-.34-.206-.344-.327-.038-1.314-.909-2.036-1.783-2.645h-3.987c-.483,.396-.86,.706-1.084,.89-1.532,.204-2.885-.138-4.201,.244-.245,.245-.486,.486-.728,.728-.905-.432-1.43-1.292-2.162-1.92-1.02,0-2.039,0-2.809,0-1.081,.516-1.457,1.544-2.41,1.923-.605-.605-1.206-1.206-1.865-1.865h-3.905c-.702,.719-1.403,1.436-2.011,2.059-1.083-.678-1.571-1.63-2.481-2.117-1.514-.199-1.835,1.309-2.89,2.006-1.075-.951-2.008-2.111-3.102-2.991h-3.047c-.524,.468-.882,.988-1.685,1.035-.513,.03-.997,.551-1.474,.84-.305-.305-.546-.546-.89-.89-1.58,0-3.267,.025-4.951-.029-.227-.007-.471-.388-.648-.639-.08-.114,.018-.338-.019-.499-.188-.809-.194-.807-1.48-.875-.356-.333-.722-.676-1.081-1.012h-1.013c-.849,.849-1.69,1.69-2.537,2.537v3.056c.616,.736,1.468,1.273,1.926,2.16-.242,.242-.567,.443-.702,.732-.198,.424-.241,.917-.392,1.367-.044,.131-.247,.316-.344,.298-.138-.026-.271-.2-.357-.341-.079-.13-.095-.299-.136-.452q-.299-1.108-1.613-1.284c-.481-.481-.962-.961-1.446-1.445v-1.004l1.023-1.096c-.178-.808,.358-1.718-.471-2.447h-4.911c-.81-.384-1.171-1.449-2.225-1.067-.367-.333-.732-.665-1.097-.997-.12,.12-.241,.241-.361,.361-.352,.352-.669,.709-1.268,.648-.762-.078-.965,.827-1.613,1.016-.583,.17-1.269-.33-1.325-1.025-.054-.664-.322-1.017-.804-1.022-.85-.009-1.7-.008-2.55,0-.4,.004-.599,.298-.725,1.099-.131,.833-.127,.843-1.505,.947-.485,.555-1.246,.957-1.559,1.749,0,.877,.008,1.727-.003,2.576-.006,.461-.442,.774-1.057,.77-.846-.006-1.692-.001-2.475-.001-.402,.354-.755,.664-1.104,.971-.521-.521-1.015-.989-1.471-1.493-.084-.094-.012-.329-.012-.499-.166,0-.401,.071-.486-.012-.352-.345-.658-.735-.901-1.017-.512,0-.855,.057-1.169-.015-.371-.085-.634-.73-.486-1.265,.077-.278,.321-.53,.542-.738,.088-.083,.319-.014,.485-.014h.995V3.604c-.475-.467-.958-.942-1.499-1.474h-1.986c-1.408,1.174-1.484,1.341-1.78,2.665-.599,.599-1.199,1.199-1.798,1.798-.027,.328-.053,.656-.084,1.037,.666,.7,1.357,1.426,2.045,2.15,0,.512-.034,1.024,.011,1.528,.034,.381-.044,.677-.403,.852-.297,.145-.503-.194-.629-1.019-.024-.158-.057-.315-.086-.473l-1.444-1.444c-.502,0-1.015-.044-1.516,.014-.396,.046-.694-.007-.869-.366-.11-.226,.03-.504,.396-.711,.707-.401,.222-1.264,.712-1.745,.603-.593,1.192-1.2,1.782-1.796v-1.013c-.485-.485-.964-.964-1.443-1.444-.328-.028-.736-.193-.969-.058-1.028,.597-1.698,1.467-1.868,2.705-.048,.35-.468,.376-.858,.347-.648-.047-.967-.298-.975-.861-.01-.678,.005-1.356-.004-2.034-.011-.854-.008-.885-1.135-1.182-.323-.085-.603-.144-.838-.452-.313-.409-.712-.665-1.278-.595-.487,.06-.982,.059-1.273,.074-.643,.57-1.147,1.017-1.626,1.441,.407,1.13-.652,1.49-1.036,2.291v1.857c-.489,.521-1.074,.885-.992,1.697,.048,.479-.056,.979-.142,1.461-.024,.137-.22,.328-.347,.336-.112,.007-.321-.191-.345-.325-.341-1.832-.083-3.685-.175-5.527-.016-.315-.091-.636-.196-.934-.048-.134-.233-.305-.363-.31-.672-.031-1.346-.015-1.972-.015-.813,.525-.242,1.701-1.124,2.131-.405,1.187-1.873,.556-2.46,1.436,0,.508-.045,1.021,.014,1.522,.046,.396-.007,.695-.368,.868-.225,.108-.457-.067-.722-.392-.312-.383-.663-.733-.972-1.07,.042-.383-.039-.804,.135-1.013,.54-.649,1.182-1.212,1.774-1.819,.236-.242,.203-1.11-.09-1.367-.465-.408-.758-1.031-1.193-1.139-.998,.851-1.894,1.614-2.635,2.246-.056,.588-.087,.914-.117,1.231-.484,.486-.95,.979-1.451,1.434-.093,.084-.328,.012-.498,.01v3.537c.334,.351,.675,.712,1.023,1.078-.068,.458,.217,1.028-.36,1.346-.214,.118-.439-.077-.714-.384-.447-.498-.951-.945-1.41-1.432-.218-.231-.388-.507-.522-.686v-2.007c.735-.457,.985-1.463,1.983-1.452V1.566c-.588-.879-2.018-.268-2.494-1.427-.11-.267-1.043-.116-1.35,.177-.246,.235-.482,.48-.722,.72-.167,.008-.333,.014-.5,.025-.663,.046-1.027,.319-1.057,.773-.065,.994,.164,2.007-.175,2.975-.37,.37-.73,.73-1.091,1.091-.24,.24-.503,.463-.716,.726-.264,.327-.508,.514-.723,.391-.574-.328-.294-.898-.347-1.35,.352-.381,.691-.749,.976-1.057V2.556c-.516-.516-.997-.997-1.478-1.478-.367,.334-.734,.669-1.1,1.003-.17,0-.341-.014-.51,.002-.677,.065-1.242,.842-.943,1.37,.241,.425,.618,.774,.934,1.157-.207,.163-.419,.458-.68,.511-.825,.166-1.281-.23-1.289-1.024-.005-.508,0-1.015,0-1.506-.498-.498-.979-.979-1.548-1.548-.94,.365-1.428-.408-2.01-.998h-1.014c-.368,.343-.735,.686-1.086,1.014-.36,.019-.693,.036-1.026,.053-.481,.481-.962,.962-1.479,1.479,0,.299,.077,.659-.019,.963-.126,.397-.425,.527-.661,.385-.137-.082-.297-.224-.329-.366-.332-1.482-.324-1.493-1.365-1.492-.34,0-.68,0-1.024,0-.695,.452-1.296,1.001-1.777,1.869v1.777c-.795,.795-1.513,1.52-2.242,2.234-.11,.108-.27,.163-.407,.243-.323-.04-.705,.016-.96-.138-1.427-.856-1.417-.901-2.187-.875-.656,.023-1.336-.168-1.959,.167-.247,.247-.487,.487-.844,.844-1.565,0-3.251-.026-4.934,.027-.263,.008-.559,.339-.759,.586-.246,.303-.492,.472-.859,.407-.598-.105-1.028,.209-1.075,.732-.089,.987-.211,2.023,.832,2.723,.181,.122,.205,.633,.136,.926-.058,.248-.356,.439-.548,.656-.482-.482-.963-.963-1.454-1.454v-2.07c-.474-.444-.969-.907-1.557-1.457h-3.059c-.601,.583-1.32,1.279-2.026,1.964-.371-.341-.739-.68-1.048-.964-1.066-.437-1.397,.7-2.125,.851-.396-.211-.502-.84-1.101-.691-.245,.245-.485,.485-.744,.744-1.252-.809-2.05-2.123-3.378-3.061-1.573,0-3.262,.007-4.95-.015-.122-.002-.241-.225-.389-.374,.32-.354,.642-.71,.979-1.083v-.984c-.842-.842-1.683-1.683-2.548-2.548h-.993c-.351,.324-.72,.664-1.089,1.004-1.432,.053-1.469,.084-1.487,1.36-.01,.68-.002,1.36-.002,2.04,.2,.257,.358,.571,.61,.759,.5,.372,.391,.879,.412,1.398-.328,.352-.671,.719-1.023,1.096v.99c-.326,.477-.815,.617-1.315,.495-.272-.067-.719-.431-.687-.567,.225-.965-.675-1.375-.956-2.062,.624-.624,1.225-1.225,1.882-1.882v-2.021c-.418-.595-.942-1.222-1.816-1.668-.875,.255-1.898-.156-2.237-.026-1.041,.796-1.578,1.206-2.084,1.592,0,1.138,.012,2.148-.016,3.158-.003,.123-.207,.287-.352,.343-.081,.032-.273-.089-.347-.19-.537-.731,.011-1.635-.218-2.086-.658-.754-1.103-1.262-1.474-1.687h-2.057c-.915,.879-1.767,1.698-2.606,2.505,.365,.399,.703,.768,1.018,1.112-.003,.54,.05,1.03-.431,1.403-.4,.31-.729,.711-1.094,1.076h-1.015q-.782-1.163,.452-2.502v-2.058c-.26-.281-.614-.633-.933-1.014-.814-.976-1.812-.488-2.773-.377-.462,.484-.923,.968-1.391,1.458v1.991c-.524,.524-1.005,1.005-1.491,1.492-.118-.121-.32-.229-.341-.366-.128-.798-.213-1.604-.303-2.328-.792-.792-1.51-1.518-2.237-2.233-.282-.277-1.092-.273-1.377,.005-.608,.595-1.214,1.191-1.8,1.806-.22,.232-.382,.519-.57,.781,.057,.999-.135,2.01,.16,3.01,.502,.434,1.04,.893,.84,1.662-.064,.248-.365,.436-.557,.651-.482-.482-.963-.963-1.464-1.464,0-1.337,.009-2.695-.015-4.052-.002-.125-.196-.269-.33-.363-.125-.088-.288-.168-.435-.169-1.53-.012-3.06-.009-4.59-.006-.416,0-.695,.345-.735,1.076-.02,.368-.071,.657-.543,.924-1.067-.944-1.993-2.112-3.1-2.985h-3.044c-.518,.518-.999,.999-1.493,1.493,0,1.005,.012,2.023-.015,3.041-.003,.125-.195,.284-.336,.358-.24,.125-.528-.02-.652-.411-.098-.307-.048-.662-.064-.995-.481-.481-.962-.962-1.463-1.463-.654,0-1.392-.174-2.005,.051-.555,.204-1.046,.809-1.431,1.349-.258,.362-.251,.907-.4,1.358-.031,.095-.227,.135-.46,.261-.622-1.532-1.885-1.052-3.003-.819-.417,.087-.748,.592-1.039,.84-.815,0-1.501-.056-2.174,.014-.813,.085-1.185-.49-1.704-.988h-2.038c-.554,.469-1.338,.909-1.548,1.743-.123,.489-.111,1.008-.577,1.29-.693,.42-.253,1.265-.72,1.746-.089,.091-.236,.125-.357,.187-.474-.447-.841-1.044-1.654-.941-.823,.104-1.672-.134-2.471,.144-.617,.617-1.218,1.218-1.821,1.821-.702-.298-1.074-1.339-2.188-.894-.753,.785-1.575,1.641-2.488,2.591,0,1.219-.031,2.573,.033,3.924,.01,.206,.472,.572,.699,.553,.798-.065,1.139,.598,1.701,.865,.557,.265,1.299,.135,1.959,.19,.423,.036,.695,.466,.708,1.117,.01,.5,.002,1.001,.002,1.431,.551,.551,1.032,1.032,1.521,1.521h2.027l1.073-.981c.133,.133,.279,.236,.369,.376,.578,.904,1.966,.403,2.479,1.434,.054,.109,.278,.196,.417,.188,.319-.017,.683-.018,.941-.173,.412-.246,.624-.828,1.187-.826,.795,.003,1.241-.26,1.219-1.141-.021-.838,.027-1.68,.083-2.517,.008-.128,.225-.241,.345-.362,1.258-.08,1.242-.075,1.614,1.141,.09,.295,.321,.546,.49,.822h1.08c.437-.451,.915-.932,1.378-1.429,.214-.23,.127-1.066-.162-1.377-.231-.249-.479-.483-.724-.727,.329-.362,.658-.725,.987-1.087q.007-1.667,.45-2.517c.597,0,1.26-.013,1.922,.005,.424,.011,.765,.649,.704,1.138-.043,.345-.205,.565-.447,.846-.848,.984-.827,1.008-.079,2.088,.095,.137,.339,.24,.342,.363,.034,1.318,.912,2.034,1.868,2.704,.785-.152,1.707,.365,2.366-.498v-2.045c-.375-.869-1.636-.168-1.995-1.002,0-1.086-.012-2.102,.016-3.118,.003-.123,.225-.241,.464-.48,.714,0,1.549,.024,2.381-.011,.376-.016,.681,.011,.961,.292,.305,.467,1.013,.689,1.107,1.391-.612,.612-1.213,1.213-1.73,1.73,1.173,1.173,2.347,2.347,3.715,3.715h1.706l1.074-1.002h.966c.377-.338,.732-.656,1.076-.965,.376,.225,.531,.507,.475,.863-.092,.585,.191,1.067,.705,1.097,.995,.058,2.01,.149,2.511,.024,1.243-1.038,2.149-1.794,2.855-2.383v-1.925c-.237-.789-.889-.872-.795-1.468,.599-.599,1.2-1.2,1.869-1.869,0-.603-.059-1.281,.023-1.941,.047-.379,.379-.552,.626-.455,.145,.057,.348,.228,.35,.349,.022,2.039,.015,4.078,.015,6.133,.481,.47,.967,.944,1.514,1.478h3.096c.378-.368,.896-.8,1.324-1.308,.399-.473-.017-1.333,.742-1.67,.735,.66,1.32,1.505,2.082,1.931h1.751c.773-.614,1.302-1.034,1.803-1.432,0-1.803-.007-3.495,.015-5.186,.002-.122,.225-.241,.345-.361,.158-.03,.315-.083,.473-.085,.631-.006,1.14,.294,1.143,.679,.009,1.003,.003,2.007,.003,2.733,.454,.639,.881,1.004,.982,1.443,.113,.491,.119,.966,.578,1.246h2.028c.497-.497,.978-.978,1.487-1.486v-4.088c-.301-.322-.643-.689-.987-1.057,0-.331-.089-.704,.022-1.002,.155-.417,.493-.519,.693-.289,.46,.528,.946,.855,1.715,.83,.515-.017,.56,.503,.142,.973-.211,.237-.36,.528-.537,.795,.07,.994-.167,2.007,.224,3.075,.89,.629,1.49,1.706,2.403,2.187h2.048c.683-.683,1.284-1.284,1.923-1.923,.712,.668,1.427,1.339,2.111,1.981h4.071c.265-.265,.498-.512,.747-.744,.42-.391,.942-.344,1.368-.121,.421,.221,.749,.621,1.172,.991,.98-.316,2.005,.137,3.005-.281,.447-.468,.909-.951,1.336-1.398,0-.241,.012-.412-.002-.581-.03-.356,.095-.711,.455-.797,.134-.032,.513,.376,.539,.611,.056,.508,.063,.993,.546,1.321h4.054c.372-.347,.738-.689,1.069-.997,1.106-.402,1.446,.707,2.031,.942h4.129c.514-.528,.913-1.064,1.718-.976,.651,.071,1.26-.016,1.838,.528,.848,.797,1.079,.76,2.067-.107,.281-.247,.517-.355,.854-.427,1.077-.229,1.075-.264,1.111-1.213,.031-.828,.06-.819,.862-2.195,.254-.436,.275-.941-.06-1.371-.208-.266-.475-.486-.715-.726q.765-.852,1.94-.105v4.121c.473,.436,.971,.895,1.569,1.447,.353,.016,.848,.044,1.343,.059,.34,.01,.68,.004,1.02,.002,.91-.006,.919-.004,1.18-1.156,.186-.825,.175-.839,1.481-.885,.715,.681,1.442,1.373,2.108,2.007h3.08c.636-.636,1.232-1.242,1.846-1.829,.059-.056,.232,.007,.353,.015,.24,.24,.481,.481,.828,.828,1.238,0,2.584-.007,3.929,.011,.136,.002,.27,.158,.405,.242,.24,.24,.481,.481,.745,.744h5.089c.686-.643,1.401-1.312,2.11-1.977,.795,.685,1.336,1.579,2.284,1.999,1.001-.006,2.067,.193,2.684-.919,.882-.008,1.596-.342,2.085-1.101h1.042c.348,.321,.718,.661,1.075,.99h3.019c.384-.34,.737-.652,1.088-.963,.639,.639,1.24,1.24,1.841,1.841,.149,.051,.297,.145,.447,.147,1.02,.013,2.041-.015,3.06,.016,.539,.016,1.008-.1,1.22-.607,.121-.29,.056-.657,.075-.989,.481-.481,.962-.962,1.447-1.447,.722,.682,1.444,1.365,2.082,1.968h2.072c.166-.166,.28-.293,.408-.405,.899-.794,1.346-.801,2.1-.055,.484,.478,.962,.961,1.527,1.526,.924,0,1.936,.041,2.939-.031,.226-.016,.492-.397,.613-.666,.128-.284,.103-.637,.145-.96,.848-.768,1.53-1.717,2.458-2.299,.691,.281,.407,.862,.485,1.342-.338,.365-.676,.731-1.014,1.097l2.53,2.53h1.885c.961-.529,1.388-1.506,2.302-1.925,.563,.331,.374,.881,.424,1.484,.437,.385,.944,.832,1.544,1.361,.167,.022,.489,.096,.812,.102,.85,.017,1.7-.003,2.55,.008,.924,.012,1.106-.221,1.285-1.614,.481-.481,.962-.962,1.437-1.437,.366,.341,.732,.681,1.055,.981h2.029c.373-.231,.448-.523,.513-.856,.226-1.157,.248-1.153,1.17-1.158,.17,0,.34-.002,.51,0,1.295,.021,1.338,.04,1.369,1.575,.452,.407,.955,.859,1.602,1.442,.607-.062,1.426,.285,2.234-.196l1.19-1.289c.089-.877,.104-1.546,.243-2.188,.083-.384,.461-.485,.851-1.12v3.287c.353,.378,.695,.745,1.018,1.091,.023,.368-.025,.724,.082,1.024,.127,.358,.463,.463,.816,.459,1.19-.012,2.38-.004,3.66-.004,.432-.421,.952-.852,1.376-1.363,.391-.47-.024-1.329,.742-1.656,.737,.658,1.316,1.508,2.219,1.999,.998-.056,2.009,.135,2.649-.053,.771-.627,1.294-1.053,1.693-1.378,.199-1.322-.431-2.55,.452-3.587,.332-.028,.662-.086,.988-.069,.136,.007,.279,.155,.393,.266,.237,.23,.114,.439-.24,.731-.236,.195-.367,.519-.544,.785,0,.85-.007,1.7,.004,2.55,.006,.448,.458,.762,1.071,.757,.845-.007,1.69-.002,2.497-.002,.518-.518,.998-.999,1.505-1.505v-2.106c.466-.398,.98-.836,1.529-1.304,.136,.088,.403,.209,.601,.402,.322,.313,.599,.673,.905,1.024-1.37,.855-1.03,2.023-.77,3.197,.469,.443,.953,.9,1.334,1.26h2.039c.57-.543,1.061-1.011,1.53-1.457,0-.214,.03-.391-.006-.553-.086-.387,.015-.702,.386-.856,.332-.138,.53,.182,.641,.986,.022,.16,.051,.319,.076,.478,.481,.481,.962,.961,1.448,1.448h3.089c.448-.465,.918-.954,1.508-1.566,0-.524-.047-1.195,.018-1.854,.036-.366,.353-.613,.595-.528,.37,.13,.476,.462,.411,.837-.028,.165-.005,.339-.005,.509,.34,.369,.68,.738,1.031,1.119v.989c.491,.491,.972,.972,1.486,1.487h2.051c.311-.289,.679-.629,1.056-.979,.452-.08,1.02,.213,1.37-.387,.043-.123,.139-.271,.141-.42,.013-1.02-.009-2.04,.016-3.059,.008-.313,.097-.635,.207-.931,.049-.132,.227-.253,.372-.305,.635-.226,1.427,.254,1.449,.876,.018,.509,.004,1.02,.004,1.588,.309,.334,.645,.7,.985,1.064,.116,.124,.224,.265,.363,.356,.236,.154,.669,.012,.656-.354-.037-1.039,.249-1.623,1.391-1.496,.75-.667,1.499-1.334,2.243-1.996,.143,.225,.426,.478,.464,.764,.13,.984-.163,2.002,.232,2.997,.47,.44,.954,.895,1.319,1.237h1.997c.616-.561,1.117-1.016,1.573-1.431,.013-1.43,.023-1.438,1.649-1.599,.509,.651,1.132,1.447,1.617,2.068h2.348c.482-.482,.963-.963,1.529-1.529,0-.583-.052-1.257,.02-1.917,.041-.372,.356-.567,.611-.494,.143,.041,.327,.213,.348,.349,.051,.329,.016,.671,.016,1.041,.851,.818,1.706,1.64,2.629,2.526h2.975c.679-.639,1.394-1.311,2.104-1.979,.523,.464,.866,1.072,1.687,.998,1.167-.104,2.35,.111,3.51-.139,.606-.606,1.195-1.219,1.812-1.804,.398-.377,1.448-.02,1.627,.547,.049,.155-.021,.343,.012,.507,.169,.828,.174,.839,1.467,.876,.361,.333,.727,.669,1.093,1.006,.961-.962,1.923-1.923,2.885-2.885,.12,.012,.288-.023,.354,.044,.956,.963,1.899,1.938,2.781,2.845h2.14c.492-.492,.972-.972,1.52-1.52,0-.604-.059-1.282,.023-1.943,.047-.38,.38-.551,.627-.453,.145,.058,.347,.227,.349,.349,.025,1.358,.016,2.718,.016,4.091,.481,.471,.966,.945,1.511,1.479h3.09c.454-.51,1.207-.917,1.436-1.481,.239-1.582-.132-2.939,.276-4.254,.04-.128,.25-.31,.345-.29,.139,.029,.34,.209,.351,.338,.085,.999,.132,2.002,.195,3.097,.394,.61,.945,1.208,1.678,1.618,1.004-.053,2.014,.126,2.433,.011,1.312-1.075,2.224-1.823,2.906-2.382,.081-1.015,.117-1.679,.202-2.338,.017-.134,.21-.306,.351-.34,.091-.022,.302,.153,.345,.279,.492,1.446-.101,2.985,.377,4.462,.468,.445,.951,.906,1.347,1.282h2.083c.646-.646,1.227-1.269,1.861-1.833,.178-.158,.632,.08,.615,.435-.054,1.078,.338,1.578,1.438,1.443,.379,.324,.758,.648,1.178,1.007h.963c.355-.327,.724-.667,1.131-1.042,.297,0,.683,.107,.957-.023,.524-.249,.443-.811,.515-1.306,.031-.217,.375-.39,.576-.582,.602,.602,1.203,1.203,1.804,1.805,1.145,.205,2.289,.317,3.525-.112,.28-.625,.859-.871,1.685-.745,.673,.64,1.4,1.332,2.102,1.999h1.959c.913-.882,1.768-1.707,2.619-2.529,0-.359-.034-.703,.016-1.033,.021-.135,.204-.3,.348-.351,.249-.088,.575,.093,.62,.47,.078,.66,.022,1.337,.022,1.875,.401,.656,.979,.433,1.41,.602,.438,.172,.767,.623,1.145,.954,.347-.32,.713-.656,1.074-.989,1.431-.046,1.426-.063,1.471-1.385,.012-.34-.084-.712,.027-1.01,.098-.264,.386-.579,.643-.638,.481-.11,1.005-.06,1.351,.482v2.075c.468,.411,.976,.856,1.611,1.412,.802,.197,1.813,.037,2.815,.084,.876-.528,1.477-1.357,2.405-2.201,.61,.787,1.228,1.583,1.663,2.145h2.298c.657-.657,1.258-1.258,1.861-1.861,.909,.425,1.43,1.289,2.161,1.916,1.699,0,3.399,0,5.408,0,.487,.623,1.11,1.419,1.645,2.103,.925-.074,1.588-.127,2.251-.18,.477-.794,1.328-.851,2.097-1.096,.359-.115,.338-.487,.357-.867,.047-.969,.978-1.334,1.746-.734,.266,.208,.485,.476,.755,.746h3.038c.552-.54,1.304-.962,1.58-1.783,.084-1.009-.195-2.027,.225-2.987,.048-.11,.261-.25,.344-.222,.145,.05,.35,.219,.352,.341,.023,1.687,.015,3.375,.015,4.958,.605,.743,1.082,1.424,1.871,1.762,.686,0,1.372-.056,2.045,.015,.804,.084,1.204-.448,1.664-.922,.902,.445,1.432,1.302,2.166,1.925h2.785c1.11-.51,1.473-1.552,2.435-1.915,.605,.605,1.206,1.206,1.824,1.824,.613,.102,1.316,.048,1.724,.704,.334,.537,.874,.382,1.466,.416,.756-.819,1.559-1.688,2.478-2.683v-1.807c.355-.387,.693-.756,1.058-1.154,0-.127,.032-.303-.006-.461-.096-.392,0-.695,.353-.874,.228-.116,.457,.052,.724,.381,.312,.385,.666,.735,.93,1.023,.209,.89-.279,1.349-.781,1.812-.064,.059-.024,.232-.015,.104,.517,.661,.932,1.192,1.268,1.622,1.534-.089,1.543-.098,1.61-1.478-.323-.349-.662-.717-1.001-1.084,.25-.165,.51-.477,.775-.481,.55-.009,.98-.169,1.291-.595,.352-.483,.846-.488,1.345-.446,.4,.033,.648,.503,.649,1.172,.001,.835,0,1.669,0,2.309,.609,.655,1.07,1.151,1.488,1.601h2.094c.132-.132,.324-.233,.362-.375,.48-1.817,.825-1.781,1.46-2.453,.068-.072,.262-.108,.347-.063,.144,.075,.344,.223,.351,.349,.034,.678,.016,1.358,.016,2.044,.842,.836,1.686,1.674,2.553,2.535h2.086c.766-.806,1.583-1.666,2.508-2.639,0-.848-.011-1.861,.013-2.872,.003-.131,.168-.282,.294-.377,.086-.065,.281-.108,.347-.057,.532,.413,1.045,.851,1.386,1.134,0,.665,.005,1.005,0,1.345-.028,1.538,.131,1.446,1.415,1.442,.631-.705,1.77-1.023,1.675-2.304-.018-.25,.306-.553,.522-.787,.462-.498,.956-.967,1.49-1.501,0-.62-.064-1.301,.024-1.961,.052-.386,.397-.539,.638-.423,.143,.069,.335,.228,.342,.355,.034,.677,.016,1.357,.016,2.029,.247,.247,.495,.482,.725,.731,.094,.102,.152,.237,.227,.358-.24,.24-.491,.472-.717,.725-.103,.115-.158,.272-.235,.41,0,.34-.01,.68,.002,1.02,.047,1.297,.059,1.306,1.499,1.347,.369,.34,.738,.68,1.085,1h1.005c.501-.501,.982-.982,1.486-1.486v-3.011c.356-.381,.698-.748,1.044-1.119,0-.163,.031-.34-.006-.501-.089-.389,.016-.689,.383-.857,.089-.041,.286,.006,.348,.082,.39,.481,1.038,.753,1.189,1.427-.878,.953-.916,.955-.884,1.682,.037,.824-.197,1.671,.175,2.48,.484,.457,.968,.914,1.347,1.271h2.033c.577-.546,1.07-1.011,1.528-1.444v-6.138c-.358-.39-.696-.759-1.087-1.186,.129-.438,.262-.891,.404-1.373,1.154,.658,1.713,1.561,1.939,2.737,.053,.276,.453,.486,.74,.773-.302,.348-.607,.699-.914,1.053,.304,.343,.624,.703,.931,1.051-.337,.371-.673,.74-.943,1.037v2.056c.523,.523,1.004,1.004,1.486,1.486h3.072c.468-.475,.945-.959,1.522-1.544,0-.559-.059-1.234,.031-1.889,.033-.241,.39-.559,.652-.619,.485-.113,1.001-.041,1.342,.485v2.066c.471,.426,.973,.879,1.596,1.442h1.914c.599-.396,1.205-.94,1.543-1.559,.08-.785,.095-1.454,.234-2.097,.083-.384,.461-.485,.851-.365v-2.529c-.348-.371-.69-.736-1.023-1.091,.036-.505-.137-1.049,.501-1.426,.435,.406,.896,.835,1.344,1.252,.341,1.158,.311,2.303,.031,3.432-.095,.382-.465,.481-.853,.362v2.494c.577,.554,.993,1.292,1.794,1.587,.983-.051,1.971,.122,2.849-.117,.542-.508,1.025-.961,1.478-1.386v-2.051c.34-.357,.681-.714,1.02-1.07v-1.498c.389-.12,.797-.016,.847,.362,.151,1.133,.201,2.279,.284,3.346,.566,.533,1.05,.988,1.423,1.339h2.089c1.294-1.221,1.679-1.275,2.516-.438,.84,.84,1.68,1.679,2.527,2.526h1.05c.801-.822,1.628-1.671,2.483-2.549,.013-.279-.036-.632,.061-.94,.123-.388,.41-.537,.649-.416,.142,.071,.333,.229,.339,.356,.033,.676,.016,1.355,.016,2.014,.331,.487,.843,.429,1.314,.56,.439,.122,.79,.559,1.286,.94h2.128c.627-.728,1.396-1.621,2.353-2.734v-2.539c-.733-.734-1.442-1.442-1.98-1.98v-1.364c0-.17,.003-.339,0-.509-.015-.612,.316-1.03,.792-1.033,1.188-.005,2.377,.031,3.562-.028,.258-.013,.5-.353,.729-.528v-1.963c-.872-.895-1.699-1.743-2.516-2.58-.38,.353-.747,.693-1.062,.985Zm-318.321-3.031c-.82-.821-1.643-1.639-2.46-2.463-.198-.2-.067-1.166,.18-1.378,.43-.368,.916-.294,1.375-.111,.369,.147,.472,.468,.397,.848-.121,.615,.24,.91,.762,1.058,.307,.087,.638,.097,.94,.197,.127,.042,.206,.227,.307,.347-.48,.481-.961,.961-1.502,1.502Zm36.209,2.713c.046,.31-.057,.642-.091,.952-.48,.486-.954,.964-1.422,1.438-.178,0-.494,.007-.494-.001-.015-.312-.019-.623-.02-.756,.344-1.119,.686-1.481,1.033-1.848v-2.004q1.135-.737,1.973,.101c-.735,.515-1.119,1.183-.979,2.118Zm58.03-.023c-.106,.127-.236,.233-.349,.354-.339,.361-.676,.725-.967,1.039-1.491-.017-1.599-.094-1.594-1.283,.002-.476,.075-.956,.164-1.425,.026-.135,.22-.237,.338-.355,.498,0,1,.04,1.492-.013,.382-.041,.655,.02,.868,.328,.23,.333,.273,1.085,.048,1.355Zm216.987,8.513c-.354-.332-.708-.664-1.065-.999h-3.003c-.361,.34-.721,.68-1.078,1.017h-.986c-.823-.463-.269-1.572-1.056-2.096-.546-.363-.96-.924-1.434-1.398,.204-.195,.379-.5,.618-.563,.745-.197,1.228,.277,1.64,.794,1.136,.441,2.273,.04,3.249,.238,.386-.386,.6-.652,.864-.852,.362-.273,1.118-.283,1.356-.049,.804,.796,1.602,1.599,2.403,2.4-.554,.554-1.027,1.026-1.509,1.509ZM94.891,3.899c.283-.826,1.032-1.247,1.584-1.793h2.012c.623,.623,1.194,1.252,1.829,1.808,.397,.347,.905,.274,1.364,.047,.359-.178,.457-.476,.36-.868-.039-.159-.05-.355,.01-.499,.061-.144,.207-.316,.349-.353,1.318-.352,2.665-.122,3.997-.129,.507-.002,.841,.449,.741,1.053-.103,.621,.456,.837,.76,1.207,.267,.326,.357,1.167,.165,1.377-.795,.869-1.589,1.739-2.222,2.431h-2.3c-.503-.503-.982-.982-1.46-1.46-.015-.163-.07-.334-.038-.487,.08-.386-.008-.679-.317-.888-.239-.162-.45-.033-.725,.311-.311,.388-.68,.73-1.003,1.07-.084,1.241-.218,1.469-.892,1.477-.846,.01-1.692,.002-2.627,.002-.435-.412-.917-.867-1.379-1.304-.381-.997-.135-2.006-.208-3Zm89.791,2.264c.17,0,.411,.074,.499-.011,.978-.943,1.933-1.911,2.896-2.876,.628-.329,1.308-.148,1.963-.162,.483-.01,.779,.429,.764,1.052-.004,.17,0,.34,0,.51v.925c-.376,.442-.698,.822-1.02,1.201,.198,1.256-.961,1.653-1.532,2.422-.85,0-1.7,0-2.549,0v-1.682c-.273-.236-.664-.542-1.008-.894-.083-.085-.012-.32-.012-.486ZM3.53,17.446c.615,.56,1.114,1.016,1.557,1.419v2.108c-.495,.495-.976,.976-1.486,1.486H1.435c-.335-.403-.765-.922-1.435-1.731v-1.602c.401-.739,1.009-1.28,1.608-1.68h1.923ZM116.313,3.546c.439-.364,.958-.795,1.766-1.465h1.603c.647,.254,1.008,.848,1.494,1.295,.296,.272,.348,1.121,.123,1.373-.449,.505-.911,.999-1.278,1.399h-2.186c-.375-.375-.702-.778-1.104-1.085-.494-.377-.394-.876-.418-1.517Zm-27.894,2.774c-.217-.229-.423-.468-.634-.703,.469-.469,.939-.939,1.495-1.495,.896,0,1.879-.005,2.862,.002,.395,.003,.719,.487,.709,1.08-.003,.166,0,.332,0,.498v.978c-.281,.175-.533,.451-.811,.48-.656,.07-1.331-.034-1.987,.037-.78,.084-1.189-.406-1.634-.877Zm21.948-.514c-.084-.644-.144-1.294-.161-1.943-.012-.459,.432-.77,1.035-.762,.502,.007,1.004,.001,1.507,.001,.118,.118,.323,.226,.34,.357,.084,.644,.144,1.294,.161,1.943,.012,.459-.432,.77-1.035,.762-.502-.007-1.004-.001-1.507-.001-.118-.118-.323-.225-.34-.357ZM500,15.823c-.506,.506-.969,.969-1.489,1.489-.414,.022-.888,.072-1.362,.069-1.162-.009-1.245-.117-1.264-1.632,.405-.373,.879-.821,1.366-1.254,.281-.249,1.063-.262,1.336-.015,.481,.437,.943,.894,1.413,1.343Z"/>
</svg>
