<?xml version="1.0" encoding="UTF-8"?>
<svg preserveAspectRatio="none" id="a" data-name="AW" xmlns="http://www.w3.org/2000/svg" width="500" height="55.787" viewBox="0 0 500 55.787">
  <path id="b" data-name="22" d="M316.37,26.844h0c.002-.034,.002-.029,0,0Zm183.63,1.503v9.641c-.342,.378-.657,.726-.991,1.096v1.875c-.691,.514-1.119,1.129-.956,1.888-.672,.672-1.239,1.239-1.805,1.805-.027,.309-.054,.619-.081,.928-.614,.944-1.409,1.618-2.58,1.733-.567,.566-1.133,1.133-1.7,1.7-.314,.016-.627,.032-.966,.05-.332,.31-.677,.633-1.033,.965h-.917c-.363,.335-.71,.655-1.073,.99h-3.786c-.26,.26-.486,.486-.815,.815-.343,.031-.797,.067-1.25,.115-.304,.032-.769-.029-.883,.14-.658,.977-1.623,.829-2.564,.82-.32-.003-.641,0-1.06,0-.297,.247-.652,.542-1.097,.912h-1.772c-.374,.332-.724,.643-1.115,.99h-4.725c-.362,.337-.708,.659-1.049,.977h-13.43c-.365-.336-.712-.655-1.076-.99h-3.782c-.261-.261-.488-.488-.815-.815-.345-.031-.8-.066-1.253-.114-.304-.032-.762,.027-.882-.144-.505-.721-1.304-.737-2-1.019-.273-.111-.461-.434-.736-.709h-2.796c-.373-.333-.723-.644-1.075-.958-.211,.187-.442,.383-.664,.588-.5,.462-1.109,.43-1.642-.037-.234-.205-.474-.403-.755-.642h-5.656c-.264-.264-.491-.491-.789-.789-1.619-.423-3.378,.121-5.072-.264-.23-.23-.457-.457-.698-.698-1.68-.413-3.442,.169-5.088-.28-.271-.271-.497-.497-.77-.77h-4.625c-.769-.36-1.108-1.367-2.106-1.005-.345,.317-.693,.638-1.053,.97h-.928c-.238,.238-.447,.487-.695,.686-.588,.473-.925,1.223-1.891,1.278-.525,.03-1.004,.617-1.534,.897-.256,.136-.736,.045-.848,.224-.661,1.05-1.678,.693-2.644,.753-.318,.287-.667,.602-1.046,.944h-2.815c-.363,.335-.711,.655-1.043,.962h-7.681c-.24-.24-.467-.467-.777-.776-1.274-.497-2.726,.083-4.105-.257-.444-.42-.791-.97-1.558-.89-.634,.066-1.28,.013-2.049,.013-.28-.222-.639-.507-1.121-.889-.312-.018-.778-.092-1.236-.061-.529,.036-.923-.159-1.213-.556-.336-.46-.848-.298-1.261-.451-.414-.153-.727-.578-1.122-.916h-1.869c-.335,.309-.683,.629-1.049,.966h-.902c-.499,.395-.781,1.035-1.567,.958-.708-.069-.888,.875-1.524,.931-.488,.042-.932,.078-1.237,.507-.312,.437-.76,.522-1.247,.469-.854-.092-1.58,.083-1.962,.927h-13.586c-.283-.258-.631-.575-1.003-.914h-3.792c-.359-.33-.707-.651-1.075-.99h-1.836c-.387-.346-.736-.658-1.108-.99h-1.84c-.488-.477-.849-1.042-1.609-.917-.849,.14-1.465-.198-2.09-.796-.389-.372-1.226-.081-1.611-.712-.301-.493-.85-.287-1.257-.446-.413-.16-.723-.587-1.106-.922h-1.943c-.185-.202-.387-.452-.619-.67-.457-.43-.932-.841-1.399-1.261-1.082,.334-1.436-1.212-2.486-.962-.376-.263-.753-.527-1.254-.877-.938-.201-2.05-.05-3.155-.079-.589-.016-.589-.002-1.586-.934h-3.785l-1.071-.99h-1.88c-.356-.332-.702-.655-1.06-.99h-2.801c-.397-.35-.748-.659-1.124-.99h-1.871c-.504-.789-1.203-1.047-2.057-.905-.751,.124-1.139-.398-1.622-.906h-1.672c-.851-.319-1.164-1.381-2.18-1.01-.339-.316-.685-.638-1.042-.971h-26.918c-.436,.448-.882,.906-1.36,1.397-.1,.689,.018,1.603-1.188,1.494-.141-.013-.354,.017-.425,.11-.527,.691-1.2,.993-2.06,.844-.751-.131-1.138,.4-1.621,.905h-8.69c-.246-.215-.598-.521-1.004-.874h-2.79c-.36-.336-.707-.658-1.063-.99h-1.885c-.356-.332-.701-.654-1.061-.99h-1.871c-.481-.481-.955-.916-1.381-1.393-.343-.383-.761-.436-1.23-.539-.413-.091-.756-.5-1.215-.829-.188-.022-.493-.091-.798-.091-12.978-.005-25.956,.003-38.935-.023-.773-.002-1.087,.527-1.584,.937-.325-.295-.66-.6-1.01-.917H118.762c-.343-.313-.683-.624-1.007-.919-.362,.322-.711,.634-.976,.869h-1.947c-.488-.48-.853-.932-1.61-.93-14.741,.024-29.481,.017-44.222,.017h-3.156q-.947-.93-1.884-.044c-.33-.292-.663-.587-1.025-.907h-23.034c-.332,.299-.676,.609-1.003,.904l-.994-.865c-.486,.469-.844,.933-1.604,.931-11.376-.026-22.752-.016-34.128-.023-.301,0-.602-.088-.887-.133-.565-.323-.287-.859-.357-1.288-.33-.354-.652-.7-.929-.997v-1.933c.482-.482,.936-.936,1.413-1.413,2.056,0,4.135-.015,6.215,.014,.365,.005,.719,.007,.813-.334,.146-.528-.655-.659-.684-1.099-.101-1.497-.039-3.089-.039-4.814,.224-.553,1.268-.874,.899-1.886,.318-.341,.641-.686,.973-1.042v-.94c.796-.796,1.589-1.589,2.392-2.392h1.251c.504-.537,1.153-1.227,1.786-1.9,.624-.043,1.251-.087,1.877-.13,.458-.733,1.222-.871,1.981-1.019,.531-1.124,2.165-.521,2.661-1.699,.866,.059,1.488-.354,1.96-1.025h1.927l1.034-.965c.481-.028,.964,.1,1.316-.38,.176-.24,.47-.392,.776-.636h1.652c.504-.367,.856-.827,1.254-.872,.93-.105,1.929,.134,2.531-.879l2.005-.173c.25-.217,.602-.522,1.011-.877h1.823c.362-.336,.708-.657,1.068-.99h2.843c.356-.332,.702-.655,1.06-.99h3.797l.808-.808c1.59-.377,3.344,.089,5.052-.238,.431-.441,.808-.891,1.563-.871,2.081,.055,4.166-.017,6.248,.038,.752,.02,1.139-.415,1.677-.981,3.243,0,6.593,.025,9.941-.019,.772-.01,1.092,.519,1.586,.95h4.746l1.065,.99h2.845c.356,.332,.701,.655,1.051,.981,.728-.169,1.224,.172,1.598,.698,.159,.094,.287,.235,.416,.236,1.908,.014,3.816,.01,5.607,.01q.967-.931,1.871-.059c.322-.273,.651-.551,1.035-.875h5.733c.3,.28,.646,.603,1.001,.934h5.733c.356,.332,.702,.654,1.062,.99h2.762c.438,.35,.794,.871,1.167,.884,.728,.025,1.117,.425,1.607,.826,.453,.37,1.202,.087,1.642,.686,.375,.51,.89,.918,1.343,1.372,.314,.017,.627,.034,1.216,.065,.279,.327,.708,.798,1.1,1.298,.377,.48,1.137,.727,1.083,1.465-.059,.792,.595,1.054,.97,1.554v.923c.331,.356,.652,.703,.991,1.067v1.861c.214,.338,.473,.475,.799,.474,1.762-.004,3.525-.002,5.346-.002,.317-.281,.667-.592,1.06-.94h4.726c.36-.336,.706-.659,1.062-.99h1.877c.366-.336,.713-.655,1.078-.99h2.816c.493-.444,.823-.973,1.593-.948,1.101,.036,2.215,.144,3.305-.101l.692-.692c1.082-.295,2.196-.153,3.294-.125,.76,.02,1.123-.456,1.61-.936h23.1c.263,.233,.613,.543,1.005,.891h3.764c.361,.336,.707,.659,1.062,.99h2.889c.471,.674,1.097,1.081,1.96,1.026,.592,.991,1.553,.938,2.515,.898,.14-.006,.367,.036,.414,.128,.494,.954,1.738,.594,2.336,1.351,.099,.125,.225,.228,.386,.389h25.873l1.113,.988h3.763c.362,.337,.708,.659,1.063,.99h3.799c.367,.337,.714,.656,1.079,.99h1.858c.262,.262,.489,.489,.716,.716,.564,.301,7.693,.341,14.646,.088,.457-.317,.828-.784,1.212-.795,.747-.022,1.132-.457,1.58-.957h1.867c.373-.333,.723-.644,1.111-.99h1.838c.365-.338,.712-.66,1.069-.99h3.796c.369-.338,.717-.656,1.001-.916h3.859c.264,.264,.481,.502,.723,.71,.077,.067,.221,.056,.358,.087,.469-.765,1.195-.852,2.036-.861,.76-.008,1.118,.47,1.607,.943h4.726c.371,.333,.72,.646,1.105,.99h2.803c.367,.338,.715,.658,1.075,.99h1.864c.374,.34,.722,.656,1.09,.991h1.85c.267,.267,.478,.512,.724,.715,.334,.275,1.073,.291,1.297,.068,1.245-1.242,2.487-2.486,3.724-3.723h.933c.38-.343,.729-.657,1.099-.99h1.883c.502-.76,1.179-1.067,2.045-.916,.743,.13,1.154-.36,1.573-.829,.94-.254,1.893-.101,2.836-.13,.8-.024,1.607-.059,2.402,.01,.769,.067,1.109-.481,1.6-.937h2.898c.28,.255,.628,.571,.977,.889,.327-.29,.667-.591,.993-.88,.351,.314,.7,.627,1.072,.959h5.686c.488,.474,.85,.938,1.607,.947,.749,.009,1.058,1.191,2.006,.929,.358,.296,.734,.573,1.07,.893,.581,.551,1.071,1.224,1.721,1.67,.754,.517,.594,1.387,1.016,1.997,.269,.389,.666,.689,1.063,1.086,.453-.272,.911-.762,1.395-.79,.758-.044,1.093-.539,1.549-.944,.871,.07,1.486-.359,1.959-1.023h2.888c.356-.332,.701-.655,1.008-.941h9.62c.251,.251,.477,.477,.764,.764,1.3,.482,2.749-.078,4.132,.28,.432,.437,.806,.985,1.561,.856,.855-.145,1.456,.226,2.087,.804,.393,.36,1.225,.087,1.609,.715,.306,.499,.86,.27,1.261,.434,.413,.168,.719,.596,1.091,.928h1.887c.569,.567,1.131,1.137,1.704,1.696,.453,.443,1.267,.014,1.644,.678,.201,.355,.495,.503,.668,.334,1.254-1.226,2.488-2.473,3.677-3.662,.407-.027,.865,.075,1.005-.091,.541-.642,1.203-.938,2.007-.998,.445-.759,1.268-.771,1.973-1.039,.273-.104,.461-.433,.739-.712h10.793c.4,.571,.951,1.357,1.315,1.877h1.415c.813,.569,.25,1.938,1.361,2.326-.049,.861,.35,1.491,1.027,1.961v1.928c.331,.354,.654,.7,.99,1.06v4.764c.975,.936,2.147,.281,3.274,.469,.305,.271,.655,.582,1.045,.929h2.804c.36,.336,.706,.659,1.052,.982,2.724,0,5.448-.011,8.171,.013,.362,.003,.712-.016,.783-.373,.038-.191-.242-.454-.398-.671-.092-.128-.223-.229-.371-.377v-1.86c-.335-.364-.655-.711-.991-1.076v-3.813c.32-.343,.643-.689,.955-1.023,.016-.335,.031-.649,.047-.963,.227-.227,.505-.421,.669-.686,.39-.632,.263-1.483,1.013-1.999,.64-.441,1.135-1.093,1.64-1.598,.578,.001,1.04,.043,1.389-.408,.18-.232,.466-.397,.731-.54,.124-.067,.314-.012,.475-.012,1.602,0,3.204-.003,4.807,.006,.142,0,.283,.084,.425,.13,.227,.227,.419,.584,.686,.655,.751,.199,1.483,.341,1.983,1.038,.454,.633,1.388,.979,1.476,1.78,.08,.728,.669,1.057,.843,1.583,.246,.746,.383,1.483,1.071,1.964-.095,.884,.373,1.478,1.018,1.958,0,1.466,.022,2.909-.015,4.35-.01,.368,.025,.623,.352,.824,.325,.199,.95,.205,1.299-.068,.25-.196,.458-.447,.726-.715h9.616c.653-.653,1.3-1.351,2.005-1.985,.406-.365,.338-.826,.475-1.255,.132-.414,.553-.737,.901-1.167v-2.061c.364-.308,.837-.735,1.337-1.127,.48-.377,.728-1.137,1.464-1.084,.791,.057,1.056-.592,1.556-.969h1.903c.338,.311,.686,.631,1.054,.971h.906c.472,.472,.926,.925,1.401,1.401v1.876c.336,.36,.659,.706,.977,1.048v.929c-.336,.366-.655,.713-.958,1.042,.098,1.199,.207,1.375,.865,1.377,1.602,.003,3.205,.001,4.807,.001h7.25c.326-.299,.673-.617,1.041-.954h1.885c.335,.307,.674,.617,1.012,.926,.241-.241,.468-.468,.785-.785,1.925-.405,3.993,.069,6.014-.243,.231-.231,.457-.458,.732-.732,1.194-.321,2.467-.044,3.722-.131,.431-.03,.704-.375,.738-.987,.009-.158,.001-.316,.001-.442,.381-.511,1.053-.771,.976-1.564-.053-.55,.293-.887,.851-.844,.557,.043,.95-.188,1.034-.682,.079-.469,.093-.893,.484-1.255,.346-.32,.596-.743,.751-.943,.614-.031,.927-.047,1.241-.064,.227-.227,.453-.453,.68-.68,.128-.078,.255-.222,.384-.223,1.588-.015,3.177-.01,4.707-.01,.633,1.179,1.657,.928,2.586,.961,.885,.416,1.404,1.246,2.147,1.893h2.89c.296-.275,.642-.597,1-.93h1.887c.352,.329,.698,.651,1.058,.987h1.78c.885,.843,1.695,1.613,2.457,2.338ZM41.303,20.996c1.884-1.884,3.681-3.681,5.611-5.611h.793c.32-.833,1.084-.97,1.883-1.037,.476-.959,1.687-.655,2.321-1.354,.627-.692,1.838-.403,2.316-1.359,.855,.041,1.491-.344,1.96-1.027h1.92c.358-.331,.705-.651,1.07-.987h2.787c.403-.341,.75-.879,1.12-.896,.716-.032,1.131-.373,1.616-.799,.513-.45,1.212-.136,1.823-.217,.144-.019,.342-.047,.412-.144,.522-.719,1.223-.9,2.071-.824,.635,.057,1.285-.042,1.918,.025,.765,.08,1.115-.463,1.604-.931h3.763c.369-.331,.718-.643,1.124-1.006,.565,0,1.201,.016,1.834-.014,.123-.006,.263-.169,.351-.291,.156-.218,.039-.618-.321-.629-1.917-.06-3.836-.028-5.722-.028-.37-.341-.717-.661-1.013-.933h-10.548c-.524,.412-.824,.974-1.602,.953-2.065-.057-4.132-.019-6.083-.019q-1.04,.962-1.679,.963c-1.28-.004-2.56-.006-3.84,.006-.139,.001-.277,.098-.415,.149-.226,.226-.453,.453-.684,.684-1.089,.241-2.202,.136-3.302,.099-.768-.025-1.101,.499-1.593,.946h-2.811c-.365,.333-.712,.65-1.083,.988h-2.826c-.358,.331-.705,.651-1.069,.987h-1.846c-.381,.343-.729,.657-1.097,.989h-1.883c-.502,.755-1.171,1.051-2.041,.924-.487-.071-.904,.066-1.252,.464-.19,.217-.508,.483-.747,.464-.766-.063-1.113,.483-1.56,.903-.84-.011-1.498,.329-1.962,1.033h-1.907c-.364,.336-.711,.657-1.071,.988h-.886c-.392,.338-.748,.644-1.104,.951-1.09-.358-1.455,.972-2.479,1.023-.961,.047-1.422,1.155-2.117,1.778-.714,.64-1.343,1.374-2.053,2.018-.399,.362-.356,.813-.486,1.249-.124,.414-.541,.74-.894,1.186v2.819c.268,.291,.588,.637,.929,1.008,0,.125-.007,.284,.001,.442,.03,.605,.309,.977,.742,.978,2.72,.002,5.441,.032,8.16-.035,.379-.009,.747-.504,1.328-.926,2.463,0,5.17-.03,7.875,.019,.772,.014,1.089-.522,1.584-.95h7.624c.359-.331,.705-.65,1.063-.98,1.332,0,1.369-.062,1.431-1.235,.039-.731,.059-.72,.848-2.052,.143-.241,.083-.603,.099-.75Zm38.679,2.116c2.209-2.209,4.336-4.336,6.549-6.549,.014-.151-.053-.515,.089-.756,.848-1.439,.863-1.43,.86-2.042-.006-1.437,.021-2.875-.023-4.311-.008-.26-.289-.511-.448-.774h-3.83c-.338,.313-.684,.634-1.038,.962h-4.744c-.367,.337-.713,.655-1.071,.984h-3.742c-.405,.354-.755,.659-1.129,.985h-2.823c-.436,.516-.826,.988-1.576,.924-.45-.038-.913,.088-1.37,.141-.502,.743-1.229,.928-2.061,.8-.765-.118-1.1,.477-1.592,.927h-1.845c-.365,.331-.712,.645-1.088,.986h-1.848c-.361,.335-.708,.655-1.064,.985h-.917c-.501,.373-.76,1.043-1.55,.964-.83-.084-1.041,1.093-2,.985-.757-.085-1.049,1.183-1.993,.926-.361,.284-.752,.539-1.079,.858-1.143,1.115-2.267,2.249-3.385,3.389-.088,.09-.063,.288-.096,.435-.081,.354,.009,.63,.247,.858,.237,.227,.418,.137,.693-.205,.181-.226,.483-.355,.731-.527,3.672,0,7.345-.001,11.018,.005,.142,0,.283,.082,.425,.125,.226,.226,.452,.452,.677,.677,4.349,.202,11.985,.208,16.653,.011,.414-.467,.823-.896,1.568-.836,.694,.056,.688-.037,2.043-.836,.241-.142,.604-.078,.761-.094Zm34.778-3.817c.361-.334,.69-.668,1.05-.964,.742-.608,.387-1.846,1.35-2.318-.038-.499-.626-.647-.731-1.024-.163-.586-.126-1.199-.694-1.642-.486-.379-.827-.918-1.581-.857-.233,.019-.52-.285-.739-.488-.468-.434-.909-.898-1.388-1.378h-1.868c-.358-.333-.703-.653-1.061-.987h-1.882c-.351-.329-.696-.652-1.045-.98h-5.699c-.378-.342-.725-.656-1.008-.912h-5.807c-.5,.729-1.147,1.065-2.027,.935-.474-.07-.941-.003-1.243,.455,.31,.339,.624,.683,.933,1.021,.381,.958-.607,1.301-.862,1.935,.276,.337,.541,.66,.808,.985-.548,.489-1.038,.9-.904,1.64,.158,.868-.18,1.527-.867,2.036-.008,.828-.317,1.501-1.013,1.947-.015,.342-.029,.656-.051,1.148-1.162,1.127-2.421,2.345-3.668,3.574-.054,.054-.04,.245,.014,.325,.082,.125,.225,.299,.343,.299,4.472,.015,8.944,.013,13.399,.013,.353-.331,.698-.654,1.053-.987h1.838c.396-.35,.745-.658,1.117-.987h1.832c.488-.48,.848-1.005,1.608-.925,.632,.066,1.311,.139,1.905-.023,.551-.151,1.018-.611,1.507-.925,.66,0,1.304-.052,1.936,.014,.764,.08,1.111-.466,1.601-.931h1.843Zm12.561,8.634c-4.463-.035-8.925-.026-13.388-.01-.114,0-.266,.187-.333,.321-.113,.225,.038,.595,.386,.603,2.23,.047,4.462,.024,6.694,.024s4.463,.005,6.694-.014c.115,0,.266-.187,.333-.321,.112-.225-.04-.601-.386-.603Zm31.321-3.093c-.066-.13-.046-.322-.138-.417-.768-.791-1.552-1.565-2.258-2.271-.443-.04-.807,.03-1.047-.111-1.393-.818-1.388-.907-2.032-.847-.736,.068-1.163-.334-1.568-.815-.309-.056-.605-.155-.901-.156-4.283-.01-8.566-.007-12.727-.007-1.036,.958-1.037,.944-1.68,.966-1.095,.038-2.199-.144-3.276,.134-.232,.232-.42,.537-.691,.663-.397,.185-.941,.129-1.265,.379-.456,.352-.965,.722-1.166,1.294l1.324,1.372h19.175c.321,.291,.667,.604,1.061,.962,2.165,0,4.389,.001,6.614-.001,.331,0,.734-.83,.573-1.146Zm12.037-4.623h3.806l1.057-.992c1.903,0,3.814,.006,5.724-.014,.114-.001,.226-.211,.343-.328-.344-.68-.875-1.176-1.519-1.547-1.269-.072-2.536,.126-3.761-.103-.252-.252-.478-.478-.704-.705-.297-.053-.594-.151-.892-.151-6.223-.009-12.446-.008-18.669-.002-.303,0-.614,.044-.905,.125-.134,.037-.292,.199-.32,.33-.019,.088,.15,.283,.27,.323,.423,.141,.947,.123,1.274,.373,.497,.38,.897,.731,1.6,.818,.696,.086,1.055,1.175,2.001,.911,.693,.458,.914,.815,1.554,2.171,.191,.405,.694,.689,.808,1.098,.164,.588,.059,1.246,.163,1.858,.036,.211,.352,.375,.54,.561,.791-.791,1.608-1.557,2.359-2.381,.373-.409,.839-.31,1.257-.455,.412-.143,.729-.563,1.142-.907h1.824l1.048-.983Zm31.232,8.174c-.791-.791-1.582-1.582-2.389-2.389h-.918c-.698-.665-1.383-1.315-2.033-1.933-.369-.03-.774,.059-.97-.103-.613-.507-1.148-1.109-1.713-1.674-.299-.05-.597-.141-.896-.145-1.278-.016-2.562-.069-3.832,.03-.391,.031-.747,.503-1.327,.924-2.462,0-5.165,.03-7.866-.019-.768-.014-1.094,.507-1.588,.946h-4.732c-.361,.329-.708,.645-1.094,.996-.267,0-.587-.03-.897,.014-.129,.018-.266,.176-.345,.304-.137,.221,.033,.655,.344,.605,.963-.155,1.386,.581,2.028,1.035h6.62c.494,.44,.821,.953,1.588,.945,3.981-.04,7.963-.018,11.721-.018,.563,.415,.933,.922,1.305,.923,2.217,.01,4.441,.191,6.651-.116,.126-.017,.228-.214,.341-.326Zm11.421-5.658c-.137-.215-.322-.566-.494-.568-4.125-.03-8.251-.023-12.376-.005-.113,0-.254,.194-.325,.329-.042,.079-.012,.262,.055,.324,.664,.618,1.162,1.529,2.292,1.343,.453,.453,.902,.902,1.35,1.35v.988c.659,.651,1.336,1.319,2.013,1.987,.663,.655,1.611,.537,1.809-.282,.108-.448,.069-.898,.477-1.242,.22-.186,.412-.466,.49-.739,.084-.293,.004-.63,.022-.947,.064-1.149,.11-1.221,1.432-1.216,.352-.328,.694-.648,1.068-.997,.612,0,1.242,.017,1.869-.015,.118-.006,.338-.282,.319-.31Zm26.88,4.57c-.072-.353-.411-.405-.776-.366-.469,.05-.948,.012-1.423,.012-.342,.321-.684,.641-1.026,.962h-1.886c-.347,.329-.687,.651-1.016,.962-2.554,0-5.086-.023-7.617,.026-.348,.007-.48,.397-.347,.615,.078,.128,.222,.307,.337,.307,4.114,.016,8.227,.022,12.341-.013,.206-.002,.538-.359,.586-.597,.091-.446,.004-.911,.441-1.255,.192-.151,.423-.465,.384-.653Zm23.518,2.508c.212,0,.422-.334,.633-.512-.113-.113-.207-.287-.343-.331-1.313-.421-1.315-.415-1.994-1.044h-2.84c-.363-.335-.711-.656-1.072-.989h-8.588c-.377-.341-.725-.656-1.002-.907h-2.9c-.495,.495-.949,.948-1.402,1.401,0,.481,.006,.961-.002,1.442-.009,.58,.3,.961,.763,.961,6.248,.002,12.497,.006,18.746-.021Zm1.103,5.816c-3.181-.04-6.363-.027-9.544-.01-.114,0-.265,.189-.331,.323-.11,.225,.04,.588,.389,.6,1.589,.056,3.181,.025,4.771,.025s3.182,.007,4.772-.014c.115-.002,.265-.188,.331-.322,.11-.225-.043-.597-.389-.601Zm22.668-5.311c-1.795-1.794-3.618-3.555-5.362-5.392-.576-.607-1.212-.893-1.991-.995-.503-.722-1.206-.962-2.05-.823-.755,.124-1.119-.431-1.658-.964-.365,0-.832,.031-1.293-.008-.609-.05-1.258,.208-1.801-.199-.245-.245-.471-.471-.725-.725h-3.782l-1.069-.982h-10.526c-.319,.299-.663,.622-1.016,.953-.94,0-1.898-.011-2.854,.015-.117,.003-.266,.185-.334,.318-.115,.224,.022,.554,.386,.605,.621,.087,1.262,.024,1.826,.024,.405,.363,.752,.675,1.115,1.001h3.802c.5,.739,1.155,1.058,2.029,.93,.477-.07,.907,.037,1.254,.447,.186,.22,.521,.517,.734,.478,1.06-.19,1.403,1.316,2.478,.991,.467,.413,.951,.81,1.397,1.244,.904,.88,1.789,1.781,2.636,2.629h14.424c.252,.252,.453,.51,.708,.696,.591,.431,1.145,.332,1.675-.24Zm30.619-5.932c-.492-.415-.932-.845-.821-1.581,.047-.312,.008-.637,.008-.961-.256-.597-.826-.926-1.221-1.407-.607-.739-1.33-1.237-2.312-1.379-.253-.037-.456-.423-.794-.762-.67,0-1.457-.053-2.234,.015-.773,.068-1.091-.509-1.585-.943h-10.562c-.281,.251-.629,.562-1.016,.908h-2.808c-.353,.331-.697,.653-1.047,.982h-3.339c-.353,.505-.901,1.29-1.321,1.891-.584,.067-.962,0-1.179,.157-.508,.366-.94,.838-1.394,1.259,.625,.874,1.956,.333,2.406,1.412,.055,.131,.583,.064,1.009,.097,.938,.937,1.939,1.937,2.866,2.863,.442,.04,.749,.068,1.057,.097,.564,.564,1.043,1.293,1.718,1.647,.653,.343,1.49,.338,1.951,1.06,.828,.008,1.501,.317,1.961,1.034h11.51c.347,.318,.693,.635,1.04,.954,.327-.292,.666-.595,.989-.882,.333,.29,.663,.577,.986,.859,.495-.491,.949-.941,1.398-1.386v-1.908c.33-.352,.653-.696,.96-1.024,.013-.242,.025-.466,.028-.536,.451-1.229,1.5-1.503,1.749-2.466Zm12.421,7.381c.296,.002,.591,.11,.887,.17,.226,.226,.453,.453,.69,.69,.221-.159,.502-.277,.657-.488,.35-.478,.833-.356,1.314-.381,.334,.312,.679,.635,1.031,.963h14.38c.351,.328,.696,.651,1.007,.941h6.856c.134-.409,.273-.831,.433-1.322-.81-.81-1.593-1.593-2.375-2.375-.791-.083-1.507-.313-1.979-1.017-.858,.048-1.49-.347-1.959-1.026h-.963c-.357-.33-.704-.65-1.07-.988h-1.838c-.385-.345-.733-.657-1.104-.989h-1.84c-.489-.47-.84-.998-1.605-.931-.794,.069-1.6,.035-2.399,.01-.941-.03-1.892,.129-2.606-.071-.557-.375-.909-.768-1.323-.852-.615-.125-1.279,.02-1.912-.046-.766-.08-1.114,.466-1.603,.931h-3.67c-.76,.36-1.1,1.363-2.091,1.004l-1.054,.973c-.307,0-.718-.124-.914,.024-.516,.391-1.023,.833-1.365,1.357-.497,.762-1.552,.254-2.009,1.023,0,.459,.006,.938-.002,1.417-.009,.576,.302,.975,.747,.976,2.56,.002,5.121-.005,7.681,.009Zm14.412,8.665c.752,.007,1.135-.424,1.673-.98,1.162,0,2.43,.024,3.696-.025,.192-.007,.379-.346,.538-.554,.013-.017-.209-.311-.323-.313-1.915-.02-3.83-.014-5.716-.014-.389-.363-.735-.685-1.089-1.016-4.79,0-9.597-.002-14.404,.014-.114,0-.271,.193-.331,.329-.101,.23,.051,.494,.414,.604,.291,.089,.621,.052,.933,.071,.707,.618,1.23,1.445,2.111,1.866,4.166,0,8.332-.02,12.497,.019Zm22.227,4.44c-1.105-1.105-2.212-2.212-3.463-3.464-.037-.002-.383,.063-.654-.051-.474-.2-.559-.646-.585-1.146-.014-.26-.294-.507-.455-.759h-1.903c-.35,.328-.694,.651-1.047,.982h-1.848c-.387,.346-.735,.657-1.102,.985h-1.837c-.49,.463-.836,.964-1.598,.939-1.096-.035-2.205-.145-3.291,.102l-.752,.752c-.384,.025-.842,.079-1.301,.082-1.755,.01-3.51-.015-5.264,.026-.242,.006-.477,.311-.715,.477,.255,.154,.522,.455,.763,.436,.769-.063,1.097,.508,1.59,.952h1.846c.363,.33,.709,.645,1.084,.985h1.849c.36,.334,.706,.654,1.052,.975,4.467,0,8.933,0,13.4,0,.346-.321,.691-.641,1.049-.973h1.882c.463-.463,.914-.914,1.299-1.299Zm9.71-16.419c-.767-.854-1.531-1.831-2.552-2.468-1,.062-1.942-.133-2.746,.126-.442,.347-.797,.626-1.057,.83-1.071,.076-2.014-.146-2.922,.188-.56,.56-1.119,1.119-1.679,1.679-.149,.022-.298,.045-.448,.066-.919,.13-1.475,.961-.923,1.52,.585,.591,.824,1.238,.98,1.989,.027,.13,.212,.226,.317,.332,.341-.322,.681-.645,1.018-.963,.962,.376,1.297-.607,1.928-.861,.361,.309,.709,.608,.931,.799,2.365,0,4.572,.005,6.778-.014,.113,0,.224-.21,.374-.359v-2.862Zm22.218,17.236c-.504-.423-.982-.823-1.675-1.405-.476-.109-1.269-.056-2.045-.005-.767,.05-1.102-.486-1.594-.94h-3.761c-.364-.326-.712-.637-1.097-.983h-3.769c-.351-.329-.695-.651-1.046-.981h-1.908c-.784,.788-1.572,1.58-2.359,2.371,.218,.169,.418,.394,.669,.499,.271,.114,.625,.052,.877,.188,.269,.145,.461,.433,.774,.746,.965,.209,2.089-.193,3.127,.243,.225,.226,.451,.451,.693,.693,1.36,.278,2.797-.202,4.048,.202,.334,.334,.56,.56,.798,.798,.335-.305,.67-.611,.993-.906,.332,.298,.665,.599,.976,.879,.383-.332,.733-.637,1.043-.906q4.277,0,5.253-.494Z"/>
</svg>
