<?xml version="1.0" encoding="UTF-8"?>
<svg preserveAspectRatio="none" id="a" data-name="AW" xmlns="http://www.w3.org/2000/svg" width="500" height="16.471" viewBox="0 0 500 16.471">
  <path id="b" data-name="21" d="M498.252,6.469c.014-.116-.015-.271,.048-.337,.557-.58,1.131-1.144,1.699-1.713-.228-.172-.435-.394-.69-.502-.273-.116-.628-.059-.881-.197-.271-.148-.465-.437-.809-.781-.993,0-2.105-.051-3.211,.017-.779,.048-1.095-.522-1.592-.953h-35.713c-.296,.273-.644,.594-.99,.913-.336-.311-.682-.632-1.042-.966h-13.463c-.25-.25-.472-.484-.707-.704-.397-.37-.892-.326-1.294-.115-.399,.209-.708,.588-.998,.841-2.837,0-5.572,.002-8.306-.007-.139,0-.278-.1-.416-.153-.228-.227-.455-.455-.687-.687-1.097-.237-2.217-.033-3.321-.132-.777-.07-1.101,.506-1.597,.945h-5.725c-.364,.336-.712,.658-1.235,1.141-.57-.735-1.153-1.489-1.565-2.02h-4.105c-.281,.281-.508,.508-.735,.736-.136,.059-.273,.168-.409,.169-1.448,.012-2.896-.015-4.342,.03-.243,.008-.476,.313-.697,.47,.295,.333,.59,.668,.891,1.008-.683,.431-1.062,.558-1.322,.426-.135-.069-.315-.159-.357-.28-.145-.425-.15-.921-.374-1.289-.329-.538-.801-.989-1.06-1.296h-4.079l-1.007,.883h-6.782c-.283-.283-.51-.51-.822-.822-1.316-.137-2.716-.137-4.037,0-.307,.307-.535,.535-.877,.877-1.637,0-3.392,.041-5.144-.019-.778-.026-1.094,.526-1.588,.952-.672-.634-1.349-1.273-1.982-1.87h-3.856c-.497,.428-.813,.977-1.59,.958-1.43-.035-2.863,.048-4.294,.108-.118,.005-.228,.213-.342,.327,.096,.114,.189,.23,.288,.341,.205,.229,.413,.455,.619,.683-1.334,.845-1.727,.63-1.985-1.065-.462-.47-.912-.929-1.352-1.377h-3.854c-.361,.335-.709,.657-1.005,.932h-6.764q-1.006-.942-1.588-.937c-1.109,.008-2.219,.002-3.209,.002-.346,.346-.574,.574-.965,.965-1.579,0-3.329,.041-5.075-.019-.76-.026-1.135,.435-1.676,.985-.654-.636-1.287-1.3-1.945-1.928h-2.871c-.364,.336-.712,.658-1.111,1.026-1.886,0-3.807-.006-5.728,.015-.115,.001-.228,.213-.375,.36,.296,.333,.593,.668,.893,1.006-.43,.576-.992,.655-1.595,.295-.504-.301-.234-.863-.352-1.305-.448-.448-.903-.903-1.38-1.38h-3.859c-.316,.294-.663,.618-1.027,.957-1.589,0-3.195-.007-4.802,.015-.115,.002-.26,.196-.329,.333-.04,.079,.01,.251,.078,.329,.21,.243,.448,.46,.676,.688-.604,.648-.884,.716-1.505,.421-.346-.164-.444-.449-.361-.817,.035-.153,.006-.32,.006-.516-.445-.428-.908-.872-1.49-1.431-1.135,0-2.409-.007-3.682,.011-.128,.002-.254,.152-.381,.234-.228,.227-.455,.455-.702,.702h-7.712c-.324-.3-.672-.623-1.011-.937h-2.864c-.371,.339-.72,.658-1.006,.92h-7.731c-.494-.45-.828-1.033-1.602-.938-.78,.096-1.583-.115-2.344,.127-.24,.241-.468,.468-.695,.695-.14,.051-.28,.145-.42,.145-2.412,.009-4.825,.01-7.237-.001-.135,0-.27-.117-.405-.18-.227-.227-.455-.455-.73-.73h-2.916c-.267,.239-.618,.552-1.006,.899h-5.702c-.367,.334-.714,.65-1.06,.965-.703-.635-1.262-1.428-2.2-1.968-.844,.223-1.809-.13-2.739,.188-.23,.23-.458,.458-.691,.691-.927,.272-1.884,.083-2.828,.143-1.099,.07-2.217-.187-3.286,.179-.239,.24-.467,.467-.755,.755-.664-.633-1.33-1.267-1.981-1.887h-1.896c-.377,.342-.727,.659-1.096,.994h-6.628c-.402,.33-.727,.597-1.045,.858-.641-.642-1.21-1.21-1.821-1.821h-1.947c-.276,.25-.626,.566-1.005,.909h-8.648c-.334-.308-.683-.63-1.016-.937h-.927c-.38,.343-.73,.659-1.006,.909h-9.665c-1.375-1.267-1.453-1.269-2.868,.042-2.884,0-5.921,.005-8.958-.009-.295-.001-.589-.123-.883-.189-.227-.228-.455-.455-.721-.721-.331,.291-.665,.584-1.031,.906h-7.649c-.36,.325-.705,.636-1.036,.935-.351-.317-.702-.632-.976-.879h-10.631q-.938,.891-1.751,.095c-.303-.046-.605-.132-.908-.132-35.062-.006-70.123-.006-105.185,.002-.136,0-.273,.111-.409,.171-.227,.227-.455,.455-.733,.733-.327-.28-.658-.563-1.037-.887h-9.612l-.991,.92c-.346-.319-.694-.64-1.056-.975h-16.343c-.496-.436-.817-1.017-1.595-.949-.782,.068-1.574,.014-2.241,.014-.348-.348-.575-.575-.803-.803-1.08-.262-2.159-.287-3.237,.017-.737,.825-1.672,1.469-2.235,2.442,.056,.954-.133,1.911,.154,2.842,.114,.114,.213,.25,.344,.337,.36,.24,.46,.467,.254,.683-.104,.109-.243,.262-.367,.263-1.921,.017-3.841,.012-5.68,.012-.539-.475-.866-1.003-1.64-.984-2.25,.054-4.503,.017-6.754,.024-.144,0-.287,.078-.431,.12-.227,.227-.455,.455-.753,.753-1.331,.135-2.732,.138-4.035,.001-.323-.323-.551-.551-.879-.879-3.101,0-6.305-.003-9.508,.01-.128,0-.256,.149-.384,.228-.081,.127-.232,.253-.234,.381C-.005,8.049,0,9.645,0,11.103l1.436,1.494H10.12c.365,.337,.714,.658,1.005,.927h7.73c1.004-.938,1.004-.953,1.594-.931,1.109,.043,2.225-.12,3.321,.118,.232,.232,.46,.46,.846,.846h6.53c1.287,0,2.574-.027,3.86,.008,1.102,.03,2.218-.181,3.293,.161,.238,.238,.465,.465,.796,.796,2.133,0,4.371,.004,6.608-.01,.129,0,.257-.147,.385-.226,.228-.227,.455-.455,.706-.706h4.83c.31,.289,.657,.613,1.004,.938h8.652c.363-.336,.711-.658,1.004-.929h2.926c.511,1.217,2.143,.617,2.697,1.733,.049,.098,.268,.164,.404,.157,.94-.051,1.898,.168,2.812-.164,.236-.236,.464-.464,.793-.793,2.778,0,5.66-.003,8.541,.01,.128,0,.256,.148,.384,.227,.227,.227,.455,.455,.705,.705h5.794c.311-.291,.658-.615,1.004-.938h5.757c.365,.337,.713,.658,1.005,.927h6.762c.496-.44,.821-.988,1.597-.95,1.428,.069,2.863,.001,4.179,.03,.339,.339,.567,.567,.794,.794,.139,.053,.277,.152,.417,.152,2.412,.009,4.825,.01,7.237,0,.136,0,.272-.112,.408-.172l.785-.785c1.49,0,3.085-.005,4.68,.01,.129,.001,.256,.148,.384,.227,.227,.227,.455,.455,.705,.705h7.725c.311-.29,.658-.614,1.005-.938h4.792c.364,.336,.713,.658,1.005,.927h6.756c.504-.436,.826-.988,1.603-.95,1.428,.07,2.863,.001,4.179,.03,.339,.339,.566,.566,.953,.953,2.067,0,4.298,.006,6.529-.005,.46-.002,.919-.065,1.291-.092,.31-.31,.537-.537,.765-.765,1.086-.119,2.174-.314,3.234,.131,.23,.23,.458,.458,.708,.708h11.586l1.004-.938h.93l1.006,.928h12.51c.392-.328,.72-.602,1.042-.871,.289,.289,.517,.517,.744,.744,.139,.053,.277,.153,.416,.153,3.86,.008,7.72,.011,11.58,0,.297,0,.594-.111,.891-.17,.114-.114,.22-.237,.342-.34,.654-.555,1.126-.622,1.642-.206,.249,.201,.459,.45,.709,.701h12.549c.31-.287,.655-.608,1.001-.93,.698,.635,1.266,1.419,2.095,1.919,1.592-.002,3.185,.003,4.653-.004,.349-.348,.576-.576,.803-.803,.139-.053,.278-.151,.417-.152,2.413-.009,4.825-.01,7.237,0,.136,0,.272,.113,.408,.173,.227,.228,.455,.455,.784,.785,2.134,0,4.372,.004,6.61-.01,.129,0,.256-.148,.384-.227,.227-.227,.455-.455,.705-.705h5.794c.311,.291,.658,.615,1.009,.942h100.339c.346-.317,.685-.627,1.007-.921,.372,.329,.723,.64,.983,.869h6.718c.449-.372,.806-.667,1.11-.92,1.035,.064,1.992-.134,2.921,.166,.228,.228,.455,.455,.687,.687,1.097,.235,2.217,.032,3.321,.131,.778,.069,1.1-.507,1.596-.946h31.784c.362-.333,.711-.653,1.08-.991h8.656c.34,.317,.687,.64,1.006,.937h1.893c.392-.348,.743-.661,1.117-.994h3.712c.445-.37,.801-.667,1.211-1.008,.921,.288,1.89-.126,2.813,.245,.231,.231,.458,.458,.686,.685,.143,.042,.287,.121,.43,.121,2.573,.007,5.147-.026,7.72,.024,.772,.015,1.104-.504,1.599-.949h4.834c.289,.265,.637,.586,1.005,.923h6.725c.342-.318,.689-.642,1.007-.938h5.753c.392,.349,.743,.661,1.007,.895h3.823c.445-.371,.802-.667,1.087-.904,1.375-.095,2.652,.147,3.865-.127l.735-.735c.764-.234,1.566-.029,2.347-.124,.775-.094,1.103,.497,1.599,.94h3.868c.29-.267,.638-.588,1.005-.925h3.815l1.048-.977c1.011,.368,1.34-.667,1.903-.908h5.857c.442,.512,.832,.944,1.586,.932,2.733-.044,5.468-.013,8.202-.024,.3-.001,.6-.098,.9-.151,.745-.821,1.66-1.485,2.186-2.327,.124-1.074,.296-2.068-.747-2.672Zm-149.165-.761c-.888,.195-1.759,.245-2.661-.235,.561-.561,1.001-1.001,1.444-1.444,.888-.195,1.759-.245,2.661,.235-.561,.561-1.001,1.001-1.444,1.444Z"/>
</svg>
