<?xml version="1.0" encoding="UTF-8"?>
<svg preserveAspectRatio="none" id="a" data-name="AW" xmlns="http://www.w3.org/2000/svg" width="500" height="28.264" viewBox="0 0 500 28.264">
  <path id="b" data-name="26" d="M498.25,16.289c.008-.485,.022-.899-.382-1.22-.34-.271-.619-.619-.916-.924-.334,.31-.651,.604-.981,.911h-7.87c-.918,.86-.918,.857-1.448,.855-1.6-.006-3.199-.002-4.689-.002-.211,.211-.323,.308-.418,.42-.563,.665-1.683,.367-2.138,1.237-.042,.08-.254,.074-.388,.104-.322,.072-.585-.001-.792-.212-.205-.209-.415-.415-.622-.623-.287-.015-.574-.03-.883-.046-.306,.286-.623,.581-.94,.878h-.848c-.332-.307-.649-.6-.916-.846h-1.766c-.452,.402-.749,.944-1.457,.859-.713-.086-1.444,.099-2.08-.093-.393-.215-.49-.749-1.003-.633-.211,.211-.418,.418-.672,.672h-3.494c-.163-.131-.432-.272-.593-.492-.322-.442-.767-.317-1.185-.343-.317,.289-.633,.578-.94,.858-.319-.293-.637-.584-.899-.824h-1.773c-.241,.241-.439,.458-.661,.65-.071,.062-.288,.089-.294,.073-.448-1.104-2.022-.428-2.464-1.594h-4.351c-.34-.305-.66-.591-1.013-.907h-1.683c-.337-.31-.655-.604-.964-.888h-7.034c-.652,.588-1.161,1.312-1.928,1.752-.44,0-.884,.036-1.32-.008-.774-.078-1.431,.078-1.892,.754-.705,.117-1.359,.294-1.83,.921-.179,.239-.902,.117-1.174-.137-.214-.2-.416-.414-.638-.635h-.87c-.303,.279-.621,.573-.926,.854h-.875c-.475-.591-1.005-1.048-1.82-.943-.521-.521-1.04-1.039-1.701-1.701-1.182,.409-1.535-.741-2.245-1.522,.121-.345,.254-.73,.382-1.094h22.984c.306,.283,.625,.576,.956,.882h12.263c.345,.312,.664,.601,.917,.83h3.842c.061-.489,.094-.628,.094-.768,0-.544-.244-.92-.621-.953-.568-.05-1.138-.088-1.707-.131-.463-.673-1.118-.767-1.891-.774-1.147-.01-2.313,.209-3.394-.108-.259-.259-.467-.467-.75-.75h-13.096c-.293,0-.589,.022-.879-.011-.122-.014-.23-.144-.345-.222-.207-.207-.415-.415-.635-.635h-5.245c-.332-.306-.65-.6-.954-.88h-1.725c-.347,.313-.666,.601-.918,.829h-12.34c-.557-.557-1.076-1.076-1.651-1.651-.364-.021-.787-.064-1.21-.068-1.027-.011-2.054-.009-3.081,.005-.122,.002-.243,.113-.365,.174-.208,.207-.415,.415-.699,.698-3.434,0-6.944,.002-10.455-.01-.115,0-.229-.146-.343-.223-.208-.208-.415-.415-.635-.635h-10.527c-.332-.306-.65-.599-.981-.905h-5.245c-.22-.22-.416-.441-.638-.632-.459-.396-.88-.334-1.503,.15-.188,.146-.405,.256-.604,.379-.223-.223-.431-.431-.643-.643-.848-.234-1.721-.069-2.583-.124-1.001-.064-2.021,.179-2.992-.169-.22-.22-.427-.428-.673-.672h-10.496c-.337-.305-.656-.593-1.001-.906h-14.022c-.328-.297-.643-.582-.944-.853-.306,.268-.61,.534-.912,.799-.445-.423-.768-.857-1.465-.854-6.748,.028-13.496,.021-20.245,.01-.715-.001-1.444,.128-2.135-.107l-.65-.65c-.689-.24-1.417-.108-2.132-.109-5.575-.013-11.149-.02-16.724,.01-.696,.004-1.021-.427-1.469-.856h-17.445c-.7-.329-1.01-1.25-1.924-.918-.316,.291-.634,.584-.941,.867h-.849c-.342-.311-.661-.601-.997-.906h-13.14c-.139-.139-.237-.25-.348-.346-.819-.706-.993-.77-1.793-.042-.51,.464-1.038,.366-1.595,.433-.701,.084-1.022-.421-1.47-.85h-29.068l-.896,.801c-.297-.272-.609-.557-.911-.832h-5.251c-.34,.31-.659,.601-.92,.839-.924,.38-1.204-.615-1.94-.742-.326,.826-1.062,.755-1.805,.794-.7,.037-1.022-.43-1.467-.856l-.943,.823h-2.599c-.3-.271-.615-.557-.918-.831-.32,.29-.639,.578-.976,.883h-9.614c-.449,.421-.763,.921-1.467,.857-.625-.057-.623-.015-1.893-.757-.377-.22-.812-.238-1.183,.049-.23,.178-.419,.409-.665,.655h-11.374l-.977,.882c-.299-.265-.61-.541-.909-.805-.321,.289-.64,.577-.978,.881h-10.491q-.856,.813-1.601,.084c-.654,.104-.932,1.105-1.858,.723-.259-.235-.577-.525-.92-.836h-.849c-.307,.283-.626,.576-.96,.885h-12.252c-.35,.315-.67,.602-1.008,.906h-13.045c-.439,.33-.755,.76-1.12,.806-.867,.108-1.757,.051-2.636,.029-.569-.014-1.153,.12-1.702-.123-.107-.107-.204-.219-.316-.313-.65-.546-.998-.612-1.5-.251-1.32,.949-1.334,.957-2.438-.167-.316,.287-.632,.574-.929,.844h-2.6c-.353-.316-.672-.602-1.013-.907h-4.323q-.85-.81-1.613-.066c-.694,.222-1.426,.029-2.137,.117-.706,.087-1.011-.445-1.461-.855h-4.411c-.261,.238-.579,.53-.898,.822-.306-.279-.622-.567-.959-.874h-1.67c-.343-.295-.645-.556-.944-.813q-.84,.804-1.613,.053c-.201,.134-.459,.229-.599,.414-.319,.423-.751,.356-1.21,.364-.3-.277-.617-.57-.949-.876h-9.638c-.321-.293-.63-.576-.923-.844-.34,.3-.66,.584-.896,.792h-4.428c-.445-.448-.787-.854-1.478-.85-5.428,.03-10.856,.021-16.283,.01-.567-.001-1.153,.132-1.696-.133l-.638-.638c-.697-.21-1.425-.095-2.143-.097-4.694-.012-9.389-.022-14.083,.011-.703,.005-1.007-.459-1.458-.865h-10.571c-.263,.242-.581,.533-.9,.826-.306-.28-.622-.569-.916-.838h-1.717l-.918,.815h-1.779q-.842-.806-1.617-.054c-.201-.135-.459-.232-.599-.418-.319-.425-.753-.352-1.209-.363-.3,.278-.618,.572-.948,.878h-.843l-.914-.834c-.342,.301-.663,.584-1.008,.887h-4.311q-.835,.803-1.662,.004h-1.785c-.225,.196-.547,.477-.918,.801h-4.316c-.33,.307-.646,.602-.973,.907h-2.606c-.325,.304-.642,.599-.953,.889-.929-.338-1.219,.627-1.854,.872-.734,0-1.467-.007-2.201,.002-.463,.005-.657,.239-.734,.842-.079,.622-.26,.895-.662,.912-.852,.037-1.787-.197-2.314,.783-.283,.034-.562,.082-.842,.098-.292,.017-.589-.016-.879,.013-.124,.013-.254,.112-.349,.205-.077,.076-.172,.229-.142,.3,.053,.125,.175,.263,.3,.308,.386,.138,.874-.097,1.188,.321,.287,.382,.147,.827,.179,1.246,.044,.569-.115,1.153,.129,1.702,.211,.211,.478,.387,.609,.635,.123,.234,.118,.542,.138,.819,.021,.292-.055,.603,.018,.876,.121,.451,.44,.623,.945,.643,.723,.029,.728,.096,.795,1.085,.777,.777,1.497,1.497,2.368,2.368h2.347c.344,.304,.665,.587,1.027,.907h4.327c.328,.307,.645,.602,.962,.899h7.011c.331-.306,.649-.6,.98-.906h5.878c.994-.495,1.332-1.412,2.189-1.731,.74,0,1.485,.08,2.203-.023,.669-.097,.971-1.099,1.839-.857,.331-.272,.661-.544,1.046-.86h1.663c.641-.61,1.268-1.208,1.875-1.785,.328,.025,.612,.047,.897,.069,.104,.104,.208,.208,.311,.311,.311,.311,.679,.584,.921,.942,.386,.57,1.067,.291,1.511,.62,.233,.173,.42,.409,.67,.66h2.563c.341,.305,.661,.59,1.015,.907h1.682c.337,.311,.656,.604,.984,.907h1.71c.341,.311,.659,.601,.379,.346,1.521,1.005,1.717-.188,2.389-.242,.219,.219,.426,.426,.767,.767,.871,0,1.884,.046,2.891-.016,.701-.043,1.022,.427,1.47,.856h9.7c.249-.223,.568-.51,.918-.825h1.734c.613-.613,1.208-1.259,1.859-1.844,.637-.573,1.056-1.55,1.94-1.65,1.218-.137,1.587-1.182,2.344-1.795,.671-.544,1.241-1.214,1.807-1.78,.389,.038,.774-.043,.936,.111,1.172,1.109,2.299,2.265,3.447,3.414h.945c.368,.388,.824,.774,1.16,1.246,.537,.752,1.652,.374,2.165,1.219,.223,.368,.802,.175,1.223,.181,.88,.013,1.761-.016,2.64,.01,.861,.026,1.733-.131,2.576,.13,.214,.214,.421,.421,.629,.629,.131,.039,.261,.111,.392,.111,4.108,.006,8.215,.005,12.323,.005,.147,0,.331,.057,.433-.01,.353-.234,.678-.512,1.096-.837h4.268c.334-.306,.652-.598,.988-.907h2.6c.324-.303,.64-.599,.947-.886,.304-.014,.592-.027,.88-.04,.207-.208,.386-.461,.628-.613,.575-.362,1.399-.207,1.834-.927,.097-.16,.523-.197,.784-.168,.786,.085,1.389-.149,1.906-.762,.134-.159,.534-.094,.812-.132,.119,.066,.262,.109,.355,.201,1.354,1.343,2.7,2.694,4.049,4.042,.311,.311,.577,.804,.943,.895,.71,.176,1.365,.34,1.804,.972,.807-.082,1.356,.338,1.792,.933h2.647c.325,.303,.642,.599,.971,.907h1.676c.37,.323,.692,.604,1.038,.906h5.196c.443,.461,.796,.853,1.483,.855,.782,.002,1.424-.13,1.9-.878,.324,.275,.625,.531,.975,.828h3.489c.278-.259,.594-.555,.919-.858h5.246c.328-.305,.645-.6,.976-.907h2.552l1.043-.907h2.542l1.658-1.658h1.542c.688-.712,1.29-1.335,1.743-1.805h2.931c1.457,1.457,2.909,2.909,4.38,4.38h.832c.335,.31,.652,.604,.979,.907h1.715c.339,.31,.657,.6,.992,.907h1.654c.385,.329,.708,.606,.951,.813,1.855,.097,3.603-.053,5.281,.093,.269,.269,.476,.476,.742,.741,1.222,.121,2.499,.126,3.679,.002,.303-.303,.511-.511,.758-.757,.3,.261,.604,.525,.943,.819h6.116c.302-.278,.62-.571,.928-.855h1.729c.342,.311,.66,.601,.927,.843,.981,.356,1.249-.655,1.685-.787,1.086-.074,1.948-.133,2.81-.192,.438-1.105,2.01-.433,2.451-1.596h2.513c.689-.339,1.005-1.248,1.914-.919,.319-.295,.638-.588,.97-.895h.872c.425-.641,1.03-.911,1.796-.971,.306-.024,.418-.391,.363-.706-.089-.514,.177-.88,.629-.93,.725-.08,1.467-.058,2.197-.001,.242,.019,.465,.275,.697,.422,0,.293,0,.587,0,.774,1.066,1.108,2.081,2.162,3.081,3.201h1.965c.123,1.342,1.834,.453,2.263,1.572,.644,.412,1.419-.046,2.081,.32,.198,.198,.406,.406,.616,.616,1.551,.352,3.162-.145,4.643,.241,.274,.274,.481,.481,.723,.723h6.1l.973,.888c.305-.278,.622-.566,.934-.851,.872-.352,1.18,.575,1.768,.779,.341-.284,.666-.554,.939-.782,1.995,0,3.902,.003,5.809-.006,.127,0,.254-.088,.382-.135,.519-.519,1.037-1.037,1.556-1.556,.208,.165,.42,.325,.621,.497,.492,.419,1.045,.429,1.503,.02,.215-.192,.427-.386,.663-.601h1.694c.674-.589,1.149-1.357,1.959-1.73,.244-.112,.541-.108,.814-.158,.519-.519,1.037-1.038,1.584-1.585h1.761c1.02-1.02,2.046-2.057,3.088-3.078,.195-.191,.463-.462,.68-.447,1.102,.075,1.38-.901,1.982-1.45,.027-.29,.053-.573,.08-.855,1.556-1.556,3.112-3.112,4.668-4.668,.134-.032,.266-.085,.401-.091,.293-.014,.587-.006,.88-.004q.774,.006,1.016,1.002c.158,.65,.156,.717,.821,.737,.517,.015,.965,.244,.904,.653-.147,.989,1.189,1.299,.929,2.284-.026,.097,.104,.246,.183,.356,.183,.254,.455,.241,.773,.269,.724,.063,.728,.108,.794,1.218,1.044,1.007,2.094,2.019,3.265,3.148h1.51c.335,.31,.653,.604,.98,.907h1.466c1.004,.431,1.294,1.353,2.142,1.635,.212-.212,.419-.419,.627-.627,.104,.013,.239-.01,.305,.047,.223,.19,.406,.566,.631,.587,.76,.072,1.372,.329,1.796,.977h3.508c.334,.308,.653,.602,.96,.885h9.65c.343-.311,.661-.601,.998-.907h2.574c.657-.66,.926-.767,1.85-.97,.519-.519,1.037-1.037,1.558-1.558,.814,.102,1.346-.35,1.82-.944h.975c.763-.791,1.572-1.637,2.393-2.471,.058-.059,.202-.035,.305-.049,.208,.207,.386,.543,.628,.598,.702,.16,1.306,.372,1.824,.943,.983,1.086,2.054,2.094,3.101,3.122,.196,.192,.449,.326,.676,.486,.846,.038,1.795-.237,2.351,.813,.396,.021,.821,.064,1.245,.064,4.548,.005,9.096-.019,13.643,.024,.808,.008,1.394-.216,1.864-.834,.787,.043,1.365-.319,1.795-.941h.885c.325-.303,.641-.598,.972-.907h1.717c.538-.538,1.057-1.056,1.617-1.616,.64-.12,1.334-.229,1.792-.878,.091-.128,.478,.088,.516,.411,.066,.57,.019,1.153,.019,1.616,.241,.405,.484,.535,.794,.485,.507-.082,.869,.164,.945,.616,.072,.429,.083,.82,.445,1.148,.32,.289,.558,.668,.747,.901h1.932c.672,.591,1.157,1.341,1.955,1.739,.847,.036,1.792-.22,2.378,.88,2.568,0,5.194,.003,7.82-.009,.119,0,.238-.126,.357-.193,.207-.207,.415-.415,.651-.65h2.589c.331-.307,.648-.602,.976-.907h1.724c.326-.304,.642-.599,.971-.907h1.716c.543-.543,1.057-1.067,1.583-1.578,.243-.236,.78-.232,1.188-.002,.291,.164,.369,.424,.293,.761-.03,.134,.011,.285,.019,.428,.415,.415,.83,.83,1.245,1.245,.14,.017,.287,.069,.418,.043,.333-.066,.64-.015,.761,.273,.157,.375,.125,.856,.346,1.17,.327,.466,.804,.827,1.153,1.17,1.003,.365,1.288-.609,2.071-.899h3.288c.442-.466,.798-.943,1.485-.829,.782,.13,1.422-.108,1.883-.829h1.942c.458-.586,.995-1.273,1.418-1.814h1.139c.484-.554,.975-1.085,1.814-.936,.521-.521,1.034-1.045,1.563-1.553,.09-.086,.248-.101,.375-.149,1.068,.016,1.059,.031,2.322,.775,.222,.131,.553,.075,1.084,.132,.528,.63,1.182,1.41,2.014,2.402-.009-.064-.065,.285,.083,.479,.601,.792,.68,1.235,1.917,1.487,.695,.142,.967,1.126,1.834,.887,.434,.369,.873,.733,1.299,1.11,.22,.194,.417,.412,.64,.635h4.356c.335,.309,.654,.602,.961,.885h.848c.343-.312,.662-.601,.998-.907h3.454c.556-.556,1.074-1.074,1.609-1.609,.2,.123,.416,.233,.605,.378,.622,.482,1.039,.538,1.502,.151,.224-.188,.418-.412,.638-.632h.843c.332-.306,.65-.6,.954-.88h5.229c.367,.311,.685,.806,1.025,.821,.656,.03,1.074,.296,1.474,.742,.167,.186,.348,0,.627-.246,.764-.672,1.001-.641,1.801,.048,.111,.095,.208,.206,.348,.346h1.695c.336,.306,.655,.596,.996,.907h1.708c.329,.303,.648,.597,.949,.874h.868c.12-.12,.221-.227,.328-.327,.771-.72,1.053-.727,1.814-.141,.957,.738,1.04,.725,2.188-.336,.289,.24,.587,.487,.949,.787h7.889c.262-.24,.58-.531,.917-.84h2.613c.309,.288,.626,.583,.918,.854h1.756c.122-.122,.226-.226,.33-.33,.104-.104,.198-.219,.313-.309,.478-.375,.861-.327,1.501,.179q.523,.414,1.245-.287c.131-.038,.262-.109,.393-.11,1.76-.007,3.522-.04,5.281,.012,.706,.021,1.006-.462,1.451-.861,.303,.272,.609,.547,.918,.824,.606-.591,1.225-1.192,1.8-1.753,.375,.043,.683,.013,.928,.123,.338,.151,.445,.679,.938,.621,.521-.521,1.039-1.04,1.586-1.586h2.593c.326-.31,.605-.659,.961-.894,.577-.38,.284-1.066,.616-1.514,.311-.42,.798-.192,1.198-.319,.408-.408,.823-.823,1.251-1.251v-2.631c-.583-.615-1.179-1.243-1.75-1.845ZM34.553,8.842c-.561,.092-1.165-.01-1.703,.14-.373,.104-.658,.709-.994,.719-.672,.021-.977,.519-1.459,.753-.475,.231-1.112,.119-1.676,.178-.127,.013-.31,.076-.357,.17-.44,.886-1.635,.45-2.124,1.23-.287,.458-.748,.334-1.191,.356-.303-.284-.617-.579-.94-.882h-.848c-.32,.301-.635,.596-.933,.876H13.572c-.329-.306-.644-.599-.968-.899h-2.574c-.395-.229-.455-.44-.208-.639,.105-.085,.229-.206,.347-.209,.864-.018,1.73-.01,2.507-.01,.492-.467,.814-.911,1.505-.92,.349-.005,.693-.424,1.237-.788-.105,.037,.022-.046,.15-.047,1.313-.01,2.626-.006,4.034-.006,.268-.22,.592-.486,.936-.769,.595,.158,.885,1.113,1.802,.743,.27-.25,.585-.542,.917-.848h4.342c.319-.293,.633-.58,.936-.858,.317,.291,.634,.581,.98,.898,1.732,0,3.476-.005,5.221,.013,.104,.001,.308,.264,.294,.285-.135,.194-.289,.483-.475,.514Zm34.324,3.545c-1.636,0-3.53,.033-5.421-.017-.708-.019-.998,.477-1.444,.864-.303-.276-.61-.555-.93-.846h-2.602c-.325-.304-.642-.599-.97-.906h-4.321c-.367-.322-.688-.604-1.033-.907h-2.556c-.444-.456-.798-.979-1.48-.825-1.242,.281-1.754-.62-2.345-1.399,.281-.468,.746-.348,1.193-.369,.304,.283,.62,.579,.945,.882h7.889c.325,.303,.641,.599,.969,.904h11.414c.376,1.021,1.591,.57,2.183,1.332-.428,.369-.863,.744-1.491,1.286Zm101.462-.885c-.557,.02-.994-.07-1.311,.363-.259,.354-.602,.569-1.099,.535-.489-.033-.708,.434-1.015,.717-.323,.298-.625,.62-.986,.98h-2.551c-.345,.303-.666,.585-1.032,.907h-2.562c-.329,.307-.645,.602-.969,.904h-15.812c-.325-.303-.641-.599-.971-.906h-1.713c-.233-.233-.441-.441-.648-.648-.947-.451-1.986-.032-2.9-.259-.57-.57-1.089-1.089-1.595-1.594-.388-.2-.873,.019-1.2-.327-.075-.08-.17-.232-.14-.302,.053-.125,.193-.304,.297-.304,3.513-.016,7.027-.013,10.516-.013,.354-.33,.67-.626,.996-.929h11.41c.324-.303,.641-.598,.945-.882,.447,.019,.887-.079,1.206,.354,.141,.19,.398,.294,.601,.436l.633-.633c.125-.052,.25-.148,.376-.149,2.913-.009,5.826-.007,8.584-.007,.36-.36,.568-.568,.88-.88,.467,0,1.044-.042,1.609,.024,.189,.022,.346,.32,.44,.414-.686,.758-1.371,1.515-1.989,2.199Zm53.088-1.211c-.036,.123-.184,.282-.3,.3-.283,.044-.577,.014-.973,.014-.252,.28-.533,.615-.837,.927-.613,.628-1.308,1.191-1.84,1.881-.492,.639-1.256,.577-1.812,.942-.599,.393-1.053,1.007-1.585,1.539h-1.713c-.334,.308-.651,.602-.976,.902h-2.595c-.334,.308-.651,.6-.978,.9h-6.07c-.368,.323-.689,.603-.976,.854-.353,0-.651-.036-.937,.007-.669,.101-1.08-.27-1.441-.721-.558-.307-1.144-.139-1.708-.16-.731-.028-1.464-.025-2.195,0-.567,.019-1.15-.128-1.695,.13-.211,.211-.418,.418-.686,.686l-.95-.788h-4.287c-.332-.301-.651-.589-.996-.902h-2.576c-.638-.607-1.265-1.203-1.866-1.775-.476-.001-.897,.04-1.218-.372-.268-.344-.612-.628-.927-.943v-1.74c-.301-.322-.596-.638-.903-.968v-.803c-.295-.341-.557-.644-.816-.943,.144-.144,.244-.333,.352-.338,.871-.038,1.744-.054,2.616-.054,10.098-.003,20.196,.006,30.294-.018,.707-.002,.99,.486,1.498,.897,2.836,0,5.755-.012,8.675,.018,.311,.003,.485,.309,.422,.528Zm49.427-.105c-.966,.967-1.977,2.011-3.038,3.002-.162,.151-.551,.059-.932,.087-.977,.977-2.013,1.998-3.03,3.039-.318,.325-.703,.382-1.111,.512-.767,.245-1.292,1.106-2.283,.854-.685-.174-1.008,.419-1.419,.799-.137,.024-.273,.066-.409,.069-.439,.009-.878,.003-1.359,.003-.295,.267-.613,.555-.958,.868h-3.45c-.332,.306-.649,.6-.957,.885h-.85c-.338-.309-.655-.6-.917-.84h-1.765c-.452,.404-.749,.924-1.456,.862-.711-.063-1.432-.014-2.039-.014-.316-.316-.524-.523-.815-.815-1.767-.182-3.646,.054-5.441-.133-.438-.531-.839-.92-1.511-.816-.782,.121-1.436-.091-1.787-.846h-1.801c-.331-.305-.648-.596-.984-.904h-.698c-1.415-1.416-2.752-2.754-4.137-4.14l-.051-.766c-.518-.517-1.04-1.03-1.546-1.559-.051-.053-.04-.225,.008-.298,.075-.115,.206-.276,.314-.276,8.488-.013,16.976-.012,25.464-.012,.317-.293,.635-.587,.953-.88,5.268,0,10.537,0,15.789,0l.942-.882q1.238,.08,1.273,1.206c.008,.292,.001,.585,.001,.997Zm1.754-3.53c-.052,.125-.181,.266-.304,.304-.263,.081-.546,.137-.821,.138-2.2,.011-4.4,.036-6.599-.011-.697-.015-1.023,.423-1.471,.856h-19.287l-1.018,.902h-15.816l-.921-.86c-5.56,0-11.132,.002-16.704-.013-.105,0-.247-.175-.304-.299-.096-.209,.038-.477,.373-.552,.405-.09,.856,.063,1.175-.371,.258-.352,.601-.541,1.096-.539,5.426,.02,10.852,.013,16.277,.013h2.513c.492-.49,.83-.898,1.522-.897,13.198,.022,26.396,.016,39.594,.017,.572,0,.942,.718,.695,1.312Zm50.193,2.63c-.211,.332-.453,.429-.742,.466-1.132,.148-1.725,.804-1.917,1.937-.119,.7-.199,.687-1.312,.698-.406,.409-.81,.831-1.233,1.235-.202,.193-.472,.531-.652,.495-.879-.172-1.173,.752-1.838,.894-.42,.089-.874,.017-1.313,.017-.816,.368-1.284,1.133-1.964,1.721-.3-.267-.605-.538-.934-.831h-6.974c-.321-.3-.637-.595-.957-.893h-2.602c-.33-.306-.646-.599-.973-.902h-2.618c-.458-.649-1.034-.989-1.848-.866-.268,.04-.556-.053-.774-.078-.46-.433-.885-.832-1.292-1.215v-.903c-.588-.647-1.302-1.162-1.754-1.917,.038-.277,.05-.561,.125-.827,.035-.123,.195-.21,.306-.322h1.731c.326-.302,.643-.595,.959-.887h10.507c.319,.291,.626,.57,.931,.848,.126-.126,.225-.234,.333-.332,.784-.71,1.012-.717,1.808-.106,.877,.673,1.021,.67,1.808,.008,.111-.094,.208-.206,.311-.309,.277-.037,.554-.106,.831-.106,3.802-.007,7.604-.005,11.406-.004,.366,0,.65,.406,.642,.932-.007,.434-.001,.868-.001,1.248Zm34.453,.461c-.145-.009-.292-.001-.554-.001-.857,.856-1.773,1.77-2.638,2.635l-.945,.066c-.413,.413-.845,.809-1.233,1.244-.312,.349-.693,.398-1.12,.492-.377,.082-.69,.453-1.244,.847-1.055,0-2.356,.041-3.653-.016-.698-.031-1.012,.437-1.451,.859h-3.534c-.247-.221-.566-.504-.923-.822h-3.443c-.322-.3-.637-.594-.963-.898h-.899c-.386-.397-.832-.785-1.179-1.247-.145-.193-.08-.545-.139-1.093-.512-.409-1.191-.95-1.731-1.382v-3.137c.576-.096,.849-.177,1.122-.181,1.168-.015,2.34-.063,3.501,.028,.358,.028,.684,.456,1.229,.847h10.67c1.168,0,2.336-.028,3.503,.008,1.148,.036,2.307-.152,3.413,.099l.654,.654c.551,.224,1.139,.038,1.695,.139,.213,.039,.566,.351,.54,.462-.074,.307-.378,.418-.68,.399Zm28.789,1.456c-1.226,1.245-2.464,2.479-3.714,3.728-.507,.135-1.09,.061-1.493,.589-.35,.459-.811,.834-1.235,1.257h-4.36c-.313,.294-.626,.589-.948,.892h-2.606c-.315-.294-.63-.588-.954-.891h-1.719c-.423-.423-.835-.835-1.249-1.249,.14-.827-.364-1.327-.931-1.808v-.848c-.605-.634-1.2-1.257-1.771-1.855-.008-.47,.055-.897-.363-1.215-.184-.14-.413-.427-.379-.601,.062-.322,.378-.378,.707-.347,.433,.04,.873,.01,1.315,.01,.311,.292,.626,.586,.941,.88,3.204,0,6.408,0,9.629,0,.305,.287,.618,.582,.935,.88,2.615,0,5.236-.003,7.857,.012,.108,0,.238,.156,.315,.269,.05,.074,.07,.248,.022,.296Zm15.64,1.951c-.197,.144-.544,.082-1.074,.142-.386,.553-.888,1.271-1.21,1.732h-1.331c-.712-.716-1.458-1.418-2.133-2.182-.148-.167-.131-.593-.03-.833,.091-.216,.397-.481,.613-.485,1.897-.038,3.796-.037,5.693-.003,.236,.004,.467,.266,.762,.446-.434,.409-.826,.845-1.29,1.183Z"/>
</svg>
