<?xml version="1.0" encoding="UTF-8"?>
<svg preserveAspectRatio="none" id="a" data-name="AW" xmlns="http://www.w3.org/2000/svg" width="500" height="42.328" viewBox="0 0 500 42.328">
  <path id="b" data-name="12" d="M497.541,24.246c-.33-.017-.679,.029-.984-.067-.385-.121-.534-.404-.416-.643,.07-.141,.22-.316,.355-.336,.328-.049,.668-.016,.994-.016,.843-.843,1.677-1.677,2.51-2.51,.008-1.41-.067-1.506-1.269-1.529-.673-.012-1.347,.006-2.02-.005-.413-.007-.618-.319-.736-1.072-.111-.71-.319-.943-.866-.944-1.179-.004-2.359,.038-3.535-.012-1.144-.049-2.318,.259-3.406-.219-.263-.263-.501-.501-.78-.78-2.647,0-5.335,0-8.024-.001-.332,0-.734-.906-.565-1.248,.068-.139,.077-.325,.176-.428,.583-.607,1.184-1.197,1.78-1.792,.022-.159,.063-.318,.063-.478,.002-.619-.3-1.082-.704-1.104-.99-.053-1.992,.125-2.966-.138-.243-.244-.481-.482-.754-.754-1.282-.277-2.618-.066-3.943-.11-1.178-.039-2.359,.033-3.535-.019-1.319-.059-2.656,.22-3.899-.136-.295-.295-.533-.533-.864-.863h-11.992c-.337,0-.676,.025-1.009-.012-.14-.016-.265-.165-.397-.253-.238-.238-.476-.476-.73-.73h-6.017c-.382-.352-.747-.689-1.129-1.041h-.936c-.399-.36-.765-.69-1.154-1.041h-1.937c-.284-.284-.522-.522-.771-.771-.949-.373-1.953-.129-2.935-.19-1.156-.072-2.326,.144-3.466-.149-.245-.245-.483-.483-.721-.721-.148-.048-.294-.115-.447-.137-.165-.024-.336-.005-.504-.005h-16.164c-.337,0-.675,.021-1.009-.01-.144-.013-.278-.133-.417-.205-.238-.238-.476-.476-.756-.755h-1.946c-.385-.352-.751-.685-1.141-1.041h-1.965c-.377-.347-.742-.684-1.13-1.041h-4.958c-.408-.364-.775-.691-1.053-.939h-12.145c-.289,.289-.527,.527-.808,.807-1.734,.47-3.586-.145-5.346,.295-.259,.259-.497,.497-.735,.735-.318,.044-.647,.161-.954,.119-.928-.129-1.611,.22-2.137,.988h-1.992c-.382,.352-.746,.689-1.128,1.041h-.963c-.374,.349-.737,.688-1.06,.99h-4.008c-.417-.368-.785-.692-1.181-1.041h-4.945q-1.032-.955-1.709-.955c-1.515,.004-3.033-.046-4.545,.021-.792,.035-1.197-.436-1.763-1.03-5.093,0-10.296,.018-15.498-.019-.811-.006-1.145,.55-1.665,.999h-19.132c-.378,.353-.742,.692-1.116,1.041h-21.177c-.374,.349-.737,.688-1.116,1.041h-47.418c-.52,.45-.854,1-1.665,.998-10.607-.028-21.214-.017-31.822-.024-.32,0-.64-.076-.967-.117-.449-.471-.856-1.021-1.646-.891-.897,.149-1.633-.122-2.162-.951h-2.976c-.396-.349-.764-.673-1.181-1.041h-2.943c-.378-.352-.741-.692-1.115-1.041h-3.994c-.382-.352-.746-.688-1.051-.97h-9.1c-.518,.463-.862,1.024-1.672,.997-1.157-.038-2.328-.149-3.479,.105-.476,1.316-2.325,.476-2.816,1.841h-1.898c-.315,.255-.623,.418-.807,.672-.37,.511-.883,.356-1.373,.391-.714,.679-1.434,1.363-2.081,1.978h-16.187c-.518-.476-.873-1.034-1.681-.992-.816,.043-1.656,.158-2.451-.106-.253-.253-.491-.491-.746-.746-.789-.282-1.629-.154-2.444-.114-.804,.04-1.172-.496-1.638-.941-2.133-.287-4.303,.135-6.277-.213-.382-.382-.621-.621-.874-.874h-8.071c-.349,.321-.714,.658-1.096,1.01h-4.977c-.399,.36-.766,.69-1.155,1.041h-1.938c-.514,.491-.888,.998-1.685,1.01-.402,.006-.797,.494-1.388,.895,.082-.026-.066,.062-.215,.063-2.862,.008-5.726-.036-8.586,.03-.927,.021-1.603-.24-2.141-.953-.898,.039-1.569-.362-2.061-1.082h-2.022c-.377-.347-.742-.684-1.129-1.041h-1.927c-.408-.364-.775-.691-1.053-.939h-13.159c-.512,.505-.892,1.057-1.693,.973-.666-.07-1.348-.048-2.018-.005-.695,.044-.889,1.032-1.601,.981-.813-.058-1.155,.532-1.673,.994h-1.963c-.731,.696-1.451,1.382-2.133,2.03h-10.232c-.324-.902-1.158-.979-1.977-1.111-.135-.022-.24-.224-.359-.343,.239-.18,.476-.515,.716-.517,3.199-.035,6.398-.016,9.597-.031,.481-.002,.966-.088,1.441-.18,.12-.024,.305-.245,.285-.338-.029-.138-.214-.347-.334-.347-8.738-.057-17.477-.096-26.215-.137-.383,.306-.765,.612-1.263,1.01-4.901,0-9.944-.011-14.987,.023-.363,.002-.538,.384-.433,.626,.062,.144,.227,.345,.347,.346,2.357,.021,4.714,.01,7.071,.031,.12,.001,.285,.203,.347,.346,.104,.242-.069,.619-.434,.625-2.685,.044-5.371,.024-7.983,.024-.555-.481-.89-1.031-1.701-1.029-9.597,.029-19.194,.017-28.791,.024-.32,0-.648,.046-.956,.131-.141,.039-.309,.21-.338,.348-.02,.093,.164,.257,.288,.346,.123,.088,.284,.172,.429,.173,4.209,.009,8.418-.002,12.627,.03,.24,.002,.477,.337,.715,.518-.477,.477-.953,.953-1.429,1.429-.33,.017-.659,.034-1.122,.058-.727,.79-1.521,1.653-2.313,2.515,.13,.122,.328,.472,.543,.482,1.176,.055,2.356,.026,3.535,.026,1.347,0,2.694-.02,4.041,.006,1.161,.022,2.329-.133,3.389,.102,.444,.357,.819,.66,1.105,.89,1.122,.087,2.129-.17,3.086,.216,.117,.047,.273,.256,.248,.341-.043,.142-.2,.314-.34,.349-.311,.079-.642,.082-.804,.099-1.268,1.268-2.449,2.449-3.84,3.84,0,.143,.006,.639-.001,1.135-.008,.613,.311,1.101,.709,1.102,1.347,.003,2.695-.028,4.041,.01,1.327,.038,2.663-.157,3.951,.104l.746,.746c.147,.051,.294,.146,.442,.146,3.031,.009,6.061,0,9.092,.015,.309,.002,.626,.102,.921,.208,.11,.039,.256,.255,.229,.338-.048,.143-.199,.315-.34,.353-1.441,.383-2.97-.248-4.318,.291-.315,.315-.553,.553-.806,.806h-6.018c-.381,.352-.747,.689-1.129,1.041h-4.976c-.4,.36-.766,.69-1.155,1.041h-1.937c-.641,.641-1.237,1.237-1.911,1.911-.54,.052-1.191,.039-1.658,.625-.417,.523-.94,.962-1.436,1.458-.314,0-.668-.071-.978,.016-.54,.152-.731,1.313-.358,1.699,.257,.266,.509,.321,.889,.319,6.897-.018,13.795-.013,20.614-.013,.432,.385,.799,.712,1.088,.969,1.438,.05,2.771,.088,4.102,.159,.125,.007,.295,.206,.337,.348,.025,.085-.133,.3-.249,.34-.75,.256-1.614,.279-2.078,1.083-1.11-.03-1.779,.695-2.433,1.434-.071,.08-.116,.262-.073,.345,.073,.143,.225,.349,.345,.349,9.091,.016,18.181,.015,27.251,.015,.379,.354,.743,.693,1.065,.994h18.151c.417-.368,.786-.692,1.181-1.041h26.164c.294-.295,.532-.533,.817-.817,1.26-.325,2.597-.079,3.919-.126,1.345-.048,2.693-.011,4.04-.011h32.832c1.347,0,2.695,.035,4.04-.01,1.323-.045,2.659,.189,3.927-.121,.281-.281,.519-.519,.879-.879h58.925c.337,0,.674-.001,1.01,0,.653,.003,1.241,.321,1.094,.59-.186,.343-.473,.428-.834,.427-5.22-.011-10.439-.008-15.691-.008-.346,.323-.709,.662-1.083,1.01H119.684c-.374,.349-.737,.688-1.149,1.072-1.643,0-3.318-.007-4.993,.015-.121,.002-.238,.223-.357,.342,.197,.197,.378,.539,.595,.565,.648,.076,1.31,.027,1.844,.027,.361,.361,.599,.599,1.01,1.01h35.618c1.347,0,2.695-.038,4.04,.011,1.322,.047,2.658-.2,3.918,.126,.285,.285,.523,.523,.761,.761,7.663,.23,10.917,.2,14.5-.133,.238-.238,.476-.476,.74-.74h25.206c.378-.352,.741-.692,1.115-1.041h14.096c.382-.352,.746-.688,1.128-1.041h12.053c.518-.463,.863-1.009,1.672-.994,2.861,.051,5.724,.02,8.586,.02,.168,0,.339,.017,.505-.005,.153-.021,.301-.083,.451-.128,.238-.238,.476-.476,.714-.714,.146-.054,.291-.156,.437-.156,3.031-.009,6.062-.036,9.092,.013,.797,.013,1.18-.474,1.744-1.03,2.243,0,4.586-.004,6.93,.011,.134,0,.266,.159,.4,.244,.238,.238,.476,.476,.735,.735h19.135c.387,.357,.753,.694,1.129,1.041h11.057c.39,.356,.756,.689,1.141,1.041h8.966c.445,.379,.816,.695,1.137,.97,4.969,0,9.851,.004,14.734-.006,.486-.001,.975-.066,1.454-.151,.136-.024,.326-.218,.334-.344,.007-.111-.191-.317-.324-.341-.477-.088-.973-.197-1.447-.15-.805,.079-1.173-.491-1.735-1.028-.567,0-1.233,.049-1.887-.019-.366-.038-.567-.343-.505-.599,.034-.14,.222-.345,.342-.346,2.689-.02,5.379-.015,8.036-.015,.399-.367,.764-.704,1.113-1.026h27.235c.399,.36,.765,.69,1.154,1.041h25.173c.284,.284,.522,.522,.76,.76,.14,.068,.274,.165,.422,.197,.161,.034,.335,.008,.503,.008h32.832c.168,0,.34-.02,.504,.006,.152,.024,.295,.096,.443,.147,.238,.238,.476,.476,.768,.768,.757,.187,1.59,.084,2.413,.085,6.398,.009,12.796,.02,19.194-.014,.803-.004,1.163,.51,1.679,.988h10.025c.386,.352,.751,.685,1.142,1.041h13.076c.377,.347,.743,.684,1.13,1.041h14.05c.407,.363,.775,.691,1.053,.94h4.096c.472-.524,.868-1.048,1.664-.977,.474,.042,.964-.091,1.446-.145,.637-1.092,1.703-.821,2.679-.857,.14-.005,.314-.108,.406-.22,.446-.537,.943-.877,1.704-.818,.183,.014,.541-.411,.575-.666,.065-.499,.064-.977,.522-1.31,.134-.098,.265-.219,.355-.357,.264-.407,.199-1.132-.026-1.373-.25-.269-.513-.312-.893-.311-7.233,.018-14.466,.013-21.648,.013-.527-.527-1.003-1.003-1.48-1.479,.238-.181,.453-.414,.72-.527,.286-.121,.657-.061,.922-.206,.283-.155,.486-.457,.848-.819,3.058,0,6.241-.028,9.423,.02,.812,.012,1.145-.549,1.666-.999h8.018c.379-.353,.742-.692,1.116-1.041h2.992c.374-.348,.737-.687,1.116-1.041h1.965c.626-.626,1.221-1.221,1.816-1.816,.145-.058,.284-.141,.434-.17,1.29-.253,1.298-.264,1.22-1.555-.476-.476-.952-.952-1.429-1.429Zm-373.156-3.749c.077-.137,.232-.328,.353-.329,3.342-.018,6.685-.033,10.026,.012,.366,.005,.515,.408,.384,.641-.077,.137-.232,.327-.353,.328-1.671,.021-3.342,.015-5.013,.015s-3.344,.035-5.012-.027c-.37-.014-.515-.407-.384-.64Zm-47.46-9.118c.099-.124,.238-.297,.366-.303,.661-.031,1.324-.014,1.942-.014,.394,.364,.754,.696,1.119,1.034,1.671,0,3.33-.007,4.989,.015,.119,.002,.294,.201,.34,.342,.079,.244-.112,.602-.465,.608-2.493,.041-4.988,.007-7.481,.038-.383,.005-.647-.027-.857-.365-.211-.341-.217-1.023,.048-1.354Zm66.914,21.883c-.66,.09-1.341,.025-2.013,.025h-34.264c-.371,.347-.734,.686-1.08,1.01H61.093c-.37-.346-.732-.685-1.107-1.035h-2.981c-.144-.144-.303-.245-.365-.388-.035-.08,.064-.256,.149-.343,.107-.109,.261-.244,.395-.244,28.903-.011,57.807-.011,86.71,.004,.12,0,.281,.196,.352,.336,.121,.237-.025,.583-.408,.635ZM232.427,14.497c.065-.143,.222-.347,.341-.347,3.347-.019,6.694-.015,10.035-.015,.387-.356,.75-.691,1.135-1.044h8.031c.345,.324,.707,.663,1.068,1.002,2.514,0,5.029,.004,7.544-.002,.757-.002,1.187,.502,1.001,1.284-.065,.274-.333,.673-.553,.705-.652,.094-1.326,.034-1.919,.034-.424,.381-.789,.709-1.174,1.055h-1.933c-.516,.481-.877,.99-1.676,.985-5.519-.036-11.039-.019-16.465-.019-.686-.686-1.278-1.278-1.871-1.871-.315-.05-.675-.02-.934-.168-.415-.237-.736-.638-1.148-.883-.402-.239-.982,.048-1.35-.37-.079-.09-.167-.264-.131-.345Zm-15.091-7.144c.085-.133,.236-.317,.36-.318,2.007-.02,4.015-.014,6.023-.014s4.016-.031,6.022,.028c.372,.011,.507,.42,.36,.65-.085,.133-.237,.318-.359,.318-4.015,.017-8.031,.03-12.045-.014-.368-.004-.506-.421-.36-.651Zm-38.972,10.802c4.017-.033,8.034-.021,12.017-.021,.27-.27,.507-.507,.744-.744,.131-.089,.255-.238,.394-.254,.331-.038,.669-.012,1.004-.012h12.976c.428-.384,.794-.711,1.079-.967h3.04c.281,.281,.478,.602,.764,.735,.418,.195,.972,.148,1.336,.397,.525,.36,.933,.893,1.391,1.352-.518,.518-.992,.992-1.466,1.466-.329,.016-.657,.031-1.013,.048-.346,.324-.707,.663-1.075,1.009h-7.025c-.363-.337-.726-.674-1.089-1.011-4.357,0-8.714,0-13.108,0-.213-.222-.44-.467-.678-.702-.114-.113-.249-.206-.397-.326-2.991,0-6.005,.004-9.018-.015-.119,0-.295-.203-.343-.345-.082-.246,.11-.608,.466-.611Zm-17.259-9.128c-.123-.003-.275-.191-.352-.329-.13-.232,.017-.632,.383-.64,2.332-.053,4.666-.032,6.999-.012,.121,0,.275,.192,.352,.329,.13,.232-.013,.62-.384,.639-1.33,.07-2.665,.028-3.999,.028-1,0-2,.012-3-.015Zm20.521,17.848c-.071,.14-.226,.332-.348,.336-.999,.027-2,.015-2.994,.015-.356,.33-.709,.658-1.048,.972-.375-.34-.737-.668-1.089-.987-3.364,0-6.695,.004-10.027-.015-.118,0-.288-.201-.342-.343-.09-.241,.093-.613,.448-.616,5-.032,10-.034,15,.003,.361,.003,.519,.401,.399,.635Zm133.996,4.364c-8.076,.037-16.152,.028-24.228,.028h-30.274c-.369-.345-.732-.684-1.104-1.031h-18.135c-.259-.259-.497-.497-.735-.735-.133-.085-.26-.227-.401-.243-.333-.036-.672-.012-1.008-.012h-22.08c-.329-.329-.567-.567-.815-.815-.601-.376-1.279-.185-1.924-.186-8.917-.014-17.835-.007-26.752-.015-.654,0-1.311-.067-1.961-.145-.131-.016-.318-.214-.334-.345-.013-.104,.177-.298,.312-.341,.301-.095,.625-.166,.939-.166,19.685-.007,39.371-.007,59.056,0,.314,0,.627,.103,.941,.158,.238,.239,.476,.477,.714,.715,.15,.043,.298,.105,.452,.125,.165,.022,.336,.005,.504,.005h60.066c.168,0,.342-.025,.503,.007,.148,.03,.284,.123,.425,.188,.238,.238,.476,.476,.764,.764h1.928c.391,.349,.758,.676,1.189,1.061,.59,0,1.258-.016,1.924,.014,.129,.006,.277,.177,.369,.305,.166,.229,.038,.662-.335,.663Zm27.261-1.01c-1.659,.065-3.322,.035-4.983,.014-.121-.002-.272-.189-.353-.323-.138-.229-.007-.612,.369-.644,.99-.084,1.991-.028,2.988-.028,.665,0,1.33-.017,1.993,.015,.125,.006,.273,.188,.354,.323,.138,.229,.001,.63-.367,.644Zm2.994-17.17c-2.174,.05-4.349,.025-6.524,.025-1.84,0-3.681,.007-5.521-.015-.12-.001-.281-.201-.345-.344-.108-.238,.061-.624,.422-.627,4.015-.038,8.03-.027,12.045-.009,.119,0,.281,.202,.345,.344,.107,.238-.059,.618-.423,.626Zm30.363,10.16c-.379,.308-.719,.664-1.052,.977h-12.123c-.299-.319-.608-.72-.99-1.034-.35-.288-.468-.488-.223-.715,.114-.106,.256-.26,.386-.261,4.497-.014,8.994-.003,13.492-.026,.379-.002,.674,.01,.86,.346,.127,.228-.022,.446-.349,.712Zm32.435,2.896c-4.694,.06-9.39,.1-14.097,.143-.381-.339-.747-.666-1.18-1.052-4.453,0-8.986,0-13.519,0-.986,0-1.379-.686-.936-1.66,.065-.143,.218-.323,.351-.344,.329-.05,.67-.016,.989-.016,.372-.348,.735-.687,1.061-.992h19.127c.428,.359,.795,.922,1.185,.939,.754,.033,1.185,.402,1.696,.843,.54,.466,1.309,.043,1.907,.25,.58,.2,1.039,.749,1.619,.951,.597,.208,1.317-.168,1.915,.246,.108,.075,.246,.262,.218,.344-.05,.143-.217,.347-.338,.349Zm34.141,.082c-3.489,.032-6.978,.009-10.467,.034-.379,.003-.673-.01-.856-.35-.123-.227,.029-.445,.354-.71,.378-.308,.717-.663,1.029-.957h3.989c.396,.36,.757,.687,1.134,1.029,1.662,0,3.318-.007,4.974,.015,.119,.002,.305,.203,.338,.341,.06,.25-.147,.594-.495,.597Z"/>
</svg>
