<?xml version="1.0" encoding="UTF-8"?>
<svg preserveAspectRatio="none" id="a" data-name="AW" xmlns="http://www.w3.org/2000/svg" width="500" height="14.048" viewBox="0 0 500 14.048">
  <path id="b" data-name="20" d="M500,11.891c-.491,.804-1.263,1.347-1.881,2.033-.123,.035-.245,.101-.368,.102-1.375,.007-2.751-.032-4.124,.021-.663,.025-.942-.435-1.365-.812h-18.918c-.311-.287-.609-.561-.922-.849h-30.487c-.303-.283-.6-.559-.873-.813h-47.818c-.333,.297-.633,.564-.861,.768h-18.167c-.235-.235-.429-.429-.624-.624-.253-.054-.505-.152-.759-.153-3.42-.01-6.84-.007-10.127-.007-.325,.325-.519,.519-.762,.762-.347,.019-.744,.06-1.143,.06-29.56,.003-59.12,.003-88.68,.003-.138,0-.278-.019-.412,.003-.653,.107-.957-.392-1.398-.828H56.332c-1.237,0-2.476,.022-3.711-.023-.187-.007-.448-.298-.519-.51-.077-.23-.07-.609,.073-.769,.635-.71,1.333-1.365,1.994-2.027h19.006c.43-.625,.988-.935,1.743-.796,.63,.116,1.004-.273,1.355-.691,.804-.252,1.622-.127,2.428-.128,12.374-.009,24.748-.006,37.122-.01,.395,0,.812,.1,1.171-.154,.096-.068,.233-.211,.213-.283-.032-.115-.172-.278-.275-.284-.811-.052-1.625-.097-2.437-.097-13.199-.005-26.398-.004-39.65-.004-.271-.238-.572-.503-.913-.804h-30.452c-.307-.286-.604-.563-.908-.847H19.505c-.307-.285-.603-.562-.912-.849H.37c-.111-.362-.222-.727-.37-1.211C.741,1.461,1.481,.854,2.46,.051H12.864c.218,.192,.519,.457,.861,.758h59.327c.306,.285,.603,.562,.907,.847,4.11,0,8.235,.002,12.359-.012,.098,0,.233-.166,.283-.283,.086-.198-.045-.465-.356-.512-.533-.081-1.085-.036-1.626-.08-.105-.008-.289-.255-.279-.268,.14-.178,.302-.467,.469-.473,1.085-.042,2.172-.022,3.169-.022,.462,.484,.793,.853,1.439,.841,2.336-.041,4.675,.009,7.011-.033,.647-.011,.972,.369,1.433,.841h56.795c.412,0,.83,.041,1.236-.009,.666-.082,.935,.444,1.36,.81h54.397c.308,.286,.605,.561,.914,.847h91.543c.299,.28,.596,.557,.902,.844h44.485c.333,.297,.632,.564,.951,.848h33.767c.665,1.068,1.616,.826,2.549,.656,.195-.194,.389-.389,.583-.583,.122-.037,.244-.108,.366-.108,8.387-.005,16.774-.005,25.229-.005,.263,.225,.566,.483,.928,.793h1.55c.314,.287,.612,.56,.911,.833,.286-.261,.583-.531,.879-.8,4.262,0,8.524,.004,12.786-.008,.302,0,.606,.039,.661,.339,.03,.164-.205,.435-.386,.568-.413,.302-.318,.719-.309,1.111,.002,.104,.138,.258,.245,.297,.241,.087,.5,.146,.756,.164,.943,.065,1.898-.122,2.825,.132,.201,.201,.395,.395,.6,.6,.652,.201,1.335,.091,2.007,.093,5.774,.01,11.549,.017,17.323-.01,.658-.003,.944,.428,1.367,.81h22.215c.312,.286,.611,.559,.926,.849h18.934c.305,.283,.602,.559,.891,.828,.648,.145,1.383-.29,1.95,.339Zm-93.618,.51c-3.829-.031-7.658-.023-11.486-.009-.098,0-.227,.159-.287,.272-.102,.192,.024,.513,.324,.52,1.914,.042,3.828,.021,5.743,.021s3.829,.004,5.743-.012c.099,0,.227-.159,.287-.272,.101-.192-.026-.518-.324-.521Zm14.022,.825c-2.454-.036-4.91-.024-7.364-.008-.098,0-.227,.161-.284,.276-.095,.192,.032,.503,.332,.516,1.226,.051,2.454,.021,3.682,.021s2.455,.006,3.682-.012c.098-.002,.227-.161,.284-.276,.095-.192-.035-.512-.331-.516Z"/>
</svg>
