<?xml version="1.0" encoding="UTF-8"?>
<svg preserveAspectRatio="none" id="a" data-name="AW" xmlns="http://www.w3.org/2000/svg" width="500" height="28.02" viewBox="0 0 500 28.02">
  <path id="b" data-name="23" d="M497.627,7.952h-4.01c-.506-.377-.887-.907-1.278-.914-3.497-.065-6.996-.041-10.495-.034-.48,.001-.96,.056-1.369,.081-.303,.303-.539,.539-.915,.915h-3.799c-1.499,0-3-.042-4.498,.013-1.304,.048-2.627-.227-3.853,.136-.295,.295-.531,.531-.851,.851h-9.876c-.333,0-.669-.025-.998,.012-.138,.016-.261,.165-.391,.253-.236,.236-.471,.471-.721,.721h-58.987c-.333-.311-.693-.647-1.056-.986h-37.96c-.369-.345-.729-.681-1.092-1.019h-66.919c-.401-.359-.764-.684-1.149-1.028h-11.912c-.282-.283-.518-.518-.809-.809-1.233-.349-2.556-.076-3.861-.134-1.164-.051-2.333,.02-3.498-.019-1.312-.043-2.634,.163-3.903-.109-.269-.269-.505-.505-.883-.883-3.668,0-7.481-.024-11.293,.019-.794,.009-1.155-.496-1.712-1.019-.896,0-1.886,.04-2.872-.011-1.131-.058-2.294,.268-3.362-.227-.263-.263-.499-.499-.748-.749h-7.956c-.377-.347-.738-.681-1.112-1.026h-15.933c-.389-.354-.751-.683-1.13-1.027h-17.876c-.437-.374-.804-.688-1.123-.961C189.18,0,181.016,0,172.853,.005c-.149,0-.298,.081-.446,.124-.236,.236-.471,.471-.871,.871h-11.264c-1.333,0-2.667-.037-3.998,.011-1.308,.047-2.63-.199-3.876,.126-.282,.282-.518,.518-.864,.864h-2.843c-8.497,0-16.993,.011-25.49-.019-.803-.003-1.132,.545-1.647,.989h-17.935c-.373,.346-.733,.68-1.107,1.027h-16.956c-.367,.343-.726,.678-1.055,.985H48.54c-.4-.359-.763-.684-1.148-1.029h-8.914c-.509-.489-.879-.974-1.669-.972-9.829,.028-19.659,.017-29.488,.024-.314,0-.627,.089-.951,.138-.433,.486-.858,.952-1.635,.87-.659-.069-1.332-.026-1.998-.005-.141,.004-.277,.126-.416,.194-.589,.589-1.189,1.167-1.761,1.773-.213,.226-.36,.514-.558,.805,.029,.615,.06,1.258,.084,1.782,.703,.703,1.382,1.227,1.857,1.898,.541,.765,1.607,.264,2.089,1.04,.292,.47,.78,.487,1.287,.513,.805,.041,1.638-.212,2.381,.163,.268,.268,.504,.504,.782,.782h2.922c.383,.347,.745,.675,1.136,1.03h1.934c.376,.346,.737,.68,1.117,1.029h2.921c.397,.357,.759,.683,1.143,1.029h8.917c.987,.987,1.93,1.93,2.962,2.962,.899-.324,1.405,.379,1.97,.981h2.976c.375,.345,.736,.678,1.081,.996h14.953c.395-.356,.758-.683,1.141-1.029h5.918c.51-.482,.875-.975,1.666-.974,19.825,.023,39.651,.017,59.476,.023,.316,0,.631,.08,.947,.123,.236,.236,.471,.472,.871,.872h3.766c1.166,0,2.334-.037,3.498,.01,1.307,.053,2.63-.2,3.874,.127,.284,.283,.519,.519,.863,.863h3.345c1.166,0,2.334-.037,3.498,.011,1.134,.046,2.294-.246,3.378,.21,.257,.257,.492,.492,.754,.754h23.948c.37,.346,.73,.681,1.099,1.026h9.961c.369,.344,.728,.68,1.086,1.013h90.927c.392,.355,.754,.683,1.126,1.02h61.921c.514,.452,.849,1.093,1.652,.975,.326-.048,.665-.008,.999-.008h13.323c.357,.357,.592,.592,.837,.837,1.12,.329,2.276,.119,3.419,.156,.999,.033,1.999,.007,2.999,.007,1.166,0,2.333-.027,3.498,.008,1.142,.034,2.299-.178,3.416,.16,.245,.245,.481,.481,.716,.717,.317,.039,.634,.111,.952,.111,17.493,.005,34.986,0,52.479,.023,.797,.001,1.144-.518,1.657-.981h5.927c.379-.347,.74-.678,1.123-1.029h15.946c.371-.341,.732-.675,1.111-1.023h25.916c.395-.356,.757-.683,1.141-1.029h4.918c.51-.482,.87-1.053,1.667-.97,.659,.069,1.332,.037,1.998,.008,.813-.036,1.64,.145,2.423-.126,.251-.251,.486-.486,.831-.831,.988-.208,2.161,.203,3.244-.244,.236-.236,.457-.655,.709-.674,.873-.065,1.555-.382,2.039-1.107h2.992c.727-.692,1.44-1.369,2.11-2.006,.395-.038,.824,.053,1.017-.12,.861-.77,1.655-1.616,2.453-2.414-.401-1.101,.71-1.423,.912-1.978v-2.743c-.949-1.121-1.697-2.004-2.373-2.802Zm-6.722,5.689c-.06,.142-.213,.322-.345,.342-.326,.049-.664,.016-.978,.016-.371,.346-.73,.682-1.072,1-.513,.02-1.009-.085-1.374,.404-.184,.247-.492,.401-.819,.656h-2.69c-.541,.385-.908,.853-1.325,.903-.986,.118-1.998,.087-2.994,.022-.779-.05-1.197,.408-1.687,1.016-1.762,0-3.582,.042-5.397-.019-.808-.027-1.13,.552-1.645,.991h-14.939c-.373,.348-.733,.684-1.102,1.028h-25.962c-.368,.344-.728,.679-1.101,1.028h-6.94c-.516,.438-.838,1.006-1.645,.992-2.817-.05-5.635-.019-8.337-.019-.35,.35-.585,.585-.821,.821-4.373,.238-18.704,.243-23.351,.009-.236-.236-.471-.471-.83-.83h-9.823c-2.833,0-5.666-.031-8.498,.02-.802,.014-1.139-.533-1.614-.952-.157-.023-.314-.064-.472-.065-3.833-.004-7.665-.003-11.535-.003-.34-.314-.701-.647-1.078-.996h-39.957c-.365-.34-.725-.675-1.097-1.022h-36.921c-.399-.358-.763-.684-1.139-1.021h-90.918c-.512-.468-.863-.985-1.66-.98-5.998,.035-11.997,.025-17.996,.012-.814-.002-1.641,.134-2.431-.113-.249-.249-.485-.485-.728-.728-1.125-.305-2.281-.115-3.426-.145-1.166-.031-2.333-.007-3.499-.007-1,0-2.001,.029-2.999-.008-1.14-.042-2.298,.193-3.408-.172-.247-.247-.483-.483-.769-.769h-9.907c-.388-.345-.752-.668-1.158-1.029h-16.917c-.373-.348-.733-.684-1.094-1.02H62.545c-.372,.346-.732,.681-1.041,.968h-10.002c-.515-.446-.844-1.01-1.649-.989-2.149,.057-4.3,.019-6.328,.019-.356-.356-.592-.591-.835-.835-.952-.317-1.944-.123-2.92-.159-.832-.031-1.666-.006-2.499-.006h-2.747c-.414-.414-.65-.65-.943-.943h-5.896c-.392-.344-.757-.664-1.205-1.057-2.226,0-4.552,.023-6.876-.024-.363-.007-.529-.384-.42-.622,.064-.141,.226-.339,.345-.34,5.999-.017,11.998-.015,17.977-.015l1.046,.976h61.002c.26-.26,.495-.495,.731-.731,.133-.082,.26-.219,.4-.234,.33-.035,.665-.011,.999-.011,6.165,0,12.331,0,18.496-.004,.152,0,.304-.065,.463-.101,.452-.45,.836-.919,1.623-.913,5.165,.037,10.331,.025,15.497,.012,.644-.002,1.309,.147,1.929-.149,.24-.24,.475-.475,.716-.716,.967-.243,1.958-.119,2.94-.121,8.831-.011,17.663-.017,26.494,.012,.796,.003,1.148-.512,1.659-.98h27.009c.294,.267,.656,.597,1.044,.95h25.935c.374,.345,.735,.678,1.113,1.027h5.955c.251,.251,.487,.487,.723,.722,.13,.087,.254,.234,.393,.25,.329,.037,.665,.012,.999,.012h7.871c.325,.325,.561,.561,.81,.81,1.105,.387,2.263,.143,3.402,.181,1.165,.04,2.333-.013,3.499,.015,1.146,.028,2.302-.148,3.432,.135l.714,.713c.147,.048,.29,.117,.441,.14,.163,.024,.332,.006,.499,.006,2.499,0,5,.034,7.498-.02,.795-.017,1.156,.497,1.666,.976h10.919l1.139,1.029h59.918c.376,.347,.738,.681,1.109,1.022h16.948c.383,.351,.744,.682,1.12,1.026h37.928c.514,.456,.854,.985,1.653,.984,19.829-.023,39.659-.018,59.488-.023,.317,0,.634-.073,.958-.112,.447-.463,.844-.914,1.627-.903,3.165,.047,6.332-.005,9.497,.037,.774,.01,1.199-.403,1.686-1.018,1.431,0,2.917-.049,4.398,.02,.811,.038,1.125-.559,1.704-1.02,5.231,0,10.555-.01,15.879,.022,.359,.002,.533,.378,.432,.618Z"/>
</svg>
