<?xml version="1.0" encoding="UTF-8"?>
<svg preserveAspectRatio="none" id="a" data-name="AW" xmlns="http://www.w3.org/2000/svg" width="500" height="30.45" viewBox="0 0 500 30.45">
  <path id="b" data-name="30" d="M500,25.949v.771c-.261,.283-.535,.581-.821,.892v.791c-.69,.69-1.369,1.369-2.048,2.048h-23.872c-.305-.284-.601-.561-.909-.849h-13.952c-.424-.366-.696-.816-1.358-.814-7.276,.024-14.552,.015-21.827,.015h-2.203c-.52-.368-.823-.752-1.166-.793-.812-.097-1.644-.031-2.467-.031-9.884,0-19.768-.007-29.653,.015-.645,.001-.969-.369-1.385-.793h-67.465c-.322-.284-.623-.548-.964-.849h-43.583c-.308-.287-.604-.564-.909-.848h-17.26c-.31-.287-.608-.561-.919-.849h-23.007c-.423-.376-.704-.813-1.362-.811-6.727,.025-13.453,.019-20.18,.01-.809-.001-1.625,.099-2.423-.098-.198-.198-.392-.392-.618-.618-1.038-.241-2.127-.063-3.207-.095-1.234-.036-2.471-.008-3.706-.008h-13.591c-1.235,0-2.472,.032-3.706-.01-1.077-.036-2.166,.171-3.189-.105-.236-.236-.43-.43-.666-.666h-25.457c-.32-.285-.62-.552-.954-.849h-27.11c-.312-.29-.609-.565-.913-.848h-29.61c-.317-.29-.615-.562-.928-.849h-16.415c-.227-.226-.421-.42-.615-.615-.113-.059-.222-.158-.339-.169-.272-.025-.548-.008-.823-.008-3.157,0-6.315,.001-9.472-.005-.121,0-.243-.071-.364-.11-.194-.194-.388-.388-.583-.582-.12-.042-.239-.121-.359-.122-4.53-.006-9.06-.005-13.595-.005-.604-.314-1.032-.816-1.364-1.297v-1.557c.45-.49,.82-.893,1.15-1.253h22.29l.594,.594c.107,.073,.208,.196,.323,.209,.271,.031,.548,.01,.822,.01h12.253l.655,.655c.114,.056,.225,.151,.343,.161,.272,.024,.548,.008,.823,.008,13.042,0,26.083,0,39.125,.005,.12,0,.241,.077,.361,.117,.194,.194,.388,.388,.583,.582,.121,.04,.241,.114,.362,.114,9.747,.005,19.494,.005,29.312,.005,.261,.222,.564,.479,.929,.789h46.844c.315,.286,.613,.557,.934,.849h36.191c.309,.284,.607,.559,.921,.849h16.43c.209,.209,.403,.403,.598,.597,.108,.07,.208,.17,.327,.203,.127,.035,.272,.008,.41,.008h28.304c.274,.274,.468,.468,.662,.662,3.317,.206,15.785,.226,20.06,.032,.194-.194,.388-.388,.582-.583,.259-.037,.519-.068,.777-.112,.751-.13,1.314,.162,1.744,.794h66.693c.313,.287,.61,.56,.931,.854,5.732,0,11.496,.002,17.26-.012,.099,0,.229-.158,.289-.271,.102-.193-.026-.519-.326-.521-4.113-.03-8.226-.02-12.27-.02-.358-.317-.658-.583-.979-.867h-13.928c-.417-.417-.734-.805-1.382-.796-2.745,.038-5.491,.019-8.237,.013-.394,0-.787-.05-1.117-.072-.256-.256-.45-.45-.738-.738-1.126-.025-2.348-.006-3.57-.01-1.098-.003-2.198-.042-3.294,.014-.664,.034-.938-.44-1.361-.812h-8.183c-.31-.288-.607-.563-.915-.849h-8.202c-.305-.285-.601-.561-.909-.849h-11.482c-.425-.361-.692-.821-1.355-.816-4.118,.031-8.237,.016-12.355,.016h-1.924c-.29-.29-.484-.484-.715-.714-1.031-.259-2.12-.067-3.198-.1-1.234-.038-2.472,.02-3.706-.018-1.078-.033-2.168,.159-3.199-.1-.23-.23-.425-.425-.714-.714-3.048,0-6.193-.02-9.337,.016-.663,.008-.93-.455-1.355-.817h-9.835c-.308-.288-.605-.564-.91-.849h-12.32c-.308-.286-.605-.561-.915-.849h-21.362c-.423-.372-.701-.815-1.36-.812-6.452,.026-12.904,.019-19.356,.01-.809-.001-1.626,.096-2.424-.095-.198-.198-.392-.392-.619-.619-1.037-.247-2.126-.061-3.205-.097-1.097-.036-2.196-.008-3.295-.008h-16.668c-.348-.347-.542-.542-.78-.78H126.496c-.222,.197-.522,.462-.859,.761h-16.403c-.309,.288-.606,.565-.911,.849h-10.667c-.314,.289-.612,.562-.924,.849h-14.768c-.422,.382-.708,.816-1.365,.809-3.294-.035-6.589-.017-9.884-.011-.122,0-.244,.069-.366,.106-.194,.194-.388,.388-.588,.588-.789,.239-1.605,.099-2.411,.119-.96,.024-1.922-.017-2.882,.013-.802,.025-1.62-.149-2.397,.146-.202,.202-.396,.396-.63,.631h-5.694c-.318,.285-.618,.553-.948,.849h-7.342c-.315,.29-.613,.564-.922,.849h-9.01c-.321,.291-.619,.562-.934,.849h-6.526l-.666,.666c-1.01,.299-2.1,.064-3.175,.114-.959,.044-1.922-.015-2.882,.016-1.082,.035-2.171-.13-3.219,.086-.22,.22-.415,.415-.609,.609-.12,.041-.241,.117-.361,.117-3.432,.006-6.864,.005-10.37,.005-.26,.22-.563,.476-.974,.824-1.925,0-3.975-.013-6.024,.007-.696,.007-.96-.315-.928-.97,.013-.273-.195-.443-.376-.672-.652-.824-.628-1.065-.004-1.686,.285-.283,.588-.548,.9-.836h1.581c.233-.233,.427-.427,.66-.66,1.409-.386,2.918,.114,4.359-.24,.206-.206,.4-.4,.594-.594,.122-.038,.243-.108,.365-.109,1.51-.007,3.02-.005,4.598-.005,.263-.225,.566-.484,.926-.792h5.667c.313-.287,.611-.559,.927-.849h4.078c.304-.284,.6-.56,.91-.849h4.078c.212-.212,.406-.407,.687-.687,1.363-.322,2.864,.054,4.323-.205,.194-.194,.388-.388,.668-.668,1.649-.191,3.412,.043,5.069-.126,.273-.274,.468-.468,.665-.666,.936-.202,1.889-.075,2.836-.097,.823-.02,1.65-.049,2.47,.01,.664,.048,.939-.436,1.362-.81h5.711c.311-.288,.607-.562,.917-.849h4.906l.909-.849h6.548c.216-.216,.41-.41,.622-.622,.894-.371,1.85-.134,2.784-.171,.959-.038,1.922-.009,2.883-.009h2.75c.288-.288,.482-.483,.714-.714,1.03-.261,2.119-.067,3.197-.101,1.234-.039,2.471-.009,3.706-.009,1.098,0,2.197,.029,3.294-.008,1.078-.037,2.168,.157,3.199-.1,.23-.23,.424-.424,.715-.715,3.321,0,6.741-.018,10.159,.016,.663,.007,.931-.453,1.356-.816h13.953c.308-.288,.605-.564,.91-.849h18.911c.307-.285,.603-.561,.856-.796h56.014c.424,.37,.699,.815,1.359,.813,6.727-.025,13.453-.015,20.18-.015h2.327l.718,.718c1.035,.249,2.125,.058,3.204,.098,.96,.036,1.922,.008,2.883,.008h9.472c.961,0,1.923-.031,2.883,.008,1.077,.044,2.167-.165,3.193,.104,.233,.233,.428,.428,.666,.666h22.159c.322,.284,.622,.55,.96,.849h17.227c.308,.288,.605,.564,.91,.849h9.845c.313,.288,.61,.562,.922,.849h9.826c.422,.38,.707,.817,1.365,.81,3.02-.036,6.04-.017,9.06-.011,.122,0,.244,.069,.366,.105,.194,.194,.388,.388,.613,.613,1.041,.236,2.13,.063,3.21,.093,1.235,.035,2.471,.008,3.706,.008h3.068c.354,.354,.548,.548,.783,.783h15.576l.95,.849h8.988c.315,.29,.613,.565,.922,.849h8.188c.32,.291,.618,.562,.933,.849h8.174c.421,.391,.714,.817,1.37,.806,2.317-.041,4.636-.016,6.834-.016,.312,.312,.507,.506,.701,.701,.12,.041,.24,.115,.361,.118,.549,.013,1.098,.006,1.647,.006h6.589c.275,0,.554,.032,.823-.006,.652-.094,.96,.386,1.36,.793h13.127c.317,.286,.615,.556,.939,.849h10.65c.311,.286,.609,.561,.92,.849h11.468c.327,.294,.626,.563,.943,.849h10.639c.419,.402,.723,.811,1.375,.802,2.591-.039,5.183-.016,7.646-.016,.321,.32,.515,.515,.709,.709,.121,.038,.24,.093,.365,.111,.135,.019,.274,.004,.411,.004,2.334,0,4.668,.025,7.001-.016,.657-.012,.947,.42,1.368,.807h8.176c.314,.287,.612,.559,.929,.849h7.37c.305,.283,.602,.559,.915,.849h7.341c.334,.297,.634,.564,.954,.849h4.045c.417,.414,.73,.82,1.381,.797,1.491-.051,2.985-.016,4.339-.016,.329,.329,.523,.523,.727,.727,.652,.197,1.337,.116,2.004,.079,.663-.036,.94,.437,1.363,.813h1.591c.311,.287,.608,.562,.918,.849h.834c.174,.183,.348,.397,.554,.576,.422,.367,.673,.76,.7,1.375,.014,.318,.475,.617,.767,.964Z"/>
</svg>
