<?xml version="1.0" encoding="UTF-8"?>
<svg preserveAspectRatio="none" id="a" data-name="AW" xmlns="http://www.w3.org/2000/svg" width="500" height="26.62" viewBox="0 0 500 26.62">
  <path id="b" data-name="10" d="M499.854,20.902c-.788-.879-1.652-1.691-2.461-2.5-1.148,.415-1.458-.763-2.224-.991-.683,0-1.366,.007-2.048-.001-.819-.01-1.484-.3-1.31-.494,.204-.229,.505-.397,.795-.517,.291-.121,.717-.05,.914-.24,.499-.481,.954-.894,1.732-.832,.195,.015,.577-.398,.61-.649,.087-.655,.029-1.329,.029-1.769-.622-.682-1.079-1.184-1.511-1.657h-6.158c-.402-.364-.773-.7-1.164-1.053h-12.159c-.454-.386-.83-.705-1.155-.982-2.99,0-5.892,.002-8.793-.006-.151,0-.302-.09-.452-.138-.241-.241-.483-.483-.741-.741-.799-.287-1.651-.156-2.477-.116-.815,.04-1.19-.5-1.711-1h-2.987c-.395-.355-.766-.689-1.174-1.055h-6.062c-.389-.359-.76-.7-1.143-1.053h-8.133c-.397-.362-.767-.699-1.154-1.052h-22.46c-.525-.474-.876-1.086-1.699-1.001-.675,.07-1.364,.014-2.046,.014h-132.479c-.57-.543-.946-1.045-1.757-1.043-14.507,.026-29.014,.018-43.522,.025-.322,0-.644,.087-.966,.133-.241,.242-.483,.483-.724,.724-5.135,.233-10.443,.221-14.701-.035-.241-.241-.483-.483-.828-.828h-3.949c-1.536,0-3.074,.051-4.607-.016-1.331-.058-2.689,.274-3.906-.152-.327-.327-.569-.569-.833-.833H126.64c-.373-.344-.743-.685-1.13-1.042h-5.086c-.366,.342-.734,.685-1.092,1.019-21.696,0-43.372,0-65.047,.001-.167,0-.334,.017-.472,.024-.388,.351-.759,.688-1.148,1.041h-16.26c-.451,.385-.827,.705-1.153,.983-4.354,0-8.621-.001-12.887,.006-.151,0-.303,.088-.454,.134-.241,.241-.483,.483-.884,.884h-2.846c-.853,0-1.708-.028-2.56,.007-.997,.042-2.014-.182-2.98,.182-.252,.252-.493,.493-.835,.835h-2.929c-.853,0-1.709-.037-2.559,.01-.99,.054-2.012-.237-2.947,.23-.26,.26-.502,.501-.785,.785H1.109c-.171,0-.405-.071-.499,.014-.23,.207-.486,.461-.566,.742-.154,.541,.126,1.188,.522,1.278,.322,.073,.674,.015,.978,.015,.545,.407,.824,1.093,1.667,1.045,.829-.047,.883,.038,.909,1.313,.89,.89,1.728,1.728,2.716,2.716h1.758c.396,.355,.768,.688,1.178,1.055h1.961c.391,.36,.762,.702,1.157,1.066,.996,0,2.018-.012,3.038,.016,.124,.003,.278,.208,.349,.353,.041,.083-.025,.261-.098,.351-.366,.451-1.052,.082-1.356,.391-.63,.64-1.254,1.03-2.198,.934-.845-.086-1.706-.041-2.558-.012-.834,.029-1.681-.142-2.487,.122-.256,.256-.483,.687-.741,.706-1.304,.099-2.05,.92-2.778,1.981,.131,.386,.282,.835,.428,1.265h3.152c.389,.359,.76,.7,1.121,1.033h25.569c.393-.36,.763-.699,1.069-.979h15.293c.483,.378,.86,.702,1.271,.975,.118,.079,.333,.012,.504,.012,4.438,0,8.875,.001,13.313-.005,.153,0,.348-.036,.451-.133,.899-.848,.894-.854,1.93,.138h3.939c11.776,0,23.553,.009,35.329-.019,.823-.002,1.158,.561,1.686,1.013h12.292c.318-.296,.687-.64,1.067-.994h6.108c.376,.351,.744,.695,1.067,.997h11.27c.783-.688,1.346-1.562,2.276-2.022,1.878,0,3.755,.004,5.632-.007,.147,0,.293-.109,.44-.167,.241-.241,.483-.483,.85-.849h2.382c5.461,0,10.923-.018,16.384,.019,.819,.006,1.167-.543,1.733-1.044,29.607,0,59.295,0,88.982,.011,.134,0,.269,.164,.403,.251,.241,.241,.483,.483,.743,.743h37.858c.376,.351,.744,.695,1.117,1.043h32.741c.379-.354,.748-.697,1.07-.998h31.72c.423,.373,.796,.702,1.193,1.052h19.363c.295,.295,.537,.536,.778,.777,.144,.065,.282,.156,.433,.186,.164,.032,.34,.007,.511,.007h49.666c.171,0,.344-.02,.511,.006,.154,.023,.3,.095,.45,.146,.241,.241,.483,.483,.873,.873h2.861c.853,0,1.708-.03,2.56,.008,.996,.044,2.013-.193,2.975,.191,.252,.252,.493,.494,.78,.78h4.015c.393,.355,.764,.69,1.168,1.055h1.975c.386,.356,.756,.698,1.114,1.028h22.493c.398-.362,.769-.699,1.16-1.055h4.019c.523-.485,.884-1.051,1.703-1.001,1.19,.072,2.389,.048,3.583,.011,1.346-.042,2.7,.156,4.007-.104,.272-.272,.513-.513,.889-.889,1.338-.159,2.86,.156,4.25-.124,.544-.578,1.001-1.064,1.419-1.509-.049-.414,.033-.848-.146-1.047ZM95.127,13.99c-.078,.139-.235,.333-.358,.334-3.386,.018-6.771,.014-10.181,.014-.352-.332-.717-.675-1.087-1.024-2.359,0-4.729,.026-7.098-.027-.372-.008-.521-.414-.389-.649,.078-.139,.235-.333,.358-.334,2.708-.019,5.417-.015,8.126-.015,.366,.342,.733,.683,1.099,1.024,3.047,0,6.095-.021,9.141,.027,.37,.006,.521,.414,.389,.65Zm67.473-4.974c-.443,.323-.962,.195-1.451,.195-8.017,.006-16.034-.001-24.052,.012-.832,.001-1.679-.148-2.482,.124-.257,.257-.498,.498-.739,.739-.32,.052-.64,.146-.96,.147-4.094,.01-8.188,.009-12.282-.002-.143,0-.286-.124-.429-.19-.241-.241-.482-.483-.775-.775h-18.454c-.278,.245-.651,.573-1.075,.946h-3.04c-.323-.302-.691-.646-1.068-.997h-11.227c-.377-.352-.745-.696-1.068-.998h-5.082c-.405,.345-.756,.644-1.102,.938-.297-.297-.538-.538-.779-.779-4.313-.24-23.725-.26-29.028-.031-.241,.241-.483,.482-.724,.724-.15,.049-.3,.139-.451,.14-1.535,.01-3.07,.006-4.696,.006-.324-.274-.7-.594-1.208-1.025-5.294,0-10.741,0-16.187-.001-.363,0-.688-.618-.659-1.18,.017-.344,.152-.621,.509-.848h14.283c.377-.352,.745-.696,1.118-1.045h48.093c.37,.342,.741,.683,1.121,1.034h24.511c.394,.36,.763,.699,1.143,1.045h26.558c.528,.452,.864,1.014,1.686,1.014,6.638,0,13.276,.049,19.913,.102,.122,0,.299,.21,.34,.353,.025,.087-.139,.265-.256,.35Zm97.463,6.011c-.086,.135-.242,.32-.368,.321-2.044,.02-4.089,.014-6.072,.014-.42-.379-.792-.715-1.185-1.069h-16.309c-.286-.286-.528-.528-.769-.769-.142-.07-.283-.201-.425-.201-2.39-.013-4.781,.024-7.17-.022-1.345-.026-2.703,.209-4.032-.148-.143-.038-.339-.23-.339-.351,0-.121,.2-.322,.338-.347,.484-.088,.98-.157,1.472-.158,5.975-.01,11.95-.006,18.142-.006,.451,.451,.692,.692,.979,.979h10.161c.393,.355,.765,.69,1.186,1.07,1.299,0,2.663-.046,4.021,.029,.385,.021,.52,.424,.369,.66Zm230.542,6.119c-.065,.145-.231,.347-.353,.349-1.706,.023-3.412,.016-5.1,.016-.378-.353-.746-.697-1.128-1.053h-7.116c-.27-.27-.511-.511-.768-.768-.943-.443-1.964-.168-2.955-.219-.851-.044-1.706-.009-2.559-.009h-2.918c-.573-.581-.969-1.085-1.777-1.044-1.361,.07-2.729,.024-4.094,.012-.147-.001-.294-.107-.441-.164l-.729-.729c-1.164-.247-2.348-.091-3.524-.119-1.023-.024-2.051-.061-3.07,.012-.824,.059-1.169-.538-1.695-1.006h-33.723c-.383-.346-.754-.681-1.157-1.046h-14.259c-.387-.356-.757-.698-1.13-1.042h-31.706c-.383-.355-.752-.697-1.166-1.082-4.058,0-8.144,.003-12.231-.015-.121,0-.358-.316-.344-.333,.171-.221,.376-.588,.576-.59,3.071-.037,6.142-.026,9.213-.026h2.765c.622-.45,1.008-.756,1.425-1.013,.124-.076,.334-.012,.505-.012,10.749,0,21.498-.001,32.247,.007,.32,0,.639,.097,.959,.149,.241,.242,.482,.483,.724,.725,.151,.048,.301,.137,.452,.138,2.048,.009,4.095,.006,6.142,.006,3.413,0,6.825,.027,10.237-.02,.812-.011,1.186,.502,1.708,.998h9.132c.393,.352,.765,.686,1.173,1.053h20.409c.377,.352,.746,.696,1.119,1.044h17.372c.381,.354,.75,.697,1.134,1.054h1.946c.433,.377,.807,.703,1.21,1.054h2.971c.515,.538,.926,1.098,1.727,.966,.908-.149,1.656,.118,2.193,.963h3.015c.401,.352,.775,.679,1.236,1.083,.572,0,1.254-.063,1.918,.024,.385,.05,.545,.392,.436,.636Z"/>
</svg>
