<?xml version="1.0" encoding="UTF-8"?>
<svg preserveAspectRatio="none" id="a" data-name="AW" xmlns="http://www.w3.org/2000/svg" width="500" height="13.949" viewBox="0 0 500 13.949">
  <path id="b" data-name="7" d="M500,6.445c-.061,.103-.099,.238-.187,.303-.513,.374-1.138,.039-1.654,.221-.501,.177-.898,.679-1.401,.815-.542,.146-1.154,.033-1.736,.033-.58,0-.58,.008-1.465,.83h-10.391c-.338,.302-.655,.585-1.006,.898h-13.014l-.968,.895h-40.976c-.332,.305-.647,.595-.975,.897h-35.721c-.448,.396-.742,.874-1.442,.86-2.326-.045-4.653-.015-6.98-.022-.13,0-.26-.069-.391-.106-.206-.206-.411-.411-.617-.617-.271-.049-.542-.139-.813-.139-7.126-.008-14.252,.003-21.378-.021-.678-.002-1.038,.37-1.433,.84h-34.095c-.231-.203-.549-.482-.913-.801h-19.12c-.325-.303-.639-.596-.961-.897h-6.948c-.324-.301-.638-.594-.911-.848h-47.131c-.229,.229-.435,.435-.641,.641-.117,.069-.226,.168-.352,.2-.137,.035-.289,.008-.434,.008-9.308,0-18.615,0-27.923,.004-.132,0-.264,.06-.403,.094-.392,.397-.731,.809-1.418,.792-2.035-.048-4.072-.02-6.108-.011-.125,0-.25,.092-.375,.141-.206,.206-.411,.411-.725,.725h-2.465c-6.835,0-13.671,.011-20.506-.016-.698-.003-.994,.464-1.442,.86h-44.511c-.264-.243-.579-.532-.912-.838h-47.095l-.958,.882h-27.879c-.221,.221-.426,.426-.632,.632-.114,.075-.228,.214-.343,.216-1.153,.016-2.305,.01-3.369,.01-.887-.845-.883-.84-1.635-.126-.088,.083-.252,.121-.381,.121-3.2,.007-6.399,.005-9.599,.005-.145,0-.328,.056-.43-.01-.351-.231-.674-.504-1.094-.828h-4.299c-.257,.234-.572,.522-.909,.83H5.664c-.306-.282-.622-.573-.955-.88h-.84c-.489-.544-.952-1.117-1.591-.903-.838-.838-1.553-1.553-2.279-2.279v-2.246c1.177-1.184,2.193-2.207,3.219-3.239h1.625c.425,1.181,2.022,.454,2.431,1.588,.13,.037,.26,.107,.39,.108,2.618,.006,5.236-.021,7.853,.022,.699,.011,.996-.46,1.444-.859h20.884l.976-.898h9.57c.31,.289,.624,.582,.909,.848h6.108c.225-.225,.431-.431,.652-.652,.799-.392,1.67-.158,2.514-.192,1.016-.04,2.036-.01,3.054-.01h2.493c.488-.485,.823-.89,1.509-.889,10.326,.023,20.651,.016,30.977,.016,13.961,0,27.923-.003,41.884,.006,.854,0,1.719-.123,2.557,.121q.729,.716,1.585-.093h61.893c.331-.299,.647-.584,.991-.895h12.154c.329-.304,.645-.595,.972-.897h20.88c.331-.291,.632-.557,.932-.82,.441,.414,.753,.916,1.45,.844,.576-.06,1.179,.072,1.738-.042,.377-.077,.696-.434,1.224-.788-.089,.03,.038-.049,.166-.05,1.309-.009,2.618-.006,4.004-.006,.276-.234,.597-.505,.986-.835h44.474c.249,.224,.566,.508,.913,.82h4.293l.974,.897h22.635c.339,.308,.655,.596,.911,.829h31.426c.447-.409,.754-.857,1.449-.855,8.58,.025,17.161,.015,25.741,.021,.275,0,.549,.073,.832,.113,.382,.417,.745,.852,1.425,.765,.429-.055,.877-.054,1.306,0,.692,.087,1.019-.406,1.461-.84h5.16c.338-.302,.655-.585,.983-.878,.294,.269,.602,.552,.903,.827h20.909c.326-.29,.629-.559,.93-.827,.236,.236,.442,.442,.647,.647,.119,.063,.235,.167,.359,.179,.288,.027,.581,.009,.872,.009,8.58,0,17.161,0,25.741,.005,.129,0,.258,.073,.388,.112,.206,.206,.411,.411,.649,.649,1.103,.25,2.257,.066,3.401,.098,1.308,.037,2.618,.009,3.926,.009h14.398c1.309,0,2.619-.034,3.926,.01,1.141,.038,2.295-.181,3.378,.112,.25,.25,.455,.455,.706,.706h17.372c.339,.301,.656,.582,1.012,.898h2.543l.965,.899h1.724c.418,.418,.829,.829,1.24,1.24Z"/>
</svg>
