<?xml version="1.0" encoding="UTF-8"?>
<svg preserveAspectRatio="none" id="a" data-name="AW" xmlns="http://www.w3.org/2000/svg" width="500" height="27.081" viewBox="0 0 500 27.081">
  <path id="b" data-name="16" d="M500,25.653c-.271,.462-.732,.434-1.18,.548-.418,.107-.762,.508-1.277,.879h-22.196c-.256-.224-.609-.535-1.012-.889h-7.665c-.362-.338-.71-.663-1.069-.998h-7.711c-.363-.336-.711-.66-1.076-.998h-8.658c-.498-.437-.823-.963-1.6-.956-4.344,.039-8.688,.019-12.911,.019-.349-.349-.577-.577-.845-.845-1.218-.293-2.5-.073-3.769-.115-1.29-.043-2.584-.01-3.876-.01h-7.267c-1.292,0-2.585,.036-3.876-.01-1.267-.045-2.549,.192-3.758-.121-.274-.274-.502-.502-.784-.784h-28.005c-.379-.333-.732-.644-1.134-.997h-45.514c-.305,.285-.654,.61-1.011,.943h-53.262l-1.063-.992h-118.18c-.251-.251-.479-.479-.708-.708-.129-.08-.251-.214-.387-.228-.319-.034-.645-.011-.968-.011-4.36,0-8.721,.001-13.081-.004-.147,0-.295-.064-.448-.099-.438-.438-.811-.889-1.573-.884-5.006,.036-10.013,.024-15.019,.012-.625-.001-1.267,.129-1.846-.126-.255-.255-.483-.483-.716-.716-.939-.229-1.899-.113-2.85-.114-7.59-.011-15.181-.018-22.771,.012-.774,.003-1.106-.509-1.604-.953h-17.45c-.292,.269-.641,.59-1.009,.929H34.387c-.343-.32-.692-.645-1.055-.984h-11.548c-.393-.35-.746-.663-1.122-.998h-5.724c-.278-.278-.469-.587-.744-.716-.402-.188-.938-.144-1.286-.386-.522-.363-.93-.889-1.387-1.346l-.345-.345c-.923,.165-1.464-.42-1.997-1.03h-.968c-2.05-2.059-4.101-4.118-6.23-6.256-.022-.369-.058-.835-.075-1.301-.034-.93-.106-1.035-1.056-1.154-.334-.042-.612-.094-.829-.465,.284-.322,.579-.658,.876-.995C.607,1.136,.304,.793,0,.451Q.875,0,5.143,0c.244,.192,.491,.38,.728,.579,.123,.103,.23,.227,.369,.366h6.736c.362,.338,.71,.663,1.068,.997h14.493c.364,.337,.713,.66,1.009,.934h16.478c.498-.438,.825-.956,1.6-.955,17.603,.023,35.206,.017,52.809,.022,.307,0,.614,.073,.928,.112,.431,.452,.82,.889,1.579,.871,2.26-.053,4.521-.019,6.782-.019,5.006,0,10.013,.017,15.019-.019,.759-.005,1.142,.431,1.63,.932h12.505c.38,.333,.734,.644,1.137,.998h108.444c.359,.333,.708,.657,1.071,.993h43.567c.357,.333,.705,.658,1.015,.947h3.881c.253-.253,.481-.481,.71-.71,.129-.078,.258-.226,.387-.226,27.764-.01,55.528-.01,83.195-.01,.541,.535,.911,.99,1.674,.987,8.075-.029,16.15-.023,24.224-.01,.785,.001,1.589-.156,2.34,.129,.246,.246,.475,.475,.703,.703,.144,.043,.287,.123,.431,.123,2.745,.007,5.491,.006,8.236,.006s5.491,.03,8.236-.019c.774-.014,1.11,.503,1.606,.952h9.622c.368,.337,.717,.658,1.088,.998h7.707c.356,.333,.705,.659,1.067,.998h7.707c.25,.25,.478,.478,.706,.706,.128,.08,.251,.216,.386,.23,.319,.034,.645,.011,.968,.011,8.236,0,16.473,0,24.709,.004,.148,0,.296,.062,.444,.095,1.256,1.256,2.512,2.512,3.768,3.768,1.374-.003,1.396,.046,1.46,1.249,.017,.322-.015,.647,.007,.969,.029,.428,.425,.7,1.034,.699,.323,0,.646-.005,.969,.002,.155,.003,.309,.03,.466,.047,.491,.678,1.129,1.073,1.992,1.025,2.058,2.058,4.114,4.114,6.166,6.166Z"/>
</svg>
