<?xml version="1.0" encoding="UTF-8"?>
<svg preserveAspectRatio="none" id="a" data-name="AW" xmlns="http://www.w3.org/2000/svg" width="500" height="19.999" viewBox="0 0 500 19.999">
  <path id="b" data-name="19" d="M499.967,15.45c-.008-.168-.386-.465-.573-.45-.65,.05-.998-.347-1.466-.86-2.387,0-4.872-.027-7.355,.033-.324,.008-.637,.46-1.076,.801h-30.24c-.139,0-.321,.056-.408-.011-.198-.153-.465-.349-.496-.558-.06-.407-.063-.782-.416-1.09-.308-.269-.543-.621-.743-.857h-1.79c-.432-.348-.689-.825-1.36-.847-.682-.022-.688-.131-.719-1.269-.36-.311-.777-.672-1.389-1.201-2.37,0-4.994-.023-7.617,.016-.666,.01-.954-.434-1.415-.85h-1.573c-.417,0-.836-.029-1.249,.01-.314,.03-.602,.013-.728-.247-.243-.502,.363-.568,.507-.91-.202-.621-.738-.974-1.299-1.395h-31.531c-.422-.419-.738-.84-1.397-.806-1.108,.057-2.221,.016-3.332,.016-13.748,0-27.495,.002-41.243-.006-.815,0-1.641,.121-2.44-.119l-.609-.609c-.513-.187-1.064-.093-1.604-.094-4.027-.008-8.054-.001-12.081-.012-.253,0-.513-.092-.755-.182-.085-.032-.193-.211-.169-.278,.044-.118,.179-.286,.28-.288,1.935-.038,3.87-.055,5.805-.078,.289-.003,.603-.537,.496-.981-.058-.241-.254-.448-.392-.678h-30.809c-.31-.285-.611-.563-.928-.855h-27.428c-.332-.298-.634-.57-.872-.783h-48.298l-.942,.797c-8.823,0-17.571,0-26.32,.005-.122,0-.245,.075-.367,.115-.196,.196-.393,.393-.589,.589-3.855,.163-32.782,.248-42.441,.117-.117-.002-.232-.104-.348-.159-.196-.196-.393-.393-.668-.668-20.184,0-40.448,0-60.711,.009-.11,0-.22,.13-.33,.2-.196,.196-.393,.393-.607,.607H23.771l-.876-.817H7.097c-.31-.289-.61-.567-.867-.806H1.223C.804,.419,.411,.812,.018,1.205,.012,1.341-.002,1.477,0,1.613c.01,.512,.255,.837,.632,.861,.812,.053,1.639-.136,2.429,.145,.204,.204,.4,.4,.596,.597,.126,.03,.253,.087,.379,.087,3.194,.005,6.388,.004,9.582,.004,.278,0,.558-.02,.832,.009,.117,.012,.223,.126,.334,.193,.196,.196,.393,.393,.61,.61h13.292c.31,.29,.61,.57,.919,.858h3.296c.313,.29,.614,.568,.928,.858h5.782c.519,.519,1.01,1.01,1.534,1.534,1.049,.247,2.153,.099,3.243,.082,.752-.011,1.333,.163,1.774,.768,.712,.022,1.308,.272,1.716,.921,2.495,0,4.99-.003,7.484,.011,.104,0,.229,.145,.303,.251,.049,.07,.071,.235,.027,.282-.378,.395-.775,.772-1.164,1.152H27.89c-.427,.383-.712,.834-1.38,.82-2.082-.044-4.166-.016-6.249-.016-2.638,0-5.277-.001-7.915,.005-.124,0-.248,.067-.372,.103-.196,.196-.393,.393-.589,.589-.12,.045-.24,.13-.36,.13-2.222,.008-4.444,0-6.665,.013-.256,.001-.52,.074-.764,.161-.109,.039-.212,.182-.257,.301-.191,.507,.205,1.175,.704,1.194,.416,.016,.833,.003,1.299,.003l.918,.815h1.636c.273-.255,.573-.535,.879-.821H27.902c.317-.292,.618-.568,.932-.857h25.773c.428-.382,.712-.828,1.379-.82,3.193,.036,6.388,.016,9.582,.016,2.083,0,4.166,.002,6.249-.005,.124,0,.248-.067,.372-.102,.196-.196,.393-.393,.589-.589,4.014-.194,10.945-.185,14.459,.019,.197,.196,.393,.393,.589,.589,.127,.03,.253,.085,.38,.085,4.305,.004,8.61,.004,12.914,.004,.278,0,.558-.02,.832,.009,.117,.012,.222,.127,.333,.195,.196,.196,.393,.393,.609,.609h9.126c.311,.29,.611,.57,.918,.857h14.128c.315,.29,.615,.568,.929,.858h16.602c.437,.375,.716,.824,1.384,.821,5.971-.027,11.942-.016,17.913-.016,.819,0,1.638,0,2.352,0,.3,.3,.497,.497,.727,.727,1.048,.251,2.15,.062,3.241,.098,1.11,.037,2.222,.008,3.332,.008h32.911c1.111,0,2.223-.03,3.332,.009,1.09,.038,2.192-.162,3.234,.103,.234,.234,.43,.43,.722,.722,3.918,0,7.933-.016,11.947,.016,.671,.005,.94-.461,1.37-.826h13.332c.261,.244,.561,.524,.868,.81h55.797c.306,.286,.606,.566,.914,.853h54.926c.342,.302,.645,.571,.92,.814,32.129,0,64.207,0,96.284,.003,.128,0,.256,.049,.387,.076,.382,.368,.692,.776,1.351,.77,3.888-.033,7.776-.007,11.664-.023,.954-.004,1.918,.129,2.858-.115,.202-.202,.399-.399,.595-.595,5.348-.211,8.138-.192,8.627,.059,.196,.196,.393,.393,.623,.623h1.679c.244-.222,.545-.497,.868-.791h10.803c.292,.269,.594,.547,.879,.809h7.442c.355-.297,.629-.662,.988-.789,.362-.128,.818,.009,1.125-.478,0-1.032,.025-2.138-.027-3.241ZM289.031,2.177c-.053,.118-.188,.284-.286,.285-6.1,.014-12.199,.012-18.299,.012s-12.199,.006-18.298-.019c-.299-.001-.441-.319-.352-.518,.053-.118,.188-.284,.286-.285,12.199-.013,24.398-.015,36.597,.006,.299,0,.441,.32,.352,.518Zm17.172,3.608c-1.793,.045-3.588,.022-5.382,.022-1.518,0-3.036,.005-4.554-.012-.101-.001-.228-.157-.293-.27-.11-.192,.012-.527,.314-.53,3.312-.034,6.624-.024,9.936-.01,.1,0,.228,.157,.293,.27,.11,.192-.01,.522-.314,.53Zm22.81-2.754c-.068,.111-.195,.265-.296,.265-3.183,.014-6.366,.011-9.55,.011s-6.367,.014-9.549-.022c-.304-.003-.422-.343-.305-.535,.068-.111,.195-.265,.296-.265,6.366-.013,12.733-.018,19.099,.01,.303,.001,.422,.344,.305,.535Z"/>
</svg>
