<?xml version="1.0" encoding="UTF-8"?>
<svg preserveAspectRatio="none" id="a" data-name="AW" xmlns="http://www.w3.org/2000/svg" width="500" height="39.32" viewBox="0 0 500 39.32">
  <path id="b" data-name="8" d="M498.768,27.494c-.424-.106-.769-.523-1.342-.946h-3.172c-1.146,0-2.293,.037-3.437-.011-1.113-.047-2.254,.251-3.313-.213-.255-.255-.486-.486-.738-.738h-10.756c-.369-.344-.723-.673-1.085-1.011h-13.728c-.47-.471-.934-.934-1.426-1.426,.306-.34,.613-.682,.938-1.044-.456-.436-.926-.886-1.432-1.371-1.349-.34-2.831,.248-4.143-.256-.307-.307-.539-.539-.788-.788h-12.716c-.375-.345-.73-.673-1.097-1.011h-12.712c-.38-.347-.736-.67-1.11-1.011h-11.665c-.432-.368-.793-.676-1.106-.943-4.175,0-8.268,.001-12.36-.006-.145,0-.289-.086-.434-.131-.231-.232-.463-.463-.717-.717-.594-.244-1.245-.12-1.879-.122-3.765-.012-7.53-.029-11.295,.013-.777,.009-1.142-.473-1.689-1.001h-12.146c-.163,0-.337,.033-.488-.009-.141-.039-.26-.159-.389-.243-.231-.232-.463-.463-.73-.729-2.906,0-5.849,.02-8.79-.026-.361-.006-.503-.401-.368-.628,.078-.132,.23-.314,.349-.315,4.581-.016,9.161-.014,13.686-.014,.382,.338,.723,.639,1.036,.915,.403-.343,.764-.65,1.076-.915,1.885,0,3.686-.003,5.487,.006,.145,0,.289,.087,.433,.134,.232,.232,.463,.463,.7,.701,.944,.272,1.918,.134,2.88,.135,11.95,.011,23.9,.015,35.85-.011,.775-.002,1.142,.472,1.689,1h20.985c.164,0,.337-.033,.489,.01,.141,.039,.26,.158,.389,.242,.231,.231,.463,.463,.694,.694,.347-.308,.695-.615,1.029-.911,.357,.324,.713,.647,1.087,.988h16.623c.502,.466,.852,.97,1.633,.961,3.601-.043,7.202-.009,10.804-.04,.262-.002,.521-.303,.783-.466v-.996c-.456-.449-.922-.908-1.487-1.464h-7.714c-.327,0-.658,.025-.981-.012-.136-.015-.258-.159-.386-.245-.231-.231-.463-.463-.71-.71h-11.741c-.373-.343-.728-.67-1.097-1.01h-14.668c-.384-.348-.74-.671-1.115-1.011h-17.554c-.435-.37-.796-.677-1.108-.941h-14.327c-.655,0-1.315,.047-1.962-.022-.274-.029-.522-.303-.783-.465,.257-.165,.512-.474,.769-.474,8.512-.025,17.024-.01,25.536-.039,.776-.003,1.14,.475,1.688,1.001,8.08,0,16.252,.001,24.424-.01,.129,0,.279-.139,.38-.249,.077-.084,.164-.287,.125-.332-.426-.493-.876-.965-1.266-1.386h-9.896c-.382-.347-.738-.67-1.112-1.01h-30.327c-.432-.369-.793-.676-1.106-.943-11.378,0-22.673,0-33.968-.006-.145,0-.29-.084-.435-.129-.231-.232-.463-.463-.694-.695-.143-.051-.282-.124-.429-.147-.16-.026-.327-.006-.49-.006h-52.056c-.327,0-.656,.018-.981-.009-.142-.012-.276-.117-.414-.179-.116-.116-.224-.24-.349-.346-.654-.556-1.151-.623-1.672-.197-.252,.206-.466,.459-.718,.711h-2.937c-.329-.305-.684-.634-1.043-.966h-88.363c-.37-.342-.724-.669-1.094-1.011h-17.573c-.399-.334-.732-.613-1.032-.864-.448,.248-.558,.84-1.13,.715l-.698-.698c-.149-.034-.299-.099-.448-.099-4.42-.005-8.84-.004-13.259-.004-.327,0-.657,.023-.981-.011-.137-.015-.262-.15-.392-.231-.232-.231-.463-.463-.717-.717h-16.652l-1.071-.999h-.948c-.373,.343-.727,.669-1.022,.941h-1.896c-.463-.362-.825-.673-1.219-.935-.113-.075-.32-.012-.483-.012-3.929,0-7.858-.001-11.786,.005-.146,0-.292,.08-.438,.123-.579,.579-1.157,1.157-1.736,1.737-.314,.033-.637,.03-.939,.109-.352,.092-.595,.346-.514,.579,.124,.357,.443,.431,.805,.403,.488-.038,.981-.009,1.477-.009,.353,.326,.707,.654,1.062,.982,.491,0,.982-.001,1.473,0,.161,0,.341-.031,.478,.03,.14,.062,.296,.201,.339,.339,.077,.243-.116,.593-.463,.593-18.979-.002-37.958-.028-56.937-.052-.464-.417-.803-.932-1.587-.929-8.676,.029-17.352,.023-26.028,.012-.964-.001-1.938,.118-2.889-.117-.236-.236-.468-.468-.86-.86-10.293,0-20.748,0-31.203-.008-.139,0-.277-.115-.415-.176-.232-.231-.463-.463-.744-.744-.333,.286-.67,.575-1.055,.905h-1.923c-.321-.299-.674-.628-1.023-.953h-3.896c-.374,.344-.729,.67-1.141,1.048-1.261,0-2.56-.009-3.859,.015-.118,.002-.232,.216-.348,.332-.024,.318-.048,.635-.084,1.122,.421,.335,.929,.739,1.767,1.405,.519,0,1.483-.029,2.445,.007,1.12,.042,2.257-.192,3.348,.172,.243,.243,.475,.475,.803,.803h3.3c1.146,0,2.293-.038,3.437,.011,1.113,.047,2.254-.253,3.311,.214l.757,.757h5.347c6.384,0,12.768-.009,19.152,.024,.358,.002,.507,.395,.381,.624-.074,.134-.228,.32-.346,.32-5.891,.016-11.782,.014-17.664,.014-.168,.277-.399,.521-.468,.805-.127,.523,.243,1.159,.581,1.159,3.591,.002,7.183,0,10.646,0,.47,.403,.83,.712,1.145,.982h1.553c.327,0,.671-.062,.977,.018,.284,.074,.527,.302,.788,.462-.251,.167-.501,.481-.752,.481-12.114,.024-24.227,.021-36.341,.021-.164,0-.332-.024-.49,.007-.144,.029-.277,.118-.415,.181l-.697,.697c-.692-.24-1.036-1.274-2.018-.877-.344,.319-.699,.647-1.062,.983H6.397c-.377,.345-.732,.67-1.105,1.012H1.431c-.501,.501-.964,.964-1.431,1.431v1.004c.451,.439,.92,.894,1.499,1.457H19.507c.164,0,.336-.033,.489,.01,.141,.039,.26,.158,.39,.242,.231,.232,.463,.463,.713,.713H231.264c.355,.331,.709,.661,1.073,1h16.661c.362,.338,.716,.668,1.083,1.01h12.711c.507,.431,.825,.98,1.616,.974,4.732-.038,9.464-.019,14.082-.019,.344,.344,.575,.576,.817,.817,1.097,.335,2.233,.121,3.355,.159,.981,.033,1.964,.007,2.946,.007,1.146,0,2.292-.026,3.437,.007,1.123,.032,2.259-.172,3.358,.154,.24,.24,.472,.472,.821,.821,3.958,0,8.035,.022,12.112-.019,.789-.008,1.113,.535,1.619,.971h9.761c.368,.343,.721,.672,1.085,1.011h11.749c.363,.338,.716,.668,1.083,1.011h11.728c.507,.432,.825,.982,1.616,.973,3.749-.042,7.499-.019,11.134-.019,.345,.345,.577,.577,.982,.982h3.191c1.146,0,2.293-.026,3.437,.007,1.123,.033,2.259-.173,3.357,.155,.241,.241,.473,.472,.82,.82,3.632,0,7.382,.023,11.131-.019,.79-.009,1.112,.537,1.618,.972h9.762c.368,.343,.721,.673,1.084,1.011h11.75c.363,.339,.716,.668,1.083,1.011h10.745c.507,.434,.827,.983,1.617,.973,3.422-.044,6.844-.019,10.16-.019,.55,.571,.94,1.031,1.711,1.001,1.635-.063,3.273-.019,4.91-.019s3.274-.004,4.911,.007c.14,.001,.279,.108,.419,.166,.231,.231,.463,.463,.809,.809,4.289,0,8.693,.02,13.098-.019,.79-.007,1.11,.54,1.617,.973h11.728c.367,.343,.72,.672,1.083,1.011h17.637c.355,.324,.699,.637,1.02,.93,.363-.307,.699-.592,1.029-.871,.288,.288,.52,.519,.751,.75,.14,.058,.28,.165,.42,.165,2.947,.01,5.893,.012,8.84,0,.304-.001,.607-.107,.935-.17,.408-.434,.827-.882,1.239-1.32-.518-.525-.977-.99-1.432-1.452h-.969c-.367-.34-.72-.669-1.09-1.012h-2.846c-.418-.362-.777-.674-1.166-1.012h-4.801c-.293-.293-.524-.524-.764-.764-1.101-.317-2.239-.085-3.36-.159-1.284-.085-2.584,.188-3.807-.132-.279-.278-.51-.51-.751-.751-2.058-.326-4.173,.174-6.152-.258-.311-.31-.542-.542-.798-.798h-5.847c-.367-.342-.72-.672-1.083-1.011h-7.813l-1.096-1.012h-7.793q-1.023-.955-1.622-.951c-1.473,.007-2.946,.003-4.42,.002-1.62,0-3.241,.004-4.736-.003-.354-.354-.586-.586-.824-.824-.939-.296-1.912-.115-2.873-.149-.817-.029-1.638,.02-2.455-.013-.957-.039-1.932,.169-2.861-.169-.24-.24-.472-.472-.807-.807h-3.292c-1.146,0-2.294,.037-3.437-.01-1.114-.046-2.254,.247-3.315-.21-.254-.254-.485-.485-.739-.739h-11.739c-.368-.343-.721-.673-1.091-1.017-2.599,0-5.216,.005-7.834-.015-.117,0-.286-.198-.335-.337-.085-.24,.099-.594,.449-.597,3.264-.036,6.529-.021,9.711-.021,.546,.486,.883,1.01,1.668,1.002,3.764-.043,7.53-.019,11.295-.019,2.455,0,4.911-.002,7.366,.005,.146,0,.292,.08,.438,.122,.231,.232,.463,.463,.702,.702,1.104,.306,2.24,.115,3.364,.145,1.145,.031,2.292,.007,3.438,.007,1.31,0,2.62-.028,3.928,.008,1.12,.031,2.257-.188,3.35,.166,.243,.243,.474,.474,.706,.706,.15,.034,.299,.098,.449,.098,5.238,.005,10.477,.004,15.715,.004,.164,0,.336-.032,.489,.009,.142,.038,.263,.153,.393,.234,.232,.231,.463,.463,.717,.717h9.774c.368,.343,.721,.673,1.084,1.011h12.723c.373,.343,.728,.67,1.099,1.012h8.696c.463,.362,.837,.655,1.211,.947,2.274-.043,4.548-.081,6.822-.144,.119-.003,.232-.217,.355-.34v-1.954c-.293-.45-.768-.43-1.232-.546ZM80.717,9.201c.074-.134,.227-.319,.345-.32,2.284-.019,4.568-.014,6.83-.014,.354-.324,.696-.638,1.037-.95l.715,.715c.131,.079,.26,.223,.392,.225,1.291,.017,2.583,.01,3.701,.01,.481-.389,.808-.654,1.126-.91,.315,.315,.546,.546,.782,.782,1.11,.256,2.246,.039,3.364,.141,.782,.072,1.132-.481,1.68-.995h14.066c4.079,0,8.157-.009,12.235,.023,.222,.002,.652,.388,.623,.505-.084,.341-.422,.458-.755,.457-1.632-.005-3.265,.041-4.894-.021-.791-.03-1.105,.542-1.612,.972h-17.584c-.356,.316-.712,.633-1.112,.988h-1.932c-.313-.293-.665-.623-1.024-.959-5.86,0-11.733,.01-17.606-.025-.356-.002-.504-.396-.378-.624Zm85.656,7.516c-.147,.049-.324,.008-.488,.008H32.947c-.327,0-.678,.076-.975-.019-.383-.122-.504-.413-.364-.639,.081-.13,.232-.311,.351-.311,11.446-.014,22.892-.013,34.338-.013h7.835c.352-.322,.697-.638,1.041-.953,.249,.249,.462,.503,.715,.707,.524,.423,1.009,.355,1.67-.206,.124-.105,.232-.23,.357-.355,.928-.337,1.902-.146,2.858-.149,.256,0,.522,.302,.77,.483,.954,.696,1.12,.693,2.022-.091,.123-.107,.232-.23,.383-.381h49.086c.623,.214,.891,1.403,2.284,.663,.033-.031,.386-.36,.748-.699h3.891c.361,.337,.714,.667,1.086,1.014,8.493,0,16.992-.001,25.49,.014,.116,0,.3,.2,.332,.336,.059,.249-.142,.476-.493,.592Zm8.617-5.55c-.186,.252-.466,.434-.705,.647-19.921,0-39.842,.002-59.762-.022-.35,0-.522-.373-.423-.607,.059-.139,.208-.315,.338-.335,.319-.049,.65-.019,.976-.019,4.898,0,9.797,0,14.695,0,.354-.327,.708-.655,1.063-.982,14.532,0,29.065,.002,43.597-.012,.366,0,.713-.013,.848,.304,.244,.574-.389,.703-.628,1.026Zm65.846-.981c.072-.135,.225-.323,.342-.323,4.232-.017,8.463-.027,12.695,.011,.354,.003,.505,.392,.383,.62-.072,.135-.224,.322-.342,.323-2.116,.02-4.231,.014-6.347,.014s-4.232,.026-6.347-.025c-.357-.009-.505-.392-.383-.62Zm-36.358-1.952c.062-.139,.22-.335,.336-.336,5.213-.017,10.427-.014,15.669-.014,.336,.315,.687,.644,1.047,.982,5.197,0,10.41-.01,15.624,.023,.351,.002,.517,.377,.413,.61-.062,.139-.221,.335-.336,.336-5.539,.016-11.079,.014-16.649,.014-.335-.313-.686-.642-1.051-.982-4.866,0-9.753,.011-14.64-.023-.351-.002-.517-.377-.413-.61Zm67.974,7.492c-5.875,.023-11.75,.017-17.538,.017-.201-.201-.31-.325-.434-.431-.894-.767-1.126-.773-2.021-.061q-.522,.416-1.04-.057c-.12-.11-.232-.231-.391-.39h-18.572c-.373-.331-.73-.648-1.157-1.026-9.394,0-18.872,.005-28.349-.02-.349,0-.533-.359-.448-.598,.05-.139,.214-.329,.336-.336,.65-.037,1.304-.028,1.956-.028,9.484,0,18.968,0,28.452,0h5.904c.344,.321,.697,.65,1.052,.982h17.639c.361,.338,.714,.667,1.098,1.026,4.555,0,9.128-.003,13.7,.015,.116,0,.309,.204,.33,.335,.041,.256-.176,.572-.517,.573Zm130.705,11.775c.366,.339,.72,.666,1.09,1.008h9.779c.358,.334,.711,.664,1.075,1.004h10.758c.249,.249,.48,.48,.711,.711,.129,.085,.251,.227,.387,.242,.323,.036,.653,.012,.98,.012h7.728c.318,.318,.549,.549,.791,.791,.921,.369,1.896,.151,2.85,.182,1.144,.038,2.29,.009,3.434,.009h2.565c.67,.456,1.05,.933,1.445,.947,2.123,.075,4.251,.029,6.377,.041,.466,.003,.932,.069,1.304,.098,.32,.32,.551,.551,.831,.831h8.748c.379,.336,.736,.653,1.162,1.031,1.873,0,3.83-.027,5.785,.025,.359,.009,.514,.384,.399,.615-.068,.137-.224,.327-.342,.328-3.271,.018-6.542,.014-9.792,.014-.365-.34-.718-.669-1.081-1.007h-13.656c-.388-.331-.724-.618-1.055-.9q-.931,.894-1.914-.057c-2.964,0-6.056-.028-9.146,.019-.786,.012-1.119-.519-1.629-.967h-11.708c-.37-.337-.725-.661-1.104-1.007h-11.721c-.366-.337-.721-.665-1.087-1.003h-10.738c-.38-.347-.735-.67-1.106-1.007h-11.711c-.504-.452-.841-.976-1.626-.966-3.418,.044-6.836,.019-10.127,.019q-.982-.951-1.913-.057c-.331-.283-.667-.57-1.055-.9h-8.748c-.364-.34-.717-.669-1.078-1.007h-11.746c-.36-.336-.713-.666-1.075-1.004h-11.705c-.4-.355-.757-.672-1.134-1.007h-11.697c-.499-.482-.864-.965-1.64-.955-3.27,.045-6.542,.022-9.813,.015-.472-.001-.944-.052-1.349-.076-.295-.295-.526-.526-.789-.789-1.247-.263-2.545-.071-3.834-.104-1.471-.038-2.945,.03-4.415-.021-1.282-.045-2.58,.211-3.793-.129-.284-.284-.516-.515-.842-.842-4.144,0-8.384,.009-12.623-.016-.341-.002-.561-.313-.524-.571,.019-.13,.208-.325,.331-.334,.645-.048,1.295-.059,1.942-.059,5.561-.003,11.122-.002,16.683-.002h2.977c.336,.312,.689,.641,1.054,.981h17.639c.355,.331,.708,.661,1.071,.999h15.67c.247,.247,.478,.478,.709,.709,.128,.086,.249,.231,.385,.246,.323,.036,.653,.012,.98,.012h10.681c.312,.312,.543,.543,.774,.774,.135,.069,.265,.186,.405,.198,.324,.03,.653,.009,.98,.009,4.089,0,8.178-.001,12.267,.005,.146,0,.291,.081,.437,.123,.231,.231,.463,.463,.731,.731,1.238,.287,2.536,.076,3.822,.112,1.471,.042,2.945-.027,4.415,.021,1.284,.041,2.582-.195,3.806,.122,.277,.277,.508,.508,.85,.849,3.308,0,6.729,.025,10.148-.019,.789-.01,1.111,.536,1.617,.972h10.738ZM137.679,2.623c-.105-.231,.058-.606,.409-.61,3.25-.04,6.5-.027,9.75-.009,.116,0,.272,.196,.335,.334,.105,.231-.055,.599-.409,.609-1.786,.053-3.574,.024-5.362,.024-1.462,0-2.925,.008-4.387-.015-.117-.002-.272-.196-.336-.334Zm-15.709,.009c-.118-.226,.025-.594,.385-.617,1.129-.071,2.264-.026,3.397-.026,.809,0,1.619-.014,2.427,.015,.119,.004,.268,.19,.339,.325,.118,.226-.03,.607-.384,.617-1.941,.054-3.884,.031-5.826,.011-.117-.001-.268-.19-.338-.325Z"/>
</svg>
