<?xml version="1.0" encoding="UTF-8"?>
<svg preserveAspectRatio="none" id="a" data-name="AW" xmlns="http://www.w3.org/2000/svg" width="500" height="36.793" viewBox="0 0 500 36.793">
  <path id="b" data-name="15" d="M493.233,25.162c-.319,.005-.637,0-.956,0,0,.31,.005,.62-.001,.93-.011,.55-.312,1.003-.672,1.003-1.395,.003-2.79-.02-4.183,.016-.357,.009-.628-.013-.79-.347-.103-.211,.061-.401,.34-.665,.333-.315,.601-.698,.802-.937h1.604c0-.32,.003-.64,0-.96-.007-.577-.305-.949-.747-.977-1.256-.08-2.526,.174-3.355-.031-.805-.634-1.304-1.026-1.724-1.357,.182-1.225-.403-2.379,.421-3.363,.587,.397,1.171,.792,1.388,1.518-.123,.123-.238,.234-.349,.349-.416,.431-.347,.985,.102,.918,.963-.145,1.351,.651,1.891,.953h2.898c.505-.501,.959-.952,1.486-1.476-.548-.98,.509-1.291,.891-1.933,0-.476-.028-.958,.009-1.435,.028-.355-.043-.706-.392-.77-.191-.036-.505,.232-.66,.44-.35,.47-.827,.369-1.319,.388-.329-.306-.675-.627-1.021-.949-.104,.097-.293,.189-.316,.312-.086,.452-.133,.913-.165,1.373-.077,1.096-.19,1.192-1.479,1.172-.452-.452-.961-.863-1.343-1.368-.442-.585-1.093-.474-1.652-.672-.136-.048-.294-.204-.32-.334-.018-.089,.166-.312,.272-.321,1.164-.097,1.923-.771,2.51-1.705-.113-.113-.21-.295-.343-.325-.3-.068-.617-.061-.966-.088-.328,.299-.675,.616-1.036,.946-.132,.007-.296,.05-.443,.017-.367-.082-.768-.01-.811,.319-.154,1.173-.832,1.948-1.189,2.201-1.587,.827-1.848-.332-2.414-.528h-1.965c-.277,.277-.493,.514-.734,.724-.107,.093-.259,.144-.398,.19-.587,.195-1.127-.217-1.231-.948,.782,.097,.966-.728,1.564-.994,.69-.155,1.542,.351,2.191-.358,.177-1.897,.166-1.897-.427-2.444-.353,.306-.704,.61-1.055,.913-1.048,.396-2.266-.601-3.218,.423,.311,.337,.624,.674,.942,1.018v1.426c-.161,0-.376,.067-.473-.012-.368-.298-.697-.643-1.023-.954-1.371-.057-1.365-.073-1.405-1.324-.005-.161,.005-.322-.002-.482-.037-.862-.273-1.085-1.115-1.098-1.755-.027-3.511-.056-5.266-.109-.117-.004-.255-.196-.336-.33-.171-.285-.011-1.191,.245-1.293,.277-.11,.602-.226,.877-.176s.566,.256,.754,.476c.276,.322,.464,.44,.695,.262,.275-.211,.287-.493,.296-.85,.016-.601-.269-1.294,.381-1.765,.31-.028,.621-.056,.931-.083,.95,.613,1.624,1.407,1.752,2.585,.012,.108,.234,.289,.323,.27,.132-.029,.323-.199,.331-.32,.065-.947,.131-1.897,.103-2.844-.007-.224-.358-.618-.565-.628-1.274-.059-2.552-.029-3.672-.029-.498,.391-.833,.742-1.24,.951-.509,.261-1.193-.276-1.264-.924-.08-.729-.625-1.193-1.214-.982-.276,.099-.559,.289-.742,.516-.276,.343-.474,.45-.692,.203-.099-.112-.237-.247-.242-.377-.025-.63-.011-1.262-.011-1.8-.544-.545-.986-1.013-1.462-1.444-.088-.08-.311-.011-.472-.011v1.432c-.333,.357-.658,.704-.968,1.037,.051,1.242,.06,1.249,.848,1.395,.156,.029,.332-.033,.48,.011,.559,.163,.851,1.128,.492,1.555-.407,.483-.832,.951-1.235,1.409-.905-.688-.395-2.031-1.523-2.441v-2.928c.284-.298,.629-.628,.927-.996,.079-.097,.012-.312,.012-.473-.468,0-.937,0-1.406,0-.458,.528-1.175,.844-1.334,1.613,.123,.122,.219,.254,.346,.339,.346,.233,.447,.453,.256,.664-.099,.11-.228,.268-.349,.273-.623,.028-1.247,.013-1.864,.013-.556,.454-.63,1.001-.32,1.612,.166,.327,.445,.429,.802,.322h1.476c.406,.436,.836,.898,1.313,1.409,.03,.216,.031,.528,.122,.812,.153,.476,.465,.784,1.022,.679,.348-.066,.631,.045,.789,.379,.136,.287-.355,.593-.957,.59-.467-.002-.935,0-1.303,0-.411-.355-.738-.637-1.061-.915-1.226,1.19-1.241,1.178-2.345,.454,.315-.338,.63-.677,.944-1.015v-1.425c-.32,0-.639,.003-.959,0-.579-.008-.965-.296-.972-.746-.011-.639,.007-1.279-.005-1.918-.021-1.133-.068-1.167-1.431-1.221-.375-.329-.729-.639-1.083-.95-.894,.274-1.285-.603-1.93-.874-.585,.585-1.151,1.15-1.716,1.716-1.325,.195-1.393,.128-1.575-.929-.026-.151-.004-.322-.069-.45-.069-.136-.199-.271-.336-.328-.076-.032-.242,.072-.329,.155-.377,.358-.14,.888-.344,1.293-.068,.136-.203,.283-.338,.323-.081,.024-.242-.132-.33-.239-.425-.516,.147-1.736-1.157-1.634,0-.159-.068-.387,.012-.464,.336-.33,.716-.615,.96-.816-.033-1.611-.05-1.604-1.274-1.619-.635-.008-1.276-.048-1.903,.023-.234,.026-.438,.326-.64,.487,.289,.33,.578,.659,.83,.948-.322,.414-.828,.77-.84,1.142-.023,.724-.382,1.139-.831,1.585-.179,.178-.049,.537,.327,.625,.452,.106,.947,.025,1.423,.025v.967c.16,0,.382-.068,.47,.011,.473,.43,.913,.897,1.408,1.396-.278,.321-.566,.652-.856,.987,.233,.448,.645,.539,1.128,.516,.137-.007,.286,.077,.416,.144,.338,.174,.359,.454,.359,.82,0,.366-.019,.657-.369,.813-.21,.093-.416-.102-.685-.382-.396-.412-.762-.318-.899,.199-.04,.15-.01,.319-.005,.479,.008,.325-.119,.655-.453,.739-.113,.028-.395-.378-.5-.628-.115-.272-.09-.6-.176-.889-.041-.137-.198-.238-.294-.346-.372,.347-.718,.67-1.047,.976-.512,0-.994-.024-1.473,.008-.349,.023-.687-.058-.765-.406-.033-.145,.288-.455,.508-.549,.271-.116,.605-.085,.89-.115,.47-.46,.927-.908,1.375-1.347v-1.46c-.16,0-.374-.066-.47,.012-.365,.297-.692,.641-1.038,.972h-2.243c.037,.878-.152,1.802-1.085,2.371,0,.591,.049,1.226-.019,1.848-.038,.346-.334,.534-.574,.473-.133-.034-.321-.207-.327-.325-.032-.633-.015-1.268-.015-1.891-.344-.365-.666-.708-.991-1.053,.372-.799,1.553-.105,1.879-1.003-.452-.452-.903-.904-1.355-1.355-1.169-.047-1.154-.042-1.509,1.109-.085,.277-.304,.512-.461,.766-.343-.32-.686-.64-1.024-.956-.168,0-.332-.024-.486,.005-.356,.066-.637-.04-.795-.38-.037-.079,.031-.258,.107-.328,.459-.42,.803-.973,1.278-1.179,1.07-.059,2.013-.1,2.953-.178,.121-.01,.285-.197,.319-.33,.022-.084-.146-.301-.253-.32-.749-.133-1.514-.19-2.254-.357-.358-.08-.451-.436-.339-.802-.159,0-.379,.068-.466-.011-.471-.424-.98-.836-1.336-1.348-.238-.342-.227-.851-.363-1.273-.029-.091-.212-.132-.324-.195-.456,.395-.768,.976-1.538,.909-.776-.068-1.563-.015-2.259-.015-.648,.648-1.205,1.214-1.778,1.763-.059,.056-.217,.008-.319,.008-1.23-1.143-1.331-1.14-2.654,.078-.982-.238-.214-1.45-1.079-1.817-.403,.401-.887,.794-1.254,1.275-.35,.459,.005,1.256-.717,1.595h-2.354c0-.156-.066-.374,.012-.456,.318-.337,.68-.632,.955-.879,0-.757,.015-1.381-.014-2.003-.006-.119-.168-.304-.288-.333-.871-.211-1.762-.52-2.6,.273,0,1.2-.006,2.439,.008,3.679,.001,.131,.097,.275,.184,.386,.091,.117,.219,.278,.34,.287,.465,.034,.934,.014,1.402,.014,.364-.111,.706-.019,.801,.336,.197,.738,.301,1.486,1,1.987,.131,.094-.108,.496-.457,.561-.446,.083-.927-.053-1.272,.409-.155,.207-.432,.323-.635,.467-.466-.459-.931-.892-1.36-1.36-.079-.086-.011-.307-.011-.466-.161,0-.376-.067-.473,.012-.368,.298-.699,.644-1.027,.956-1.225-.049-1.348-.055-1.367-.848-.019-.783-.597-1.066-.987-1.569v-.943c.269-.436,.7-.495,1.192-.536,.264-.022,.532-.287,.75-.492,.322-.303,.602-.651,.848-.922-.278-.679-.823-.433-1.295-.502-.341,.318-.688,.643-1.045,.975h-1.898c-.357-.333-.705-.658-1.065-.995h-3.772c-.386-.327-.716-.606-.948-.803-.55,.466-1.033,.875-1.516,1.285,.173,.173,.281,.378,.402,.386,.949,.064,1.903,.058,2.849,.152,.204,.02,.377,.354,.565,.543-.115,.115-.234,.225-.342,.344-.442,.482-.49,.529-.042,1.009,.358,.383,.419,.783,.492,1.26,.075,.498,.461,.785,1.024,.688,.345-.059,.61,.078,.802,.398,.38,.634,1.073,.515,1.646,.694,.136,.042,.231,.217,.345,.331-.233,.17-.462,.481-.7,.488-1.448,.046-2.899,.047-4.346,0-.248-.008-.717-.376-.692-.49,.206-.927-.559-1.358-.937-1.971,.245-.245,.519-.443,.692-.707,.399-.611,.277-1.172-.263-1.637-.35,.327-.697,.651-1.026,.958-.495,.024-1.006-.109-1.343,.454,.278,.317,.571,.651,.894,1.019v1.073c-.264,.234-.633,.542-.98,.873-.421,.402-.839,.359-.924-.158-.075-.46,.031-.953-.444-1.271-.632-.423-.539-1.075-.547-1.708-.006-.495,.083-.91,.482-1.26,.217-.191,.383-.481,.482-.759,.225-.631-.306-1.223-1.039-1.166-.66,.052-.857,.218-.881,.85-.019,.482,.014,.967-.015,1.449-.008,.13-.145,.265-.247,.375-.219,.236-.38,.073-.694-.21-.85-.768-1.225-.741-1.976-.012-.462,.448-.912,.91-1.422,1.42-.904,0-1.866,.046-2.82-.023-.357-.026-.514-.368-.413-.599,.06-.137,.206-.31,.335-.329,.315-.048,.642-.015,.964-.016,.455-.456,.911-.911,1.369-1.369-.118-.896,.387-1.476,1.035-1.998v-1.106c-.382-.351-.823-.827-1.34-1.198-.22-.158-.627-.187-.897-.105-.252,.077-.6,.363-.621,.583-.075,.798-.037,1.608-.026,2.413,.005,.334-.118,.597-.477,.817h-1.867c-.357,.34-.687,.685-1.055,.983-.097,.079-.312,.012-.473,.012,0,.32,.003,.641,0,.961-.008,.585-.283,.954-.75,.97-.48,.017-.961,.016-1.441,0-.41-.014-.667-.321-.694-1.011-.023-.586-.299-.909-.82-.899-.539,.01-.884-.226-1.209-.582-.108-.118-.225-.227-.339-.34-.183,.201-.484,.381-.524,.607-.082,.466,.028,.965-.045,1.434-.043,.274-.287,.517-.44,.773-.344-.315-.688-.63-1.023-.937h-2.85c-.357,.321-.692,.622-1.002,.901-.362-.304-.689-.579-1.011-.849-.625,.625-1.191,1.191-1.815,1.815-.322-.271-.65-.547-1.011-.851-.311,.281-.646,.583-1.002,.904h-2.852c-.339-.315-.686-.638-1.024-.953h-1.906c-.827,.369-.093,1.573-1.006,1.855-.362-.316-.713-.623-1.086-.949h-1.835c-.49-.486-.854-1.02-1.614-.923-.775,.099-1.574-.128-2.325,.137-.242,.242-.443,.505-.701,.686-.383,.267-.992,.221-1.296-.038-.631-.536-.963-1.12-1.363-2.318-.045-.136-.201-.28-.336-.324-.079-.025-.282,.117-.323,.225-.213,.55-.392,1.113-.595,1.709-.428-.402-.773-.725-1.105-1.037-.338,.016-.696-.06-.957,.066-.498,.241-.402,.774-.475,1.235-.033,.205-.356,.364-.547,.544l-1.36-1.36v-.948c.331-.352,.655-.696,.97-1.032-.036-.477,.132-.993-.398-1.306-.816,.447-1.332,1.241-2.035,1.824-.095,.079-.311,.011-.471,.011,0,.16,.068,.382-.011,.47-.43,.473-.897,.912-1.396,1.408-.32-.277-.651-.564-1-.866-.318,.292-.655,.6-.982,.901-.341-.318-.687-.639-.988-.919h-1.934c-.139,.139-.242,.266-.368,.363-.218,.168-.53,.501-.663,.443-.545-.237-.363-.795-.397-1.277-.31-.33-.635-.675-.964-1.025v-1.431h1.431c.346-.327,.69-.651,1.024-.966,1.351-.056,1.39-.092,1.413-1.28,.003-.159,.002-.319,0-.479-.01-.98-.245-1.149-1.509-1.084-.451,.451-.903,.903-1.373,1.373v.844c-.267,.63-1.123,.794-.989,1.592-.161,0-.392-.067-.466,.013-.202,.217-.459,.491-.472,.754-.026,.506-.116,.951-.597,1.15-.275,.114-.622,.054-.936,.073-.455,.456-.911,.911-1.322,1.322-.17,.477,.145,1.049-.389,1.345-.602,.333-1.166,.282-1.589-.333,.228-.228,.474-.44,.679-.686,.446-.534,.42-.714-.185-1.675-.342,.312-.679,.619-1.016,.926-.432-.296-.451-.751-.501-1.235-.023-.225-.382-.62-.505-.591-.34,.081-.391,.43-.448,.749-.204,1.141-.221,1.154-1.552,.975-.569-.569-1.139-1.139-1.763-1.763-.321,.283-.616,.616-.977,.844-.533,.338-1.496-.068-1.489-.623,.008-.625-.133-1.266,.13-1.869,.573-.573,1.142-1.142,1.713-1.713-.189-.188-.351-.481-.574-.539-.277-.072-.675-.048-.897,.109-.519,.368-.963,.84-1.364,1.203v2.061c-.471,.471-.926,.926-1.382,1.382-.179-.212-.499-.415-.514-.638-.106-1.587,.122-3.188-.177-4.768-.025-.13-.217-.319-.33-.318-.115,0-.263,.184-.336,.32-.384,.713,.123,1.569-.352,2.267-.071,.105-.251,.24-.329,.213-.137-.047-.327-.204-.333-.324-.055-.953-.033-1.912-.128-2.86-.022-.222-.372-.526-.62-.584-.46-.107-.948-.037-1.252,.432,.3,.338,.603,.679,.906,1.021-.342,.341-.647,.733-1.033,1.014-.695,.506-.862,1.231-1.033,1.998-.063,.284-.292,.405,.125,.726-.915-.601-.876-.779-.946-.856-.431-.477-.899-.921-1.387-1.409-1.137,.725-1.694,1.72-1.511,3.099,.017,.127-.106,.273-.176,.438-.438,.416-.896,.852-1.32,1.254-1.343-.098-1.352-.106-1.399-1.469-.593-.401-.907-1.213-1.7-1.437-.519,0-1.012-.058-1.48,.024-.231,.04-.616,.385-.586,.511,.081,.341,.421,.484,.752,.427,.362-.063,.654-.001,.855,.269,.067,.09,.142,.286,.101,.328-.429,.455-.801,.857-.889,1.584-.091,.751-.849,1.195-1.471,1.614-.344-.199-.391-.476-.429-.813-.112-1.003-.308-1.113-.949-.544-.833,.739-1.717,.546-2.62,.254-.12-.039-.28-.242-.269-.354,.098-1.012-.29-1.512-1.42-1.341-.3,.272-.649,.59-1.001,.909-.333-.303-.679-.618-1.044-.949h-.923c-.518-.664-1.114-1.136-2-1.038-.572-.572-1.141-1.141-1.78-1.781-.319,.263-.646,.533-1.046,.863h-2.73c-.285,.24-.526,.438-.761,.643-.734,.64-1.742,.493-1.773-.372-.042-1.151-.664-1.249-1.526-1.248-.114,0-.219-.224-.344-.323-.22-.176-.482-.5-.675-.467-.347,.06-.473,.422-.395,.767,.083,.365-.003,.645-.294,.847-.228,.158-.457,.06-.683-.297-.23-.364-.453-.451-.684-.271-.274,.212-.266,.502-.298,.851-.066,.73-.229,.853-.835,.875-.482,.017-.967-.015-1.449,.015-.13,.008-.264,.148-.372,.253-.225,.218-.135,.448,.236,.682,.351,.221,.472,.465,.323,.678-.087,.124-.231,.296-.351,.296-1.606,.009-3.212-.002-4.817-.034-.116-.002-.264-.196-.328-.333-.036-.078,.034-.262,.115-.328,.519-.427,.892-.908,.667-1.821-.698-.638-1.525-1.394-2.389-2.184-.395,.14-.539,.55-.433,1.013,.064,.279,.286,.524,.447,.778,.162,.256,.376,.488,.494,.762,.17,.397-.171,1.221-.518,1.161-.969-.166-1.388,.597-2.06,1.045h-4.654c-.407,.332-.732,.596-1.047,.853-.306-.306-.533-.533-.765-.765-.716,.122-1.022,1.216-2.097,.774-.35-.341-.814-.773-1.252-1.23-.263-.274-.26-.923,.017-1.299,.189-.256,.448-.461,.727-.74-.286-.322-.589-.636-.859-.977-.248-.312-.471-.476-.685-.373-.343,.164-.364,.452-.351,.823,.04,1.125,.021,2.253-.006,3.378-.003,.117-.193,.277-.331,.331-.233,.092-.494-.07-.602-.431-.087-.294-.055-.623-.076-.936-.456-.455-.911-.911-1.367-1.367-.168,.238-.438,.46-.482,.719-.079,.47-.004,.963-.028,1.445-.022,.45-.451,.729-1.012,.718-.634-.012-.892-.241-.914-.817-.018-.482-.004-.966-.004-1.449,.192-.243,.343-.539,.583-.717,.478-.353,.361-.836,.397-1.554-.355-.303-.815-.757-1.341-1.113-.229-.155-.614-.194-.891-.128-.234,.056-.415,.338-.62,.52,.229,.229,.472,.443,.681,.687,.346,.402,.267,.861,.094,1.301-.054,.137-.218,.231-.332,.345-.114,.114-.257,.211-.335,.346-.124,.213,.013,.452,.35,.679,.463,.311,.529,.8,.421,1.258-.058,.246-.348,.512-.598,.621-.42,.184-1.174-.086-1.25-.418-.07-.303-.044-.628-.068-1.079-.409-.349-.896-.763-1.476-1.257-1.039,.732-1.838,1.912-2.899,2.754h-.99c-.463-.721-1.157-.943-1.969-1.082-.401-.069-.732-.543-1.095-.833-2.234,.071-4.474-.16-6.7,.16-.131,.019-.238,.205-.339,.298v.995c-.8,.8-1.597,1.597-2.394,2.394-1.227,.035-1.251,.027-1.302-.301-.085-.541,.462-.681,.799-1.18,0-.796,.031-1.75-.026-2.698-.012-.192-.357-.364-.532-.53-.464,.449-.926,.896-1.376,1.332-.005,1.337-.017,1.34-.349,1.327-.51-.02-.687-.498-1.072-.791-.66,.616-1.328,1.239-1.995,1.862-.122-.121-.315-.223-.335-.351-.071-.463-.09-.935-.116-1.404-.038-.67-.294-1.136-.577-1.01-.342,.152-.456,.447-.392,.797,.104,.57-.208,.877-.701,1.026-.29,.088-.6,.107-.901,.158-.569,.57-1.139,1.139-1.708,1.708-.151,.025-.304,.041-.452,.076-.36,.084-.639-.007-.858-.267-.198-.235-.116-.449,.248-.689,.132-.087,.263-.206,.337-.341,.123-.227-.057-.653-.368-.601-.969,.16-1.383-.613-1.993-1.004-2.443,0-4.859-.001-7.274,.001-.533,0-.775,.209-.815,.897-.021,.355-.021,.643-.312,.844-.228,.157-.457,.058-.683-.299-.23-.365-.456-.455-.684-.268-.228,.228-.456,.455-.76,.76h-2.307c-.161,0-.337,.042-.48-.008-.35-.124-.536-.353-.463-.592,.041-.136,.197-.298,.332-.333,.435-.116,1.062,.191,1.278-.364,.193-.495-.414-.694-.68-1.007-.177-.209-.441-.345-.621-.479-.395,.294-.768,.806-1.141,.806-1.128-.001-1.335,.575-1.261,1.504,.008,.104-.195,.258-.331,.328-.08,.041-.247-.006-.329-.071-.116-.092-.245-.228-.27-.363-.058-.306,.032-.666-.095-.928-.25-.516-.788-.424-1.315-.426-.659,.626-1.348,1.282-2.036,1.937-1.004-.364-1.342,.653-1.915,.916h-1.951c-.958-.958-1.869-1.869-2.854-2.854-.399,0-.872-.002-1.344,0-.763,.003-.748,.008-1.084,1.139-.083,.279-.299,.519-.459,.786h-1.909c-.352,.323-.693,.636-1.008,.926-.376-.314-.696-.737-1.112-.883-.421-.148-.948,.007-1.267-.497,.303-.331,.848-.646,.888-1.022,.131-1.249,.047-1.264-1.221-1.417-.132,.07-.289,.114-.392,.214-.578,.561-1.143,1.134-1.712,1.704-.347-.317-.695-.633-1.02-.93h-.918c-.391,.348-.742,.662-1.117,.995h-1.841q-1.27,1.17-2.384,.411c0-.636,.017-1.279-.015-1.92-.006-.119-.193-.281-.33-.331-.235-.086-.498,.08-.602,.44-.383,1.321-.37,1.326-1.353,1.35-.322,.008-.644,.001-1.008,.001-.327,.299-.676,.618-1.027,.939-.673-.641-1.356-1.293-1.949-1.858h-2.915c-.966,.633-1.259,2.073-2.693,1.887-.837-.491-1.401-1.281-2.121-1.934h-.459c-.161,0-.324-.014-.483,.003-.452,.049-1.07-.232-1.287,.333-.189,.491,.452,.667,.674,1.021-.5,.662-.549,.657-1.001,.59-.319-.048-.528-.214-.793-.439-.926-.784-1.131-.758-1.979-.043-.123,.103-.229,.226-.345,.343-.877-.376-1.352-1.21-2.055-1.801h-1.924c-.341,.319-.688,.644-1.024,.959q-.855,.049-1.992,.868c-.932-1.117-.954-.851-2.056-.874-.301-.006-.601-.097-.902-.149-.569-.57-1.139-1.139-1.708-1.709-.151-.023-.303-.066-.454-.066-.607-.002-.985,.239-1.066,.663-.133,.697,.243,1.248,.948,1.248,.367,0,.657,.013,.826,.349,.108,.215-.048,.436-.363,.686-.342,.271-.656,.577-.951,.84-.518-.49-1.1-.865-1.385-1.365-.231-.404,.147-1.043-.406-1.321-.294-.148-.464,.08-.589,.937-.047,.326-.095,.675-.438,.755-.13,.03-.49-.348-.516-.567-.056-.478-.05-.943-.516-1.256h-1.899c-.357-.333-.704-.657-1.018-.951h-1.536c-1.321,.298-.372,1.634-1.436,1.807-.355-.224-.492-.756-1.032-.705-.229,.229-.457,.457-.747,.747h-1.821c-.384,.331-.738,.636-1.126,.971-.313-.281-.649-.583-1.006-.903h-1.895c-.345,.322-.693,.647-1.007,.94h-3.855c-.343-.216-.421-.491-.487-.803-.233-1.107-.252-1.104-1.096-1.109-.469-.003-1.071-.155-1.283,.026-1.029,.878-1.002,.91-1.834,.101-1.086-.178-2.17-.302-3.241,.085-.569,.57-1.139,1.139-1.715,1.715h-.937c-.353,.323-.693,.635-1.033,.946-.47-.47-.926-.926-1.402-1.402v-.951c.296-.325,.613-.673,.93-1.02-.928-.617-1.121-.632-1.65-.253-.98,.704-.976,.72-1.807,.762-.65,.735-1.392,1.573-2.42,2.734,.002-.004,.234,.518-.153,.888-.349,.334-.677,.69-1.033,1.016-.065,.06-.248,.066-.328,.017-.13-.078-.288-.208-.318-.342-.166-.747,.319-1.599-.339-2.263-.809-.243-1.612-.041-2.394-.135-.777-.094-1.104,.5-1.562,.908-.114-.068-.298-.113-.329-.209-.141-.427-.137-.938-.377-1.287-.346-.504-.857-.895-1.298-1.335-.5,.5-1.043,.897-1.39,1.424-.492,.747-1.566,.206-1.97,1.014q.905,.961,.464,1.427c-.574,0-1.209,.015-1.844-.013-.127-.005-.269-.153-.362-.269-.065-.082-.118-.271-.072-.327,.204-.247,.577-.431,.644-.699,.127-.507-.46-.672-.725-1.076,.273-.315,.563-.648,.999-1.15-.342-.265-.759-.511-1.072-.853-.291-.319-.476-.45-.694-.224-.104,.108-.25,.246-.253,.372-.02,1.127-.007,2.254-.013,3.382-.003,.65-.201,.771-1.39,.859-.332-.308-.68-.63-1.043-.966h-2.864c-.831-.392-.163-1.587-1.115-1.961h-1.789c-.38-.325-.712-.609-.995-.852l-1.43,1.322v1.95c.322,.362,.619,.697,.915,1.031-.148,.148-.245,.331-.378,.364-.882,.219-1.487,.04-1.471-.595,.03-1.195-.943-1.522-1.538-2.184-.459,.459-.914,.914-1.37,1.37-.012,.156-.024,.312-.035,.469-.052,.752-.613,1.198-1.201,1.024-.729-.215-1.058-1.228-2.016-.988-.106,.026-.286-.107-.384-.211-.882-.931-1.752-1.871-2.516-2.69l-1.152,.062c-.374,.329-.726,.639-.983,.865h-3.897c-.489-.494-.865-.945-1.623-.942-.853,.003-1.569,.123-2.094,.963-.35-.306-.66-.808-.999-.828-.871-.052-1.489-.406-1.969-1.075-.361,.336-.707,.659-1.042,.97-.486-.024-.969,.093-1.323-.385-.155-.209-.522-.502-.657-.443-.554,.241-.352,.805-.39,1.261,.316,.347,.631,.693,1.056,1.161-.878,.352-1.879,.393-2.472,1.224-.116,.162-.599,.061-.949,.084-.671-.639-1.359-1.295-2.035-1.938-.34,.019-.698-.053-.961,.074-.508,.245-.391,.786-.457,1.249-.05,.351-.498,.594-.549,.489-.555-1.143-2.161-.548-2.733-1.678-.078-.154-.58-.094-1.154-.167-.487,.624-1.076,1.379-1.653,2.118l-1.226-1.144h-1.857c-.537-.336-.421-.837-.499-1.296-.077-.452-.556-.667-1.107-.611-.561,.056-.718,.236-.81,.923-.124,.93-.862,1.326-1.612,.835-.264-.172-.461-.447-.691-.676-.859,.408-1.355,1.224-2.048,1.819-.322,0-.644,0-1.258,0-.462-.589-1.052-1.343-1.471-1.878h-2.164c-.284,.284-.482,.557-.745,.731-.753,.496-1.541,.099-1.599-.827-.022-.351-.038-.712-.392-.779-.192-.037-.456,.26-.674,.423-.128,.095-.23,.224-.373,.367h-2.909c-.3-.28-.648-.604-.998-.93-.543,.462-.706,1.061-.26,1.627,.495,.628,1.122,1.152,1.691,1.721-1.05,.811-1.066,.822-2.281-.347-.755-.088-1.516-.178-2.191-.257-.306-.306-.534-.534-.762-.761-.922,.309-.211,1.509-1.012,1.872-.351-.328-.699-.652-1-.933h-1.874c-.437,.352-.795,.876-1.17,.89-.731,.026-1.174,.361-1.602,.845-.211,.238-.435,.465-.667,.711v1.858c-.323,.368-.616,.702-.906,1.034,.153,.153,.255,.282,.383,.378,.317,.237,.482,.471,.387,.683-.157,.351-.444,.39-.82,.358-.64-.054-1.287-.015-1.931-.015,0-.651,0-1.038,0-1.422,.322-.34,.645-.68,.967-1.021,0-.158-.031-.323,.006-.472,.09-.365-.005-.643-.348-.801-.087-.04-.266-.021-.324,.043-.708,.777-1.613,1.378-2.127,2.303,.461,.474,.9,.925,1.819,1.869,.053,.154,.167,.27,.354,.309,.749,.154,1.518,.206,2.239,.296,.449,.487,.849,.92,1.213,1.316-.368,.452-.66,.811-.898,1.103v2.045c0,.161-.006,.322,.001,.483,.018,.411,.328,.67,1.014,.702,.351,.016,.649,.051,.803,.396,.132,.296-.347,.571-.981,.59-.793,.023-1.587,.045-2.378,.104-.122,.009-.229,.213-.363,.347,.309,.338,.619,.677,.935,1.024,.063,.435-.198,.971,.596,1.425h2.608c.957-.591,1.625-1.505,2.438-2.261,.254-.236,.244-.937-.024-1.302-.271-.369-.745-.579-.79-1.128-.029-.36,.019-.636,.247-.871,.24-.248,.433-.174,.693,.194,.29,.41,.71,.525,1.224,.556,.502,.03,.867,.367,.743,.962-.077,.368,.022,.791,.36,.793,1.296,.008,1.903,.905,2.545,1.79q-.183,1.24-1.5,1.267c-.413,.429-.87,.883-1.298,1.361-.088,.098-.07,.289-.104,.437-.081,.357,.009,.636,.244,.867,.239,.235,.435,.157,.692-.208,.292-.414,.71-.562,1.229-.536,.46,.023,1.007,.076,1.29-.106,.482-.312,.757-.75,1.122-1.065,.513-.445-.027-1.303,.724-1.666,.318,.288,.655,.593,1.008,.913h.927c.454,.307,.481,.757,.528,1.243,.022,.228,.38,.631,.501,.601,.339-.082,.451-.417,.443-.75-.013-.483-.021-.968,.002-1.45,.018-.374,.701-.73,1.119-.61,.144,.041,.318,.038,.432,.119,.378,.267,.698,.699,1.111,.812,.442,.121,.904,.089,1.17,.551q-.895,.952-.509,1.364c.314,.019,.667,.136,.935,.034,.485-.185,.621-.637,.58-1.149-.011-.137,.071-.29,.138-.422,.173-.344,.454-.367,.823-.366,.368,0,.641,.029,.825,.368,.268,.493-.077,1.258,.664,1.516,.357-.31,.71-.618,1.024-.892,.553,0,1.036-.011,1.519,.003,.696,.019,.882,.966,1.532,.94,.762-.031,1.138,.442,1.626,.938h3.143c.419-.536,1.009-1.291,1.467-1.876h1.236c.364,.337,.713,.659,1.006,.93h1.901c.414-.358,.768-.664,1.08-.934,.396,0,.718,0,1.04,0,.988-.002,.98-.013,1.286-1.423,.029-.134,.186-.27,.317-.344,.225-.126,.525,.003,.62,.377,.112,.439-.114,.971,.401,1.287,.627,.385,.555,1.056,.695,1.648,.032,.134,.216,.231,.373,.388,.434,0,.915-.038,1.387,.012,.37,.039,.648-.011,.844-.31,.147-.226,0-.412-.302-.693-.449-.419-.352-.975,.102-.907,.969,.145,1.345-.689,2.091-1.051,.882,.057,1.83,.106,2.776,.192,.123,.011,.303,.205,.319,.331,.013,.099-.17,.254-.298,.334-.483,.304-1.259-.05-1.547,.696,.448,.448,.904,.904,1.379,1.378h.953c.33-.304,.68-.626,1.019-.938h1.895c.364,.322,.699,.619,1.022,.904,.366-.216,.506-.483,.449-.825-.093-.56,.185-.936,.682-1.036,.464-.094,.972,.035,1.443-.041,.275-.044,.528-.282,.77-.46,.692-.512,.805-.451,.975,.556,.116,.689,.301,.891,.841,.891,2.095,.003,4.189,.001,6.338,.001,.317,.294,.647,.634,1.015,.928,.233,.186,1.22-.034,1.296-.272,.137-.429,.121-.957,.374-1.286,.385-.502,.698-.928,.835-1.61,.134-.671,.783-1.229,1.519-1.514,.447,.468,.873,.914,1.299,1.359-.151,.151-.28,.253-.375,.381-.162,.219-.457,.482-.42,.675,.068,.356,.42,.403,.782,.385,.804-.039,1.611-.012,2.417-.012,.173,.243,.45,.469,.496,.735,.082,.469-.034,.972,.046,1.442,.043,.252,.321,.463,.493,.692l1.387-1.387c-.306-.337-.614-.675-.921-1.013,.448-.448,.904-.904,1.398-1.398h1.958c.613,.58,1.295,1.225,1.976,1.869,.355-.355,.697-.697,1.038-1.039,.114-.114,.245-.216,.339-.344,.238-.325,.476-.483,.684-.362,.533,.312,.263,.858,.35,1.308,.451,.45,.906,.906,1.356,1.356,.78-.252,.432-1.016,.689-1.507l1.753-1.753c-.286-.33-.575-.663-.869-1.002,.399-.611,.967-.65,1.563-.326,.534,.29,.256,.857,.352,1.307,.57,.69,1.42,1.15,1.77,2.04-.118,.118-.217,.252-.348,.341-.351,.24-.464,.469-.282,.684,.098,.116,.236,.271,.361,.277,.636,.028,1.273,.013,1.876,.013q.708-1.125-.476-2.389c-.009-.157,.004-.32-.033-.47-.09-.369,0-.653,.319-.836,.22-.126,.432,.017,.688,.335,.295,.367,.636,.697,.932,1.015,0,.213-.023,.378,.004,.535,.132,.753,.193,.796,.886,.847,.558,.041,1.019-.26,1.039-.693,.022-.482-.013-.967,.01-1.45,.024-.499,.381-.764,.967-.762,.736,.002,.745,.006,.96,.772,.081,.29,.114,.596,.218,.877,.037,.101,.245,.233,.323,.205,.137-.049,.277-.19,.341-.327,.22-.475-.19-1.254,.731-1.418,1.226,1.244,2.466,2.503,3.71,3.766,.168-.275,.427-.518,.464-.791,.126-.931-.167-1.897,.226-2.82,.479-.337,.721-.971,1.315-1.101,.392,.316,.751,.605,1.039,.837,.602,0,1.095-.057,1.564,.023,.244,.042,.655,.38,.627,.493-.085,.337-.416,.46-.745,.452-.322-.008-.645-.011-.967,0-.664,.024-1.133,.298-1,.58,.161,.34,.447,.422,.803,.394,.481-.037,.966-.009,1.449-.009,.347,.317,.695,.633,1.043,.95,.156-.258,.343-.502,.457-.778s.104-.607,.239-.866c.155-.296,.482-.299,.844-.286,.966,.036,1.933,.016,2.9,.011,.575-.003,.772-.154,.84-.872,.033-.348,.015-.652,.3-.846,.09-.061,.252-.111,.332-.07,.136,.07,.31,.2,.336,.332,.287,1.423,.282,1.498,1.256,1.439,.874-.053,1.556,.167,2.092,.986h1.376c.161,0,.368,.064,.474-.013,.235-.17,.604-.418,.595-.62-.048-1.061,.416-1.458,1.45-1.284,.656,.614,1.332,1.245,2.267,2.12-.033-1.748,1.63-.693,2.108-1.641-.326-.35-.65-.697-.961-1.031,.02-.342-.005-.667,.069-.968,.077-.315,.851-.595,1.252-.412,.248,.113,.557,.392,.587,.629,.082,.634,.021,1.286,.029,1.93,.017,1.23,.034,1.268,1.408,1.291,.35-.322,.7-.645,1.065-.982h.897c.381-.344,.732-.66,1.066-.962,.783,.162,1.653-.338,2.333,.503,0,.411,.036,.89-.012,1.361-.037,.368,.012,.644,.298,.85,.229,.165,.428,.048,.691-.283,.295-.371,.647-.695,.83-.888,.173-.621,.293-1.053,.398-1.429,.281-.051,.431-.099,.581-.101,.644-.009,1.289-.005,1.934-.003,.624,.001,1.096,.293,.957,.599-.156,.347-.453,.371-.808,.386-.81,.034-1.134,.435-.982,1.195,.051,.252,.326,.46,.513,.708,.466-.719,1.144-.991,1.975-1.071,.341-.033,.378-.438,.41-.778,.07-.743,.302-1.036,.68-1.037,1.45-.003,2.9-.005,4.35,.005,.141,.001,.281,.093,.422,.143,.228,.228,.456,.456,.687,.687,.761,.159,1.524,.272,2.265-.07,.577-.577,1.147-1.147,1.717-1.716,.167,.241,.435,.466,.479,.728,.078,.47-.035,.973,.045,1.442,.042,.246,.325,.451,.5,.674,.228-.228,.449-.464,.686-.682,.297-.273,1.097-.348,1.305-.145,.576,.564,1.142,1.137,1.711,1.707,.114-.029,.253-.028,.336-.096,.114-.094,.238-.231,.264-.367,.059-.306-.025-.663,.102-.926,.252-.522,.794-.411,1.3-.419,.328-.303,.677-.624,1.049-.967,.933,0,1.898-.011,2.863,.015,.118,.003,.27,.186,.338,.32,.116,.228-.024,.5-.393,.617-.292,.092-.633,.015-.94,.077-.132,.026-.311,.203-.328,.329-.033,.256,.181,.542,.521,.559,.95,.049,1.904,.017,2.758,.017,.541-.544,.919-.997,1.674-1.012,.383-.008,.757-.486,1.377-.922,1.8,0,3.88,.037,5.957-.019,.777-.021,1.101,.516,1.598,.954h7.741c.295-.272,.643-.595,1.007-.931h.937c.446,.298,.426,.763,.522,1.23,.176,.857,1.036,.966,1.819,.31,.237-.199,.484-.385,.727-.577,.921,.057,1.972-.308,2.573,.792,.737,.201,1.543,.266,1.992,1.025,.627,.053,1.254,.105,1.905,.16,.363-.316,.716-.624,1.099-.957,.316,.288,.654,.595,.941,.856,.934-.266,.113-1.527,1.049-1.801,.354,.309,.707,.617,1.088,.95h1.828c1.262,1.213,1.316,1.239,2.377,.375,.412-.335,.805-.393,1.275-.459,.207-.029,.372-.354,.557-.544-.115-.115-.218-.245-.346-.34-.319-.237-.48-.471-.381-.684,.161-.346,.45-.368,.822-.354,1.126,.043,2.254,.015,3.376,.015,.233-.233,.455-.467,.691-.685,.097-.09,.225-.147,.339-.219,.114,.114,.259,.211,.333,.347,.069,.127,.057,.296,.088,.446,.266,1.282,.665,1.41,1.934,.602,0-.467,.041-.952-.013-1.427-.042-.374,.008-.656,.336-.832,.218-.117,.436,.032,.687,.35,.272,.345,.583,.659,.875,.984-.159,.159-.261,.289-.389,.384-.323,.238-.475,.47-.369,.684,.167,.339,.451,.389,.827,.346,.475-.055,.962-.013,1.434-.013q.424-.491-.414-1.38c.198-.185,.368-.458,.601-.532,.293-.093,.638-.028,.96-.021,1.203,.024,1.237,.063,1.269,1.426,.326,.35,.651,.698,.989,1.062v1.872c.216,.344,.48,.459,.806,.482,.54,.037,1.101-.271,1.104-.635,.008-.953,.003-1.906,.003-3.074,1.549,.03,.489-1.642,1.475-2.101,.483,0,.97,.037,1.449-.012,.368-.037,.717,.019,.787,.377,.038,.192-.247,.457-.406,.674-.094,.129-.224,.231-.355,.361,.328,.885,1.506,.213,1.884,1.06,0,.431,.042,.918-.013,1.393-.044,.376,.007,.659,.348,.827,.437,.216,.893,.26,1.302-.044,.256-.191,.461-.449,.735-.723h1.793c.296-.243,.58-.407,.767-.645,.231-.295,.481-.343,.819-.388,1.014-.135,1.062-.273,.512-.971-.672-.852-.655-1.141,.105-1.829,.456,.456,.912,.911,1.368,1.367,0,.322,0,.644,0,.976,.11,.108,.217,.307,.342,.319,.783,.076,1.574,.182,2.355,.137,.771-.044,1.12,.478,1.609,.941,.332-.291,.666-.584,1.002-.878,.33,.299,.676,.612,1.006,.91h3.857c.129-.129,.307-.225,.343-.36,.08-.295,.027-.637,.144-.909,.097-.225,.403-.559,.544-.527,.349,.079,.433,.418,.411,.768-.03,.482-.007,.966-.008,1.45,.23,.187,.436,.469,.696,.534,.273,.068,.684,.031,.884-.138,.614-.517,1.155-1.12,1.725-1.69,.15-.027,.3-.056,.45-.079,.948-.146,1.402-.871,.951-1.565-.172-.264-.512-.426-.661-.697-.327-.593-.291-1.161,.598-1.737-.165,1.796,1.597,.573,2.091,1.556-.301,.332-.608,.67-.904,.996l.897,.999c-.289,.372-.896,.601-.761,1.049,.174,.58,.815,.315,1.315,.375,.416,.436,.86,.901,1.358,1.422,.186,.409-.191,1.176,.654,1.365,.225-.225,.436-.473,.686-.674,.209-.168,.524-.057,.64,.328,.13,.429-.166,1.003,.385,1.285,.36,.185,.598-.359,.606-1.426,.005-.634,.03-1.27,.087-1.901,.011-.123,.213-.229,.355-.371,.335,.302,.672,.606,1.04,.938,.433-.447,.878-.907,1.324-1.368-.018-.849,.387-1.463,1.013-2.006,.298-.258,.468-.442,.725-.321,.417,.437,.854,.896,1.249,1.311,.091,1.351,.099,1.36,1.408,1.411,.326,.31,.656,.656,1.024,.954,.097,.079,.313,.012,.474,.012,0-.156-.054-.339,.009-.465,.394-.793,1.408-.295,1.95-.96,.466-.572,.906-1.269,1.716-1.471,.147-.037,.314-.022,.467-.002,.429,.055,.683,.423,.693,.993,.006,.313,.001,.625,.001,.938,.355-.106,.575,.043,.814,.307,.292,.322,.535,.806,1.12,.66-.107-.357-.017-.672,.324-.796,1.042-.381,2.111-.032,3.032-.2,.578,.578,1.02,1.02,1.465,1.465-.317,.332-.652,.65-.941,1.006-.077,.094-.012,.303-.012,.459h3.355c.342,.313,.684,.626,1.026,.939,.152-.256,.393-.499,.435-.773,.072-.468-.056-.971,.041-1.43,.103-.489,.481-.765,1.035-.671,.341,.058,.606-.078,.823-.447-.278-.318-.569-.649-.911-1.039,0-.561-.061-1.203,.023-1.826,.049-.361,.375-.506,.602-.4,.136,.064,.307,.205,.327,.333,.047,.312,.015,.637,.015,.945,.33,.35,.654,.694,.983,1.043v2.014c.402,.138,.821,.282,1.171,.402,.226-.128,.365-.188,.481-.279,.125-.097,.239-.214,.339-.337,.268-.329,.864-.562,.733-1.004-.17-.569-.821-.262-1.248-.388-.375-.11-.489-.41-.35-.629,.08-.128,.222-.299,.343-.305,.636-.03,1.274-.014,1.875-.014,.36,.327,.694,.63,1.009,.915,.379-.333,.729-.64,1.056-.926,.789,.159,1.653-.333,2.284,.469-.312,.331-.643,.65-.927,1.007-.078,.098-.012,.31-.012,.47,.473,0,.946,0,1.419,0,.338-.318,.675-.636,1.012-.954,.796,.384,.121,1.539,.97,1.878,.335-.299,.664-.593,.97-.866,.36,.306,.684,.582,.994,.845,.394-.285,.589-.888,1.055-.731,.571,.193,.276,.811,.362,1.247,.026,.13,.18,.257,.306,.339,.214,.139,.589,.025,.621-.334,.084-.938,.028-1.889,.028-3.05-.244-.203-.622-.487-.955-.816-.079-.078-.012-.303-.012-.46-.801,.139-.962-.731-1.564-.97-.274-.014-.599,.015-.899-.059-.322-.079-.595-.821-.419-1.243,.104-.251,.364-.523,.613-.604,.269-.087,.687-.07,.898,.089,.506,.384,.93,.878,1.372,1.313v1.474c.803-.001,1.606-.001,2.392-.001,.347-.319,.685-.629,1.017-.934,.333,.208,.447,.471,.466,.797,.034,.571-.17,.959-.634,1.097-.148,.044-.319,.012-.48,.006-.328-.012-.66,.113-.743,.449-.029,.115,.38,.466,.617,.498,.935,.124,1.903-.153,2.824,.175,.358,.128,.455,.446,.343,.814h-1.901c-.158,0-.378-.066-.463,.013-.212,.197-.446,.436-.519,.701-.14,.505,.116,1.126,.469,1.206,.301,.068,.63,.014,1.23,.014,.445,.568,1.014,1.294,1.582,2.02,.605-.605,1.053-1.053,1.515-1.515-.315-.332-.648-.65-.934-1.006-.077-.096-.012-.307-.012-.466h1.56c.18-.523,.267-1.154,.592-1.619,.329-.471,.73-.969,1.26-1.164,.662,.269,.388,.818,.469,1.301,.298,.319,.621,.664,.934,.998-.302,.331-.607,.667-.911,1,.647,.796,1.512,.298,2.322,.466,.304,.273,.653,.586,1.017,.913,.664-.63,1.342-1.275,2.027-1.925h2.831c.36-.221,.517-.485,.469-.816-.078-.542,.16-.927,.647-1.068,.273-.079,.806-.049,.881,.101,.564,1.138,2.162,.541,2.721,1.67,.066,.134,.481-.079,.573-.438,.078-.301,.008-.638,.018-.958,.01-.313,.006-.632,.071-.935,.028-.132,.196-.271,.333-.327,.077-.032,.232,.084,.331,.159,.362,.273,.559,.827,1.15,.703,.368-.077,.712-.018,.821,.316,.176,.543-.444,.665-.654,1.041,.148,.613,.753,.875,1.124,1.329,.06,.073,.247,.12,.326,.08,.136-.068,.3-.197,.334-.331,.11-.435-.195-1.057,.359-1.275,.497-.195,.663,.447,1.033,.671,.211-.149,.492-.264,.647-.473,.349-.473,.829-.37,1.322-.389,.331,.308,.677,.63,1.022,.952,.156-.239,.414-.47,.464-.74,.142-.761-.137-1.086-1.01-1.161-.342-.029-.618-.071-.821-.43,.248-.554,.727-.953,1.189-1.309,.567-.438,1.162-.28,1.628,.271v2.941c.433,.421,.886,.873,1.354,1.31,.22,.205,1.001,.133,1.299-.138,.237-.215,.456-.451,.707-.703h1.936c.304,.284,.65,.608,1.006,.942h.927c.346-.318,.683-.628,1.003-.922,.372,.33,.723,.641,.987,.876h1.95c.274-.274,.479-.53,.733-.721,.406-.306,.878-.284,1.291-.041,.268,.158,.431,.581,.695,.637,.497,.107,.672-.465,1.09-.751h3.793c.185,.148,.479,.302,.656,.543,.351,.479,.834,.356,1.321,.382,.33-.315,.659-.66,1.025-.957,.097-.079,.311-.012,.471-.012,0-.156,.066-.373-.012-.456-.317-.337-.678-.633-.956-.884,0-.75-.063-1.382,.024-1.992,.05-.348,.38-.487,.597-.386,.133,.062,.265,.194,.323,.326,.057,.131,.05,.31,.017,.456-.08,.356,.009,.62,.3,.814,.225,.15,.438,.059,.662-.284,.217-.333,.443-.447,.659-.329,.321,.174,.413,.442,.325,.802-.036,.147-.006,.31-.006,.593-.278,.251-.639,.547-.956,.884-.078,.083-.012,.3-.012,.456h-.967c0,.311-.005,.623,.001,.934,.012,.609,.191,1.023,.677,.958,.885-.119,1.187,.75,1.801,.879,.494-.475,.954-.894,1.378-1.347,.078-.083,.011-.301,.011-.457h1.74c.463-.59,1.053-1.343,1.56-1.989h5.889c.456-.275,.582-.825,1.131-.747,.913,.913,1.824,1.824,2.736,2.736,.553-.47,.672-1.032,.277-1.642-.171-.264-.52-.426-.652-.7-.127-.263-.16-.633-.081-.913,.059-.208,.361-.348,.509-.478,.492,.45,.965,.882,1.422,1.3-.405,1.015,.586,1.364,.86,2.031-.251,.342-.865,.548-.71,1.017,.194,.589,.828,.288,1.274,.355,.8-.8,1.596-1.597,2.393-2.394-.303-.341-.606-.683-.909-1.024,.455-.455,.911-.911,1.367-1.367,.179,.212,.494,.414,.512,.638,.063,.8-.015,1.611,.047,2.412,.02,.265,.301,.51,.455,.754,.346-.323,.694-.647,1.027-.958,.344,.021,.657,.041,.972,.06,.455,.455,.911,.911,1.392,1.392,0,.292-.056,.624,.014,.926,.089,.383,.675,.646,1.192,.507,.269-.072,.644-.296,.695-.516,.108-.458,.065-.961,.022-1.441-.032-.362,.049-.629,.483-.87h1.868c.524,.364,1.12,.798,1.393,1.529-1.105,1.193-1.121,1.315-.291,2.226,.399-1.102,1.745-.586,2.347-1.384v-.922c.336-.364,.659-.713,.979-1.06,.043-.459-.152-.982,.372-1.299,.342,.266,.683,.532,.999,.778,.96-.283,.223-1.497,1.092-1.859h.924c.797,.797,1.594,1.594,2.388,2.388-.268,.461-.702,.49-1.179,.539-.266,.027-.531,.289-.75,.495-.321,.303-.601,.651-.883,.963,.339,.567,.851,.428,1.339,.453,.334-.312,.682-.637,1.039-.97h.929c.359-.334,.706-.658,1.006-.937,.699,0,1.404-.167,1.92,.045,.574,.236,.829,1.006,1.608,.902,.536-.072,.753-.529,1.123-.799,.21-.153,.536-.024,.632,.355,.358,1.414,.335,1.419,1.307,1.405,.644-.009,1.288-.016,1.932,.003,.459,.014,.95-.139,1.356,.221,.407,.361,.164,.891,.349,1.305,.061,.137,.203,.279,.34,.327,.078,.027,.284-.107,.325-.211,.216-.553,.397-1.118,.579-1.646h1.063c.357-.333,.704-.658,1.047-.977,.965,.392,1.291-.653,1.984-.848l1.768,1.768h1.96c.25-.218,.603-.526,.958-.837,.737,.261,.354,1.054,.675,1.511,.366,.521,.81,.987,1.107,1.341,1.138-.101,1.141-.097,1.556-.424,.126-.099,.23-.225,.343-.339,.228-.228,.515-.278,.873-.236,.318,.038,.647-.125,.737-.458,.027-.101-.412-.453-.658-.476-.479-.044-1.144-.099-1.116-.533,.031-.475,.752-.359,1.186-.495,.416-.13,.742-.551,1.118-.853,.72,.256,.322,1.063,.662,1.502,.375,.484,.86,.882,1.293,1.313,.832-.676,.332-1.545,.51-2.402,.373-.383,.782-.876,1.27-1.27,.208-.168,.662-.277,.866-.164,.811,.448,1.662,.925,1.701,2.03,.012,.333,.12,.597,.469,.811,.67-.632,1.348-1.272,1.539-1.453,1.5-.959,1.741,.281,2.305,.383,.56-.47,1.044-.876,1.51-1.267-.352-.543-.834-.489-1.302-.557-.208-.03-.554-.395-.522-.536,.079-.348,.419-.419,.766-.412,1.127,.022,2.254,.008,3.414,.008,.327-.312,.657-.657,1.026-.955,.052-.042,.144-.045,.422-.11-.025-.084-.006-.206,.06-.377,.053-.136,.2-.251,.329-.337,.119-.079,.272-.144,.412-.149,.477-.018,.955-.007,.473,.477,1.792,.118,2.206,.556,2.62,.993l-1.398,1.398c-1.116,.018-1.101,.013-1.488-1.155-.056-.171-.176-.412-.289-.565-.656,.912-.667,1.569-.667,2.215,.304,.449,.778,.417,1.23,.534,.416,.108,.753,.52,1.183,.842,.284-.246,.616-.535,1.011-.878,1.525,0,3.128-.023,4.729,.031,.191,.006,.497,.42,.524,.67,.052,.484,.079,.932,.525,1.231h.955c.695-.596,1.19-1.411,1.987-1.788,.404,.288,.776,.77,1.158,.778,.75,.016,1.137,.452,1.627,.958,.329-.278,.658-.556,1.045-.883h2.861c.297,.275,.645,.597,1.012,.938,.613,0,1.255,.017,1.895-.015,.12-.006,.269-.185,.339-.318,.119-.226-.039-.613-.381-.6-.715,.026-1.216-.215-1.634-.755-.201-.259-.524-.214-.856-.269-.799-.131-.8-.182-.842-1.642,.225-.174,.646-.427,.969-.772,.288-.308,.464-.438,.696-.261,.274,.211,.357,.488,.281,.851-.071,.339,.077,.609,.445,.825,.321-.283,.655-.578,.991-.874,.441,.258,.471,.691,.52,1.168,.027,.265,.288,.53,.492,.749,.321,.344,.683,.648,1,.943,.523,.004,.981,.035,1.332-.414,.295-.377,.673-.689,1.032-1.049-.23-.221-.467-.437-.689-.666-.095-.098-.162-.225-.241-.338,1.08-.692,1.093-.711,2.367,.535,.599,0,1.246-.064,1.871,.024,.368,.052,.502,.387,.38,.612-.072,.133-.219,.31-.34,.316-.64,.031-1.282,.015-1.917,.015q-.692,1.081,.05,1.851c.33-.277,.658-.552,.978-.821,1.355,1.249,1.542,1.252,2.73,.045,.217-.221,.399-.476,.639-.765v-1.802c.497-.497,.951-.951,1.407-1.407h.959c.821-.371,.124-1.563,1.026-1.886,.227,.227,.448,.462,.683,.68,.398,.368,.886,.318,1.295,.115,.406-.201,.697-.694,1.109-.808,.444-.123,.913-.087,1.198-.538-.565-.565-1.138-1.129-1.696-1.707-.071-.074-.122-.248-.084-.331,.159-.346,.44-.411,.808-.374,.477,.049,.963,.012,1.202,.012,1.048,.299,.529,1.171,.939,1.621,.541,.593,1.13,1.143,1.663,1.676-.219,.849-1.023,.417-1.509,.711-.329,.199-.451,.459-.338,.827-.157,0-.381,.067-.459-.012-.324-.325-.604-.695-.876-1.02-.77,.519-.593,1.18-.594,1.777,0,1.132,.058,1.17,1.458,1.19,.211,.215,.427,.441,.65,.661,.109,.108,.228,.204,.343,.306h1.411v1.478c.431,.402,.89,.832,1.371,1.281,.669-.262,1.089-.863,1.59-1.514-.112-.368-.239-.788-.395-1.303-.436,.39-.765,.685-1.091,.977-.529-.227-.694-1.06-1.474-.921v-.965c.478,0,.956,0,1.434,0,.167-.246,.377-.475,.488-.744,.112-.272,.082-.604,.196-.875,.141-.332,.452-.343,.816-.338,.356,.006,.705,.031,.776,.385,.038,.19-.24,.452-.395,.667-.092,.128-.222,.228-.334,.341,.239,.993,1.473,.194,1.823,1.029-.305,.328-.617,.664-.936,1.008-.007,1.25,.006,1.259,.336,1.278,.522,.03,.677-.475,1.026-.724,.219,.159,.486,.284,.653,.491,.23,.285,.465,.382,.803,.4,.36,.019,.632-.021,.844-.291,.182-.232,.056-.403-.251-.689-.454-.422-.468-.5,.019-.988,.379-.379,.53-.799,.423-1.257-.188-.803-.922-.634-1.498-.722-.451-.451-.901-.901-1.352-1.352-.012-.154-.037-.309-.034-.463,.01-.598,.253-.949,.69-1.025,.727-.126,1.224,.219,1.223,.954,0,.364,.015,.644,.344,.82,.43,.229,.905,.283,1.286-.022,.468-.375,.862-.843,1.263-1.246-.338-.402-.611-.728-.835-.994,.326-.453,.676-.791,.843-1.204,.25-.618-.251-1.22-.959-1.21Zm-212.304,2.883c-.281,.096-.62,.019-1.012,.019-.266,.313-.568,.669-.817,.962h-1.032c-.44-.305-.516-.736-.492-1.218,.03-.601-.144-1.254,.542-1.707,.29,.342,.592,.698,.845,.996,.734,0,1.361-.016,1.986,.015,.117,.006,.254,.183,.33,.312,.128,.214,.014,.498-.35,.622Zm35.365-20.657c-.16,.4,.066,.943-.483,1.275-.312-.273-.641-.561-1.037-.908-.389,0-.858,0-1.328,0-.604-.002-1.001-.244-1.046-.658-.051-.472-.006-.93,.438-1.244,.128-.09,.218-.231,.34-.331,.347-.282,.548-.821,1.149-.669-.11,.363-.011,.659,.333,.809,.54,.236,.951,.229,1.225,.009,.954,1.02,.566,1.323,.408,1.717Zm-.303-1.815c.144-.17,.237-.417,.27-.747,.016-.156-.032-.331,.026-.465,.059-.135,.194-.277,.329-.331,.227-.091,.546,.067,.591,.419,.076,.587,.026,1.189-1.217,1.123Zm64.73,4.922c-.283,.089-.585,.137-.882,.156-.729,.046-.721,.06-2.029,.825-.406,.238-.861,.229-1.284-.033-.216-.134-.462-1.053-.268-1.276,.185-.213,.477-.428,.742-.456,.625-.066,1.261-.021,2.365-.021,.141,.015,.753,.066,1.357,.162,.126,.02,.225,.21,.337,.322-.112,.112-.205,.281-.339,.323Zm39.99-.351q-.938,.709-1.929,.034v-1.017c.303-.265,.655-.572,.999-.873-.357-.375-.671-.706-.98-1.03,.305-.458,.766-.553,1.222-.449,.256,.058,.643,.324,.658,.519,.069,.934,.031,1.877,.031,2.816Zm8.162-2.335c-.306,.203-.451,.458-.426,.792,.061,.815-.366,1.043-1.126,1.114-.723,.068-.723,.162-.806,.901-.106,.944-.89,1.335-1.621,.832-.126-.087-.296-.227-.302-.35-.03-.639-.014-1.28-.014-1.863,.358-.396,.674-.746,.967-1.07,0-.853,.008-1.659-.004-2.464-.005-.335,.099-.67,.439-.752,.123-.029,.482,.367,.505,.592,.049,.485,.07,.938,.519,1.247,.475,0,.963,.043,1.44-.014,.377-.045,.664,.006,.82,.357,.094,.212-.063,.46-.392,.678Zm22.768,3.067c-.064,.271-.295,.706-.468,.714-1.255,.061-2.514,.035-3.772,.032-.319,0-.631-.601-.581-1.119,.054-.562,.225-.753,.887-.812,.156-.014,.314-.002,.465-.002,.656,.328,.939,1.4,2.268,.707,.048-.045,.387-.364,.724-.681,.425,.27,.588,.694,.476,1.161Zm2.468,18.155c-.678,0-1.323,.017-1.965-.015-.12-.006-.259-.196-.331-.331-.043-.081-.015-.261,.051-.329,.558-.58,1.132-1.145,1.701-1.714-.313-.346-.626-.691-.941-1.039,.041-.454-.17-1.02,.387-1.262,.136-.059,.448,.265,.667,.43,.127,.096,.23,.224,.344,.338s.228,.228,.38,.38c.165,1.18,.444,2.404-.292,3.544Zm27.053-5.807h-1.902c-.333,.319-.672,.642-1.01,.965-.532-.798-.549-.798-.329-2.503,.139-.157,.24-.373,.348-.376,.947-.027,1.894-.015,2.841-.015q.695,.922,.053,1.929Zm-37.952,6.291c-.229,.241-.404,.461-.555,.672-.069-.093-.135-.154-.185-.148-.311,.037-.49,.008-.534-.138,.243-.057,.628-.16,1.274-.386Zm-149.191,1.451v1.427c.319,.349,.628,.686,.935,1.023-.477,.477-.932,.932-1.403,1.403h-.918c-.366,.339-.715,.661-1.056,.976h-4.823c-.16-.264-.405-.507-.447-.782-.043-.275,.071-.603,.2-.867,.134-.275,.984-.39,1.291-.204,.134,.081,.219,.239,.347,.332,.218,.158,.481,.442,.673,.405,.357-.07,.465-.423,.364-.783-.103-.367-.004-.654,.325-.828,.217-.115,.446,.024,.684,.352,.093,.129,.208,.255,.341,.339,.346,.216,1.024,.141,1.306-.121,.262-.244,.359-.975,.152-1.306-.083-.133-.211-.246-.338-.341-.318-.237-.479-.47-.381-.683,.16-.347,.445-.386,.82-.355,.639,.054,1.285,.015,1.929,.015ZM363.676,3.403c0-.114,.182-.281,.32-.333,1.149-.435,1.122-.442,1.66-1.652,.229-.516,.786-.437,1.309-.43,.322,.291,.672,.608,1.052,.951h.929c.335-.309,.684-.631,1.017-.939h1.915c.327,.211,.454,.473,.482,.793,.047,.533-.269,1.125-.612,1.126-1.6,.002-3.199,0-4.744,0-.802,1.281-1.918,1.025-3.009,.813-.131-.025-.319-.216-.319-.33Zm136.324,17.369c-.425,.449-.839,.887-1.237,1.307-.94,.335-1.888,.119-2.819,.183-.253-.158-.524-.293-.754-.479-.864-.698-1.103-.73-1.961,.038-.309,.277-.456,.426-.691,.224-.255-.219-.3-.49-.277-.848,.021-.334,.09-.736,.419-.76,.83-.062,1.49-.345,1.966-1.068,.354,.329,.689,.64,1.049,.974,.892-.273,1.388,.378,1.896,.965,1.023-1.215,1.228-1.216,2.408-.534ZM372.346,4.31c.427-.34,.927-.738,1.543-1.228,.708,.083,.266,.871,.466,1.342,.058,.137,.202,.272,.34,.329,.077,.032,.243-.076,.331-.16,.376-.361,.126-.899,.351-1.301,.076-.135,.208-.293,.341-.323,.087-.02,.278,.146,.328,.268,.373,.918,.11,1.883,.171,2.825,.027,.424-.42,.722-.999,.725-.161,0-.322,0-.483,0h-.928c-.483-.483-.938-.938-1.394-1.394-.019-.314-.038-.628-.066-1.085ZM176.998,30.459c.319,.347,.629,.684,.943,1.025-.517,.549-1.073,.644-1.663,.201-.254-.19-.458-.447-.685-.674-.314-.015-.629-.03-.97-.047-.33-.309-.675-.632-1.011-.948-.34,.318-.686,.641-1.018,.952-.487-.026-.997,.114-1.349-.475,.389-.416,.799-.854,1.195-1.277,.321-.065,.615-.168,.912-.177,.801-.024,1.603-.014,2.404-.007,1.227,.011,1.227,.014,1.242,1.426Zm95.759-.459c.317-.005,.635,0,.952,0v1.505c-.306,.264-.661,.57-.967,.834,0,.562-.002,1.034,0,1.506,.004,.753-.395,1.107-1.177,.973-.268-.046-.501-.299-.754-.459v-1.113c-.263-.227-.633-.517-.96-.851-.079-.08-.012-.303-.012-.46,.159,0,.317,0,.476,0q1.083-.007,1.458-1.205c.195-.623,.32-.718,.982-.728ZM325.93,3.698c.063-.129,.043-.319,.132-.411,.754-.776,1.524-1.537,2.298-2.311,.646,1.198,.634,2.792-.009,3.877-.626,0-1.253,.013-1.879-.005-.323-.01-.693-.842-.543-1.15Zm19.346,1.664v1.426h-1.418c-.441-.289-.448-.735-.552-1.193-.093-.41-.487-.752-.776-1.164,.239-.622,.781-1.051,1.387-1.42,.227,.227,.42,.506,.685,.659,.246,.142,.583,.116,.854,.226,.271,.11,.511,.297,.764,.45-.315,.339-.629,.677-.944,1.016Zm40.619-.002v1.428h-1.685c-.488-.599-1.087-1.335-1.557-1.911-.574-.049-.889-.046-1.187-.116-.132-.031-.274-.195-.324-.331-.028-.077,.096-.286,.193-.321,.774-.28,1.779-.354,2.248-.094,.397,.22,.692,.695,1.1,.802,.45,.119,.915,.099,1.211,.544Zm-106.382,27.54c-.28,.797-.554,1.158-1.301,1.77-.181,.148-.49,.009-.614-.347-.096-.275-.019-.61-.019-1.078-.59-.554-1.27-1.177-1.924-1.827-.077-.077-.01-.298-.01-.452,.476,0,.952,0,1.428,0q1.109,.002,1.473,1.19c.147,.481,.37,.854,.968,.744ZM3.354,22.23c-.947,.071-1.902,.032-2.846,.032-.436-.304-.585-.751-.471-1.223,.063-.263,.318-.665,.511-.679,.947-.071,1.902-.032,2.846-.032,.436,.304,.585,.751,.471,1.223-.063,.263-.318,.665-.511,.679Zm494.704,5.612c.061,.781,.028,1.571,.02,2.357-.006,.618-.749,1.033-1.392,.746-.234-.104-.485-.428-.516-.678-.075-.604-.024-1.223-.024-1.719,.561-.561,1.006-1.006,1.451-1.451,.161,.248,.441,.486,.461,.745ZM432.207,4.26c-1.135-1.161-1.115-1.174-.408-2.293,.448,.426,.888,.845,1.309,1.245,.318,.619,.153,1.256,.164,1.871,.008,.465-.383,.729-.967,.737-.319,.004-.637,0-.952,0-.196-.808,.781-.891,.855-1.561Zm14.626-.814c-.32-.334-.638-.667-.956-.999,.225-.162,.445-.443,.691-.469,.466-.048,.905-.065,1.201-.489,.223-.32,.45-.457,.655-.342,.13,.073,.299,.201,.318,.325,.046,.303,.015,.618,.015,1-.308,.275-.653,.583-.967,.863,0,.374,.072,.707-.018,.987-.113,.353-.391,.484-.605,.38-.132-.064-.299-.199-.318-.323-.046-.302-.015-.616-.015-.932Zm-52.222-1.982c.722-.896,1.658-.388,2.524-.36,.439,.439,.878,.878,1.316,1.317-.007,.531,.211,1.165-.555,1.379-.595-.595-1.144-1.144-1.702-1.701-.496-.272-1.23,.024-1.583-.633Zm-132.349,4.019c-.112-.219,.026-.575,.375-.603,.937-.076,1.885-.026,2.828-.026,.579,.431,.662,.99,.35,1.597-.283,.551-.832,.275-1.267,.34-.342-.326-.68-.648-1.018-.971-.315,0-.634,.031-.941-.015-.125-.019-.26-.189-.328-.322Zm-40.949,26.13c-.298,.536-.845,.237-1.335,.357-.297-.344-.603-.699-.881-1.021-.389,0-.706,.031-1.011-.015-.125-.019-.271-.188-.325-.323-.09-.224,.07-.564,.413-.589,.938-.069,1.885-.024,2.828-.024,.55,.452,.648,1.008,.311,1.614Z"/>
</svg>
