<?xml version="1.0" encoding="UTF-8"?>
<svg preserveAspectRatio="none" id="a" data-name="AW" xmlns="http://www.w3.org/2000/svg" width="500" height="31.515" viewBox="0 0 500 31.515">
  <path id="b" data-name="29" d="M187.638,14.892c-.087,1.668-.024,3.344-.024,4.89-1.057,1.037-1.057,1.045-1.014,2.797-.181,.263-.329,.558-.55,.783-1.303,1.325-2.622,2.633-3.936,3.947q-1.11,.154-2.099,1.084h-1.999c-.377,.348-.743,.686-1.089,1.006h-10.124c-.257-.257-.496-.496-.734-.734-.133-.087-.259-.235-.4-.25-.334-.037-.674-.012-1.012-.012h-15.076c-.564-.529-.926-1.113-1.736-1.028-.668,.07-1.35,.014-2.164,.014l-1.171,.925c-.662,.233-1.506-.005-2.323,.099-.807,.103-1.176-.485-1.692-.977h-1.944c-.39-.351-.758-.682-1.16-1.044h-1c-1.156-1.196-2.327-2.408-3.565-3.689-.052-.348,.238-.926-.348-1.241-.21-.113-.443,.098-.719,.403-.453,.501-.949,.962-1.427,1.44-.708,.708-1.415,1.415-2.061,2.061-.625-.012-1.105-.029-1.473,.437-.191,.242-.496,.524-.77,.547-.839,.071-1.687,.026-2.532,.026-1.689,0-3.378-.004-5.068,.006-.149,0-.297,.093-.445,.142-.239,.239-.478,.478-.717,.717-.148,.05-.297,.141-.445,.142-1.52,.011-3.041,.007-4.653,.007-.319,.27-.692,.585-1.147,.969h-1.798c-.791,.391-1.156,1.437-2.203,1.058-.368,.339-.734,.678-1.115,1.03h-2.973c-.397,.36-.765,.692-1.061,.961h-15.221c-.519-.475-.871-1.073-1.684-.989-.669,.07-1.35,.014-2.17,.014-.29-.227-.669-.524-1.191-.933-.313-.02-.801-.034-1.284-.088-.314-.035-.793-.024-.903-.209-.497-.837-1.457-.636-2.112-1.067-.276-.182-.484-.468-.733-.717-.358,.328-.716,.656-1.086,.994h-2.986c-.391,.357-.757,.692-1.143,1.044h-1.956c-.279,.278-.518,.517-.756,.756-3.96,.29-9.103,.318-15.446,.091-.479-.334-.856-.65-1.281-.872-.271-.141-.784-.038-.899-.224-.689-1.116-1.762-.746-2.728-.805-.717-.312-1.065-1.394-2.125-1.009-.362-.337-.726-.678-1.101-1.027h-.966c-.385-.355-.751-.691-1.134-1.044h-3.99c-.275-.275-.498-.532-.756-.748-.423-.355-.935-.329-1.362-.086-1.475,.838-1.464,.859-2.175,.87-.338,.005-.682,.042-1.012-.007-.8-.12-1.188,.457-1.701,.969h-2.949c-.395,.35-.764,.677-1.179,1.044h-10.057c-.376,.351-.74,.691-1.109,1.036h-6.047c-.378-.351-.743-.69-1.088-1.011-.524-.016-1.024,.078-1.393-.414-.187-.249-.5-.404-.756-.601-.507,0-1.014,0-1.523,0-.269-.16-.578-.28-.804-.49-.618-.574-1.216-1.173-1.794-1.788-.449-.478-.856-.995-1.281-1.494,.302-1.121-1.332-1.493-1.014-2.62-.299-.388-.597-.775-.974-1.264v-6.009c.27-.297,.604-.664,.962-1.058v-.952c.35-.379,.688-.746,1.044-1.132v-.935c.86-.872,1.69-1.714,2.514-2.548h1.05c.499-.699,1.146-1.154,2.065-1.079,.543-.702,1.204-.997,2.143-.971,2.684,.072,5.372,.025,7.775,.025,.641-.454,1.021-.944,1.436-.976,1.343-.103,2.702-.089,4.05-.019,.798,.041,1.195-.451,1.707-.976h2.945c.397-.348,.767-.673,1.191-1.044h1.935c.379-.354,.743-.694,1.117-1.043h11.117c.373,.349,.738,.689,1.117,1.043h1.935c.423,.371,.793,.695,1.191,1.044h2.944c.511,.524,.911,1.094,1.706,.958,.903-.155,1.532,.247,2.199,.851,.416,.377,1.291,.093,1.696,.754,.323,.528,.908,.282,1.331,.455,.435,.178,.757,.631,1.148,.979h6.034c.371-.347,.736-.687,1.114-1.04h1.937l1.187-1.044h2.818c.537-.388,.926-.912,1.325-.92,3.355-.066,6.712-.038,9.897-.038,.407,.407,.646,.646,.941,.941,.431,.022,.921,.05,1.411,.072,.169,.008,.386-.066,.498,.013,.399,.284,.728,.679,1.15,.91,.262,.144,.703-.033,.959,.115,.422,.244,.76,.635,1.158,.986h.954c.375,.35,.739,.691,1.066,.996h7.101c.621-.621,1.218-1.218,1.815-1.816,.312-.064,.625-.119,.934-.193,.151-.036,.328-.071,.432-.171,.609-.585,1.2-1.188,1.8-1.788,.967,.175,1.531-.44,2.089-1.077h17.229c.361,.335,.726,.674,1.11,1.03h2.932c.435,.362,.769,.807,1.206,.958,.443,.153,.926,.064,1.33,.483,1.508,1.566,3.064,3.087,4.601,4.624,1.36-1.359,2.674-2.673,3.987-3.988,.328-.024,.656-.047,1.026-.073,.341-.315,.707-.653,1.09-1.006h.967c.375-.35,.74-.691,1.068-.997h12.135c.411,.366,.78,.694,1.057,.941h2.05c.29-.29,.529-.529,.768-.768,.635-.29,3.607-.301,9.482-.036,.239,.239,.478,.478,.717,.717,.319,.046,.647,.166,.954,.125,.927-.124,1.62,.207,2.149,.988h8.078c.385,.35,.752,.684,1.145,1.042h.953c.379,.35,.746,.688,1.133,1.044h.931c.874,.862,1.716,1.691,2.551,2.513v1.051c.7,.499,1.152,1.147,1.079,2.066,.703,.543,1.019,1.202,.97,2.143Zm127.785-.161c-.35-.375-.691-.74-1.014-1.086-.021-.363-.04-.693-.059-1.023-1.195-1.195-2.437-2.347-3.566-3.602-.597-.664-1.308-.878-2.102-1.084-.282-.073-.485-.451-.788-.754-.421-.024-.909-.076-1.397-.077-3.549-.007-7.098-.006-10.646,.005-.14,0-.28,.132-.42,.202-.239,.239-.478,.478-.76,.76h-1.965c-.737,.699-1.461,1.386-2.202,2.089h-.966c-.615,.615-1.207,1.217-1.816,1.803-.07,.067-.232,.037-.612,.085-1.549-1.549-3.212-3.212-4.972-4.973-.718-.104-.752-.069-1.148-.447-.379-.362-.755-.584-1.303-.554-.483,.026-.971-.052-1.379-.078-.313-.313-.552-.552-.924-.924h-14.006c-.338,0-.728-.107-1.002,.025-.432,.208-.786,.576-1.268,.951h-6.943c-.385,.352-.751,.688-1.14,1.044h-16.192c-.358-.329-.725-.668-1.071-.987h-6.037c-.406,.364-.774,.693-1.167,1.045h-1.961c-.502,.838-1.285,1.027-2.113,1.121-.601,.601-1.198,1.198-1.796,1.796-.478,.478-1,.921-1.421,1.445-.374,.465,.039,1.315-.738,1.623-.47-.47-.948-.948-1.447-1.447v-.962c-.356-.383-.696-.748-1.045-1.123v-1.111c-.562-.195-1.235-.282-1.72-.631-.677-.486-1.215-1.167-1.817-1.769h-.99c-.375-.35-.74-.691-1.065-.995h-12.165c-.525,.434-.839,1.058-1.663,1.011-.839-.048-1.113,1.256-2.117,1.005-.124-.031-.33,.062-.427,.164-.8,.845-1.584,1.706-2.373,2.562,.316,1.127-1.319,1.499-1.014,2.622-.293,.39-.586,.78-.968,1.288v5.996c.291,.606,1.346,.967,.966,2.014,.34,.368,.678,.735,1.029,1.117v.778c1.267,1.335,2.425,2.555,3.566,3.757,1.107-.403,1.439,.713,2.33,1.052h2.774l.777,.778c.145,.059,.289,.168,.434,.169,2.197,.011,4.394,.011,6.591,0,.144,0,.288-.113,.432-.173,.239-.239,.478-.478,.776-.775h2.182c.53-.678,1.149-1.469,1.634-2.089h1.317c.48-.48,.958-.958,1.439-1.439-.216-1.218,.786-1.729,1.44-2.437,.052-.057,.23,.003,.35,.008,.119,.119,.239,.239,.358,.358,.239,.239,.485,.471,.714,.72,.106,.115,.223,.254,.252,.399,.064,.318,.076,.647,.109,.971,1.315,1.314,2.623,2.635,3.95,3.937,.222,.218,.525,.355,.791,.528,.983,.028,2.057-.212,2.72,1.014,.776,0,1.608-.037,2.437,.009,.98,.054,1.992-.234,2.918,.227l.757,.757h22.312c.33-.308,.695-.649,1.069-.998h8.068c.383-.353,.748-.691,1.13-1.043h13.135c.522-.77,1.229-1.108,2.169-1.105,1.271-1.294,2.569-2.615,3.867-3.936,.137,.137,.312,.235,.366,.38,.221,.585,.146,1.231,.709,1.747,1.369,1.255,2.647,2.609,3.981,3.944h1.97c.388,.358,.755,.696,1.113,1.025h12.161c.128-.128,.247-.249,.367-.367,.351-.345,.658-.733,1.258-.648,.592,.083,.782-.552,1.2-.766,.411-.21,.905-.258,1.362-.378,.956-.956,1.885-1.941,2.877-2.858,.74-.685,.428-1.923,1.407-2.489,.17-.098,.107-.61,.141-.931,.05-.477,.09-.955,.124-1.312,.351-.351,.59-.59,.86-.86v-4.067c-.291-.313-.63-.678-.981-1.055v-.973Zm183.581-3.122v-3.005c-.678-.548-1.211-1.154-1.077-2.155-1.639-1.382-2.963-3.142-4.643-4.419q-1.823-.028-2.899-1.016c-2.049,0-4.23,.038-6.409-.02-.816-.022-1.149,.551-1.671,1.003h-17.171c-.378,.348-.744,.685-1.129,1.039h-18.2c-.373,.344-.74,.682-1.125,1.037h-6.003c-.402,.362-.769,.693-1.156,1.041h-11.092c-.51,.811-1.263,1.059-2.109,1.114-.601,.601-1.198,1.198-1.795,1.795-.325,.03-.651,.061-1.079,.1-.417,.406-1.042,.792-1.33,1.351-.358,.696-.327,1.586-1.104,2.082-.097,.062-.118,.292-.122,.445-.015,.506-.006,1.013-.006,1.591-.289,.33-.612,.701-.984,1.127v5.037c.292,.314,.632,.679,.983,1.056v.973c.35,.375,.69,.739,1.014,1.085,.02,.362,.039,.692,.042,.735,1.311,1.364,2.474,2.574,3.634,3.781,.328,.03,.71-.038,.966,.111,.413,.241,.743,.626,1.05,.898,1.093,.058,2.097-.122,3.079,.152,.239,.239,.478,.478,.717,.717,.317,.05,.634,.143,.951,.144,4.054,.01,8.108,.009,12.161-.002,.142,0,.283-.125,.424-.191,.239-.239,.478-.478,.765-.766h4.98c.391-.349,.76-.678,1.169-1.043h18.175c.372-.348,.737-.688,1.108-1.035h18.214c.373-.349,.738-.689,1.116-1.042h1.942c.558-.429,.869-1.052,1.693-1.01,.831,.043,1.102-1.186,2.118-1.025,.494,.079,.789-.528,1.143-.862,.369-.347,.679-.771,1.087-1.059,.633-.448,.489-1.158,.69-1.726,.614-.614,1.211-1.211,1.809-1.808,.357-1.452-.252-2.982,.27-4.328,.324-.324,.563-.563,.802-.802-.328-.362-.655-.725-.996-1.102Zm-91.307,2.056c-.822-.831-.896-1.038-1.104-2.119-.836-.836-1.728-1.625-2.491-2.524-.58-.684-1.293-.931-2.107-1.059-.532-.777-1.29-.999-2.177-.858-.807,.128-1.169-.493-1.687-.975h-1.949c-.388-.352-.755-.685-1.151-1.044h-11.114c-.352,.325-.719,.664-1.101,1.016h-6.013c-.398,.36-.765,.693-1.151,1.042h-12c-.492,.378-.841,.813-1.278,.94-.618,.179-1.318-.091-1.955,.173-1.795,1.795-3.587,3.587-5.409,5.409v1.974c-.354,.379-.695,.744-1.044,1.118v5.033c.349,.374,.689,.738,1.043,1.117v1.974c1.224,1.224,2.466,2.376,3.594,3.63,.597,.664,1.294,.929,2.108,1.058,.532,.777,1.29,.999,2.177,.859,.807-.128,1.169,.493,1.643,.933,10.711,.237,11.986,.222,15.567-.182,.239-.239,.478-.478,.733-.732h5.023c.384-.354,.751-.692,1.103-1.017h3.003c.396,.359,.763,.692,1.058,.959h8.036c.492-.377,.84-.813,1.278-.94,.618-.179,1.319,.091,1.956-.173,1.437-1.437,2.87-2.87,4.405-4.405-.243-.852,.328-1.439,1.003-1.997v-1.994c.354-.379,.695-.744,1.044-1.118v-3.005c-.349-.374-.69-.739-1.044-1.118v-1.974Zm-64.622-.715c-.42-.385-.133-.96-.37-1.366-.244-.417-.602-.767-.911-1.146,.186-1.274-1.003-1.597-1.603-2.323-.335-.02-.664-.041-.994-.061-.746-.652-1.297-1.523-2.225-1.968-.977-.038-2.061,.24-2.758-1.065-1.38,.254-2.865-.213-4.222,.187-.341,.341-.58,.58-.848,.848h-1.928c-.711,.449-1.114,1.415-2.144,1.047-.371,.346-.736,.687-1.08,1.009-.364,.022-.694,.042-.722,.044-1.373,1.319-2.583,2.48-3.794,3.643,.009,.495,.036,.984-.445,1.336-.421,.308-.525,.751-.609,1.274-.069,.432-.5,.806-.973,1.505,0,1.666,.052,3.676-.023,5.682-.035,.928,.228,1.612,.948,2.151-.02,.891,.352,1.58,1.089,2.07v1.012c.76,.597,1.126,1.76,2.383,1.572,.744,.665,1.488,1.329,2.272,2.029h1.935c.376,.35,.741,.69,1.055,.984h4.024l1.126-.985c1.3,.008,1.299-.007,2.765-.833,.135-.076,.305-.197,.429-.169,1.116,.256,1.487-1.367,2.623-1.026,.494-.438,1.007-.857,1.479-1.318,1.087-1.063,2.154-2.146,3.241-3.234v-.976c.351-.381,.689-.747,1.012-1.098V13.679c-.254-.254-.484-.502-.733-.73Z"/>
</svg>
