<?xml version="1.0" encoding="UTF-8"?>
<svg preserveAspectRatio="none" id="a" data-name="AW" xmlns="http://www.w3.org/2000/svg" width="500" height="24.934" viewBox="0 0 500 24.934">
  <path id="b" data-name="17" d="M500,15.159v6.313c-.423,.378-.914,.817-1.474,1.317-.271-.228-.61-.514-.98-.825-.323,.294-.67,.61-1.031,.938h-18.842c-.368,.343-.725,.677-1.096,1.023h-13.861c-1.424,1.319-1.522,1.323-2.781,.146-.141-.058-.283-.167-.425-.167-3.81-.009-7.619-.007-11.429-.007-.259-.175-.531-.334-.773-.53-.699-.57-1.157-.65-1.695-.224-.258,.204-.473,.463-.735,.726h-1.996c-.312-.291-.669-.625-1.037-.967h-7.911c-.37-.344-.727-.677-1.034-.962h-10.936c-.512,.444-.838,1.018-1.64,.982-1.472-.066-2.949-.019-4.3-.019-.355-.355-.589-.589-.833-.833-1.113-.325-2.263-.129-3.399-.148-.636-.011-1.301-.171-1.906,.16l-.765,.765h-11.953c-.263-.231-.625-.55-1.037-.912h-17.803c-.37-.346-.728-.679-1.095-1.022h-6.916c-.371-.345-.729-.677-1.103-1.024h-4.905c-.511-.448-.843-.996-1.641-.981-2.798,.05-5.599,.019-8.273,.019-.357,.357-.592,.592-.826,.826-.142,.056-.285,.16-.427,.161-2.153,.01-4.307,.011-6.46,0-.141,0-.281-.114-.421-.174-.234-.234-.469-.468-.757-.757h-11.96c-.576,.239-.911,1.312-1.983,.922-.325-.304-.683-.637-1.049-.98h-20.829c-.373-.345-.731-.677-1.106-1.024h-5.897c-.511-.45-.845-.999-1.643-.98-2.318,.055-4.637,.017-6.956,.025-.148,0-.297,.078-.445,.12-.234,.234-.469,.468-.703,.703-.143,.055-.285,.159-.428,.159-5.797,.008-11.595,.007-17.5,.007-.298,.26-.617,.648-1.027,.865-.415,.219-.923,.263-1.333-.116-.243-.225-.47-.467-.728-.725h-2.982c-.319,.297-.675,.627-1.019,.947-.359-.33-.718-.661-1.016-.936h-2c-.27,.27-.504,.504-.738,.738-.135,.073-.27,.21-.406,.211-5.614,.011-11.229,.009-16.712,.009-.364,.364-.598,.598-.897,.897-1.361,.263-2.836-.026-4.091,.114l-.926,.926h-3.883c-.386,.343-.748,.665-1.131,1.006-.124,.011-.289,.006-.443,.043-.377,.091-.667-.002-.866-.313-.148-.231-.038-.472,.325-.701,.38-.239,.461-.464,.258-.705-.226-.267-.512-.36-.883-.274-.153,.036-.31,.053-.465,.079-.586,.586-1.171,1.171-1.796,1.796-.776,.055-1.487,.312-2.026,1.002-.209,.268-1.019,.135-1.327-.152-.242-.226-.47-.467-.721-.718h-1.977c-.691,.655-1.4,1.328-2.076,1.969-.549,.006-1.02,.034-1.382-.427-.304-.388-.693-.71-1.039-1.055-.07-.469,.239-1.122-.367-1.32-.481-.157-.656,.613-1.111,.738-.552,.151-1.234,.036-1.98,.036-.287-.26-.647-.586-1.035-.939h-2.944c-.346,.319-.706,.65-1.084,.998h-2.932c-.134,.134-.266,.24-.366,.37-.445,.583-1.029,.802-1.693,.498-.553-.253-.324-.849-.429-1.305-.088-.38-.414-.551-.623-.409-.269,.183-.441,.522-.72,.675-.428,.235-.916,.271-1.333-.066-.256-.207-.473-.464-.707-.698-.117,.066-.252,.112-.348,.2-.244,.223-.472,.465-.723,.716-.808,0-1.634,0-2.46,0-1.612,0-1.672,.026-1.834-.341-.185-.419-.208-.907-.38-1.333-.136-.336-.475-.35-.853-.334-.358,.015-.685,.059-.815,.418-.106,.291-.013,.661-.139,.936-.118,.258-.423,.634-.618,.619-.76-.061-1.189,.363-1.669,.826-.332,.32-1.068,.293-1.33,.038-.594-.577-1.174-1.169-1.794-1.789h-6.906c-.719-.684-1.427-1.359-2.099-1.999h-15.903c-.258,.258-.493,.493-.727,.727-.132,.081-.263,.231-.396,.233-1.311,.018-2.622,.011-3.823,.011-.342,.342-.576,.576-.81,.811-.951,.345-1.937,.116-3.013,.191-.308-.25-.677-.55-1.234-1.002-3.912,0-8.037-.022-12.161,.019-.797,.008-1.131-.531-1.642-.98h-3.981c-.304,.281-.662,.613-1.034,.958h-10.891c-.367,.343-.725,.677-1.07,.999-.5-.024-.997,.094-1.36-.397-.182-.247-.488-.402-.666-.542h-2.951c-.29,.291-.525,.525-.793,.793-1.715,.447-3.536-.153-5.256,.286-.265,.265-.499,.499-.793,.793h-3.868c-.392,.342-.755,.659-1.143,.997-.283,.017-.606,.037-.959,.059-.343-.32-.7-.653-1.068-.996h-1.951c-.367,.343-.725,.676-1.097,1.024h-4.874c-.418,.365-.781,.682-1.105,.964-.567,0-1.064,.016-1.56-.004-.546-.022-.741-.264-.826-.952-.084-.688-.324-1.027-.75-1.03-.994-.006-1.988,.012-2.981-.01-.308-.007-.614-.11-.92-.17-.234-.235-.468-.469-.759-.759h-2.014l-1.037,.911h-2.894c-.371,.347-.729,.68-1.089,1.017h-.974c-.846-.374-.091-1.621-1.031-1.908-.352,.294-.69,.577-1.021,.854-.181-.181-.29-.307-.416-.414-.882-.743-1.057-.744-2.048,.02-.868,.67-1.16,.646-2.046-.142-.124-.11-.235-.233-.374-.373h-1.923c-.382-.348-.739-.674-1.097-1.001-.586,.586-1.171,1.171-1.77,1.77-.582,.393-1.252,.137-1.886,.194-.142,.013-.369-.036-.428-.134-.475-.784-1.338-.764-2.052-1.066-.283-.119-.477-.45-.759-.732h-4.883c-.384-.344-.745-.667-1.143-1.024h-10.847c-.38-.35-.739-.681-1.087-1.001h-1.953c-.386,.351-.745,.678-1.125,1.024h-4.896c-.275,.275-.509,.509-.869,.869-1.313,.138-2.755,.127-4.147-.003-.288-.288-.522-.522-.763-.763-.955-.276-1.94-.111-2.913-.138-.993-.027-1.993-.07-2.98,.013-.91,.076-1.555-.236-2.126-.91-.22-.259-1.025-.127-1.329,.159-.242,.226-.47,.467-.719,.717h-6.913c-.376,.347-.735,.678-1.11,1.023h-2.913c-.391,.353-.751,.679-1.133,1.024h-1.908c-.278,.278-.512,.512-.804,.804-1.222,.355-2.538,.053-3.834,.139-.478,.032-.792-.393-.787-.989,.007-.828,.002-1.656,.002-2.483-.47-.47-.938-.938-1.491-1.491-.567,0-1.218,.016-1.868-.006-.378-.013-.746-.74-.617-1.16,.045-.147,.034-.374,.129-.434,.768-.483,.71-1.377,1.087-2.037,.311-.546,.919-.918,.773-1.674,.549-.601,1.095-1.205,1.648-1.801,.225-.243,.467-.47,.704-.707,1.295-.298,2.613-.021,4.139-.198,.526-.148,.784-1.381,2.208-.641,.022,.02,.381,.349,.762,.698h4.921c.367,.342,.724,.675,1.077,1.004,.484-.032,.987,.112,1.35-.388,.181-.249,.485-.408,.797-.659h4.816c.503-.5,.88-1.045,1.667-.958,.467,.051,.95-.048,1.348-.074,.307-.308,.542-.542,.776-.776,.968-.239,1.952-.083,3.009-.132,.316-.273,.68-.587,1.107-.956h8.911c.301,.277,.659,.608,1.015,.937,.346-.321,.702-.651,1.049-.973,.492,.026,.991-.099,1.354,.394,.182,.247,.487,.404,.736,.602,.497,0,.994,.008,1.491-.005,.151-.004,.336-.025,.445-.113,.256-.207,.447-.502,.716-.685,.51-.348,1.301-.04,1.696-.709,.082-.138,.229-.237,.467-.476,2.677,0,5.477-.031,8.276,.019,.799,.014,1.128-.537,1.631-.975,.343,.311,.689,.626,1.051,.954h5.247c.472-.604,1.078-1.38,1.507-1.928h2.228c.644,.644,1.23,1.23,1.93,1.93,2.353,0,4.823-.034,7.292,.019,.802,.017,1.122-.55,1.625-.978,.344,.313,.691,.631,1.048,.956h7.909c.371-.344,.729-.677,1.034-.96h5.926c.401,.337,.739,.621,1.105,.928,.539-.862,1.275-.986,2.152-.989,.78-.003,1.167,.462,1.669,.97,.34-.291,.681-.582,1.071-.916h2.943c.32,.299,.678,.633,1.033,.964h3.941c.377-.347,.735-.677,1.034-.953h2c.27,.27,.504,.504,.74,.74,.299,.072,.599,.203,.901,.209,1.473,.029,2.948-.007,4.3,.022,.353,.353,.587,.587,.821,.821,.144,.054,.285,.143,.431,.153,.33,.023,.662,.007,.993,.007,2.485,0,4.969-.005,7.454,.004,.475,.002,1.129-.211,1.381,.204,.579,.954,1.872,.502,2.435,1.384,.087,.136,.23,.237,.368,.375h7.946c.329-.307,.687-.64,1.036-.965h.962c.382,.349,.741,.678,1.035,.947h1.999c.509-.465,.857-1.087,1.651-.965,.136,.021,.323-.044,.433-.135,.254-.211,.475-.461,.716-.702,1.12-.295,2.27-.079,3.407-.15,.967-.06,1.954,.175,2.891-.184,.244-.244,.478-.478,.76-.76h3.995c.278,.249,.639,.573,1.036,.929h6.912c.337-.306,.693-.629,1.034-.938l1.032,.91,.8-.8c1.219-.361,2.534-.088,3.831-.135,1.489-.055,2.982,.017,4.472-.021,1.305-.033,2.62,.157,3.882-.102,1.339-1.24,1.418-1.238,2.833,.066h2.002c.284-.256,.644-.582,1.006-.908,.337,.299,.689,.61,1.04,.922,.586-.586,1.171-1.171,1.757-1.757,.945-.376,1.933-.126,2.899-.2,.262,.167,.553,.303,.779,.51,.488,.447,.943,.93,1.452,1.439h3.99c.291-.266,.651-.593,1.035-.944h3.942c.349,.321,.708,.652,1.047,.964h3.961c.605-.605,1.191-1.19,1.781-1.781,.583-.145,.687,.468,1.145,.712,.703,.219,1.529,.005,2.333,.103,.798,.097,1.138-.508,1.648-.967h12.93c.297,.273,.656,.602,1.035,.95h3.943c.352-.328,.71-.661,1.036-.964h3.973c.14,.14,.253,.261,.374,.373,.878,.811,1.184,.837,2.043,.137,.955-.778,1.029-.757,2.05-.014,.132,.096,.236,.231,.353,.349,.148,.042,.295,.116,.445,.121,.496,.015,.994,.006,1.491,.006,2.982,0,5.964,.041,8.944-.025,.919-.02,1.569,.261,2.102,.951,.9-.071,1.536,.371,2.025,1.058h6.97l1.033-.965h2.945c.393,.335,.733,.625,1.069,.911,.639-.639,1.225-1.225,1.931-1.931,1.022,0,2.165-.005,3.308,.002q.601,.004,1.633-.966h4.912c.373-.347,.73-.68,1.099-1.024h1.951c.366,.342,.724,.675,1.034,.965h8.946c.512-.439,.835-1.012,1.637-.984,1.805,.061,3.613,.019,5.3,.019,.351-.351,.585-.585,.82-.82,.234-.114,.415,.061,.714,.342,.652,.615,1.144,.662,1.681,.235,.258-.205,.473-.463,.734-.725h3.983c.313,.291,.669,.623,1.016,.946,.352-.327,.71-.659,1.084-1.006h2.958c.518-.748,1.185-1.125,2.097-.964,.312,.055,.628,.085,.942,.127,.586,.586,1.171,1.172,1.81,1.81h5.987c.268-.237,.63-.557,1.037-.917h1.953l1.034,.964h4.93c.368-.329,.713-.639,1.056-.946,1.414,1.305,1.503,1.308,2.861,.045,.395-.026,.871-.079,1.348-.083,1.491-.012,2.985-.063,4.47,.035,.401,.026,.771,.529,1.186,.836,.637-.226,.986-1.268,1.972-.872,.356,.328,.716,.659,1.064,.98h.96c.384-.35,.744-.678,1.035-.944h3.963c.397,.235,.453,.52,.5,.859,.137,.992,.862,1.405,1.609,.939,.274-.171,.475-.458,.719-.702,1.284-.316,2.601-.025,3.942-.187l1.18,.993h6.818c.383,.344,.744,.669,1.156,1.04,1.918,0,3.902-.03,5.884,.027,.369,.011,.506,.408,.366,.638-.081,.132-.223,.292-.358,.315-.32,.053-.659,0-.978,.056-.134,.024-.303,.201-.34,.34-.067,.25,.131,.57,.488,.592,.979,.059,1.964,.02,2.851,.02,1.463-1.348,1.543-1.35,2.844-.145,.146,.048,.291,.138,.437,.139,2.485,.009,4.969,.006,7.454,.006,.746,.217,1.045,1.365,2.156,.963l1.048-.949h3.91c.374-.344,.733-.676,1.075-.99h7.938c.251,.251,.485,.485,.719,.719,3.496,.384,13.413,.451,25.201,.169,.459-.437,.819-1.001,1.612-.918,.655,.069,1.324,.014,1.986,.014,.936,.399,1.456,1.277,2.24,1.947h9.948c.29-.263,.649-.59,1.01-.918,.344,.312,.7,.636,1.076,.977h9.848l1.064,.924q.954-.91,1.803-.083c1.127,.178,2.277,.444,3.089-.859,.936,0,1.923-.042,2.902,.022,.361,.023,.545,.357,.463,.601-.047,.141-.222,.239-.354,.371-.645,0-1.306-.017-1.965,.015-.124,.006-.277,.188-.35,.325-.125,.233,.024,.615,.391,.628,1.648,.059,3.3,.026,4.869,.026l1.061-.942h2.015c.503,.501,.881,1.053,1.668,.954,.489-.062,.999,.039,1.488-.023,.777-.099,1.184,.407,1.738,1.002,1.528,.007,3.168,.001,4.885,.004,.32,.276,.684,.591,1.11,.959h2.874c.375,.347,.734,.678,1.108,1.024h1.942c.368,.343,.725,.677,1.097,1.024h3.904c1.039,.519-.238,2.341,1.472,2.172Z"/>
</svg>
