<?xml version="1.0" encoding="UTF-8"?>
<svg preserveAspectRatio="none" id="a" data-name="AW" xmlns="http://www.w3.org/2000/svg" width="500" height="41.16" viewBox="0 0 500 41.16">
  <path id="b" data-name="11" d="M498.452,28.084c-1.719,0-3.433,.004-5.147-.007-.133,0-.266-.103-.399-.158-.22-.22-.441-.441-.77-.77-2.212,0-4.535-.032-6.856,.018-.754,.016-1.057-.515-1.539-.927h-8.357c-.35-.326-.686-.64-1.031-.962h-13.988c-.346-.323-.682-.636-1.001-.933-1.205-.053-1.276-.058-1.33-.825-.037-.519-.189-1.002-.653-1.019-1.852-.067-3.709-.027-5.448-.027-.333-.333-.553-.554-.813-.813-1.173-.288-2.409-.066-3.633-.113-1.089-.041-2.182,.025-3.271-.018-1.223-.049-2.46,.182-3.627-.117-.263-.263-.483-.483-.704-.704-.141-.035-.282-.101-.423-.101-4.83-.005-9.66-.004-14.49-.004-.312,0-.625,.022-.934-.01-.131-.014-.251-.139-.376-.213l-.712-.712c-4.304,0-8.66,.011-13.015-.022-.337-.003-.494-.36-.392-.583,.061-.132,.212-.317,.323-.317,7.79-.015,15.58-.014,23.359-.014,.438-.299,.567-.747,.454-1.205-.061-.25-.336-.626-.529-.635-1.236-.058-2.476-.029-3.646-.029-.514,.446-.824,.96-1.575,.953-4.191-.037-8.383-.018-12.472-.018-.524-.548-.9-.96-1.63-.953-3.895,.038-7.79-.002-11.685,.036-.733,.007-1.101-.417-1.519-.845-.149-.037-.29-.104-.431-.104-4.83-.005-9.66-.005-14.489-.005-.312,0-.625,.022-.934-.01-.131-.013-.251-.138-.376-.212-.22-.22-.441-.441-.687-.687h-14.91c-.349-.326-.685-.64-1.031-.962h-8.377c-.347-.323-.684-.636-1.035-.962h-13.949c-.501-.408-.802-.939-1.556-.925-2.633,.049-5.267,.019-7.798,.019-.524-.549-.898-.985-1.631-.953-1.399,.062-2.804,.048-4.206,.007-.911-.027-1.845,.204-2.731-.166-.115-.048-.271-.235-.25-.317,.033-.13,.199-.321,.31-.322,6.217-.05,12.435-.085,18.652-.11,.125,0,.25,.139,.375,.214,.22,.22,.441,.441,.686,.686h11.226c.294-.275,.631-.589,.972-.907h.919c.681,.622,1.236,1.378,2.128,1.926h10.082c.279,.278,.499,.499,.719,.719,.134,.053,.268,.151,.402,.151,4.83,.008,9.66,.008,14.489,0,.132,0,.28-.086,.392-.17,.108-.082,.268-.238,.247-.319-.034-.13-.198-.32-.31-.322-2.634-.052-5.269-.091-7.903-.106-.342-.002-.623-.011-.841-.237-.22-.22-.441-.441-.685-.685h-6.499c-.349-.326-.685-.64-1.031-.963h-.892c-.353-.326-.69-.637-1.043-.963h-2.699l-.918-.767c-.547,.464-1.02,.865-1.433,1.215,0,.265-.021,.424,.004,.576,.056,.343-.047,.626-.378,.776-.559,.253-.968,.104-1.399-.463,.11-.11,.208-.237,.333-.327,.316-.23,.456-.453,.347-.662-.166-.322-.446-.33-.801-.329-6.697,.018-13.395,.013-20.055,.013-.365-.335-.703-.645-.981-.9h-2.817c-.256,.256-.46,.495-.7,.692-.392,.32-.859,.295-1.253,.066-.379-.22-.686-.563-.966-.801-1.02,.076-1.949-.153-2.839,.191-.11,.111-.213,.229-.332,.329-.615,.524-1.098,.586-1.591,.179-.239-.197-.444-.437-.681-.674h-11.167c-.357-.329-.695-.64-1.022-.942h-3.706c-.363,.33-.701,.638-.974,.886h-1.883c-.478-.443-.812-.917-1.555-.914-6.855,.03-13.71,.023-20.566,.011-.76-.001-1.534,.131-2.27-.111-.234-.234-.454-.454-.68-.68-.898-.263-1.824-.124-2.739-.13-3.116-.019-6.233-.039-9.348,.014-.85,.014-1.463-.221-2-.856-.208-.247-.961-.125-1.25,.144-.228,.212-.442,.439-.662,.659-.334-.301-.668-.602-.998-.9-.934-.373-1.273,.584-1.889,.839-.357-.302-.701-.593-.996-.843-1.486,0-2.888-.004-4.29,.006-.137,0-.274,.086-.41,.132-.22,.22-.441,.441-.664,.664-.585,.251-1.205,.1-1.81,.129-.466,.022-.936,.03-1.402-.002-.598-.042-1.226,.177-1.78-.177-.561-.561-1.112-1.112-1.675-1.675h-1.861c-.652,.623-1.318,1.258-1.9,1.814h-1.808c-.472-.352-.827-.841-1.193-.85-1.223-.03-2.461-.19-3.77,.099-.338,.88-1.134,.766-1.917,.814-.749,.046-1.074-.48-1.553-.917h-3.75l-.973,.89h-24.275c-.329-.303-.668-.615-1.025-.944h-30.769c-.374-.335-.713-.639-1.025-.918-27.316,0-54.581-.001-81.846,.003-1.391,0-2.782,.043-4.173,.091-.114,.004-.267,.19-.313,.323-.026,.076,.106,.241,.204,.32,.396,.32,.873,.181,1.318,.195,2.162,.071,4.33-.144,6.486,.151,.123,.017,.307,.207,.308,.319,.001,.109-.182,.294-.307,.317-.442,.08-.894,.144-1.343,.145-4.207,.01-8.413,.008-12.62-.002-.13,0-.259-.119-.388-.183-.22-.22-.441-.441-.744-.744-3.645,0-7.373-.002-11.101,.01-.122,0-.244,.154-.365,.236-.22,.22-.441,.441-.675,.675h-4.635c-.353,.325-.691,.637-1.043,.962h-14.891c-.368,.332-.707,.639-1.065,.962h-14.833c-.418,.353-.762,.644-1.057,.894-3.355,0-6.627-.005-9.899,.006-.449,.002-.911,.033-1.341,.147-.352,.094-.445,.424-.335,.782,4.512,0,9.024,0,13.536,0,.335-.314,.671-.628,1.012-.947h14.89c.365-.331,.703-.638,1.017-.923,.822,0,1.6-.003,2.378,0,4.815,.02,9.629,.038,14.444,.074,.111,0,.261,.19,.314,.323,.03,.074-.078,.277-.166,.312-.269,.104-.559,.216-.84,.216-4.81,.013-9.619,.009-14.328,.009-.32,.32-.54,.54-.841,.841-.36,.027-.803,.088-1.247,.09-2.645,.009-5.29-.008-7.935,.025-.243,.003-.481,.296-.708,.445l.872,.966c-.205,.339-.461,.444-.787,.443-2.956-.008-5.912-.017-8.868,.013-.328,.003-.522,.318-.465,.554,.031,.129,.201,.313,.317,.319,.617,.032,1.236,.015,1.822,.015,.37,.341,.707,.653,1.046,.966,6.844,0,13.69-.001,20.535,.014,.11,0,.264,.188,.32,.32,.096,.224-.067,.577-.402,.579-7.775,.027-15.55,.021-23.264,.021l-1.086-.977h-1.74c-.419-.354-.763-.644-1.057-.893-2.419,0-4.752-.002-7.086,.006-.138,0-.275,.082-.412,.126-.22,.22-.44,.44-.667,.667-1.052,.275-2.132,.104-3.202,.131-1.088,.028-2.179-.021-3.267,.014-1.065,.033-2.146-.178-3.184,.158-.23,.23-.45,.45-.769,.769h-2.661c-1.089,0-2.179-.032-3.267,.01-.904,.035-1.834-.206-2.694,.198-.235,.235-.455,.455-.727,.727-1.185,0-2.424-.035-3.659,.022-.341,.016-.498,.353-.402,.577,.057,.133,.21,.319,.32,.32,2.489,.018,4.978,.014,7.46,.014,.339-.317,.675-.631,1.016-.95h12.081c.372-.334,.711-.639,.929-.835,1.376,0,2.609-.008,3.842,.014,.112,.002,.267,.19,.312,.322,.026,.076-.109,.279-.208,.312-.412,.137-.851,.2-1.257,.35-.347,.128-.443,.431-.333,.788h2.319c.344-.321,.679-.635,.956-.894,3.489,0,6.906-.003,10.323,.014,.11,0,.294,.194,.314,.319,.04,.243-.166,.542-.492,.545-2.789,.028-5.577,.016-8.278,.016-.307,.307-.527,.527-.848,.848-1.252,.124-2.611,.194-3.962-.067-.35-.068-.442-.424-.333-.781h-2.319c-.345,.322-.68,.635-.999,.933-.335,.02-.639,.037-.906,.053-.363,.318-.704,.617-1.067,.935H8.713c-.271,.271-.491,.491-.747,.747-1.609,.425-3.32-.136-4.968,.275-.412,.436-.817,.864-1.221,1.291,.157,.157,.266,.361,.377,.363,1.547,.021,3.095,.014,4.751,.014,.246-.227,.584-.537,.939-.864h7.432c.344-.318,.682-.63,.999-.923h1.826c.376,.336,.715,.639,.976,.872h4.691c.264-.264,.485-.485,.705-.705,.13-.062,.26-.177,.39-.178,2.024-.011,4.047-.011,6.071-.002,.137,0,.288,.064,.405,.14,.127,.082,.309,.217,.306,.323-.003,.113-.18,.291-.309,.32-1.37,.314-2.764,.067-4.144,.152-.288,.018-.578,.098-.851,.197-.1,.036-.233,.236-.207,.312,.045,.132,.2,.32,.312,.322,2.167,.046,4.335,.073,6.503,.086,.122,0,.244-.151,.366-.232,.22-.22,.44-.44,.692-.692,2.455,0,4.941-.021,7.427,.024,.343,.006,.481,.378,.357,.595-.072,.127-.216,.3-.331,.302-1.243,.022-2.486,.014-3.586,.014-.64,.292-.658,.782-.57,1.225,.048,.241,.348,.61,.544,.617,1.546,.051,3.094,.028,4.565,.028,.517-.464,.835-.997,1.586-.952,1.086,.066,2.179,.041,3.268,.01,1.229-.035,2.465,.13,3.664-.088l1.722-1.722c.316,.271,.637,.545,1.004,.86h5.573c.298-.279,.634-.593,.977-.912h8.861c-.109-.354-.003-.624,.327-.791,.127-.064,.269-.137,.404-.138,1.702-.009,3.404-.012,5.106-.002,.445,.003,.889,.056,1.259,.08,.288,.288,.507,.507,.726,.726,.137,.041,.275,.118,.413,.119,1.857,.008,3.714-.002,5.57,.013,.286,.002,.58,.082,.853,.176,.112,.038,.269,.23,.248,.311-.033,.129-.193,.313-.309,.32-1.067,.059-2.138,.143-3.204,.101-.744-.029-1.064,.483-1.585,.955-3.309,0-6.703,.002-10.097-.009-.127,0-.254-.126-.381-.193l-.734-.734c-1.768,0-3.615-.004-5.461,.01-.124,0-.248,.139-.372,.213-.219,.219-.438,.438-.712,.712-.865,0-1.788-.039-2.705,.02-.336,.022-.509,.335-.435,.563,.042,.131,.202,.311,.317,.317,.615,.031,1.232,.015,1.826,.015,.136,.119,.301,.197,.354,.322,.408,.962,.101,1.565-.778,1.567-.928,.002-1.857,0-2.785,0,0,.156,.064,.362-.011,.458-.272,.346-.591,.654-.892,.976,.135,.135,.243,.339,.355,.341,1.235,.023,2.47,.014,3.662,.014,.403,.365,.741,.672,1.107,1.003h75.684c.325-.299,.663-.611,1.013-.934h15.835l1.059-.962h15.775c.413-.351,.756-.644,1.053-.897,19.867,0,39.653,0,59.44-.005,.138,0,.277-.079,.415-.121,.22-.22,.441-.441,.661-.661,.291-.049,.582-.141,.874-.141,11.997-.007,23.993,0,35.99-.023,.736-.001,1.092,.436,1.566,.904h16.852c.255-.227,.596-.529,.976-.867h3.705c.307,.287,.643,.6,.972,.907h1.835c.348-.31,.673-.6,.996-.887,.47,.434,.798,.926,1.543,.913,2.648-.047,5.297-.018,7.946-.018,2.337,0,4.674-.002,7.011,.005,.138,0,.277,.079,.415,.121,.22,.22,.441,.441,.727,.727,.379,.024,.827,.077,1.275,.078,3.428,.007,6.856,.027,10.283-.014,.738-.009,1.09,.443,1.564,.907h10.202c.362,.323,.702,.626,1.079,.963h8.329c.358,.33,.696,.642,1.044,.962h8.364c.36,.329,.698,.638,.974,.889h5.62c.478-.439,.808-.923,1.552-.916,4.206,.037,8.413,.018,12.62,.018,1.714,0,3.428-.003,5.141,.006,.138,0,.276,.08,.414,.123l.807,.807c1.233,0,2.618,.044,3.999-.018,.742-.033,1.088,.447,1.61,.953,1.455,0,3.002-.022,4.547,.018,.33,.009,.528,.31,.478,.55-.027,.128-.204,.318-.316,.32-2.488,.03-4.977,.015-7.464,.072-.345,.008-.479,.381-.351,.598,.074,.126,.219,.299,.333,.3,2.801,.017,5.603,.013,8.357,.013,.375-.341,.713-.648,.943-.858,1.363,0,2.599-.008,3.835,.014,.112,.002,.221,.206,.356,.342-.294,.325-.59,.651-.884,.975,.231,.148,.474,.44,.72,.442,3.739,.029,7.478,.041,11.217,.002,.741-.008,1.084,.456,1.56,.91h6.467c.36,.324,.699,.63,1.069,.963h9.278l1.043,.962h13.025c.366,.332,.705,.638,1.063,.963h4.551c.417,.353,.76,.644,1.056,.895,1.485,0,2.887-.004,4.289,.006,.137,0,.274,.085,.411,.131,.22,.22,.441,.441,.666,.666,.9,.252,1.827,.075,2.742,.133,1.064,.068,2.147-.188,3.179,.178,.233,.233,.454,.454,.755,.755h7.363c.312,0,.626-.024,.934,.011,.129,.015,.244,.154,.366,.237,.22,.22,.441,.441,.674,.674h6.534c.324-.299,.662-.611,1.015-.936h14.889c.369-.333,.708-.639,.983-.887,.698-.043,1.311-.065,1.918-.133,.121-.014,.27-.19,.314-.323,.026-.077-.109-.25-.212-.319-.557-.372-1.189-.146-1.788-.189-.465-.033-.934-.007-1.402-.007-.623,0-1.247-.019-1.869,.005-.605,.023-1.224-.127-1.808,.131-.224,.224-.444,.444-.724,.724-.389,.023-.838,.071-1.288,.071-7.946,.005-15.892,.004-23.838-.005-.129,0-.258-.121-.387-.186-.22-.22-.441-.441-.701-.701h-5.537c-.358-.325-.697-.632-1.062-.963h-4.613c-.351-.324-.69-.635-1.045-.963h-4.599c-.372-.334-.712-.639-1.072-.963h-6.465c-.264-.264-.484-.484-.878-.877-3.985-.061-8.152,.054-12.21-.056-.321-.321-.541-.541-.775-.775-.735-.242-1.508-.085-2.27-.112-.778-.027-1.565,.059-2.334-.03-.479-.055-.747-.458-.658-.999,.055-.331-.081-.589-.455-.81h-1.868c-.591,.559-1.25,1.183-1.894,1.792-.353-.315-.693-.618-1.056-.942h-1.781c-.951-.883-.954-.848-1.571-.899-.825-.068-1.523,.088-2.032,.912l-1.043-.868h-3.631c-.354-.326-.691-.636-1.052-.968-.9,0-1.834,.011-2.766-.014-.115-.003-.261-.18-.327-.309-.113-.22,.034-.581,.375-.588,2.174-.046,4.35-.023,6.443-.023,.409,.361,.749,.662,1.114,.985h4.588c.473,.475,.835,.915,1.569,.912,.825-.003,1.518-.118,1.967-.837,.171-.048,.31-.121,.45-.121,3.116-.006,6.232,.02,9.348-.023,.75-.01,1.064,.499,1.544,.922h3.678c.352,.326,.689,.638,1.039,.963h2.77c.34-.317,.676-.631,.973-.908h19.603c.387,.341,.728,.641,1.093,.962h15.799c.272,.272,.492,.492,.713,.713,.132,.057,.264,.163,.397,.164,6.388,.008,12.776,.012,19.163-.013,.231,0,.462-.304,.677-.456-.286-.323-.572-.647-.857-.969,.145-.145,.253-.349,.365-.351,2.173-.039,4.346-.05,6.518-.085,.12-.002,.255-.153,.352-.262,.188-.209,.089-.436-.262-.658-.347-.219-.44-.44-.282-.661,.197-.277,.467-.359,.821-.281,.332,.073,.594-.066,.778-.384-.402-.614-.858-1.174-1.548-1.483ZM304.159,10.343c.339,.002,.478,.379,.354,.596-.072,.127-.217,.302-.329,.303-3.26,.016-6.52,.013-9.78,.013s-6.52,.016-9.779-.024c-.34-.004-.478-.379-.355-.595,.072-.127,.217-.303,.329-.303,6.52-.015,13.039-.021,19.559,.011Zm-21.405-1.87c4.65-.035,9.301-.026,13.951-.011,.112,0,.256,.176,.329,.303,.123,.216-.013,.588-.353,.595-2.479,.046-4.96,.025-7.44,.025-2.17,0-4.34,.005-6.511-.013-.113-.001-.256-.176-.329-.303-.123-.216,.015-.593,.353-.595Zm-15.321-.634c.066-.129,.211-.31,.322-.311,2.159-.018,4.319-.037,6.478,.01,.336,.007,.48,.37,.37,.586-.066,.129-.21,.308-.322,.311-1.079,.023-2.159,.014-3.239,.014s-2.162,.042-3.238-.024c-.342-.021-.481-.369-.371-.586Zm-136.508-.929c.061-.131,.211-.316,.321-.317,5.585-.016,11.17-.022,16.755,.008,.335,.002,.49,.362,.387,.583-.061,.131-.211,.316-.321,.317-2.792,.017-5.585,.014-8.378,.014s-5.585,.017-8.377-.023c-.336-.005-.49-.361-.388-.582Zm1.232,12.772c.112,0,.258,.178,.328,.306,.119,.217-.023,.589-.362,.592-3.571,.038-7.142,.024-10.713,.024-3.26,0-6.521,.003-9.781-.013-.112,0-.258-.178-.328-.306-.119-.217,.024-.591,.362-.593,6.831-.031,13.663-.025,20.494-.01Zm-11.242-4.662c.339,.01,.472,.381,.348,.594-.073,.126-.213,.299-.326,.302-.924,.024-1.848,.014-2.772,.014s-1.853,.05-2.771-.026c-.347-.029-.473-.38-.35-.594,.073-.126,.214-.301,.326-.302,1.848-.019,3.698-.041,5.545,.012Zm-44.754-6.549c3.41-.035,6.821-.021,10.177-.021,.381-.345,.718-.651,1.026-.931,8.739,0,17.429-.001,26.119,.014,.11,0,.264,.187,.319,.32,.093,.223-.07,.576-.403,.577-7.449,.027-14.898,.021-22.338,.021-.339,.318-.674,.632-.993,.931-4.681,0-9.336,.002-13.991-.014-.11,0-.264-.187-.319-.32-.093-.223,.07-.573,.404-.576Zm-1.637,4.653h-3.119c-.329,.329-.549,.549-.845,.845-.366,.026-.812,.084-1.258,.086-2.025,.01-4.051,.007-6.076-.003-.133,0-.282-.081-.395-.163-.112-.082-.279-.235-.259-.32,.03-.129,.197-.318,.31-.322,2.01-.056,4.021-.126,6.03-.103,.752,.008,1.057-.516,1.539-.928h33.6c.349-.325,.685-.639,1.031-.962,3.41,0,6.838-.003,10.266,.014,.111,0,.263,.187,.321,.32,.098,.224-.062,.576-.399,.579-3.108,.037-6.217,.022-9.259,.022-.514,.441-.82,.954-1.571,.952-9.971-.026-19.943-.017-29.915-.017Zm34.747,7.947c-.109,.109-.209,.302-.329,.315-2.273,.25-4.549,.25-6.822,0-.12-.013-.22-.206-.329-.315,.109-.109,.201-.282,.33-.317,1.2-.33,2.429-.03,3.714-.203,.99,.061,2.05,.118,3.107,.207,.117,.01,.219,.205,.328,.314Zm-9.511-1.719c-.072,.126-.214,.302-.326,.303-1.85,.019-3.7,.013-5.549,.013l-1,.935c-2.158,0-4.317,.024-6.474-.025-.338-.008-.473-.379-.351-.593,.072-.127,.214-.302,.326-.304,1.85-.019,3.7-.013,5.549-.013,.333-.312,.667-.623,1-.935,2.158,0,4.317-.024,6.474,.025,.338,.008,.473,.379,.352,.593Zm49.971,6.84c-4.828,.028-9.655,.014-14.483,.03-.759,.002-1.533-.143-2.262,.119-.236,.236-.456,.456-.735,.734-.389,.022-.839,.071-1.289,.071-22.27,.004-44.54,.004-66.81,0-.447,0-.914,.102-1.332-.165-.297-.19-.33-.456-.318-.812,.012-.341,.053-.739,.383-.761,1.539-.102,3.083-.124,4.746-.178,.249-.219,.59-.518,.979-.859h5.523c.348-.325,.685-.639,1.029-.961h17.725c.343-.32,.679-.634,.977-.912h13.091c.243,.243,.463,.463,.683,.684,.124,.076,.248,.219,.373,.219,4.036,.012,8.072,.01,12.002,.01,1.379-1.27,1.447-1.271,2.691-.122,.139,.041,.278,.116,.417,.117,2.336,.007,4.672,.005,7.082,.005l1.012-.87c.259-.02,.56-.043,.897-.068,.32,.294,.657,.604,1.013,.931h8.369c.344,.32,.681,.633,1.033,.96h5.559c.648,.595,.65,.59,1.943,1.018,.132,.044,.223,.211,.333,.321-.211,.171-.422,.489-.634,.49Zm10.444-2.808c-1.387,.06-2.778,.025-4.168,.025-1.081,0-2.162,.009-3.242-.014-.113-.002-.256-.178-.325-.306-.118-.215,.022-.585,.359-.591,2.47-.045,4.941-.028,7.412-.011,.112,0,.255,.179,.325,.306,.118,.215-.018,.575-.36,.59Zm34.783-.127c-3.832,.246-7.664,.246-11.496,0-.116-.007-.305-.206-.305-.316,0-.109,.182-.295,.306-.317,1.984-.343,3.987-.011,5.738-.185,2.079,.123,3.926-.13,5.756,.185,.125,.022,.306,.207,.306,.317s-.189,.308-.305,.316Zm4.024-10.133h-22.829c-.337-.312-.674-.623-1.03-.953-1.842,0-3.703,.006-5.564-.014-.111-.001-.275-.188-.317-.319-.074-.229,.106-.563,.436-.565,5.746-.026,11.492-.019,17.238-.019h20.966c.337,.312,.674,.623,1.03,.953,2.152,0,4.324-.005,6.496,.014,.111,0,.275,.188,.317,.319,.074,.229-.106,.563-.436,.565-5.436,.027-10.871,.019-16.307,.019Zm20.457,8.093c-.069,.128-.209,.303-.323,.307-.768,.027-1.537,.014-2.306,.014s-1.543,.055-2.304-.025c-.347-.037-.477-.374-.362-.589,.069-.128,.211-.306,.322-.308,1.537-.02,3.076-.046,4.612,.011,.338,.013,.475,.374,.36,.589Zm1.506-6.247c-3.716,.038-7.432,.026-11.148,.01-.112,0-.257-.179-.326-.307-.117-.216,.022-.582,.362-.591,2.012-.049,4.025-.024,6.038-.024,1.703,0,3.406-.006,5.109,.013,.112,.001,.257,.178,.326,.306,.117,.216-.024,.588-.362,.591Zm3.179-5.92c-.058,.133-.211,.32-.321,.32-6.856,.015-13.711,.014-20.55,.014-.346-.322-.682-.636-.973-.907h-11.221c-.482,.414-.788,.933-1.54,.925-3.88-.039-7.76-.018-11.539-.018-.524-.546-.899-.956-1.629-.953-6.076,.031-12.153,.028-18.23,.007-.911-.003-1.845,.201-2.732-.164-.116-.048-.275-.234-.255-.317,.031-.129,.183-.288,.313-.323,.286-.077,.59-.116,.887-.116,16.983-.005,33.967,0,50.95-.021,.751-.001,1.058,.511,1.571,.952,4.912,0,9.891-.01,14.869,.021,.336,.002,.497,.356,.399,.58Zm2.485-.615c-.111,0-.264-.188-.321-.321-.097-.224,.065-.578,.401-.579,6.225-.029,12.449-.021,18.608-.021,.514,.441,.82,.957,1.572,.953,5.609-.032,11.218-.018,16.827-.018h2.192c.524,.543,.897,.96,1.628,.953,4.051-.038,8.102-.023,12.153-.011,.445,.001,.893,.084,1.331,.171,.109,.022,.276,.229,.256,.312-.031,.129-.182,.287-.313,.323-.285,.077-.59,.117-.886,.117-7.011,.006-14.023-.008-21.034,.023-.754,.003-1.051-.524-1.558-.926h-14.882c-.349-.326-.686-.64-1.031-.962-4.969,0-9.955,.002-14.941-.014Zm9.977,4.072c.07-.128,.215-.305,.326-.306,3.405-.016,6.809-.029,10.214,.011,.338,.004,.478,.376,.359,.592-.07,.128-.214,.304-.326,.305-1.702,.019-3.405,.013-5.107,.013s-3.406,.029-5.106-.025c-.341-.011-.478-.375-.359-.591Zm11.465,5.267c-1.544,.055-3.09,.024-4.636,.024-1.237,0-2.473,.008-3.709-.014-.112-.002-.258-.182-.322-.312-.108-.218,.04-.58,.375-.585,2.781-.041,5.564-.027,8.345-.01,.111,0,.257,.183,.322,.313,.108,.218-.037,.573-.376,.584Zm2.906-3.741c-.343-.006-.471-.387-.338-.601,.077-.124,.219-.296,.333-.296,5.273-.015,10.547-.023,15.82,.012,.341,.002,.471,.388,.337,.602-.077,.124-.219,.295-.333,.296-2.637,.017-5.273,.013-7.91,.013s-5.274,.021-7.91-.025Zm16.156,1.583c-.075,.125-.216,.298-.33,.299-1.546,.02-3.093,.013-4.64,.013s-3.094,.033-4.639-.026c-.344-.013-.473-.383-.344-.597,.075-.125,.217-.299,.329-.299,3.093-.016,6.187-.031,9.279,.012,.34,.005,.472,.384,.344,.598Zm26.928,.312c-2.76,.001-5.519,.002-8.279,0-.402,0-.614-.284-.719-.934-5.245,0-10.489,0-15.734,0-.597,0-1.157-.298-1.019-.534,.279-.48,.769-.4,1.218-.4,4.936-.001,9.872-.001,14.808,0,.412,0,.626,.282,.727,.934,3.066,0,6.133,0,9.199,0,.587,0,1.146,.301,1.009,.535-.278,.475-.763,.399-1.21,.399Zm12.343,2.49c-.072,.126-.216,.301-.328,.302-1.858,.019-3.716,.013-5.574,.013s-3.717,.028-5.573-.025c-.342-.01-.476-.379-.353-.594,.072-.126,.216-.302,.328-.303,3.716-.016,7.432-.027,11.148,.011,.339,.003,.476,.38,.352,.595Zm10.876-3.449c-3.404,.041-6.809,.028-10.214,.012-.113,0-.254-.173-.331-.297-.132-.213-.005-.589,.338-.599,1.856-.055,3.713-.026,5.57-.026,1.548,0,3.095-.006,4.643,.013,.114,.001,.255,.173,.331,.296,.132,.213,.002,.596-.338,.6Zm46.733,3.741c-2.479,.045-4.96,.024-7.44,.024-2.17,0-4.341,.005-6.511-.013-.112,0-.257-.178-.327-.306-.118-.217,.023-.59,.361-.592,4.65-.035,9.301-.026,13.951-.01,.112,0,.257,.178,.327,.306,.118,.217-.022,.585-.361,.592Zm31.891,1.918c3.093-.041,6.186-.028,9.279-.011,.112,0,.256,.177,.327,.304,.121,.215-.014,.582-.356,.593-1.7,.055-3.402,.025-5.103,.025-1.392,0-2.784,.007-4.176-.013-.113-.002-.256-.177-.327-.304-.121-.215,.017-.589,.355-.593Zm9.435,7.31c-.117,.076-.267,.139-.403,.139-2.014,.009-4.027,.006-6.4,.006-1.634-.117-3.638,.198-5.623-.15-.125-.022-.307-.208-.307-.317,0-.11,.188-.306,.306-.316,2.497-.205,9.933-.205,12.43,0,.118,.01,.22,.206,.33,.316-.11,.11-.205,.24-.333,.322Zm24.229-4.53c-.316-.292-.651-.602-1.011-.935-1.202,0-2.44,.04-3.673-.026-.346-.018-.475-.38-.349-.595,.073-.126,.216-.3,.329-.301,2.166-.018,4.333-.013,6.5-.013,.333,.314,.667,.627,.994,.935,4.654,0,9.297-.012,13.94,.024,.338,.003,.474,.382,.348,.597-.073,.126-.217,.301-.329,.301-5.571,.015-11.142,.013-16.748,.013Zm2.431,2.202c.06-.132,.209-.318,.319-.318,4.021-.016,8.042-.014,12.099-.014,.316,.292,.65,.601,1.012,.935,2.127,0,4.291-.022,6.453,.023,.335,.007,.489,.36,.389,.58-.06,.132-.209,.318-.319,.318-2.474,.018-4.949,.014-7.441,.014-.324-.305-.657-.619-.993-.935-3.706,0-7.418,.013-11.13-.022-.334-.003-.489-.361-.389-.581Zm35.071,6.043c-.113,.082-.262,.162-.395,.163-2.649,.009-5.297,.009-7.946,0-.133,0-.266-.104-.399-.159-.22-.22-.441-.441-.769-.769h-11.064c-2.337,0-4.675-.032-7.01,.018-.753,.016-1.057-.514-1.571-.953-1.796,0-3.659,.025-5.52-.022-.339-.008-.496-.356-.397-.58,.059-.132,.211-.319,.322-.319,5.297-.016,10.594-.014,15.874-.014,.345,.322,.682,.636,1.031,.962h13.038c.247,.248,.468,.468,.738,.738,1.274,.465,2.685-.079,4.018,.29,.131,.036,.283,.197,.312,.325,.019,.085-.148,.237-.261,.319Zm16.613,1.081c-2.776,.042-5.553,.024-8.329,.024-.334-.312-.667-.624-1-.935-1.543,0-3.086,.007-4.628-.013-.111-.001-.256-.182-.322-.311-.111-.216,.034-.581,.37-.587,2.467-.044,4.936-.024,7.404-.024,.332,.313,.665,.626,.992,.935,1.86,0,3.711-.005,5.562,.014,.111,.001,.256,.182,.322,.311,.111,.216-.034,.582-.37,.587Zm6.523-3.738c-3.108,.037-6.217,.022-9.259,.022-.513-.44-.819-.96-1.571-.953-4.05,.038-8.101,.018-12.152,.018h-2.193c-.523-.54-.892-.986-1.627-.958-.751,.028-1.536,.203-2.264-.149-.118-.057-.278-.234-.258-.318,.03-.129,.198-.32,.31-.322,3.412-.053,6.824-.087,10.237-.123,.354,.284,.707,.568,1.131,.908h9.232c.349,.326,.686,.64,1.031,.962,2.476,0,4.968-.004,7.461,.014,.111,0,.263,.187,.321,.32,.098,.224-.062,.575-.399,.579Zm-44.57-14.875c-.125-.216,.012-.596,.351-.597,8.999-.03,17.997-.024,27.022-.024,.321,.301,.655,.614,.963,.903,.916,.296,1.385-.369,1.89-.899,.158,.158,.264,.272,.378,.377,.818,.751,1.144,.781,1.908,.111,.284-.249,.449-.427,.669-.338,.219,.219,.439,.439,.658,.659,.293,.041,.586,.094,.88,.119,.554,.047,1.204-.195,1.517,.533-.3,.467-.775,.403-1.229,.405-.155,0-.31,0-.465,0-7.913,0-15.825,.002-23.738-.004-.443,0-.887-.062-1.245-.089-.299-.299-.518-.518-.79-.79h-4.689c-.241,.209-.582,.504-.947,.821l-.898,.065c-.319-.293-.655-.602-1.02-.938-.27,0-.582,.029-.884-.014-.125-.018-.259-.174-.332-.3ZM81.383,.651c-.118-.218,.025-.592,.364-.593,9.486-.028,18.971-.023,28.457-.023h7.928c.337,.315,.673,.628,1.043,.973,.589,0,1.206-.017,1.821,.015,.115,.006,.292,.192,.315,.318,.044,.241-.156,.535-.485,.547-1.231,.044-2.464,.017-3.608,.017-.307-.307-.527-.527-.747-.747-3.713-.242-12.927-.277-19.001-.073-.22,.22-.44,.44-.66,.66-.133,.054-.266,.153-.4,.154-1.71,.011-3.421,.007-5.238,.007-.282-.23-.628-.512-1.043-.85-.28,.236-.597,.503-.974,.82h-1.833c-.286-.265-.622-.576-.977-.905-1.526,0-3.08,.007-4.634-.014-.113-.001-.259-.178-.328-.306Zm-16.99,4.765c.057-.131,.074-.297,.166-.393,.423-.439,.866-.858,1.294-1.275h3.71c.246-.246,.465-.465,.684-.684,.124-.074,.247-.212,.372-.213,1.227-.016,2.454-.01,3.591-.01,.527,.527,.964,.965,1.402,1.402-.109,.109-.211,.303-.33,.315-.752,.073-1.512,.076-2.263,.162-.73,.083-1.098-.404-1.543-.907-.334,.285-.652,.558-1.051,.898-.982,0-2.06,.021-3.135-.012-.348-.011-.661-.009-.809,.28-.128,.251-.148,.556-.219,.837-.035,.14-.068,.281-.119,.415-.095,.245-.909,.469-1.247,.35-.342-.12-.649-.831-.504-1.165Zm340.489,5.218c.074-.126,.217-.3,.33-.301,2.481-.017,4.962-.013,7.443-.013s4.962-.021,7.442,.025c.342,.006,.475,.381,.349,.596-.074,.126-.217,.3-.33,.301-4.962,.015-9.924,.024-14.886-.011-.339-.002-.475-.382-.348-.597Zm19.628,.941c.069-.128,.214-.306,.326-.307,3.716-.016,7.432-.027,11.148,.01,.337,.003,.479,.375,.362,.591-.069,.128-.214,.305-.326,.307-1.858,.019-3.716,.013-5.574,.013s-3.717,.027-5.573-.025c-.34-.009-.48-.374-.362-.59ZM13.124,10.32c3.377,0,6.755,0,10.132,0,.107,.351,.013,.648-.325,.777-.266,.102-.569,.15-.856,.151-2.917,.01-5.833,.007-8.75,.006-.447,0-.933,.077-1.212-.399-.137-.234,.422-.535,1.011-.535Zm377.593,3.272c0-.109,.181-.293,.306-.317,1.672-.312,3.363-.065,5.057-.171,1.514,.105,3.051-.127,4.568,.171,.126,.025,.306,.208,.306,.317,0,.109-.188,.306-.305,.315-3.208,.244-6.418,.244-9.626,0-.117-.009-.305-.206-.305-.315ZM56.914,25.279c-2.908,0-5.817,.01-8.725-.023-.186-.002-.369-.336-.553-.516,.108-.108,.214-.308,.325-.311,2.879-.084,5.76-.243,8.632,.082,.334,.038,.427,.418,.321,.768ZM403.935,14.386c.064-.13,.211-.312,.322-.313,2.782-.017,5.564-.031,8.345,.01,.336,.005,.484,.367,.375,.585-.064,.13-.21,.311-.322,.313-1.391,.021-2.782,.014-4.173,.014s-2.783,.034-4.172-.024c-.34-.014-.484-.367-.376-.584ZM25.93,26.567c.072,.223-.102,.551-.427,.561-1.527,.047-3.057,.021-4.573,.021-.334-.319-.662-.632-1.007-.96-.296,0-.603,.031-.898-.015-.122-.019-.273-.184-.315-.313-.072-.223,.094-.521,.429-.561,.598-.072,1.21-.02,1.751-.02,.386,.352,.718,.654,1.055,.96,1.234,0,2.453-.008,3.672,.014,.11,.002,.271,.185,.312,.314Zm356.188,4.937c-.07,.128-.213,.304-.325,.306-1.235,.022-2.47,.014-3.706,.014s-2.473,.039-3.705-.025c-.343-.018-.478-.375-.36-.59,.07-.128,.214-.306,.325-.306,2.471-.017,4.942-.034,7.412,.011,.338,.006,.477,.376,.359,.591ZM150.409,.502c.109-.109,.209-.302,.328-.315,2.273-.25,4.549-.25,6.823,0,.12,.013,.219,.206,.329,.315-.109,.109-.201,.282-.33,.317-1.2,.33-2.429,.029-3.714,.203-.99-.062-2.05-.118-3.107-.207-.117-.01-.219-.205-.328-.314Zm221.423,29.769c.12,.214-.016,.585-.354,.592-2.158,.049-4.319,.03-6.478,.012-.112-.001-.254-.178-.326-.305-.12-.214,.012-.574,.355-.592,1.231-.065,2.467-.025,3.701-.025,.925,0,1.851-.011,2.776,.014,.114,.003,.255,.177,.326,.304ZM76.709,2.223c.071-.127,.214-.304,.326-.305,2.159-.018,4.32-.037,6.478,.011,.338,.008,.475,.378,.354,.592-.071,.127-.213,.302-.326,.304-1.079,.023-2.159,.014-3.239,.014s-2.162,.044-3.238-.025c-.345-.022-.476-.377-.355-.592Zm-7.641,18.381c1.976,0,3.953-.014,5.928,.023,.184,.004,.363,.337,.544,.516-.107,.107-.21,.303-.323,.309-1.946,.104-3.896,.219-5.832-.085-.334-.052-.422-.417-.317-.765ZM85.748,4.106c.102,.218-.048,.572-.383,.581-1.847,.049-3.696,.029-5.545,.009-.11-.001-.257-.186-.318-.317-.102-.218,.044-.56,.384-.58,1.075-.064,2.155-.024,3.234-.024,.77,0,1.541-.013,2.31,.015,.113,.004,.257,.185,.319,.316ZM421.035,15.02c.339,.01,.472,.381,.348,.594-.073,.126-.213,.299-.326,.302-.924,.024-1.848,.014-2.772,.014s-1.853,.05-2.771-.026c-.347-.029-.473-.38-.349-.593,.073-.126,.214-.301,.326-.302,1.848-.019,3.698-.041,5.545,.012ZM39.919,25.901c-.075,.125-.213,.295-.327,.299-.768,.026-1.537,.014-2.306,.014s-1.544,.058-2.304-.026c-.351-.039-.47-.385-.342-.596,.075-.125,.215-.298,.327-.299,1.537-.02,3.077-.047,4.612,.013,.341,.013,.468,.384,.34,.596Zm382.719-9.65c.069-.128,.211-.306,.322-.308,1.537-.02,3.076-.046,4.612,.011,.338,.012,.475,.374,.36,.588-.069,.128-.209,.303-.323,.307-.768,.027-1.537,.014-2.306,.014s-1.544,.055-2.304-.025c-.347-.037-.477-.374-.362-.589ZM160.859,.657c-.127-.212,0-.583,.34-.596,1.535-.06,3.074-.033,4.612-.013,.112,.001,.252,.175,.327,.299,.127,.212,.006,.566-.341,.596-.916,.078-1.843,.026-2.766,.026-.615,0-1.231,.016-1.844-.014-.116-.006-.252-.174-.328-.299Z"/>
</svg>
