<?xml version="1.0" encoding="UTF-8"?>
<svg preserveAspectRatio="none" id="a" data-name="AW" xmlns="http://www.w3.org/2000/svg" width="500" height="22.71" viewBox="0 0 500 22.71">
  <path id="b" data-name="9" d="M499.967,17.505c.01,.404-.237,.595-.941,.662-.325,.031-.556,.082-.773,.361-.175,.226-.441,.381-.717,.609h-2.601c-.256,.256-.471,.47-.735,.735-1.121,.319-2.324,.048-3.511,.128-1.04,.07-2.093-.13-3.118,.136-.221,.221-.435,.435-.715,.715-.3-.248-.608-.501-.983-.811h-15.419c-.267,.244-.596,.544-.947,.864h-5.421c-.314-.287-.635-.58-.956-.873-.224,.224-.439,.439-.72,.72-1.218,.459-2.59-.077-3.891,.255-.214,.214-.429,.429-.653,.653-1.01,.33-2.063,.126-3.1,.155-1.211,.034-2.424,.008-3.636,.008-1.061,0-2.122-.022-3.182,.006-1.041,.028-2.092-.149-3.113,.134-.222,.222-.436,.436-.71,.71-.303-.253-.612-.511-.982-.819h-5.42c-.275,.254-.603,.557-.928,.857-.316-.294-.642-.596-.982-.912h-7.225c-.238-.238-.452-.452-.67-.67-.973-.473-2.048-.031-2.997-.272q-.856-.823-1.709,0c-.304-.257-.615-.519-.979-.826h-7.239c-.283,.264-.61,.569-.945,.882h-5.416c-.33-.3-.647-.588-.961-.873-.46,.4-.762,.898-1.492,.891-4.075-.036-8.151-.017-12.127-.017-.509,.537-.875,1.01-1.588,.92-.447-.057-.908-.012-1.362-.01-.612,.003-.611-.003-1.537-.86h-5.361c-.355-.314-.687-.607-1.022-.902-.431,.212-.464,.608-.506,1.054-.023,.244-.286,.466-.433,.686-.327-.301-.655-.603-.928-.854h-11.83c-.247,.247-.449,.476-.679,.672-.307,.261-1.008,.294-1.225,.081-.542-.53-1.073-1.069-1.609-1.605-.107,.047-.235,.071-.318,.146-.226,.202-.432,.424-.664,.656h-2.714c-.31-.286-.639-.589-.979-.902h-6.334c-.117-.117-.222-.226-.332-.331-.782-.749-1.122-.762-1.874-.172-.227,.178-.444,.384-.7,.505-.508,.239-1.182-.254-1.159-.896,.013-.35-.009-.623-.338-.772-.199-.09-.433,.056-.638,.366-.19,.288-.434,.385-.744,.412-.341,.03-.6-.018-.812-.25-.204-.223-.135-.422,.214-.649,.124-.081,.241-.196,.315-.322,.046-.079,.045-.234-.004-.31-.077-.119-.213-.285-.325-.285-3.026-.015-6.052-.012-9.02-.012-.377,.339-.707,.636-.964,.867h-9.016c-.456-.342-.802-.825-1.157-.832-3.011-.061-6.023-.035-8.893-.035-.354,.354-.568,.568-.899,.899-1.227,.026-2.577-.037-3.921,.027-.727,.035-1.047-.46-1.505-.89h-4.562c-.268,.245-.597,.546-.947,.865h-1.761c-.835-.334-.119-1.507-1.116-1.791h-1.642c-.369,.328-.7,.622-.948,.843h-3.661c-.46-.457-.808-.988-1.524-.866-.147,.025-.302,.005-.454,.003-.89-.01-1.829-.167-2.399,.792-.589,.052-1.178,.105-1.79,.16-.342-.296-.675-.584-1.065-.92h-8.151l-.93,.86c-.146-.224-.417-.452-.431-.695-.04-.674-.18-1.149-1-1.113-.75,.033-1.502,.007-2.166,.007-.405,.356-.736,.647-1.076,.946-.611-.048-1.202-.094-1.793-.14-.45-.91-1.617-.594-2.196-1.284-.097-.116-.259-.326-.312-.304-.233,.098-.446,.253-.649,.411-.392,.304-.387,.311-1.237,.373-.314-.293-.641-.598-.978-.912h-6.327c-.338-.314-.665-.619-1.007-.937h-1.766l-.673-.673c-.272-.069-.546-.195-.821-.198-1.667-.019-3.333-.004-5-.014-.288-.002-.575-.07-.862-.107q-.793-.768-1.658,.063h-1.727c-.355,.314-.686,.607-1.059,.937h-7.241c-.294-.274-.621-.579-.945-.882h-4.514c-.346,.318-.674,.62-1.019,.937h-12.663c-.466,.42-.778,.974-1.507,.884-.735-.09-1.491,.107-2.209-.119-.548-.548-1.08-1.087-1.621-1.617-.193-.189-.951-.113-1.227,.143-.222,.206-.43,.427-.662,.658h-8.132c-.345,.313-.671,.609-.985,.894-.33-.3-.659-.599-.923-.839h-4.558c-.888,.841-.819,.746-1.686,.116-.583-.424-1.439-.113-2.178-.149-.588-.028-.588,0-1.517,.864h-4.558c-.261-.236-.59-.534-.921-.833-.313,.284-.639,.578-.961,.87-.943,.342-1.267-.603-1.987-.949h-9.835c-.578-.578-1.114-1.114-1.654-1.654-.671,.124-.962,1.147-1.914,.755-.272-.249-.601-.55-.95-.869h-3.608c-.319,.297-.646,.602-.969,.903-.443-.029-.902,.102-1.235-.355-.166-.228-.444-.373-.612-.508h-1.813c-.57,1.058-1.536,.833-2.529,.865-.267,.216-.605,.489-1.006,.813-.051,.015-.187,.087-.322,.087-3.333,.006-6.667-.018-10,.023-.73,.009-1.033-.488-1.499-.887-.31,.28-.626,.565-.939,.847-.315-.293-.641-.596-.956-.889-.458,.022-.932-.1-1.234,.371-.512,.799-1.724,.376-2.221,1.271-.089,.16-.534,.169-.815,.17-2.424,.012-4.848,.003-7.273,.011-.434,.002-.867,.057-1.261,.085-.592,1.127-1.587,.766-2.702,.835-.421-.609-.938-1.356-1.267-1.832h-1.347l-.945,.878h-4.553c-1.301-1.203-1.387-1.206-2.593-.081-1.135,.264-2.338,.029-3.638,.122-.26,.227-.552,.583-.927,.78-.379,.199-.844,.241-1.219-.108-.222-.206-.43-.427-.656-.653-.318,.287-.636,.575-.944,.854-.326-.3-.655-.601-.962-.884-.479,.005-.922-.053-1.251,.38-.144,.189-.41,.284-.617,.419-1.218-1.126-1.287-1.125-2.531,.021-.139,.029-.278,.081-.418,.084-.454,.011-.909,.004-1.413,.004-.303-.271-.633-.567-.997-.893h-3.596c-.307,.279-.633,.575-.959,.871l-1.614-1.614c-.539-.167-.622,.425-.96,.588-.409,.197-.841,.243-1.224-.054-.237-.184-.433-.423-.726-.716-2.182,0-4.445,0-6.707,0-.741,0-.726-.007-1.03-1.061-.076-.263-.277-.49-.421-.734-.326,.295-.652,.59-.974,.883-.943,.343-1.266-.606-1.807-.863h-4.557c-.828,.789-.892,.848-1.314,.387-.492-.538-1.075-.378-1.65-.438-.504-.053-.844,.178-1.151,.525-.1,.113-.213,.215-.355,.357h-2.664c-.345,.317-.674,.618-1.022,.937h-5.426c-.32-.299-.646-.604-.943-.882h-6.364c-.235,.235-.449,.449-.663,.663-.121,.075-.235,.202-.362,.215-.3,.032-.605,.01-.908,.01-3.485,0-6.97-.001-10.455,.004-.138,0-.276,.06-.415,.092-.214,.214-.429,.429-.643,.643-1.015,.291-2.031,.263-3.049,.019-.214-.214-.429-.429-.643-.643-.136-.038-.271-.11-.407-.11-3.333-.006-6.667,.018-10-.022-.729-.009-1.035,.485-1.502,.897h-5.394c-.342,.318-.67,.621-.992,.92-.318-.295-.644-.599-.955-.888-.462-.021-.916,.083-1.248-.364-.145-.195-.444-.443-.625-.409-.333,.063-.354,.401-.371,.732-.046,.897-.798,1.262-1.504,.781-.246-.168-.413-.448-.653-.629-.286-.216-.921-.16-1.223,.106-.227,.2-.431,.426-.666,.66-.317-.288-.634-.577-.943-.858-.319,.296-.647,.6-.96,.89-.325-.022-.619-.042-.914-.062-.536-.536-1.071-1.072-1.607-1.607-.214-.089-.382,.074-.653,.33-.583,.55-1.054,.592-1.539,.199-.234-.19-.432-.424-.667-.659h-2.713l-.957,.875c-.536-.536-1.071-1.071-1.639-1.639-1.257-.442-2.627,.07-3.706-.229-.609-.52-1.067-.91-1.436-1.226v-1.894c.313-.497,.812-.345,1.206-.486,.392-.139,.691-.538,1.076-.861h1.726c.665-.631,1.314-1.246,1.949-1.849,.706,.11,1.213-.129,1.459-.657,.226-.113,.348-.218,.478-.23,.301-.027,.605-.008,.908-.009,.884-.002,1.825,.186,2.416-.77,.057-.092,.257-.137,.389-.133,.906,.029,1.821,.105,2.383-.838,.777-.026,1.467-.219,1.784-.976h1.002c.312,.281,.636,.574,.977,.881,.436-.672,1.069-.978,1.857-.98,.483-.654,1.104-.91,1.934-.838,.882,.076,1.829,.193,2.401-.769,.438-.041,.875-.111,1.313-.118,.833-.013,.932,.066,1.07,.996,.046,.308,.1,.568,.438,.77,.306-.273,.622-.555,.96-.857h1.783c.322,.3,.649,.605,.971,.904,.445-.028,.904,.098,1.236-.357,.166-.227,.444-.372,.611-.506h1.752c.41,.266,.547,.756,1.041,.719,.224-.224,.438-.438,.71-.71,.304,.255,.613,.514,.953,.799,.295-.267,.612-.554,.921-.834,.307,.279,.624,.568,.941,.856l.666-.666c1.001-.399,2.024-.241,3.047-.107q.803,.774,1.662-.054h2.75c.238,.208,.569,.5,.948,.832h4.463c.34,.317,.667,.622,1.004,.937h.865c.333,.301,.65,.587,.963,.87,.46-.405,.767-.898,1.495-.89,3.636,.038,7.273,.019,10.909,.013,.136,0,.271-.072,.407-.111,.214-.214,.429-.429,.643-.643,.131-.05,.261-.142,.392-.144,.757-.014,1.515-.007,2.366-.007,.281,.233,.617,.512,1.039,.861h3.493c.354,.314,.685,.608,1.055,.937h9.953c.305-.278,.632-.576,.946-.862,.317,.283,.633,.564,.945,.842,.46-.419,.776-.904,1.503-.887,2.12,.05,4.242,.02,6.363,.013,.134,0,.269-.078,.403-.12,1.201-1.111,1.27-1.109,2.558,.077l.972-.846h3.591c.312,.287,.641,.591,.957,.882h1.794c.461-.301,.412-.754,.484-1.193,.037-.228,.343-.577,.541-.586,1.199-.055,2.401-.027,3.523-.027,.293-.293,.492-.527,.726-.717,.323-.262,.996-.279,1.225-.055,.542,.529,1.073,1.069,1.609,1.605q1.031-.802,1.864-.832c.329,.303,.658,.606,.969,.892h.897c.124-.124,.228-.234,.339-.338,.796-.744,1.088-.751,1.873-.145,.927,.714,.969,.713,1.873,.035,.869-.652,1.038-.646,1.872,.077,.114,.099,.215,.213,.356,.354h1.83c.271-.249,.6-.551,.929-.853,.315,.291,.641,.591,.96,.886,.445,.027,.904-.097,1.235,.358,.146,.201,.412,.314,.622,.465l1.666-1.666c.388-.02,.828-.044,1.268-.063,.151-.007,.31-.028,.453,.007,.132,.032,.281,.103,.364,.205,.4,.49,.857,.828,1.534,.696,.334,.297,.667,.594,1.019,.908h.859c.327-.298,.645-.588,.985-.899,.437,.725,1.11,.952,1.871,1.007,.48,.671,1.124,.887,1.942,.816,.752-.066,1.514-.014,2.374-.014,.271-.235,.564-.586,.938-.787,.38-.205,.843-.242,1.219,.098,.224,.203,.43,.427,.669,.665h4.552c.288-.268,.615-.574,.951-.888h2.687c.342-.316,.669-.619,.982-.908,.325,.023,.62,.043,.914,.064,.214,.214,.429,.429,.644,.645,.273,.067,.547,.19,.823,.194,1.348,.02,2.697,.009,3.926,.009,.331,.331,.545,.545,.759,.76,.876,.28,1.777,.095,2.751,.155,.288-.239,.623-.518,1.012-.841l.949,.816h1.767c.305-.278,.632-.576,.959-.874q1.173,1.105,2.516,.179c.528-.364,.883-.308,1.551,.254,.115,.097,.215,.213,.33,.327,.88-.27,1.18-1.221,2.217-1.671h8.767c.345-.318,.673-.621,.989-.911h2.718c.227,.227,.427,.458,.658,.652,.502,.42,.672,.395,1.575-.174-.293-.321-.582-.639-.869-.955,.229-.144,.468-.42,.711-.425,1.817-.037,3.637-.056,5.454-.002,.725,.021,1.048-.457,1.553-.927,.364,0,.808,.005,1.252-.001,.744-.011,.741-.016,1.027,1.067,.069,.263,.278,.489,.422,.732,.327-.296,.653-.593,.976-.886,.944-.343,1.263,.613,1.8,.861h1.738c.464-.344,.797-.792,1.17-.828,1.051-.103,2.118-.044,3.178-.032,.436,.005,.872,.052,1.239,.076,.279,.279,.493,.493,.712,.712,.879,.223,1.786,.152,2.671,.094,.842-.055,1.405,.262,1.947,.845,.147,.158,.566,.065,.903,.091,.627-.597,1.275-1.214,1.915-1.823,.313,.015,.814-.067,.875,.06,.523,1.091,1.952,.601,2.584,1.569,.302,.462,1.06,.299,1.518-.284,.093-.118,.212-.216,.322-.326,.658,.165,.961,1.16,1.867,.79,.321,.299,.649,.604,.986,.918h13.602l.945-.882h1.82c.468,.402,.763,.944,1.498,.899,1.042-.064,2.09-.016,3.038-.016,.509,.531,.871,1,1.586,.922,.582-.064,1.12-.03,1.636,.451,.77,.715,1.035,.648,1.852-.095,.112-.102,.215-.214,.346-.344h3.642c.289,.27,.616,.575,.944,.882h.876c.342-.316,.67-.619,1.013-.937h9.897c.37-.309,.678-.566,1.013-.846,.494,.797,1.17,.955,1.974,.887,.604-.051,.606-.016,1.53-.873h2.639c.353-.315,.684-.609,1.017-.905,.427,.223,.459,.622,.501,1.069,.023,.239,.29,.456,.459,.701,.45-.656,1.054-.973,1.86-1.014,.224-.011,.413-.418,.648-.607,.382-.306,.84-.292,1.221-.062,1.525,.924,1.53,.96,2.604-.137,.361,0,.804,.004,1.247,0,.767-.009,.789-.016,1.018,1.06,.062,.29,.149,.546,.436,.731,.325-.293,.65-.587,.961-.867h.888c.472,.367,.733,.995,1.478,.905,.523-.063,.726,.446,1.064,.713,.207,.164,.42,.061,.645-.269,.084-.123,.211-.217,.318-.324,.134-.043,.267-.123,.401-.124,1.364-.009,2.727-.006,4.091-.006,.678,.207,.956,1.249,1.968,.882,.276-.251,.605-.551,.935-.851,.315,.286,.641,.583,.987,.897h.857c.536,.532,.974,1.238,1.9,.794,.83-.544,1.108-1.897,2.457-1.721,.784,.467,1.317,1.208,1.984,1.813h3.901c.436,.559,.99,1.269,1.384,1.773h14.767q.864-.83,1.717-.005h2.625c.359,.313,.691,.602,1.075,.937h3.547c.341,.318,.668,.623,1.005,.937h.87c.329-.3,.646-.589,.944-.86,.359,.313,.691,.603,1.05,.915h2.624c1.282,1.182,1.344,1.182,2.631-.004h2.631c.356-.314,.688-.606,1.063-.937h4.516c.29,.271,.617,.576,.944,.882h.876c.343-.317,.671-.62,1.015-.937h5.396c.246-.246,.447-.477,.678-.671,.38-.318,.838-.295,1.221-.077,1.36,.775,1.356,.736,1.95,.794,.721,.07,1.063-.423,1.523-.876,.311,.268,.624,.538,.977,.843h1.77c.308-.284,.637-.587,.956-.882h.902c.612,.612,1.215,1.215,1.808,1.808q.899-.878,1.78-.04h7.195c.35,.316,.68,.613,1.039,.937h2.66c.341,.308,.666,.602,.978,.884,.331-.298,.661-.596,.919-.829h1.835l.684,.684c.126,.061,.251,.171,.379,.175,.605,.019,1.217,.058,1.817-.005,.708-.074,1.092,.352,1.485,.791,.893,.242,1.794,.085,2.767,.136,.284,.242,.618,.527,1.018,.868h1.785c.267-.243,.595-.543,.946-.863h8.152c.319,.294,.648,.597,.997,.918h2.674c.233,.233,.447,.447,.661,.661,.12,.076,.239,.219,.36,.22,2.715,.013,5.43,.01,8.052,.01l.735-.735c.127-.058,.254-.166,.382-.167,1.363-.012,2.727-.012,4.091-.001,.132,.001,.262,.092,.394,.141,.214,.214,.429,.429,.703,.703,.302-.252,.611-.509,.982-.818h3.532c.344-.317,.672-.62,1.015-.937h.871c.322,.294,.641,.586,.96,.877,.232-.232,.429-.468,.664-.656,.489-.391,.926-.327,1.547,.199,.115,.098,.215,.213,.323,.32,.129,.055,.257,.157,.386,.158,1.667,.011,3.333,.007,5.104,.007l.971,.792c.616-.161,.92-1.152,1.864-.767,.285,.266,.612,.571,.948,.884h.875c.337-.314,.664-.619,.977-.911,.323,.02,.619,.039,.914,.058,.214,.214,.429,.429,.645,.645,.272,.069,.545,.193,.82,.199,1.045,.024,2.09,.01,3.016,.01,1.341,1.237,1.403,1.237,2.639,.098,.647,.199,.959,1.171,1.893,.793,.296-.276,.623-.581,.949-.886h7.24c.344,.317,.672,.62,.946,.872h2.692c.371-.309,.679-.566,.982-.817,.275,.275,.49,.489,.783,.783,.294-.238,.598-.483,.986-.796h6.226c.353-.315,.683-.61,1.05-.937h5.372c.349-.321,.678-.624,.996-.917h.878c.352,.321,.681,.62,1.028,.937h1.751c.144,.144,.245,.259,.359,.357,.826,.712,1.05,.72,1.871,.062,.118-.094,.198-.25,.327-.311,.199-.093,.419,.059,.642,.358,.09,.12,.226,.321,.316,.308,1.092-.156,1.551,.727,2.202,1.306,.294,.558,.13,1.163,.144,1.748Z"/>
</svg>
