<?xml version="1.0" encoding="UTF-8"?>
<svg preserveAspectRatio="none" id="a" data-name="AW" xmlns="http://www.w3.org/2000/svg" width="500" height="28.678" viewBox="0 0 500 28.678">
  <path id="b" data-name="14" d="M499.995,24.177c-.954,.956-1.982,1.985-2.95,2.955-.033,.428-.057,.746-.081,1.068-.998,.872-2.187,.25-3.31,.423-.34-.313-.696-.64-1.071-.985h-2.904c-.36-.329-.707-.647-1.053-.963-.249,.249-.463,.504-.717,.709-.732,.59-1.637,.253-1.698-.684-.024-.363-.021-.656-.329-.857-.5-.326-.814-.264-1.628,.317,.302,.34,.605,.682,.911,1.027-1.041,.892-2.228,.28-3.318,.444-1.079-.923-1.073-.929-1.779-2.658-.045-.11-.252-.254-.333-.228-.14,.045-.307,.196-.341,.332-.075,.305-.076,.628-.106,.944-.201,.245-.386,.507-.608,.732-1.213,1.233-1.402,1.23-2.789-.05h-1.86c-.389-.339-.749-.653-1.138-.993-.323,.295-.667,.608-1.024,.934-.47,0-.962,.002-1.455,0-.606-.003-.933-.269-.988-.78-.068-.629,.192-1.297-.208-1.883-.073-.107-.256-.244-.336-.216-.14,.048-.284,.193-.347,.333-.188,.422,.059,.963-.356,1.331-.414,.367-.916,.214-1.384,.222-.312,.005-.625-.069-.937-.109-.232-.233-.465-.465-.697-.697q-.357-.018-1.099,.758c-.334-.284-.671-.571-1.034-.879-.324,.296-.67,.611-1.029,.939h-.937c-.37,.343-.725,.672-1.062,.983-.511-.012-.997,.071-1.354-.406-.156-.208-.445-.317-.613-.43-.422,.295-.801,.777-1.196,.79-.763,.025-1.166,.456-1.632,.996-.357-.306-.695-.596-1.081-.928h-3.854c-.37-.344-.724-.675-1.075-1.002h-2.924c-.375,.345-.731,.672-1.027,.944h-2.966c-.505-.454-.841-1.035-1.634-.964-1.127,.102-2.271-.111-3.391,.138l-.706,.706c-.679,.053-.804-.925-1.492-.826-.801,.116-1.1-.558-1.611-.971h-.964c-.333,.307-.689,.637-1.034,.957h-.948c-.369-.328-.711-.632-1.051-.934-.151,.151-.26,.275-.384,.382-.894,.772-1.142,.78-2.03,.075-.684-.543-.864-.461-.977,.561-.038,.344-.086,.627-.472,.85l-1.043-.909h-.901c-.374-.345-.731-.674-1.074-.99h-4.054c-.192,.551-.379,1.128-.601,1.691-.036,.091-.252,.199-.331,.167-.14-.057-.312-.2-.341-.335-.066-.31-.055-.637-.075-.958-.212-.241-.416-.49-.638-.72q-.803-.833-1.741,.056c-.116-.059-.252-.097-.345-.181-.243-.22-.468-.461-.793-.786-.899,.943-1.794,1.888-2.703,2.821-.064,.066-.248,.085-.337,.042-.351-.166-.446-.457-.351-.837,.038-.154,.006-.325,.006-.454,.33-.366,.64-.709,1.049-1.164-.534-.159-.972-.289-1.395-.415-.413,.377-.769,.703-1.127,1.029-.335-.299-.682-.61-1.028-.919-.319,.202-.463,.468-.459,.802,.006,.493,.059,.996-.025,1.474-.037,.212-.36,.374-.552,.559-.595-.595-1.176-1.176-1.769-1.769-.78-.24-1.599-.139-2.397-.096-.792,.043-1.128-.518-1.633-.972h-5.846c-.373-.343-.729-.67-1.082-.995-.334,.303-.679,.615-1.024,.928-.574-.578-1.056-1.331-2.048-.845-.577,.577-1.158,1.158-1.761,1.761-.667-.262-1.068-1.171-1.983-.885-.362-.322-.724-.643-1.079-.958-.329,.3-.674,.613-.996,.907-.364-.308-.701-.594-1.032-.875q-.929,.895-1.857,0c-.331,.28-.667,.565-1.094,.926-.379,0-.868-.037-1.348,.012-.375,.038-.657-.013-.866-.303-.168-.234,.003-.399,.281-.71,.758-.85,.742-1.082-.051-1.895-.465,.465-.929,.929-1.394,1.394-.087,.452,.174,1.002-.353,1.327-.082,.051-.266,.045-.337-.013-.25-.211-.472-.456-.758-.743h-4.919c-.042,.026-.188,.088-.302,.187-1.333,1.151-1.792,1.076-2.226-.459-.25-.883-1.097-1.058-1.838-.41-.123,.108-.226,.241-.352,.344-.104,.085-.23,.144-.322,.2-.342-.286-.677-.565-1.006-.84l-.761,.761c-.116-.008-.277,.029-.342-.033-.593-.569-1.168-1.155-1.762-1.749-.347,.318-.695,.635-1.055,.965h-2.897c-.368,.327-.71,.632-1.049,.934-1.401-1.293-1.487-1.296-2.769-.105-.924-.327-1.373-1.212-2.108-1.805h-.968c-.338,.311-.694,.64-1.047,.965-.986,.393-1.346-.611-2.024-.901-.764,1.22-1.908,.99-3.013,.737-.271-.062-.44-.486-.709-.663-.727-.479-1.487-.058-1.604,.913-.041,.341-.092,.624-.485,.853-.669-.631-1.354-1.277-2.054-1.937h-2.88c-.377-.329-.717-.627-1.054-.922-.274,.273-.506,.506-.738,.738-.137,.066-.273,.189-.411,.19-1.314,.015-2.629,.018-3.943,.002-.309-.004-.616-.091-.924-.141-.232-.233-.465-.465-.77-.771-.325,.267-.658,.541-1.034,.851-.314-.277-.656-.579-1.027-.908h-1.932c-.345,.318-.701,.646-1.039,.957h-1.926c-.395-.354-.753-.674-1.028-.92h-1.933c-.418,.339-.748,.607-1.069,.866l-.81-.81c-1.259-.243-2.563-.032-3.949-.113-.305-.261-.667-.571-1.067-.914-.317,.282-.659,.588-1.027,.915h-5.861c-.364,.338-.719,.669-1.071,.996-.477-.033-.976,.113-1.337-.384-.18-.247-.481-.406-.664-.554h-3.918c-.5,.493-.871,1.032-1.652,.95-.65-.068-1.313-.014-1.97-.014-.142-.053-.318-.069-.422-.165-1.276-1.172-1.363-1.172-2.731,.091-1.01-.263-.127-1.574-1.11-1.829-.29,.27-.643,.598-1.01,.94h-2.872c-.404,.358-.764,.675-1.088,.962-.554,0-1.047,.015-1.54-.004-.561-.021-.734-.228-.836-.928-.139-.957-.912-1.403-1.629-.856-.511,.39-.896,.826-1.645,.851-.384,.013-.75,.543-1.161,.868-.308-.278-.651-.589-1.011-.915h-1.291c-.513,.522-1.194,1.214-1.937,1.969-.361,0-.854,.016-1.346-.004-.55-.022-.735-.248-.826-.937-.125-.948-.88-1.351-1.645-.849-.269,.176-.471,.456-.761,.745-.331-.28-.668-.565-1.038-.877-.669,.632-1.361,1.285-2.038,1.924-.502-.016-.989,.078-1.349-.402-.182-.242-.486-.393-.657-.525h-2.936c-.495,.521-.89,1.025-1.664,.939-.631-.069-1.255-.084-1.769,.499-.41,.465-.83,.357-.922-.154-.084-.463,.101-1.001-.521-1.271-.298,.273-.644,.589-.995,.909h-1.925c-.362-.326-.706-.636-1.045-.941-.499,.442-.83,1.01-1.624,.967-.798-.044-1.617-.141-2.326,.072-.445,.24-.556,.864-1.127,.698-.262-.076-.459-1.044-.26-1.318,.191-.263,.465-.463,.683-.708,.079-.089,.175-.262,.14-.338-.162-.347-.456-.401-.81-.417-.374-.017-.699,0-.848,.329-.125,.275-.154,.597-.198,.902-.067,.469-.089,.945-.177,1.409-.024,.124-.218,.215-.323,.311-.357-.328-.713-.654-1.007-.924h-2.923c-.428,.368-.79,.678-1.1,.945-1.027,.056-2.092-.285-2.71,.827-.022,.04-.257,.026-.33-.037-.25-.212-.471-.457-.749-.734-.336,.291-.676,.585-1.057,.915h-1.919c-.337-.31-.693-.639-1.061-.978h-2.901c-.382-.348-.738-.673-1.03-.939-1.035-.426-1.348,.689-2.055,.81-.391-.192-.493-.865-1.068-.634-.325,.13-.382,.478-.307,.852,.029,.147,.009,.331-.057,.464-.07,.14-.222,.238-.379,.395-.338-.295-.678-.592-1.055-.922h-.905c-.37-.335-.723-.654-1.075-.973-.31,.2-.465,.465-.465,.793,0,.493,.059,.996-.026,1.474-.039,.218-.403,.571-.546,.539-.355-.081-.486-.431-.41-.78,.081-.372,.022-.72-.3-.852-.574-.235-.663,.551-1.146,.632-.252,.042-.624-.468-1.035-.806h-1.892c-.194,.163-.441,.364-.681,.573-.752,.654-1.611,.502-1.847-.377-.041-.153,.033-.338-.012-.489-.296-.997-.871-.915-1.853-.346-.247,.143-.462,.341-.691,.513-.241-.241-.474-.474-.706-.706-.116-.014-.286-.084-.34-.032-.594,.567-1.17,1.153-1.751,1.734-.318,.025-.636,.051-.993,.079-.337-.309-.693-.635-1.05-.962-.334,.301-.679,.613-1.025,.925-.242-.242-.457-.496-.71-.702-.524-.427-1.019-.359-1.678,.201-.125,.106-.233,.231-.359,.356-.932,.342-1.911,.117-2.871,.169-.139,.008-.358-.057-.414-.159-.623-1.111-1.685-.766-2.698-.823-.322,.278-.683,.589-1.148,.99-.363,0-.846-.003-1.329,0-.638,.005-1.095-.299-.945-.626,.163-.355,.457-.455,.833-.367,.156,.036,.345,.05,.487-.006,.14-.056,.28-.193,.349-.33,.117-.232-.028-.568-.402-.62-.639-.087-1.298-.024-1.9-.024-.629,.629-1.21,1.21-1.8,1.8-.934,.332-1.913,.143-2.874,.146-.242,.001-.486-.317-.712-.477,.301-.341,.603-.682,.906-1.025-.838-.709-1.645-.682-1.924,.249-.045,.151,.045,.35-.017,.486-.127,.278-.315,.527-.472,.78-.353-.329-.707-.659-1.047-.975-.5,.022-1.059-.128-1.321,.414-.13,.268-.055,.628-.116,.938-.028,.14-.144,.28-.256,.38-.084,.075-.315,.141-.329,.119-.63-1.026-1.639-.868-2.609-.871-.449-.002-.701-.328-.723-1.02-.012-.362-.056-.641-.4-.832-.914,.37-1.284,1.357-2.148,1.778-.271-.246-.615-.558-.954-.866-.499,.435-.826,.984-1.619,.967-2.447-.053-4.896-.019-7.222-.019-.353-.353-.585-.585-.817-.817-.141-.056-.282-.16-.423-.162-1.478-.012-2.957-.007-4.436-.008-.256,.176-.525,.335-.765,.531-.685,.559-1.151,.637-1.681,.213-.255-.204-.469-.46-.701-.692-.321-.017-.643-.034-.989-.053-.342,.32-.697,.651-1.062,.991h-.936c-.362,.326-.705,.636-1.054,.95-.772-.685-.294-1.564-.461-2.32-.08-.365-.359-.544-.602-.467-.139,.044-.279,.201-.341,.341-.061,.137-.059,.326-.024,.478,.089,.379,0,.67-.339,.847-.221,.115-.467-.023-.694-.368-.204-.31-.471-.42-.798-.462-.505-.064-.991,.161-1.125,.647-.083,.301-.045,.635-.123,.938-.035,.137-.219,.236-.351,.368-.694-.656-1.388-1.312-2.018-1.907h-1.967c-.387,.231-.446,.513-.496,.847-.159,1.067-.321,1.165-.946,.592-.389-.356-.773-.5-1.283-.498-1.231,.005-1.237-.017-2.141-.927-.336,.291-.676,.585-1.018,.882-.331-.294-.68-.602-1.013-.898-.343,.304-.685,.606-.983,.869-.426-.326-.771-.682-1.189-.889-.56-.277-1.277,.262-1.254,.964,.013,.379-.01,.675-.366,.837-.217,.099-.455-.067-.697-.391-.097-.13-.211-.302-.349-.339-.455-.122-.93-.245-1.331,.158-.232,.233-.465,.465-.697,.697-.684-.633-1.367-1.267-2.047-1.897-.625,.625-1.205,1.206-1.792,1.792-.956-.304-1.266-1.353-2.439-1.826,.028,0-.297,0-.635,0-.345,.318-.702,.646-1.058,.975q-.869-.044-2.04-.907c-.426,.807-1.236,.898-2.007,1.063-.621,1.065-1.665,.883-2.611,.803-.5-.042-.777-.491-.686-1.058,.056-.346-.092-.618-.542-.886-.358,0-.841-.001-1.323,0q-.765,.003-1.092,1.168c-.242,.862-1.105,1.086-1.812,.471-.233-.203-.465-.406-.697-.61-.232,.232-.447,.487-.701,.693-.525,.426-1.017,.359-1.678-.203-.125-.106-.234-.231-.364-.362-.796,.178-1.159,.874-1.526,1.277-.178,.6-.308,1.038-.471,1.586-.805-.757-1.495-1.407-2.151-2.023h-2.91c-.39,.332-.727,.62-1.059,.903q-.933-.897-1.859-.002h-1.999c-.252-.22-.612-.534-1.028-.896h-1.871c-.709-.669-1.4-1.322-2.096-1.978-.781,.679-.31,1.558-.471,2.316-.077,.361-.483,.616-.574,.485-.51-.736-1.316-.788-2.048-1.05-.28-.1-.472-.443-.708-.678-.706,.205-1.04,1.267-2.059,.853-.315-.294-.669-.625-1.028-.96h-1.935c-.369,.342-.724,.671-1.026,.951h-2.968c-.264-.264-.484-.512-.732-.726-.411-.352-.939-.35-1.315-.082-.513,.366-.883,1.051-1.622,.814-.428-.137-.773-.531-1.225-.86-.282,.242-.62,.531-1.008,.863h-4.891c-.318-.297-.672-.628-1.037-.968h-1.926c-.373-.344-.729-.672-1.066-.982-1.274,.07-1.322,.075-1.395,.885-.032,.355-.041,.635-.289,.877-.224,.219-.209,.256-1.055-.617-.942-.382-1.933,.049-2.753-.215-1.077,.453-1.471,1.46-2.523,1.997q-.911,.031-1.291-1.182c-.046-.145-.083-.301-.167-.422-.09-.13-.23-.321-.349-.321-2.955-.018-5.91-.014-8.819-.014-.376,.335-.718,.64-1.059,.944l-1.858-1.858c-.32,.26-.649,.527-1.035,.839-.309-.268-.649-.563-.994-.863-.334,.302-.685,.62-1.022,.926h-.977c-.593-.593-1.174-1.174-1.754-1.755-.3-.069-.6-.195-.901-.196-2.628-.016-5.257-.007-7.886-.015-.145,0-.29-.088-.435-.134-.232-.232-.431-.522-.705-.684-.423-.249-.9-.265-1.325,.039-1.493,1.07-1.496,1.054-2.765-.165-.161-.155-.614-.021-.954-.021-.22,.207-.456,.43-.694,.651-.118,.109-.24,.213-.344,.306h-3.899c-.375-.329-.716-.628-1.054-.924-.272,.272-.505,.505-.737,.737-.136,.067-.273,.192-.409,.193-2.3,.012-4.6,.014-6.9,.002-.309-.002-.617-.09-.879-.131-.411-.194-.506-.879-1.087-.631-.319,.136-.374,.482-.302,.855,.028,.147,.005,.329-.062,.461-.071,.139-.222,.238-.377,.392-.339-.298-.68-.598-1.053-.927h-.917c-.714-.682-1.416-1.352-1.908-1.821-.704-.223-1.139-.36-1.653-.523,.405-.446,.719-.79,1.02-1.123-.304-.337-.613-.68-1.022-1.135,.535-.159,.973-.288,1.798-.533,.492-.563,1.244-1.422,2.065-2.359-.135-.534-1.361-.797-.418-2.289-.1,.109,.224-.245,.536-.588l-.922-1.006v-2.971c.27-.27,.502-.502,.734-.734,.279-.634-.533-.625-.681-1.041-.03-.473-.041-.948-.095-1.418-.062-.535,.138-.949,.551-1.249,.466-.34,.39-.824,.468-1.295,.034-.205,.364-.362,.559-.541,.248,.247,.48,.48,.72,.72,.768,.007,1.043-1.207,2.371-.641,.321,.479,.871,1.298,1.208,1.799h1.506c.362-.337,.716-.668,1.056-.986,.501,.021,.991-.087,1.351,.397,.181,.244,.485,.397,.733,.591,.493,0,.987,.015,1.479-.004,.547-.022,.786-.251,.803-.94,.009-.37-.003-.748,.344-.836,1.102-.282,2.237-.547,3.049,.737h2.02c.256-.224,.616-.539,1.028-.9h1.88c.368-.344,.721-.675,1.066-.997,.346,.323,.701,.654,1.037,.968,.507,.018,.997-.082,1.355,.4,.157,.211,.446,.325,.694,.497,.497-.79,1.223-.924,2.096-.925,.772,0,1.16,.451,1.603,.904,.319,.038,.633,.11,.945,.103,.467-.01,.97,.149,1.381-.228,.405-.371,.161-.912,.356-1.331,.065-.14,.208-.287,.347-.333,.081-.026,.289,.118,.332,.228,.22,.562,.405,1.137,.589,1.669h1.08c.37-.342,.725-.672,1.096-1.015h2.85c.399-.334,.734-.615,1.064-.891,.295,.295,.527,.527,.759,.76,.306,.055,.611,.15,.918,.156,.985,.02,1.971,.004,2.957,.009,.405,.002,.67,.33,.71,1.04,.02,.355,.052,.724,.41,.789,.196,.036,.464-.28,.688-.452,.129-.099,.235-.229,.374-.369h1.969c.319,.296,.672,.623,1.025,.95,.16-.262,.383-.505,.469-.79,.353-1.161,.338-1.167,1.098-1.17,.483-.002,.966,0,1.378,0,.42,.42,.765,.771,1.117,1.116,1.235,1.212,1.382,1.209,2.728-.031,.151-.033,.301-.091,.452-.095,.492-.012,.985-.004,1.535-.004,.327-.291,.685-.611,1.084-.966h.94c.333,.307,.689,.637,1.055,.975h.933c.38,.347,.736,.673,1.068,.976,.524-.001,1.001,.05,1.353-.42,.429-.573,.994-.77,1.748-.356,.509,.509,1.09,1.09,1.673,1.673,.687-.264,1.039-1.286,2.015-.894,.688-.646,1.374-1.291,2.059-1.935,.627,.627,1.208,1.208,1.816,1.816,.741,.143,1.607,.125,1.905,1.06h2.13c.284-.258,.641-.581,1.027-.931h5.877c.343,.316,.7,.645,1.052,.969,.982,.394,1.334-.627,2.02-.893,.234,.234,.467,.467,.699,.699,.137,.066,.273,.185,.411,.188,.821,.018,1.643,.016,2.464,.006,.465-.006,.731-.343,.77-.992,.049-.81,.052-.816,1.289-.978,.905,.44,1.345,1.395,2.326,1.962h3.765c.346-.319,.703-.647,1.039-.957h1.957c.251,.251,.484,.483,.741,.74,1.06,.471,2.206,.162,3.322,.217,.971,.048,1.947,.01,2.869,.01,.641,1.175,1.675,.996,2.636,.979,.634-.011,1.103-.915,.744-1.474-.246-.382-.613-.685-1.03-1.137,.541-.159,.979-.288,1.357-.399,1.249,.888,2.017,2.159,3.22,2.931,.365-.207,.412-.488,.436-.84,.069-.991,.847-1.381,1.62-.874,.269,.176,.47,.456,.703,.688,.147,.042,.294,.121,.44,.121,3.286,.007,6.572-.021,9.857,.025,.789,.011,1.124-.521,1.597-.936,.15-.023,.304-.059,.46-.067,1.633-.088,1.627-.074,2.213,1.607,.049,.14,.214,.312,.343,.327,.102,.012,.259-.175,.34-.305,.309-.493-.052-1.284,.687-1.567,.36,.318,.719,.635,1.043,.922,.391,0,.719,.002,1.048,0,1.005-.006,.982,.008,1.342,1.422,.098,.384,.411,.509,.64,.376,.133-.077,.266-.214,.319-.355,.055-.144-.002-.325,.015-.488,.066-.654,.759-1.162,1.301-.952,.141,.055,.286,.127,.397,.226,.244,.219,.468,.461,.732,.725h1.983c.302-.28,.657-.61,1.025-.952h6.86c.353,.322,.698,.638,1.043,.952,.254-.254,.486-.486,.718-.718,.132-.079,.263-.225,.395-.226,1.628-.016,3.256-.01,4.771-.01,.692,.692,1.273,1.273,1.854,1.854,1.142-.136,.186-1.494,1.129-1.825h1.863l1.07-.998c.346,.323,.701,.654,1.007,.94h2.921c.395-.333,.731-.617,1.062-.897,.639,.639,1.19,1.256,1.818,1.78,.203,.169,.609,.095,1.187,.164,.465-.667,1.027-1.472,1.573-2.255,.645,.597,1.001,.926,1.339,1.239,.353-.025,.716,.041,.981-.09,.384-.189,.594-.867,1.045-.735,.587,.172,.265,.846,.398,1.283,.119,.392,.44,.506,.653,.334,.254-.205,.47-.458,.754-.743h10.75c.384-.339,.743-.657,1.119-.99,.327,.296,.672,.609,1.006,.912,.353-.325,.709-.652,1.004-.924h1.934c.403,.335,.737,.613,1.065,.886,.996-.996,1.925-1.925,2.855-2.855,.177,.229,.465,.439,.508,.692,.082,.479,.003,.983,.029,1.474,.034,.637,.933,1.076,1.485,.72,.399-.258,.713-.646,1.082-.991h4.776c.475-.366,.819-.721,1.236-.931,.553-.279,1.279,.261,1.258,.959-.011,.379,.011,.673,.362,.839,.218,.103,.431-.081,.701-.381,.439-.488,.922-.936,1.387-1.4,.349,.309,.697,.618,1.03,.913,.343-.302,.684-.601,1.01-.887,.403,.276,.565,.786,1.097,.782,.517-.753,1.252-.974,2.116-.838,.781,.123,1.144-.466,1.588-.907,1.03,.246,.219,1.518,1.056,1.864,.349-.309,.697-.618,1.045-.927,.116,.116,.229,.236,.349,.348,.86,.808,1.187,.816,2.032,.164,.247-.19,.485-.41,.764-.536,.561-.253,1.258,.269,1.241,.987-.009,.376,.012,.732,.38,.807,.196,.039,.464-.241,.689-.393,.719-.483,.964-1.21,1.06-2.028,.015-.128,.218-.234,.335-.35,.354,.323,.708,.645,1.085,.988h3.845c.383,.331,.722,.624,1.058,.913,.279-.279,.512-.512,.748-.748,.577-.138,.682,.466,1.138,.711,.297-.248,.632-.526,1.001-.834,.102-.016,.262-.077,.41-.056,.619,.089,1.369-.312,1.832,.291,.258,.336,.239,.876,.385,1.311,.047,.139,.212,.312,.341,.328,.101,.012,.259-.174,.34-.304,.31-.493-.051-1.284,.711-1.577,.34,.27,.688,.547,1.037,.824,.527-.323,.289-.868,.406-1.314,.1-.383,.406-.511,.635-.377,.133,.077,.31,.227,.316,.351,.032,.653,.015,1.308,.015,1.943,.487,.431,.894,.388,.972-.119,.072-.469-.058-.983,.556-1.363,.371,0,.855,.002,1.339,0,.747-.004,.73-.022,1.088-1.179,.088-.284,.314-.526,.492-.814,.347,.358,.724,.682,1.022,1.068,.524,.68,1.209,.951,2.035,1.07,.26,.037,.469,.434,.711,.676,.95-.274,1.366-1.192,2.108-1.77,.341,.31,.685,.625,1.043,.951h.941c.367,.341,.721,.671,1.025,.954h1.982c.263-.263,.483-.51,.731-.725,.41-.356,.913-.329,1.324-.097,1.406,.793,1.393,.817,2.113,.854,.934,.048,.926,.057,1.271,1.509,.032,.136,.204,.272,.344,.337,.079,.037,.246-.047,.338-.12,.265-.21,.321-.509,.264-.877-.052-.333,.119-.604,.46-.816,.339,.308,.684,.621,1.031,.937,.55-.481,.67-1.053,.253-1.673-.18-.268-.456-.471-.689-.704,.2-.189,.37-.47,.606-.545,.298-.095,.65-.028,.978-.022,1.231,.024,1.262,.061,1.3,1.502,.45,.426,.925,.876,1.453,1.376,.306-.263,.644-.555,1.029-.886h1.884c.37-.345,.724-.676,1.071-1h.949c.367,.327,.71,.632,1.05,.936,.265-.265,.481-.519,.734-.725,.413-.337,.907-.314,1.325-.074,1.468,.844,1.46,.822,2.117,.853,.535,.025,.948-.146,1.249-.558,.34-.465,.814-.451,1.607-.43,.462,.591,1.063,1.36,1.524,1.95h2.246c.513-.391,.789-1.085,1.598-.984,.572,.072,.792-.477,1.155-.769,.23-.185,.456-.083,.701,.279,.09,.134,.228,.235,.344,.351,.144,.049,.287,.14,.432,.141,1.479,.011,2.958,.029,4.435-.018,.222-.007,.434-.34,.65-.523-.117-.117-.248-.222-.346-.352-.168-.223-.473-.492-.437-.688,.068-.361,.433-.395,.794-.406,.375-.012,.784,.003,.832,.343,.167,1.198,.827,2.014,1.733,2.593h5.89c.534-.443,.842-1.143,1.95-.819,.637,.269,1.151,1.142,1.881,1.765,1.014-.249,.209-1.517,1.074-1.877h2.933c.688,.658,1.389,1.328,1.989,1.901,1.08,.449,1.381-.698,2.124-.779,.237,.237,.47,.47,.726,.726,.679-.222,1.065-1.165,1.976-.875,.365-.317,.729-.633,1.096-.952,.441,.274,.415,.743,.516,1.211,.188,.869,1.044,.993,1.846,.338,.22-.18,.458-.338,.686-.506,.126,.126,.235,.251,.36,.357,.909,.77,1.108,.771,2.03,.028,.656-.529,.782-.468,.955,.619,.053,.33,.115,.613,.476,.83,.333-.3,.677-.608,1.014-.912,.332,.302,.677,.615,1.021,.927,.251-.251,.483-.483,.716-.716,.229-.239,.523-.26,.887-.25,1.135,.03,2.272,.011,3.296,.011,.341,.341,.573,.573,.854,.854,.47-.279,.942-.777,1.442-.806,.779-.044,1.087-.603,1.594-.961,.518-.365,1.49,.053,1.526,.621,.031,.491-.05,.994,.028,1.475,.045,.28,.305,.525,.599,.996,.721-.73,1.402-1.421,2.134-2.164,.188,.023,.557-.032,.804,.116,1.422,.854,1.416,.814,2.112,.87,.768,.061,1.181-.4,1.618-.944h2.05c.257,.225,.617,.54,1.003,.878,.324-.295,.668-.608,1.002-.911l1.033,.936c.496-1.29,2.214-.581,2.765-1.77,.084-.18,.499-.007,.619,.375,.092,.295,.018,.641,.018,.88,.87,.87,1.68,1.68,2.489,2.489,.453-.453,.908-.927,1.386-1.378,.227-.214,.535-.578,.74-.537,.987,.194,1.299-.862,2.063-1.015,.526-.105,.88,.196,1.265,.521,.82,.692,1.145,.643,2.02-.138,.122-.109,.233-.231,.369-.368h.971c.332,.302,.686,.625,1.04,.947,.233-.232,.461-.468,.698-.696,.292-.281,1.145-.436,1.315-.18,.654,.989,1.616,.909,2.6,.919,.263,.003,.535,.283,.783,.465,.711,.522,.867,.458,.979-.565,.038-.344,.086-.627,.416-.818,1.062,.69,1.933,1.521,1.709,2.853h1.327c.386-.35,.743-.673,1.121-1.015h3.774c.484-.368,.829-.724,1.248-.927,.566-.275,1.275,.263,1.249,.968-.014,.38,.01,.676,.369,.836,.216,.096,.469-.065,.692-.401,.207-.313,.47-.482,.807-.429,.805,.126,1.088-.581,1.6-.976h2.952c.837,.352,.146,1.567,1.006,1.919,.364-.328,.722-.65,1.102-.992h1.889c.278-.278,.483-.55,.748-.734,.579-.403,1.256-.19,1.883-.179,.259,.004,.513,.305,.756,.462l-1.03,1.139c.532,.159,.969,.291,1.393,.418,.413-.376,.769-.701,1.151-1.049h2.923c.338,.309,.687,.628,1.017,.93,.351-.304,.69-.597,1.026-.888,.162,.162,.271,.287,.396,.393,.918,.78,1.038,.781,2.03,.036,.94-.706,1.126-.699,2.03,.085,.124,.107,.234,.231,.382,.379,.341-.305,.683-.611,1.024-.916,.332,.3,.677,.612,1.022,.924,.246-.246,.478-.478,.713-.713,1.079-.531,2.203-.032,3.147-.279q1.089,1,2.868,1.026c.293,.237,.659,.534,1.101,.891,.293-.245,.628-.526,1.028-.86h2.92c.3,.278,.656,.607,1.01,.935,.445-.294,.469-.751,.519-1.243,.024-.235,.387-.648,.508-.619,.345,.084,.497,.429,.444,.763-.058,.368-.001,.667,.266,.876,.092,.072,.229,.089,.345,.131,.232-.232,.465-.465,.749-.749,1.224-.303,2.529-.032,3.866-.134,.726-.134,.991-1.339,2.376-.845,.35,.517,.904,1.333,1.444,2.128,.674-.629,1.029-.96,1.368-1.276,.504,.019,.994-.083,1.352,.399,.157,.212,.446,.326,.672,.482q.879-.849,1.81,.047c.332-.282,.669-.569,1.059-.901h3.851c.368-.342,.721-.671,1.077-1.002,.823,.364,.076,1.6,1.038,1.896,.232-.232,.451-.481,.7-.693,.411-.35,.918-.332,1.323-.089,1.68,1.007,1.683,1.047,2.787-.086h3.973c.575,.247,.912,1.303,1.956,.923,.335-.309,.688-.636,1.03-.952,.356,.328,.712,.655,1.046,.962,.518-.006,.999,.06,1.356-.411,.156-.205,.445-.31,.67-.458,.247,.247,.48,.48,.782,.782,.398,.026,.873,.102,1.342,.075,.534-.03,.896,.191,1.265,.541,.387,.368,.419,.334,1.347,.466,.67-.636,1.37-1.298,2.085-1.976,.484,.709,1.142,1.047,2.013,1.094,.244,.013,.442,.465,.704,.657,.563,.413,.905,.342,1.678-.271q.531-.422,1.045,.049c.121,.111,.233,.232,.394,.393h4.902c.19-.156,.438-.354,.679-.56,.757-.65,1.597-.496,1.856,.357,.09,.295,.094,.616,.184,.911,.074,.243,1.087,.478,1.32,.291,.375-.301,.711-.649,1.082-.995h4.857l.739-.739c.116-.02,.289-.1,.34-.051,.594,.567,1.17,1.153,1.751,1.734,.317,.029,.634,.057,.951,.085,.655,.397,1.047,1.02,1.617,1.462-.427,.427-.659,.659-.947,.947v1.833c-1.179,1.581-2.807,2.67-3.91,4.229,.153,.152,.265,.365,.385,.369,.982,.033,1.966,.046,2.949,.029,1.102-.019,1.098-.02,1.508,1.251,.161,.5,.453,.743,1.041,.749,.702,.007,.905,.252,.926,.815,.019,.492,.004,.986,.004,1.625Z"/>
</svg>
