<?xml version="1.0" encoding="UTF-8"?>
<svg preserveAspectRatio="none" id="a" data-name="AW" xmlns="http://www.w3.org/2000/svg" width="500" height="47.755" viewBox="0 0 500 47.755">
  <path id="b" data-name="24" d="M497.708,24.826h-2.466c-.335-.309-.654-.603-.989-.912h-3.498c-.327-.306-.646-.603-.976-.911h-7.002c-.364-.321-.687-.606-1.032-.911h-9.651c-.447-.452-.789-.881-1.487-.854-1.472,.056-2.949,.017-4.423,.017-1.769,0-3.539,.003-5.309-.006-.127,0-.254-.093-.381-.143-.208-.209-.417-.417-.736-.736h-1.614c-3.687,0-7.373-.02-11.059,.017-.709,.007-1.006-.474-1.461-.873h-14.099c-.333-.308-.651-.604-.983-.911h-15.004c-.327-.305-.645-.602-.975-.91h-17.619c-.367-.322-.689-.606-1.035-.911h-19.383c-.447-.454-.793-.855-1.487-.852-7.078,.027-14.156,.019-21.235,.01-.422,0-.847-.075-1.263-.156-.107-.021-.27-.213-.254-.296,.024-.12,.172-.271,.296-.305,.269-.075,.556-.117,.836-.117,23.446-.005,46.893-.001,70.339-.02,.707,0,1.009,.466,1.464,.87h53.028c.333,.306,.653,.6,.989,.91h15.012c.314-.293,.633-.589,.965-.899h2.61c.437-.437,.854-.854,1.289-1.289v-2.853c-.204-.166-.624-.389-.867-.735-.401-.57-1.1-.228-1.526-.615-.218-.198-.419-.415-.656-.653h-4.371c-.333-.309-.652-.604-.983-.911h-4.386c-.328-.306-.646-.603-.977-.911h-5.23c-.368-.323-.691-.606-1.038-.911h-7.031c-.394-.485-.764-.863-1.452-.85-2.211,.042-4.424-.014-6.635,.033-.693,.015-1.046-.386-1.542-.902-2.691,0-5.48-.025-8.267,.017-.712,.011-1.002-.483-1.458-.876h-8.794c-.331-.309-.65-.606-.978-.913h-8.814c-.33-.307-.649-.603-.981-.911h-13.204c-.471-.39-.76-.879-1.472-.874-4.866,.033-9.732,.017-14.599,.017h-5.156c-.316-.317-.525-.525-.802-.802-.351-.024-.773-.078-1.196-.079-3.539-.007-7.078-.004-10.617-.004-2.654,0-5.309-.026-7.963,.017-.695,.011-1.041-.397-1.536-.902H218.347c-.737,0-1.479,.049-2.211-.014-.714-.061-1.008,.47-1.462,.87h-84.883c-.332,.306-.651,.599-.987,.908h-54.82c-.325,.302-.643,.599-.975,.909h-23.817c-.358,.319-.68,.605-1.023,.911h-14.106c-.412,.46-.76,.901-1.456,.855-.881-.059-1.769-.036-2.653-.009-1.013,.031-2.036-.143-3.032,.13-.215,.215-.424,.424-.632,.632-.131,.039-.262,.111-.394,.112-1.622,.008-3.244,.005-5.017,.005-.85,.841-1.779,1.76-2.704,2.676h-4.379c-.364,.321-.686,.606-1.032,.911h-3.386c-.514,.479-.944,.879-1.356,1.262v.912c-.219,.219-.431,.424-.635,.637-.254,.266-.386,1.076-.156,1.171,1.005,.413,.478,1.652,1.238,2.163h1.156c.422,.54,.961,1.231,1.424,1.823h1.91c.445,.463,.798,.949,1.491,.835,.784-.129,1.431,.102,1.927,.882,.831,0,1.703-.029,2.571,.024,.178,.011,.502,.363,.473,.493-.072,.319-.383,.396-.703,.375-.441-.028-.884-.007-1.351-.007-.305,.285-.623,.582-.951,.887h-7.925c-.331,.307-.65,.603-.983,.912H3.343c-.903,.813-1.667,1.501-2.405,2.165v.921c-.122,.122-.231,.223-.33,.332-.737,.803-.842,1.052-.102,1.789,.564,.561,.243,1.391,.892,1.875,.585,.436,1.056,1.025,1.577,1.546,.938,.938,1.877,1.877,2.831,2.831h.838c.338,.311,.658,.606,.99,.912h.829c.345,.313,.665,.604,1.004,.912h1.748c.403,.732,1.106,.858,1.815,.976,.465,.675,1.122,.878,1.898,.753,.703-.113,1.023,.424,1.475,.849h1.699c.34,.307,.66,.598,1.007,.912h2.595c.333,.307,.653,.602,.989,.911h4.354c.352,.316,.673,.605,1.014,.911h4.346q.912,.846,1.482,.845c1.032-.005,2.065-.029,3.096,.006,1.161,.039,2.331-.147,3.453,.098,.239,.239,.448,.448,.659,.659,.556,.227,1.142,.113,1.715,.115,3.392,.012,6.784,.027,10.175-.011,.705-.008,1.018,.449,1.47,.866h243.256c.333,.297,.655,.584,1.012,.902h51.247c.331,.308,.65,.605,.975,.907h59.244c.335,.309,.654,.603,.987,.911h25.6c.455,.403,.755,.88,1.463,.872,3.391-.038,6.783-.017,10.175-.017,.147,0,.297-.015,.442,.004,.134,.018,.264,.071,.396,.109,.208,.209,.417,.417,.691,.691,.354,.024,.777,.076,1.201,.076,3.539,.007,7.078,.024,10.617-.013,.696-.007,1.036,.408,1.484,.855h26.521c.163-.13,.434-.27,.596-.491,.323-.442,.769-.323,1.421-.361,.168-.204,.392-.621,.738-.865,.568-.4,.241-1.095,.616-1.526,.193-.222,.414-.419,.655-.66v-1.781c-.244-.265-.538-.585-.847-.921v-.88c-.414-.398-.838-.806-1.324-1.274h-4.408c-.246,.219-.567,.507-.922,.824h-28.272c-.301-.278-.621-.573-.951-.876h-14.11c-.341-.311-.661-.604-.997-.911h-18.52c-.447-.417-.757-.948-1.465-.861-.436,.054-.884,.01-1.326,.01-16.811,0-33.621,.004-50.432-.008-1.163,0-2.334,.131-3.466-.086-.233-.233-.441-.441-.791-.791h-2.897c-15.926,0-31.852-.005-47.778,.016-.696,0-1.035-.41-1.529-.901H58.629c-1.18,0-2.362-.044-3.538,.016-.713,.037-1.007-.473-1.462-.872h-12.329c-.333-.309-.652-.604-.983-.911h-7.04c-.328-.306-.646-.603-.976-.911h-4.345c-.367-.323-.69-.606-1.038-.911h-4.375c-.464-.729-1.11-.961-1.895-.832-.692,.114-1.046-.371-1.491-.835h-1.683c-.349-.305-.672-.587-1.043-.912h-1.686c-.331-.309-.649-.606-.977-.912-.279,0-.573,0-.868,0-.417-.418-.834-.835-1.249-1.25,.162-.469,.527-.524,.963-.524,12.534,.006,25.069,.004,37.603,.01,.28,0,.561,.066,.847,.102,.394,.412,.747,.831,1.441,.795,1.177-.06,2.359-.017,3.538-.017,4.276,0,8.553,.017,12.829-.017,.693-.005,1.043,.393,1.538,.902h2.077c5.604,0,11.207,.013,16.81-.017,.712-.004,.999,.489,1.455,.877h27.377c.33,.308,.648,.605,.975,.909h99.067l.973,.908h16.732c.367,.323,.69,.607,1.032,.907h134.413c.449,.443,.786,.858,1.482,.856,9.88-.024,19.76-.02,29.64-.01,.865,0,1.743-.131,2.59,.129,.214,.215,.423,.423,.718,.718,.486,.009,1.06,.03,1.635,.03,5.751,.002,11.502,.001,17.253,.001,17.695,0,35.391-.004,53.086,.016,.704,0,1.017-.451,1.469-.866h13.207c.337-.307,.656-.599,.998-.911h4.352c.749-.749,1.478-1.477,2.25-2.25v-2.678c-.686-.637-1.439-1.336-2.292-2.128ZM187.999,5.447c1.016-.058,2.034-.115,3.052-.115,32.296-.005,64.592-.004,96.888-.004,.443,0,.89-.044,1.326,.01,.713,.089,1.006-.469,1.461-.867h79.639c.271,.251,.59,.547,.922,.854h18.543c.327,.306,.645,.603,.976,.911h14.113c.232,.232,.44,.44,.649,.649,.118,.071,.231,.19,.355,.203,.292,.03,.589,.01,.884,.01,3.392,0,6.784-.001,10.175,.004,.134,0,.267,.062,.401,.096,.209,.208,.417,.417,.666,.666,1.105,.283,2.276,.064,3.434,.11,1.031,.041,2.065-.023,3.096,.017,1.159,.044,2.329-.166,3.439,.107,.246,.246,.455,.455,.769,.769,2.828,0,5.764-.009,8.698,.022,.174,.002,.351,.318,.501,.509,.011,.014-.189,.282-.298,.287-.876,.042-1.755,.063-2.632,.064-9.438,.004-18.876,.002-28.343,.002-.303-.282-.621-.579-.949-.885h-142.427c-.325-.303-.643-.6-.974-.909h-21.192c-.232-.232-.441-.441-.649-.649-.118-.071-.232-.189-.356-.202-.292-.03-.589-.01-.884-.01-14.599,0-29.199,0-43.799-.004-.134,0-.267-.062-.408-.097-.396-.405-.747-.793-1.437-.806-1.896-.035-3.801,.228-5.686-.141-.105-.021-.266-.217-.248-.298,.027-.121,.184-.298,.293-.304ZM39.467,15.062c-.318-.298-.636-.595-.984-.92-3.214,0-6.452,.003-9.69-.013-.105,0-.276-.183-.298-.302-.042-.229,.148-.507,.459-.518,1.178-.041,2.358-.016,3.537-.016h41.46c.491-.452,.805-.902,1.508-.901,15.624,.021,31.248,.016,46.872,.016h3.842c.496-.515,.847-.921,1.541-.902,1.915,.05,3.832,.018,5.748,.018,4.274,0,8.549-.002,12.824,.004,.423,0,.845,.054,1.197,.078,.276,.276,.485,.485,.803,.803h2.498c8.549,0,17.098-.001,25.647,.004,.42,0,.874-.125,1.243,.192,.088,.075,.203,.231,.176,.302-.047,.126-.187,.298-.297,.305-.726,.049-1.454,.078-2.182,.078-8.107,.005-16.214,.003-24.364,.003-.296,.268-.617,.558-.965,.872H84.633l-.961,.897H39.467Zm431.007,13.161c-.869,.07-1.74,.105-2.721,.157-.239,.21-.562,.495-.927,.817h-30.941c-.282-.263-.6-.56-.927-.865h-29.161c-.332-.307-.651-.603-.984-.911h-22.947c-.455-.4-.753-.875-1.462-.872-6.489,.028-12.977,.017-19.466,.016-.723,0-1.445,0-2.056,0-.319-.319-.527-.527-.742-.742-.845-.272-1.722-.134-2.586-.135-12.83-.01-25.659-.013-38.489,.009-.694,.001-1.039-.401-1.486-.853h-86.632c-.345-.303-.667-.587-1.035-.91h-19.387c-.33-.308-.649-.605-.971-.906h-23.858c-.331,.307-.65,.603-.921,.855h-38.937c-.455-.397-.751-.874-1.46-.873-11.208,.023-22.415,.016-33.623,.016h-2.944c-.316-.317-.525-.525-.752-.752-.681-.277-1.415-.123-2.131-.124-6.046-.015-12.092-.004-18.138-.028-.21,0-.615-.347-.59-.444,.08-.306,.381-.422,.678-.422,1.18,.002,2.359,0,3.539,0h26.16c.29-.255,.613-.539,.98-.862h61.86c.33-.308,.648-.605,.973-.908h108.802c.327,.305,.645,.602,.976,.911h30.03c.456,.391,.746,.878,1.457,.875,8.111-.026,16.221-.016,24.332-.016h2.517c.496,.514,.846,.937,1.541,.902,1.177-.061,2.359-.017,3.538-.017,6.931,0,13.862-.003,20.793,.006,.569,0,1.157-.127,1.676,.121,.238,.238,.446,.446,.758,.758h6.048c4.866,0,9.733,.015,14.599-.017,.712-.005,1,.487,1.456,.876h16.759c.331,.309,.649,.606,.976,.911h15.007c.329,.306,.647,.602,.979,.911h14.986c.455,.395,.749,.881,1.459,.874,3.967-.035,7.934-.017,11.792-.017,.316,.316,.525,.525,.733,.733,.126,.051,.251,.135,.38,.145,.293,.022,.589,.007,.884,.007,2.802,0,5.604-.003,8.406,.004,.424,.001,.871-.106,1.257,.162,.105,.073,.255,.226,.235,.303-.032,.123-.183,.296-.295,.305Z"/>
</svg>
