<?xml version="1.0" encoding="UTF-8"?>
<svg preserveAspectRatio="none" id="a" data-name="AW" xmlns="http://www.w3.org/2000/svg" width="500" height="30.847" viewBox="0 0 500 30.847">
  <path id="b" data-name="4" d="M500,27.262v3.068c-.138,.138-.241,.328-.384,.366-.315,.084-.65,.125-.977,.126-5.314,.007-10.629-.014-15.943,.025-.828,.006-1.161-.568-1.692-1.02h-4.053c-.385-.359-.754-.704-1.135-1.059h-5.102c-.383-.356-.754-.7-1.139-1.059h-12.28c-.53-.459-.869-1.03-1.696-1.017-3.24,.049-6.481,.02-9.596,.02-.366-.366-.609-.609-.851-.851-.988-.333-2.009-.113-3.133-.185-.305-.251-.685-.564-1.133-.932-.314,.267-.665,.566-1.073,.913h-4.019c-.384,.359-.754,.704-1.134,1.059h-7.157c-.385,.357-.756,.701-1.071,.992h-10.298c-.518-.518-1.003-1.003-1.499-1.499v-1.021c.332-.36,.675-.733,1.018-1.105-.056-1.191-.21-1.428-.871-1.495-.382-.038-.684,.011-.926,.26-.238,.246-.484,.486-.75,.753h-5.095c-.384,.359-.754,.704-1.135,1.059h-4.061c-.38,.341-.738,.662-1.069,.959-.388-.323-.737-.613-1.079-.898-.312,.312-.554,.554-.815,.816-.798,.304-1.65,.099-2.485,.14-.687,.033-.687,.017-1.729,.984h-2.069c-.569-.365-1.018-1.246-2.039-.994-.095,.023-.272-.18-.371-.309-.094-.122-.187-.284-.19-.43-.018-.857-.009-1.714-.009-2.694,.249-.308,.559-.69,.889-1.099-.145-.176-.283-.504-.499-.567-.298-.087-.814-.103-.958,.076-.571,.705-1.37,.811-2.127,1.119-.567,.231-.918,.862-1.71,.886-.395,.012-.744,.618-1.166,.867-.412,.243-.995-.044-1.386,.376-.233,.251-.483,.487-.742,.746h-.979c-.391,.36-.763,.703-1.15,1.06h-1.987c-.404,.365-.776,.703-1.171,1.06h-1.976c-.287,.287-.53,.53-.772,.772-.142,.071-.284,.201-.427,.203-1.2,.016-2.4,.018-3.6,.005-.495-.005-.989-.055-1.181-.066-.731-.607-1.253-1.042-1.661-1.381v-3.135c.375-.468,.686-.858,.998-1.247-.281-1.014,.963-1.36,.99-2.147,.028-.8,.495-1.197,.944-1.685,.095-.103,.079-.305,.125-.458,.129-.432-.279-1.19-.653-1.192-1.359-.004-2.718-.002-3.978-.002-.339,.339-.581,.581-.824,.824-1.116,.444-2.321,.037-3.326,.24-.366,.366-.608,.608-.851,.851-.998,.268-2.018,.092-3.118,.148-.322,.275-.7,.597-1.152,.983h-1.931c-.392,.358-.764,.697-1.161,1.06h-2.002c-.383,.353-.755,.696-1.149,1.059h-2.992c-.415,.37-.789,.704-1.073,.957h-3.063c-.569-.546-1.063-1.019-1.53-1.466v-2.091c.613-.613,1.219-1.219,1.839-1.839,.411-.601,.137-1.296,.21-1.951,.063-.564,.6-.78,.848-1.195,.155-.26,.219-.65,.155-.944-.057-.261-.348-.471-.536-.703-.243,.243-.486,.485-.728,.728-1.098,.615-2.328-.025-3.45,.362-.242,.243-.443,.595-.735,.707-.754,.287-1.636,.3-2.111,1.112-.861,.064-1.609,.347-2.12,1.091-.936-.083-1.587,.388-2.095,1.093h-1.033c-.381,.355-.751,.701-1.102,1.029-.367,.021-.702,.04-1.037,.059-.606,.606-1.212,1.212-1.818,1.819-.318,.061-.661,.064-.948,.192-.955,.424-1.504,1.329-2.265,1.99-.332,.019-.667,.038-1.035,.06-.352,.328-.722,.673-1.102,1.029h-1.007c-.608,.608-1.214,1.214-1.82,1.821-1.138,.434-2.293,.277-3.303,.129-.599-.532-1.108-.985-1.544-1.372v-4.144c.366-.438,.747-.789,.995-1.216,.303-.524-.265-1.318-.943-1.39-.169-.018-.342-.003-.534-.003-.723,.688-1.456,1.386-2.157,2.053-.389,.029-.722,.053-1.055,.078-.121,.121-.242,.243-.364,.364-.485,.485-.919,1.043-1.473,1.429-.37,.257-.91,.268-1.374,.389-.437,.886-1.49,.618-2.104,1.111-.661,.53-1.197,1.216-1.744,1.788h-2.123c-.535,.403-.819,1.136-1.664,1.027-.6-.077-.829,.494-1.207,.801-.242,.197-.446,.067-.741-.277-.201-.234-.508-.412-.803-.524-1.273-.484-1.282-.47-1.252-1.63,.018-.678,.003-1.356,.003-1.905,.4-.493,.961-.872,.976-1.271,.029-.776,.426-1.21,.88-1.72,.346-.388,.297-.927,.017-1.374-.344-.549-.903-.294-1.386-.311-.97,.97-1.939,1.939-2.909,2.909-1.547,.025-2.226,1.328-3.225,2.194h-.99c-.386,.355-.758,.698-1.111,1.023h-1.015c-.503-.503-.988-.988-1.499-1.499v-2.059c.661-.694,1.359-1.427,2.032-2.134,0-.222,.008-.393-.001-.564-.04-.788,.998-.978,.995-1.631-.004-.789,.463-1.188,.874-1.718,.381-.491,.058-1.339,.749-1.739,.415-.241,.475-.475,.214-.73-.249-.243-.543-.304-.926-.264-.344,.036-.633,.149-.831,.482-.406,.684-1.184,.455-1.74,.709-.987,.987-1.957,1.957-2.931,2.931h-1.062c-.582,.592-1.187,1.199-1.779,1.816-.395,.412-.965,.107-1.538,.506-.462,.462-1.068,1.068-1.692,1.692-.605,.135-1.28,.081-1.754,.699-.413,.539-.954,.982-1.437,1.466h-1.031c-.606,.606-1.212,1.212-1.818,1.819-.139,.079-.276,.226-.416,.228-1.354,.017-2.709,.01-3.938,.01-.245-.245-.47-.365-.472-.488-.025-1.367-.016-2.735-.016-4.132,.316-.343,.659-.715,1.019-1.106v-2.998c.344-.395,.653-.75,.959-1.101l-.772-.772c-.168-.242-.063-.487,.318-.727,.388-.245,.48-.482,.287-.729-.226-.29-.524-.386-.909-.295-.159,.037-.424-.005-.469,.08-.537,1.01-1.824,.715-2.494,1.451-.683,.75-1.979,.422-2.488,1.45-1.575-.025-2.204,1.356-3.228,2.173h-1.003q-1.006,.946-2.128,1.099c-.364,.364-.718,.737-1.094,1.088-.359,.336-.65,.947-1.167,.86-1.029-.172-1.286,1.103-2.149,1.041-.841-.06-1.144,.604-1.678,1.029h-2.228c-.344-.384-.803-.888-1.252-1.4-.228-.26-.181-1.05,.113-1.388,.225-.258,.481-.488,.756-.762v-1.999c.359-.386,.704-.756,1.061-1.14,0-.663,.018-1.349-.016-2.033-.006-.127-.207-.321-.348-.353-1.172-.273-2.338-.462-3.146,.772-.874,.038-1.663,.242-2.018,1.105h-1.103c-.388,.358-.76,.701-1.149,1.06h-.97c-.534,.419-.832,1.11-1.674,1.026-.761-.076-.96,.998-1.629,.984-.799-.017-1.167,.517-1.71,.888-.508,.347-1.328,.075-1.743,.751-.087,.142-.238,.245-.4,.408h-1.982c-.392,.358-.764,.697-1.174,1.07-.976,0-2.002,.012-3.027-.015-.127-.003-.272-.197-.366-.331-.089-.126-.171-.29-.172-.438-.011-1.886-.012-3.771,0-5.657,0-.146,.118-.29,.182-.436,.242-.242,.485-.485,.839-.839,0-.559,.044-1.233-.017-1.898-.033-.365-.512-.657-.568-.556-.559,1-1.836,.687-2.516,1.435-.672,.738-1.968,.434-2.48,1.457-.897-.006-1.649,.27-2.019,1.098h-1.194c-.563,.582-1.16,1.195-1.753,1.811-.391,.407-.951,.157-1.407,.377-.956,.956-1.926,1.926-2.898,2.898-.985-.185-1.551,.452-2.118,1.091h-1.034c-1.325,1.335-2.653,2.672-3.963,3.991-1.127,.218-1.338,.293-2.18,1.126h-4.238c-.341-.409-.777-.932-1.382-1.657-.195-.705-.014-1.725-.072-2.82,.288-.324,.845-.664,.901-1.072,.121-.889,.41-1.594,1.142-2.088-.031-.507,.233-1.071-.323-1.412-.448-.274-1.11-.373-1.354,.028-.681,1.122-2.327,.545-2.918,1.78-.069,.145-.635,.052-.997,.07-.355,.332-.725,.677-1.106,1.032h-1.032c-.505,.715-1.168,1.164-2.096,1.096-.513,1.023-1.808,.721-2.479,1.458-.682,.749-1.978,.423-2.488,1.451-.853,.079-1.676,.216-2.016,1.112h-1.099c-.39,.362-.761,.706-1.142,1.06h-2.005c-.395,.362-.767,.702-1.071,.98h-5.158c-.525-.525-1.01-1.01-1.499-1.499v-2.043c.347-.371,.692-.741,1.051-1.125v-1.968c.374-.425,.705-.8,1.002-1.138,0-.752,.006-1.438-.001-2.124-.015-1.313-.027-1.348-1.493-1.381-.733,.695-1.467,1.392-2.162,2.051-.399,.035-.73,.064-1.061,.094-.951,.625-1.265,2.149-2.788,1.97-.952,.448-1.404,1.452-2.441,2.044h-.802c-.387,.357-.76,.7-1.15,1.06h-.979l-1.97,1.97c-.518,.028-1.177,.063-1.797,.096-1.292-.637-1.951-1.862-2.904-2.563q0-6.827-.494-7.731c-.37,.336-.739,.672-1.131,1.029h-.968c-.506,.506-1.053,.944-1.459,1.488-.472,.633-1.196,.452-1.755,.697-.987,.987-1.957,1.957-2.932,2.932h-1.074c-.572,.587-1.17,1.199-1.767,1.813-.392,.403-.952,.153-1.407,.378-.592,.592-1.198,1.198-1.867,1.867h-5.27c-.441-.44-1.036-1.033-1.628-1.628-1.256-1.26-1.253-1.427,.101-2.897v-1.97c.357-.395,.694-.768,1.075-1.19,0-.62,.017-1.302-.015-1.982-.006-.13-.189-.28-.325-.367-.086-.055-.32-.052-.345-.003-.593,1.18-2.18,.644-2.905,1.783-.629,.988-1.702,1.683-2.482,2.59-.504,.587-1.158,.545-1.757,.694-.624,.624-1.23,1.23-1.836,1.836-1.09,.195-1.276,.26-2.144,1.115h-2.145c-.736-.795-1.548-1.672-2.471-2.669v-1.912c.284-.308,.625-.68,.985-1.071v-1.002c-.479-.601-1.121-.768-1.721-.304-.673,.52-1.228,1.193-1.854,1.819h-.978c-.751,.714-1.485,1.411-2.181,2.072-.398,.034-.729,.062-1.061,.09-.606,.606-1.212,1.213-1.836,1.836-.571,.218-1.326,.034-1.741,.708-.318,.516-.846,.465-1.435,.455-.442-.42-.93-.884-1.404-1.335-.309-1.173-.307-2.323-.007-3.473,.243-.242,.485-.485,.788-.788v-1.948c.354-.405,.683-.78,1.089-1.244,0-.916,.049-1.94-.025-2.955-.028-.381-.512-.603-.621-.432-.512,.807-1.474,.674-2.121,1.108-.699,.468-1.233,1.181-1.839,1.787l-2.065,2.065-1.297,.132c-1.608,1.612-3.298,3.306-5.02,5.031l-.95,.045c-1.697,1.697-3.394,3.394-5.094,5.094h-2.069c-.832-.844-1.674-1.698-2.547-2.584v-4.073c.327-.354,.67-.726,.998-1.082v-4.095c-.257-.428-.5-.51-.742-.268-1.322,1.321-2.644,2.643-3.895,3.894-1.68-.22-2.007,1.296-2.992,1.95-.821,.038-1.629,.205-1.971,1.059-.446,.023-.781,.039-1.14,.058-.721,.686-1.454,1.384-2.121,2.02h-1.929c-.992-.921-1.867-1.734-2.664-2.475v-3.109c.369-.448,.749-.8,.99-1.229,.301-.535-.269-1.315-.953-1.379-.17-.016-.343-.002-.525-.002-.728,.692-1.462,1.39-2.165,2.059-.559,.001-1.092-.078-1.415,.445-.414,.671-1.157,.522-1.74,.709-.624,.624-1.23,1.23-1.86,1.86-.863-.011-1.627,.24-2.001,1.084h-1.091c-.391,.36-.763,.703-1.15,1.06h-.959c-.403,.365-.776,.702-1.17,1.06h-1.992c-.703,1.004-1.608,1.298-2.762,.889-1.223-.505-1.875-1.741-2.774-2.394v-2.213c.542-.517,1.108-.932,.968-1.735-.161-.921,.191-1.612,.89-2.218,.184-.159,.186-.651,.109-.948-.061-.234-.371-.403-.584-.616-.532,.731-1.204,1.162-2.004,1.004-1.085,1.085-2.055,2.055-3.034,3.034h-1.1c-.191,.212-.403,.482-.65,.715-.488,.461-.996,.902-1.496,1.352-1.015-.283-1.402,1.026-2.141,.972-1.149-.083-1.516,1.419-2.664,1.085-.758,.669-1.515,1.339-2.324,2.053h-2.979c-.381,.355-.75,.701-1.108,1.035-.36-.019-.809,.097-1.012-.077-.907-.777-1.744-1.637-2.526-2.389v-2.303c.575-.2,1.215-.332,1.755-.639,.431-.245,.763-.684,1.099-1.072,.432-.499,1.173-.808,1.222-1.539,.037-.552,.178-.99,.607-1.295,.397-.282,.469-.482,.176-.739-.257-.225-.552-.29-.933-.245-.338,.04-.591,.193-.831,.491-.639,.795-1.97,.429-2.479,1.458-.669,.052-1.337,.104-2.134,.166-.611,.248-.955,1.365-2.038,.97-.364,.34-.734,.685-1.115,1.041h-1.033c-.506,.709-1.163,1.171-2.096,1.094-.513,1.022-1.809,.723-2.478,1.459-.683,.75-1.979,.422-2.488,1.45-.848,.089-1.679,.21-2.005,1.086-.451,.021-.787,.036-1.14,.052-.361,.336-.732,.681-1.096,1.02H1.536c-.492-.492-.977-.977-1.536-1.536,0-.43-.001-.935,0-1.439q.003-.878,1.224-1.135c.155-.033,.305-.091,.457-.137,.606-.606,1.212-1.212,1.843-1.843,.855-.003,1.632-.23,2-1.086h1.087c.393-.362,.766-.705,1.15-1.06h1.027c.5-.737,1.188-1.136,2.099-1.102,.636-1.065,1.67-.955,2.695-.969,.275-.004,.638-.253,.8-.497,.522-.781,1.623-.26,2.158-1.065,.372-.56,.948-.984,1.448-1.484h3.042c.388-.358,.76-.701,1.149-1.06h.933c.429-.364,.801-.941,1.199-.959,.767-.035,1.211-.401,1.731-.855,.549-.48,1.307-.109,1.951-.246,.295-.063,.639-.266,.8-.511,.443-.677,1.257-.311,1.773-.717,.382-.301,.609-.877,1.206-.802,.845,.107,1.131-.621,1.666-1.027h1.108c.417-.446,.983-.885,1.327-1.457,.515-.855,1.654-.306,2.139-1.079,.421-.672,1.18-.468,1.743-.707,.623-.624,1.23-1.23,1.874-1.874h3.101c.303,.285,.653,.651,1.042,.971,.432,.355,.565,.796,.528,1.33-.023,.341-.004,.685-.004,1.028-.066,.144-.098,.322-.203,.427-2.297,2.31-4.602,4.611-6.906,6.916,.197,.202,.364,.517,.598,.579,.296,.078,.756,.07,.953-.111,1.01-.926,1.935-1.945,2.948-2.867,.193-.176,.649-.061,1.017-.083,.715-.68,1.448-1.378,2.156-2.052,.378-.025,.939,.062,1.01-.086,.593-1.233,2.25-.641,2.916-1.782,.225-.385,1.07-.284,1.357-.002,.733,.721,1.457,1.453,2.184,2.18,.377,.98,.126,2.002,.201,3.003-.426,.96-1.326,1.505-1.981,2.265-.098,1.151-.103,1.151-1.098,2.127v.996c-.344,.376-.675,.738-1.011,1.105,.548,.581,1.141,.69,1.773,.212,.271-.205,.489-.479,.752-.742h.97c.394-.363,.766-.707,1.149-1.06h.956c.417-.36,.785-.945,1.181-.964,.762-.038,1.211-.393,1.743-.835,.334-.278,.986-.158,1.349-.419,.536-.386,.941-.808,1.703-.912,.838-.115,1.273-1.044,1.884-1.615,.497-.465,.93-.997,1.33-1.432h1.116c.404-.366,.777-.703,1.072-.969h2.075c.288,.288,.496,.591,.783,.755,.266,.153,.634,.118,.927,.24,.292,.121,.547,.333,.818,.506,0,1.886,.02,3.772-.017,5.657-.008,.395,.009,.706,.384,.87,.224,.098,.439-.12,.731-.413,2.534-2.557,5.085-5.098,7.639-7.652h1.003c1.135-1.028,2.105-2.217,3.204-3.099,1.149,.039,2.218-.231,2.901,.883,.108,.177,.648,.041,.935,.169,.273,.122,.676,.398,.679,.61,.044,3.074,.03,6.15,.03,9.12-.354,.464-1,.698-.852,1.184,.193,.631,.879,.301,1.488,.435,2.366-2.385,4.774-4.812,7.198-7.255,.304-.019,.639-.039,.973-.06,.97-.97,1.939-1.94,2.895-2.895,.455-.229,1.015,.021,1.407-.378,.6-.611,1.2-1.221,1.785-1.814h1.086c.506-.712,1.166-1.114,2.095-1.131,.247-.005,.47-.467,.732-.687,.354-.297,1.121-.332,1.387-.101,.515,.446,1.022,.9,1.394,1.228,.05,.732-.102,1.253,.416,1.63,.258,.187,.423,.502,.577,.693v2.027c-.295,.295-.538,.538-.78,.78q-.284,2.922,.335,3.78,.996-.938,2.12-1.091c.97-.97,1.94-1.939,2.959-2.959h1.968c.397-.356,.771-.691,1.182-1.06h2.106c.391,.438,.845,.946,1.48,1.656,0,1.097-.003,2.451,.002,3.805,.001,.384,.516,.695,1.149,.689,.16-.001,.319-.054,.479-.082,.606-.606,1.212-1.212,1.818-1.818,1.547-.025,2.226-1.328,3.227-2.196h.985c.388-.358,.76-.701,1.133-1.045,1.063,.385,1.431-.681,2.045-.98h1.852c1.053,.943,1.942,1.738,2.709,2.425v6.304q-1.248,1.35-.502,2.52c.73-.691,1.459-1.383,2.139-2.027,.415-.043,.857,.046,1.053-.133,1.011-.925,1.936-1.944,2.948-2.867,.194-.177,.645-.072,1.036-.101,.7-.667,1.433-1.365,2.155-2.052,.357-.018,.693-.034,1.029-.051,.606-.606,1.212-1.212,1.824-1.823,.458-.118,.95-.18,1.378-.379,.292-.136,.494-.464,.801-.771h4.077c.629,.59,1.693,.949,1.659,2.201-.015,.558,.543,.806,.898,1.23,.278,1.291,.039,2.652,.116,4.001,.024,.415,.484,.73,1.111,.732,.164,0,.327-.035,.491-.054,.97-.97,1.939-1.94,2.926-2.927,.609-.126,1.328-.045,1.739-.71,.333-.537,.875-.402,1.4-.424,.716-.681,1.449-1.379,2.157-2.053,.378-.025,.868,.085,1.018-.092,.58-.685,1.285-1.006,2.147-1.068,.476-.811,1.34-.87,2.12-1.091,.64-1.169,1.758-.779,3.002-.856,.648,.78,1.408,1.695,2.445,2.944,.155,.679-.072,1.872,.036,3.048,.075,.826-.527,1.18-1.042,1.749,0,1.618-.028,3.323,.022,5.025,.011,.369,.502,.625,.603,.474,.524-.784,1.451-.708,2.12-1.114,.563-.342,.963-.814,1.734-.846,.398-.016,.773-.586,1.217-.954h.913c.391-.362,.763-.706,1.145-1.06h1.032c.501-.73,1.182-1.145,2.098-1.1,.512-1.024,1.807-.716,2.481-1.456,.679-.746,1.975-.426,2.485-1.453,.866-.053,1.668-.233,2.017-1.108h3.155c.391-.36,.763-.703,1.121-1.032h1.999c.425,.362,.76,.815,1.203,.98,.441,.164,1.013-.031,1.404,.598,0,1.596-.001,3.302,.001,5.008,0,.35,.875,.768,1.241,.605,.144-.064,.341-.06,.444-.16,.62-.592,1.219-1.205,1.825-1.812,.331-.03,.666-.036,.99-.1,.146-.029,.283-.158,.4-.267,.251-.233,.488-.482,.744-.738h.99c.746-.711,1.479-1.41,2.164-2.063,.413-.04,.842,.048,1.053-.128,.657-.545,1.201-1.226,1.854-1.775,.213-.179,.629-.116,.959-.165,.931-.468,1.409-1.443,2.395-2.047h.85c.381-.354,.752-.698,1.141-1.06h.975c.143-.143,.266-.262,.385-.386,.352-.367,.722-.58,1.281-.657,.936-.13,1.494-1.324,2.668-1.005,.781,.212,1.222-.393,1.677-.885,.006,.003,2.096,.897,2.374,1.016,.249,.31,.674,.84,1.321,1.648,.213,.954-.077,2.319,.06,3.662,.096,.938-.257,1.585-.919,2.213-.321,.304,.03,.978-.386,1.369-.249,.235-.486,.483-.725,.723,.271,.499,.722,.611,1.235,.549,.152-.018,.377-.07,.43-.175,.593-1.184,2.33-.549,2.873-1.844h2.017c.386-.359,.756-.704,1.139-1.06h1.031c.515-.69,1.15-1.193,2.096-1.089,.515-.736,1.249-1.046,2.12-1.091,.48-.804,1.347-.842,2.112-1.113,.292-.103,.493-.462,.794-.764h4.233c.452,.452,1.047,1.045,1.641,1.64,1.249,1.252,1.245,1.419-.114,2.892v1.978l-1.039,1.141c.457,.619,1.219,.822,1.66,.293,.613-.736,1.522-.598,2.148-1.075,.675-.514,1.198-1.225,1.867-1.766,.202-.163,.655-.025,1.018-.025,.504-.72,1.173-1.157,2.097-1.098,.513-1.023,1.808-.719,2.48-1.458,.681-.748,1.977-.424,2.487-1.451,.858-.069,1.673-.222,2.024-1.131,1.804,0,3.513-.007,5.222,.014,.128,.002,.254,.201,.468,.383,.031,.41,.117,.902,.095,1.389-.062,1.348,.186,2.708-.117,3.985-.359,.435-.938,.682-.885,1.245,.079,.831-.553,1.169-1.047,1.751,0,.586-.06,1.27,.023,1.936,.047,.383,.37,.526,.636,.47,.606-.606,1.18-1.251,1.837-1.796,.211-.175,.641-.086,1.118-.132,.993-.991,2.067-2.064,3.062-3.059,.471-.044,.962,.053,1.104-.127,.565-.717,1.386-.791,2.126-1.118,.568-.251,.922-.978,1.716-.827,.761-.663,1.522-1.325,2.349-2.045h.902c.257-.246,.499-.485,.749-.714,.496-.455,.997-.904,1.495-1.356,1.161,.367,1.539-1.277,2.662-1.04,.132,.028,.303-.083,.444-.153,.378-.189,.479-.922,1.084-.624,.291,.143,.493,.468,.77,.744,.355-.317,.713-.636,1.103-.984,.449,.479,.913,.975,1.461,1.561v2.985c-.155,.192-.322,.506-.58,.694-.518,.377-.453,.913-.37,1.382,.07,.396,.522,.586,.637,.396,.501-.828,1.486-.651,2.122-1.104,.689-.49,1.231-1.186,1.841-1.796h2.034c.381-.356,.751-.701,1.076-1.005h2.065l1.482,1.482c-.322,.364-.645,.727-.952,1.074,.314,.358,.627,.714,.937,1.067-.491,.52-1.051,.89-1,1.711,.052,.841-.048,.835-.844,2.214-.152,.263-.205,.657-.137,.952,.059,.252,.357,.449,.549,.67,.971-.971,1.94-1.941,2.896-2.896,.455-.226,1.015,.023,1.407-.378,.598-.612,1.199-1.222,1.78-1.813h1.091c.505-.714,1.167-1.165,2.096-1.096,.723-1.306,2.068-.818,3.141-1.083,.25-.25,.492-.492,.779-.779,1.292-.293,2.654-.034,4.006-.128,1.049,.596,1.731,1.597,2.614,2.383,.136,.602-.488,.715-.804,1.292-.009,.463-.037,1.132-.028,1.799,.005,.409,.501,.703,1.136,.699,.161,0,.321-.049,.481-.076,.606-.606,1.212-1.212,1.818-1.818,.464-.121,.928-.242,1.392-.364,.565-1.207,2.331-.534,2.854-1.836h2.016c.391-.361,.764-.704,1.15-1.06h.895c.83-.721,1.568-1.413,2.367-2.026,.227-.174,.668-.045,.941-.189,.29-.153,.495-.465,.774-.743,1.305-.27,2.667-.034,4.12-.126,.313-.265,.691-.585,1.151-.974h2.186c.615,.752,1.37,1.677,2.433,2.977,0,1.473-.021,3.515,.028,5.556,.006,.232,.391,.634,.623,.65,1.012,.072,2.031,.031,2.948,.031,.573-.549,.97-1.008,1.761-1.085,.571-.055,1.057-.73,1.648-.94,.457-.162,1.056,.086,1.52-.066,.445-.145,.798-.571,1.295-.954h2.919c.392-.358,.764-.697,1.162-1.06h10.303c.794,.824,1.625,1.686,2.516,2.61v1.987c-.31,.332-.655,.702-1.01,1.082v2.009c-.359,.39-.701,.761-1.02,1.108-.057,1.108-.122,1.596,1.472,1.438,.375-.037,.722-.618,1.115-.978h2.008c.38-.354,.75-.699,1.111-1.035,.354-.016,.69-.032,.965-.045,.424-.349,.801-.916,1.199-.932,.773-.031,1.198-.44,1.731-.861,.345-.272,1.111-.119,1.333-.419,.754-1.022,1.764-.843,2.752-.805,.726-.377,1.149-1.331,2.161-1.054,.378-.335,.757-.67,1.158-1.025h.97c.381-.356,.751-.701,1.076-1.005h2.083c.439,1.193,1.859,.666,2.51,1.503v4.098c-.317,.35-.651,.718-.988,1.091,.52,.573,1.114,.69,1.754,.235,.276-.196,.491-.477,.764-.75h4.059c.385-.359,.755-.705,1.135-1.059h4.076c.38-.355,.75-.7,1.136-1.059h3.022c.53-.456,.865-1.055,1.696-1.018,1.524,.068,3.053,.019,4.134,.019,1.211,1.033,2.117,1.805,2.885,2.46,.016,.754,.039,1.251-.448,1.607-.428,.313-.705,.756-.556,1.297,.081,.294,.328,.771,.509,.775,2.396,.052,4.793,.035,7.171,.035,.38-.355,.75-.7,1.135-1.059h8.167c.53-.455,.865-1.047,1.694-1.018,1.868,.063,3.739,.02,5.485,.02,.364,.364,.606,.606,.849,.849,1.464,.476,3.015-.119,4.478,.363,.242,.242,.485,.485,.846,.846,3.807,0,7.734,.025,11.661-.02,.828-.009,1.162,.567,1.693,1.019h12.282c.384,.359,.754,.704,1.134,1.058h7.163c.381,.355,.751,.7,1.07,.997h3.089c.53-.457,.867-1.04,1.696-1.018,2.211,.059,4.424,.02,6.511,.02,.366,.366,.573,.673,.861,.831,.27,.148,.648,.087,.938,.212,.284,.121,.518,.361,.756,.535Z"/>
</svg>
