<?xml version="1.0" encoding="UTF-8"?>
<svg preserveAspectRatio="none" id="a" data-name="AW" xmlns="http://www.w3.org/2000/svg" width="500" height="35.057" viewBox="0 0 500 35.057">
  <path id="b" data-name="13" d="M499.659,20.58c-.725,.794-.732,1.073-.109,1.848,.093,.116,.233,.199,.311,.322,.126,.199,.008,.422-.312,.631-.281,.185-.398,.426-.426,.723-.135,1.437-1.162,1.868-2.376,2.08-.529,.529-1.058,1.058-1.6,1.6-.699,.064-1.515,.004-1.413,1.118,.012,.129-.043,.283-.113,.397-.076,.124-.205,.216-.32,.331h-.871c-.335,.309-.66,.608-.983,.906-.427,.031-.883-.107-1.212,.347-.163,.225-.437,.371-.605,.507h-2.667l-.68-.68c-.126-.058-.252-.165-.378-.165-2.244-.01-4.489-.01-6.733-.001-.13,0-.259,.09-.389,.139-.529,.529-1.058,1.058-1.589,1.589-.854-.15-1.358,.387-1.851,.955h-.888c-.323-.301-.646-.603-.933-.871h-2.684c-.325,.202-.481,.449-.434,.752,.052,.335-.001,.605-.239,.8-.107,.088-.261,.233-.353,.207-1.014-.286-1.332,1.078-2.328,.931-1.012-.15-2.062,.129-3.067-.166-.22-.22-.431-.431-.697-.697h-2.72c-.23,.2-.558,.486-.936,.816h-1.766c-.278-.26-.601-.561-.933-.871-2.677,0-5.37,0-8.063,0-.644-.552-1.104-1.311-1.903-1.688-.531,.531-1.06,1.06-1.639,1.639h-7.213c-.519-.215-.822-1.185-1.789-.832l-.94,.877h-11.639c-.34-.313-.664-.612-.934-.861h-2.7c-.461,.412-.767,.906-1.487,.89-.773-.018-1.475-.046-1.899-.764-.162-.06-.292-.15-.422-.151-1.646-.01-3.292-.006-5.027-.006-.279-.232-.61-.509-.992-.827-.279,.241-.588,.508-.937,.809h-1.747c-.306-.281-.631-.581-.966-.889h-.847c-.347-.317-.672-.613-1.015-.925h-12.501c-.459-.424-.777-.894-1.493-.879-2.227,.048-4.455,.018-6.542,.018-1.318-1.22-1.388-1.218-2.667-.041h-8.093c-.256-.231-.581-.524-.935-.844h-1.759c-.31,.286-.635,.585-.944,.871h-2.651l-.961-.84c-.454,.434-.784,.888-1.495,.879-.784-.01-1.465-.084-1.893-.787-.163-.052-.295-.13-.428-.131-1.347-.009-2.693-.005-4.04-.005-.668-.208-.944-1.234-1.941-.872-.274,.25-.599,.546-.945,.862h-1.77c-.602-.582-1.215-1.176-1.78-1.722-.437,.322-.775,.783-1.133,.798-1.773,.076-3.552,.035-5.179,.035-.357-.358-.569-.569-.792-.792-.711-.216-1.457-.027-2.183-.115-.722-.087-1.026,.465-1.486,.875h-1.802c-.272-.251-.595-.55-.934-.862h-.865c-.324,.302-.647,.604-.959,.895-.45-.023-.9,.087-1.228-.358-.165-.223-.44-.364-.729-.592h-7.033c-.453-.462-.803-.947-1.511-.858-.442,.056-.902,.056-1.344,0-.705-.089-1.064,.382-1.566,.908-2.132,0-4.362-.03-6.591,.017-.723,.016-1.017-.49-1.479-.889h-4.434c-.336-.314-.659-.615-.99-.924h-.864c-.333,.31-.656,.611-.993,.925h-2.637c-.462,.401-.759,.9-1.481,.887-2.528-.045-5.058-.017-7.541-.017-.506,.807-1.169,.922-1.962,.924-.704,.002-1.055-.416-1.508-.875h-1.824c-.24,.211-.567,.5-.936,.827h-2.657c-.291-.269-.613-.566-.925-.855-.323,.298-.647,.596-.917,.844h-14.33c-.367-.305-.671-.558-.97-.807-.272,.272-.484,.484-.7,.7-.556,.264-1.153,.132-1.731,.133-6.434,.01-12.868,.018-19.302-.009-.703-.003-1.057,.405-1.477,.869h-1.843c-.248-.222-.575-.513-.91-.813-.303,.277-.621,.567-.928,.848h-.866c-.348-.317-.673-.613-1.016-.925h-12.499c-.878-.831-.774-.647-1.662-.144-.878,.497-2.022,.169-3.051,.174-4.189,.017-8.379-.011-12.569,.024-.712,.006-1.039-.441-1.497-.875h-3.607c-.256,.232-.582,.526-.935,.845h-3.556c-.311-.286-.636-.586-.975-.899h-6.211l-.962-.839c-.454,.436-.783,.903-1.497,.87-1.327-.06-2.658-.017-3.844-.017-.349,.349-.561,.561-.801,.801-1.144,.226-2.332,.03-3.505,.1-.673-.212-.949-1.236-1.946-.874-.274,.251-.599,.547-.944,.863h-7.136c-.333,.309-.656,.609-.956,.887h-1.789c-.548-.548-1.072-1.082-1.608-1.604-.252-.245-.967-.26-1.211-.023-.537,.521-1.06,1.056-1.62,1.615h-1.806c-.272-.252-.596-.551-.934-.863h-3.558c-.325,.303-.648,.605-.933,.871h-1.801c-.235-.235-.447-.447-.658-.659-.21-.216-.478-.234-.809-.225-1.033,.027-2.066,.01-3.006,.01-.502,.515-.854,.947-1.561,.919-.77-.03-1.498-.013-1.849-.866h-3.754c-.508,.196-.803,1.181-1.781,.825-.287-.268-.61-.57-.943-.879h-2.989c-.469-.469-1.094-1.094-1.739-1.739h-1.592c-.267,.267-.479,.479-.691,.69-.129,.051-.257,.144-.386,.145-1.197,.011-2.396,.052-3.59-.01-.71-.037-1.021,.454-1.479,.798-.199,.149-.557,.085-.965,.131-.867-.866-1.789-1.787-2.706-2.704-.492,.444-.8,.973-1.521,.911-.487-.042-.705,.463-1.039,.741-.124,.045-.253,.133-.383,.134-1.347,.01-2.693,.006-4.04,.006-.801-.424-1.306-1.178-1.982-1.779h-1.785c-.621,.589-1.262,1.198-1.834,1.741h-5.411l-.783-.783c-1.189-.126-2.492-.116-3.747,.003-.156,.156-.255,.271-.369,.366-.665,.558-1.053,.67-1.518,.253-.451-.404-.843-.715-1.511-.746-.346-.016-.67-.522-1.042-.838h-4.437c-.312,.287-.637,.586-.945,.871h-5.348c-.357-.321-.683-.614-.935-.841h-1.813c-.254,.254-.465,.465-.726,.726-1.108,.313-2.297,.047-3.469,.126-1.027,.069-2.066-.13-3.078,.136-.218,.218-.43,.43-.672,.672-1.442,.253-2.93-.034-4.42,.146-.348-.298-.677-.579-1.043-.892-.288,.257-.6,.534-.935,.832h-1.762c-.315-.294-.638-.595-.934-.87h-1.761c-.365,.324-.692,.614-.936,.831h-4.51c-.259-.259-.47-.47-.69-.69-.85-.31-1.741-.106-2.616-.153-.126-.007-.279,.064-.383,.145-.337,.263-.542,.719-1.04,.741-.448,.019-.898,.004-1.414,.004-.29-.251-.619-.535-1.003-.868h-6.254c-.273,.253-.597,.553-.934,.865h-.865c-.326-.304-.649-.606-.985-.919h-1.71c-.357-.303-.664-.563-.97-.824-.454,.467-.813,.875-1.512,.89-.355,.008-.701,.457-1.186,.803h-2.605c-.233-.204-.561-.491-.936-.82h-2.664c-.281,.263-.604,.564-.933,.871h-10.758c-.531-.531-1.06-1.06-1.589-1.589-.121-.068-.238-.183-.365-.196-.296-.029-.598-.009-.897-.009-1.781,0-3.562,0-5.228,0-.324,.324-.535,.535-.747,.747-.129,.05-.258,.144-.386,.144-3.442,.008-6.883,.006-10.359,.006-.641-.326-1.103-.879-1.525-1.474,.132-.679-.328-1.05-.7-1.515-.239-.299-.13-.872-.365-1.178-.451-.589-1.035-1.075-1.597-1.637v-3.653c.859-.861,1.794-1.798,2.643-2.648,.051-.441-.022-.824,.135-.996,.808-.882,1.675-1.709,2.549-2.583v-2.625c.67-.555,.956-1.607,2.085-1.443,.336-.273,.645-.592,1.015-.807,.359-.209,.869,.046,1.209-.329,.201-.221,.421-.425,.645-.648h4.48c.312,.288,.637,.587,.979,.902h5.294c.38,.319,.706,.82,1.053,.835,.671,.029,1.073,.333,1.512,.75,.174,.165,.531,.157,.809,.185,.124,.012,.341-.049,.378-.135,.473-1.107,2.061-.438,2.51-1.616h1.829c.267,.245,.591,.542,.935,.857h.869c.316-.295,.638-.597,.931-.871h2.657c.351,.302,.66,.566,.986,.847,.443-1.232,2.087-.485,2.537-1.731,.328,.275,.633,.531,.996,.835h6.187c.338,.314,.662,.613,.997,.925h1.762c.328-.306,.65-.607,.958-.894,.32-.018,.612-.035,.905-.051,.529-.529,1.058-1.058,1.587-1.587,.128-.053,.255-.15,.383-.152,.879-.014,1.758-.007,2.469-.007l.844,.844c.302-.256,.609-.516,.967-.82h2.607c.336-.313,.659-.615,.991-.925h8.939c.336-.311,.659-.611,.934-.866h2.659c.363,.304,.669,.56,.969,.811,.268-.268,.48-.48,.695-.695,.857-.343,1.758,.025,2.628-.182,.661-.187,1.008-1.153,1.864-.838,.387,.142,.683,.532,1.074,.855h1.742c.292-.274,.615-.575,.931-.871h1.767c.343,.315,.668,.612,1.009,.925h1.733c.563,.563,1.092,1.092,1.627,1.627,.861,.257,1.751,.095,2.63,.129,.365,.014,.578-.33,.647-.957,.016-.143,.031-.287,.046-.43,.423-.423,.847-.846,1.285-1.285h3.58c.305,.276,.626,.567,.964,.873,.436-.652,1.047-.939,1.832-.996,.226-.016,.402-.425,.642-.598,.513-.371,.861-.3,1.527,.259,.114,.096,.213,.21,.319,.316,.132,.044,.263,.124,.395,.125,1.347,.009,2.693,.006,4.04,.006,.673-.199,.944-1.233,1.946-.87l.946,.858h.841c.332,.3,.651,.589,.988,.894,.431-.667,1.057-.966,1.835-.97,1.032-1.222,2.369-.779,3.646-.669,.455,1.113,2.049,.444,2.503,1.636,.643-.602,1.272-1.191,1.875-1.756h4.479c.232,.233,.444,.444,.656,.656,.208,.221,.474,.246,.807,.231,.733-.032,1.469-.01,2.186-.01,.423-.826,1.177-.876,1.868-1.048,.552-1.022,1.527-.697,2.446-.751,.295,.256,.624,.541,1.005,.872h2.601c.338,.314,.661,.614,.996,.925h.864c.329-.307,.652-.608,.933-.871h8.125c.422,.698,1.085,.924,1.838,.978,.543,.997,1.496,.77,2.371,.792,.864-.342,1.214-1.269,2.215-1.771h2.473c.284,.265,.607,.566,.933,.871h1.762c.337-.312,.66-.611,.934-.865h4.494c.461,.408,.765,.892,1.484,.885,3.591-.038,7.182-.018,10.773-.012,.134,0,.267,.072,.401,.11,.529,.529,1.03,1.091,1.603,1.568,.184,.154,.557,.082,1.095,.141,.449-.575,.996-1.276,1.417-1.816h4.733c.345,.315,.669,.612,.94,.861,.749,.172,1.192-.186,1.55-.662,.147-.077,.269-.196,.393-.197,1.181-.014,2.362-.008,3.251-.008,.608,.415,.937,.798,1.32,.861,.46,.076,.787,.24,1.145,.519,.827,.644,1.035,.612,1.839-.136,.11-.102,.212-.211,.333-.332h8.934c.341-.314,.666-.613,.978-.9h1.761c.352,.319,.678,.613,1.022,.925h1.748c.45,1.185,2.051,.502,2.512,1.622,.009,.021,.229,0,.3-.06,.226-.195,.429-.417,.678-.666h1.728c.343-.312,.668-.608,1.018-.925h8.048c.314,.289,.639,.588,.965,.889,.927-.337,1.243,.606,1.774,.852h1.814c.456-.445,.794-.886,1.502-.879,.787,.007,1.462,.097,1.892,.794,.164,.049,.297,.124,.43,.125,11.222,.005,22.444,.005,33.666,.005,.662-.22,.943-1.235,1.935-.874,.278,.256,.602,.554,.943,.867h1.765c.32-.298,.643-.6,.933-.871h1.797l.755,.755c1.191,.361,2.508-.065,3.681,.159,.539-.544,.888-.957,1.593-.953,5.536,.031,11.072,.015,16.609,.023,.278,0,.557,.094,.835,.145,.211,.212,.423,.424,.746,.746,.921,0,1.956-.047,2.984,.016,.724,.045,1.02-.483,1.482-.885h10.777c.276,.257,.6,.558,.933,.868h2.66c.33-.308,.653-.609,.989-.923h16.968c.359-.303,.665-.562,.972-.821,.454,.473,.812,.892,1.516,.865,1.494-.057,2.992-.017,4.589-.017,.267-.232,.557-.579,.926-.778,.375-.202,.833-.239,1.204,.097,.221,.201,.425,.421,.66,.657h3.596c.284-.264,.606-.563,.924-.859,.452,.327,.686,.99,1.427,.888,.531-.073,.731,.42,1.056,.692,.219,.183,.391,.085,.643-.228,.555-.689,1.679-.4,2.183-1.262,.152-.26,.904-.141,1.191,.121,.221,.202,.425,.421,.656,.652h2.687c.299-.277,.622-.578,.937-.871h.869c.345,.316,.67,.612,.935,.854h7.193c.459-.421,.773-.916,1.492-.879,1.194,.061,2.393,.013,3.59,.022,.133,.001,.265,.078,.397,.12,.212,.212,.423,.423,.65,.65,.7,.254,1.443,.084,2.172,.117,.597,.027,1.202,.055,1.794-.007,.715-.075,1.044,.43,1.497,.866,.308-.268,.618-.539,.961-.839h3.548c.309,.285,.633,.584,.944,.871h4.454c.353-.319,.678-.613,.935-.845h6.3c.569,.569,1.098,1.098,1.627,1.627,1.017,.169,2.055,.417,2.771-.732h5.415c.262,.238,.587,.534,.935,.851h1.764c.314-.289,.639-.588,.946-.871h1.753c.361,.323,.687,.614,.936,.836h2.712c.256-.256,.446-.498,.685-.672,.38-.278,.856-.301,1.196-.02,.453,.374,.808,.87,1.497,.737,.825-.159,1.386,.238,1.922,.813,.146,.156,.559,.064,.881,.088,.308-.283,.632-.582,.972-.895h7.14c.332-.31,.655-.611,.991-.925h11.627c.551-.551,1.08-1.08,1.609-1.61,.277-.055,.553-.154,.83-.157,1.795-.014,3.591-.01,5.387,0,.129,0,.257,.095,.386,.146,.212,.212,.423,.423,.69,.69h5.287c.355,.309,.683,.594,1.063,.925h2.664l.933-.869h2.682c.418,.42,.888,.807,1.252,1.276,.566,.729,1.739,.355,2.178,1.261,.427,.052,.855,.144,1.282,.148,1.646,.018,3.292,.004,4.938,.014,.128,0,.255,.101,.382,.155,.212,.212,.423,.423,.685,.685h5.528c.467,.598,1.014,1.299,1.444,1.85h4.753c.427,.427,.851,.85,1.274,1.274q.155,1.215,1.132,1.417c.136,.028,.267,.077,.47,.136l3.462,3.462h.848c.22,.22,.41,.462,.648,.638,.562,.416,1.382,.228,1.874,.938,.412,.594,1.073,1.015,1.485,1.388v1.99c-.13,.13-.241,.232-.341,.343Z"/>
</svg>
