<?xml version="1.0" encoding="UTF-8"?>
<svg preserveAspectRatio="none" id="a" data-name="AW" xmlns="http://www.w3.org/2000/svg" width="500" height="10.75" viewBox="0 0 500 31.75">
  <path id="b" data-name="6" d="M499.113,18.6c-.026-.729-.36-1.17-.843-1.597-.237-.21-.463-.433-.71-.664h-7.636c-.381-.343-.73-.658-1.099-.991h-22.993c-.43-.364-.784-.664-1.089-.922-2.495,0-4.903,.002-7.311-.006-.141,0-.282-.088-.423-.135-.227-.227-.454-.454-.687-.687-.927-.26-1.883-.078-2.825-.138-1.096-.07-2.213,.194-3.276-.183-.24-.241-.468-.468-.737-.737h-5.704c-.37-.334-.719-.65-1.097-.992h-5.713l-1.075-.992h-7.636c-.381-.343-.73-.658-1.1-.992h-7.63l-.737-.737c-1.064-.373-2.18-.137-3.277-.175-1.123-.038-2.248,.013-3.371-.015-1.105-.027-2.218,.143-3.307-.131-.233-.233-.46-.46-.718-.718-1.226-.253-2.5-.06-3.765-.101-1.123-.036-2.25,.033-3.371-.018-1.257-.058-2.532,.215-3.715-.132-.283-.283-.511-.511-.779-.779h-12.449c-.369-.334-.718-.649-1.096-.992h-14.384c-.362-.334-.711-.656-1.074-.99h-16.309c-.379-.342-.728-.658-1.096-.991h-23.96c-.428-.363-.782-.664-1.087-.923-9.236,0-18.387,0-27.539-.006-.142,0-.284-.085-.426-.13-.227-.227-.454-.454-.681-.681-.14-.049-.277-.119-.422-.141-.157-.025-.32-.006-.481-.006h-36.124c-.16,0-.326,.024-.48-.007-.142-.029-.271-.118-.405-.181-.227-.227-.454-.454-.776-.776-26.223,0-52.541,0-78.858,.01-.128,0-.256,.146-.385,.224-.227,.227-.454,.454-.705,.705h-41.433l-1.007-.94h-25.013c-.357-.333-.703-.656-1.004-.937h-35.616c-.402,.352-.753,.661-1.128,.99H36.037c-.28,.28-.507,.507-.741,.741-.585,.324-1.229,.16-1.846,.161-7.546,.012-15.092,.006-22.638,.015-.299,0-.598,.1-.897,.153-.707,.793-1.621,1.402-2.153,2.344,.154,.154,.253,.288,.384,.377,.348,.239,.463,.467,.287,.681-.096,.117-.235,.276-.358,.279-.956,.023-1.912,.013-2.816,.013-.506,.506-.96,.96-1.414,1.414-.01,.156-.019,.313-.031,.469-.052,.644-.289,1.041-.718,.993-1.409-.158-2.417,.406-3.094,1.511v2.593c.905,1.047,1.636,1.893,2.322,2.685h2.044c.45,.758,1.171,.982,1.973,1.051,.508,.715,1.2,.99,2.058,.844,.756-.129,1.133,.418,1.565,.857,1.385,.36,2.838-.201,4.142,.282,.287,.287,.514,.514,.765,.765h3.807c.36,.336,.706,.659,1.062,.992h6.701c.362,.335,.71,.656,1.072,.991h15.351c.495,.435,.817,1.039,1.593,.943,.474-.059,.962-.011,1.444-.011h101.962c.333,.333,.56,.56,.963,.963h37.801c1.284,0,2.57-.032,3.853,.009,1.263,.04,2.537-.171,3.751,.111,.264,.264,.491,.491,.719,.718,.143,.042,.287,.12,.43,.12,15.252,.005,30.505,.005,45.757,.005,.321,0,.644-.02,.962,.009,.137,.013,.265,.129,.396,.198,.227,.227,.454,.454,.719,.719h63.517c.364,.33,.713,.646,1.091,.988h37.504c.363,.334,.711,.655,1.073,.988h16.316c.376,.341,.725,.658,1.092,.992h13.365c.426,.362,.78,.664,1.086,.924,4.418,0,8.753-.001,13.088,.006,.142,0,.284,.085,.425,.13,.227,.227,.454,.454,.681,.681,.14,.049,.277,.118,.422,.141,.157,.025,.32,.006,.481,.006h24.565c.16,0,.326-.025,.48,.007,.141,.029,.27,.12,.405,.183,.227,.227,.454,.454,.773,.773h32.622c.321,0,.645-.023,.962,.011,.134,.015,.255,.151,.382,.232,.227,.227,.454,.454,.701,.701h13.68c.531-.575,1.152-1.309,1.839-1.974,.674-.652,1.212-1.467,2.101-1.86,1.459,0,2.904-.005,4.349,.008,.135,.001,.268,.119,.403,.183,.227,.227,.454,.454,.773,.773,3.106,0,6.305,.003,9.504-.01,.127,0,.253-.155,.379-.237,.227-.227,.454-.454,.698-.699h5.729c.367-.338,.716-.66,1.077-.992h1.715c1.261-1.2,2.42-2.301,3.513-3.341v-3.835c-.35-.435-.874-.791-.887-1.165Zm-431.369-2.263c-7.037,.021-14.074,.016-21.042,.016-.53-.451-.842-.985-1.615-.981-6.555,.031-13.11,.018-19.586,.018-.534-.474-.859-1.003-1.63-.982-2.065,.055-4.133,.019-6.088,.019-.337-.337-.563-.563-.834-.834-1.199-.309-2.473-.014-3.724-.15-.256-.028-.484-.312-.726-.477,.256-.155,.495-.376,.772-.449,.3-.078,.641-.056,.955-.01,.769,.113,1.102-.486,1.596-.934h5.782c.28,.252,.628,.566,1.009,.91h4.743c.355,.332,.701,.655,1.048,.979h9.591c.352,.329,.697,.653,1.029,.964h24.026c.354,.331,.699,.654,1.078,1.009,1.255,0,2.529-.009,3.804,.015,.115,.002,.305,.2,.323,.327,.037,.252-.178,.559-.511,.56Zm39.973-7.068c-.064,.135-.216,.321-.332,.325-.959,.026-1.919,.015-2.865,.015-.352,.33-.697,.653-1.026,.962h-16.321c-.356-.333-.701-.655-1.037-.969-5.78,0-11.536,.002-17.293-.014-.113,0-.274-.193-.329-.329-.092-.231,.08-.591,.422-.592,6.877-.028,13.754-.021,20.631-.021,5.918,0,11.835-.009,17.752,.023,.346,.002,.504,.374,.397,.602Zm105.59-1.611c-1.591,.054-3.185,.024-4.777,.024-1.274,0-2.549,.009-3.822-.015-.115-.002-.267-.192-.329-.327-.104-.226,.055-.593,.4-.598,2.866-.041,5.734-.027,8.6-.009,.113,0,.267,.192,.329,.328,.103,.226-.053,.586-.4,.598Zm211.113,6.725c-7.38,.016-14.759,.014-22.17,.014-.317-.292-.665-.613-1.014-.934h-84.739c-.353-.33-.7-.653-1.057-.987h-17.295c-.25-.25-.477-.477-.704-.704-.128-.079-.25-.211-.385-.225-.318-.033-.641-.011-.962-.011-7.223,0-14.446,0-21.669-.004-.147,0-.294-.061-.447-.094-.438-.431-.803-.886-1.562-.883-8.668,.028-17.335,.023-26.003,.01-.782-.001-1.579,.146-2.332-.122-.243-.243-.47-.47-.697-.697-.142-.046-.283-.128-.425-.131-.802-.013-1.605-.006-2.408-.006h-8.668c-.481,0-.969-.048-1.443,.011-.769,.096-1.114-.471-1.649-.975-4.396,0-8.879,.009-13.362-.018-.339-.002-.539-.328-.479-.572,.032-.133,.208-.323,.327-.329,.797-.039,1.596-.043,2.395-.043,7.544-.002,15.088-.001,22.633-.001,.348,.321,.697,.642,1.052,.97h25.964c.366,.337,.714,.657,1.068,.983h60.639l.706,.706c.129,.077,.252,.207,.387,.221,.317,.033,.641,.011,.962,.011,9.47,0,18.941,0,28.411,.004,.147,0,.294,.062,.441,.095,.227,.227,.454,.454,.681,.681,.135,.061,.265,.148,.407,.177,.155,.031,.32,.007,.48,.007h31.3c.161,0,.324-.019,.481,.005,.144,.023,.281,.092,.422,.141,.227,.227,.454,.454,.681,.681,.142,.046,.283,.13,.425,.131,5.297,.007,10.594,.006,15.977,.006,.304,.258,.658,.558,1.137,.963,4.018,0,8.18-.01,12.342,.018,.338,.002,.539,.328,.48,.572-.032,.133-.212,.33-.326,.33Z"/>
</svg>
