<?xml version="1.0" encoding="UTF-8"?>
<svg preserveAspectRatio="none" id="a" data-name="AW" xmlns="http://www.w3.org/2000/svg" width="500" height="36.118" viewBox="0 0 500 36.118">
  <path id="b" data-name="5" d="M500,15.539v5.042c-.287,.309-.623,.67-.97,1.045v1.966c-.347,.371-.684,.732-1.034,1.107v1.957c-.501,.501-.974,.974-1.463,1.463h-1.02c-1.258,1.309-2.53,2.633-3.692,3.842-.633,.165-1.188,.159-1.515,.429-.519,.428-.954,.783-1.699,.819-.387,.018-.748,.586-1.16,.939h-1.927c-.376,.347-.739,.681-1.122,1.034h-1.924c-.401,.359-.765,.686-1.047,.939h-3.033c-.51-.492-.88-1.054-1.678-.971-.662,.069-1.337,.014-2.201,.014-1.409-1.175-2.682-2.709-4.139-3.996h-4.001c-.257,.257-.486,.502-.732,.728-.317,.29-1.158,.425-1.335,.141-.661-1.063-1.68-.881-2.783-.889-.298,.239-.671,.54-1.139,.916-.687,.214-1.522-.002-2.334,.097-.806,.098-1.15-.513-1.664-.977h-2.94c-.38-.349-.743-.682-1.106-1.016-.349,.32-.709,.652-1.09,1.002h-1.912c-.41,.363-.775,.687-1.047,.929h-3.04c-.508-.507-.897-.983-1.682-.998-.398-.007-.787-.502-1.348-.894-.771-.24-1.773,.092-2.981-.194-.173-.149-.541-.467-.971-.839h-4.985c-.304,.28-.666,.615-1.026,.947-.349-.324-.709-.657-1.083-1.005h-10.991c-.26-.26-.497-.497-.801-.801-1.352-.502-2.866,.082-4.302-.286-.237-.237-.473-.473-.719-.719-.95-.343-1.946-.132-2.925-.172-.835-.034-1.672-.007-2.509-.007h-2.778c-.402-.402-.638-.638-.94-.94-.335,.28-.676,.565-1.084,.906h-1.895c-.379,.35-.741,.685-1.119,1.034h-.968c-.362-.338-.723-.675-1.098-1.025h-2.963c-.617-.617-1.208-1.208-1.804-1.804-.448-.116-.928-.176-1.345-.37-.285-.133-.482-.453-.78-.751-.336,.283-.678,.57-1.082,.911h-7.926c-.376,.35-.738,.685-1.112,1.033h-1.971c-.367-.342-.728-.679-1.072-1-.512-.023-1.012,.091-1.378-.403-.184-.249-.493-.405-.671-.545h-1.976c-.294,.294-.531,.531-.813,.812-1.255,.318-2.583,.046-3.896,.132-1.146,.075-2.308-.166-3.432,.166-.246,.246-.482,.482-.779,.779h-3.062c-.565-.214-.893-1.32-1.954-.934-.354-.33-.716-.667-1.087-1.014h-1.965c-.363,.331-.713,.65-1.06,.966-.508-.437-.834-1.022-1.645-.985-1.487,.066-2.979,.019-4.348,.019-.355-.355-.592-.592-.828-.828-4.49-.236-12.889-.237-17.419-.002-.237,.237-.473,.473-.77,.77h-6.052c-.257-.225-.624-.544-1.048-.913h-1.975c-.311,.289-.672,.626-1.025,.955-.352-.328-.713-.665-1.055-.984-.515-.02-1.013,.085-1.379-.406-.185-.248-.494-.403-.67-.54h-1.976c-.296,.296-.533,.533-.87,.87-2.014,.211-4.162-.064-6.175,.15-.338,.338-.575,.575-.868,.868-.338-.287-.681-.577-1.081-.916h-5.926c-.375-.35-.736-.687-1.104-1.031h-.966c-.373,.347-.734,.683-1.111,1.034h-1.985c-.523,.751-1.193,1.14-2.116,.975-.315-.056-.635-.084-.953-.125-.237-.237-.473-.473-.731-.731-.772-.315-1.604-.132-2.417-.141-2.509-.027-5.02-.048-7.526,.03-.388,.012-.723,.724-1.146,.814-.82,.174-1.573,.353-2.047,1.128h-3.06c-.317-.296-.678-.633-1.049-.979h-2.969c-.375-.348-.736-.684-1.08-1.002-.518,.014-.952,0-1.384,.401-1.021,.95-1.247,.906-2.405-.232-.311-.057-.622-.16-.934-.161-3.346-.012-6.691-.01-10.037,0-.142,0-.284,.114-.426,.175l-.766,.766h-3.244c-.414-.586-.99-1.401-1.55-2.193-.643,.594-1.005,.929-1.383,1.279h-1.9c-.43,.372-.798,.69-1.126,.973-1.058-.049-2.053,.107-3.03-.131-.237-.237-.473-.473-.71-.71-.144-.055-.288-.159-.433-.159-2.844-.01-5.688-.01-8.531,0-.142,0-.283,.116-.425,.178-.237,.237-.473,.473-.764,.764h-10.002c-1.099-.924-1.102-.916-2.053-.951-.349,.326-.71,.663-1.072,1.001h-5.032c-.494-.694-1.137-1.088-2.045-1.104-.241-.004-.474-.438-.712-.676-.301-.074-.604-.207-.909-.214-1.154-.026-2.31-.01-3.328-.01q-1.002,.972-1.962,.053h-2.029c-.271,.241-.637,.565-1.047,.928h-1.922c-.377,.351-.738,.688-1.109,1.034h-2.964c-.382,.351-.744,.684-1.045,.961h-4.95c-.473-.37-.843-.688-1.246-.956-.116-.077-.327-.012-.494-.012-4.349,0-8.699-.001-13.048,.005-.15,0-.299,.08-.449,.123-.237,.237-.473,.473-.71,.71-.312,.055-.623,.156-.935,.158-2.677,.013-5.354,.042-8.028-.031-.397-.011-.779-.53-1.304-.912h-3.924c-.27,.239-.636,.562-1.047,.926h-7.947c-.374,.349-.735,.686-1.096,1.023h-1.972c-.379-.35-.741-.684-1.12-1.034h-1.939c-.516-.458-.856-1.008-1.661-.989-2.341,.055-4.684,.017-7.025,.025-.15,0-.299,.08-.449,.122-1.34,1.237-1.412,1.237-2.836-.075h-2.027c-.271,.24-.637,.564-1.047,.928h-6.993c-.325-.303-.686-.64-1.045-.976h-5.989c-.38,.35-.742,.684-1.121,1.034h-2.942c-.515,.459-.854,1.037-1.662,.987-1.15-.071-2.308-.018-3.325-.018-.93-.903-.959-.937-1.54-.444-.275,.233-.49,.489-.825,.438-.814-.123-1.123,.564-1.617,.967-.323,.014-.651,.029-.996,.044l-1.066,.996h-6.996c-.383-.352-.745-.684-1.124-1.032h-16.996c-.515-.459-.854-1.055-1.662-.983-1.148,.103-2.313-.11-3.453,.138-1.344,1.241-1.416,1.24-2.783-.02-1.194,.839-1.184,.861-2.067,.9-.352,.328-.712,.666-1.065,.995h-.967c-.374-.333-.722-.644-1.069-.953l-1.808,1.808c-.145,.053-.291,.15-.437,.151-2.509,.009-5.018,.01-7.528-.002-.141,0-.281-.122-.421-.187-.237-.237-.473-.473-.759-.759h-2.921l-1.158-1.034h-6.983c-.338,.313-.701,.649-1.072,.993h-5.972c-.385,.353-.748,.685-1.045,.957h-1.972c-.438-.375-.806-.691-1.132-.97-1.038,.055-2.121-.287-2.75,.844-.022,.04-.261,.023-.336-.041-.254-.216-.48-.465-.765-.75h-2.799c-.838-.347-1.128-1.533-2.139-.981-.441-.406-.804-.741-1.179-1.086h-6.969c-.389-.354-.752-.685-1.135-1.034h-1.934c-1.815-1.815-3.589-3.589-5.38-5.38-.126-.593-.044-1.295-.692-1.697-.523-.324-.394-.853-.415-1.367-.32-.343-.657-.704-1.003-1.075v-.965c-.347-.372-.683-.734-1.022-1.097,.177-.766-.191-1.278-.735-1.671-.095-.165-.238-.3-.24-.436C-.005,10.07,.001,8.747,.001,7.705c.449-.633,.726-1.025,1.004-1.417-.268-1.098,1.346-1.468,1.004-2.595,.79-.844,1.556-1.713,2.39-2.511,.188-.18,.655-.034,.917-.177,.42-.229,.777-.574,1.26-.947h7.958l1.046,.954h3.958c.367,.335,.722,.66,1.061,.97,.375-.335,.74-.661,1.129-1.009h1.918c.286-.286,.522-.522,.866-.866,1.348-.142,2.805-.137,4.196,.002,.304,.304,.54,.54,.791,.79,.792,.252,1.626,.144,2.438,.101,.805-.043,1.152,.52,1.666,.988h6.954c.381,.349,.744,.68,1.13,1.033h1.975c.352-.327,.715-.662,1.071-.993,.485-.034,.994,.117,1.362-.39,.183-.252,.489-.414,.678-.567h13.02c.286,.286,.522,.522,.759,.759,1.425,.504,2.939-.075,4.37,.353l.834,.834c1.359,.029,2.85-.042,4.335,.03,.804,.039,1.152-.515,1.666-.984h3.022c.297,.272,.66,.604,1.024,.937,.349-.318,.71-.646,1.07-.975,.477-.032,.985,.116,1.353-.389,.183-.252,.489-.413,.677-.564h3.989c.509,.502,.887,1.013,1.682,.976,.854-.04,1.683,.016,2.039-.874,1.252-.279,2.413-.106,3.566-.151,.618-.024,.618-.008,1.661,.966h4.026c.301-.276,.663-.609,1.045-.961h1.974c.356,.332,.718,.669,1.094,1.019h5.974c.259,.259,.487,.505,.734,.73,.32,.291,1.029,.342,1.357,.148,1.56-.924,1.565-.868,2.135-.915,.774-.063,1.218,.372,1.591,.882,1.368,.297,2.699,.021,3.928,.169,.826-.286,1.144-1.412,2.249-1.01,.313,.289,.675,.623,1.054,.973h1.972c.36-.337,.722-.674,1.068-.997,.505-.028,1.01,.103,1.376-.398,.161-.22,.455-.344,.635-.473,.418,.303,.8,.817,1.199,.831,2.339,.078,4.683,.044,7.025,.031,.312-.002,.623-.104,.934-.161,.237-.237,.473-.474,.834-.835,1.696-.002,3.52,.004,5.343-.003q.61-.002,1.655,.973h2.017c.306-.283,.667-.618,1.044-.967h.959c.372-.347,.733-.684,1.051-.982h3.978c.397,.338,.741,.631,1.079,.919q.95-.913,1.893-.002h3.039c.257-.223,.623-.543,1.047-.912h1.975c.311,.289,.673,.626,1.045,.973h8.997c.37-.345,.731-.682,1.046-.976h7.035c.265,.265,.493,.51,.741,.734,.114,.102,.265,.163,.498,.3h2.815c.506,.521,.9,1.058,1.691,.958,.494-.063,1.009-.063,1.503,0,.789,.1,1.187-.431,1.696-.959l1.086,.919h2.975c.313-.292,.674-.629,1.045-.975h.966c.372-.347,.733-.683,1.043-.972,.819-.19,1.332,.177,1.734,.736,.323,.082,.624,.223,.928,.227,1.84,.021,3.68,.005,5.52,.016,.318,.002,.636,.074,.961,.115,.447,.466,.848,.927,1.635,.904,2.006-.059,4.014-.02,6.135-.02,.298,.259,.622,.645,1.035,.868,.42,.227,.93,.268,1.346-.105,.249-.223,.475-.471,.74-.735h4.968c.375-.35,.736-.687,1.104-1.031h2.969l1.061,.964c.508-.442,.84-1.006,1.648-.985,2.157,.057,4.317,.02,6.424,.02,.565,.898,1.304,1.033,2.192,1.034,.786,.001,1.181-.461,1.688-.978h2.052c.578,.235,.914,1.324,2,.928,.326-.304,.687-.641,1.051-.982h2.975c.376,.349,.738,.684,1.116,1.034h1.898c.406,.34,.748,.626,1.083,.908,.3-.3,.537-.537,.799-.799,1.742-.438,3.581,.169,5.31-.29,.274-.274,.511-.511,.802-.802h7.052c.269,.237,.634,.56,1.048,.925h1.975c.321-.3,.682-.637,1.046-.976h16.026c.376,.348,.737,.684,1.045,.969h6.034c.269-.269,.505-.505,.742-.743,1.11-.424,2.238-.27,3.366-.105,.237,.237,.473,.473,.716,.716,.769-.039,1.063-1.239,2.471-.648,.329,.42,.941,1.204,1.415,1.81h2.285c.38-.35,.742-.684,1.121-1.034h4.951c.515-.458,.853-1.055,1.661-.983,1.148,.103,2.313-.11,3.453,.138,.242,.241,.478,.478,.789,.789,.402,.027,.89,.127,1.361,.075,.795-.088,1.177,.46,1.685,.967h4.043c.272-.241,.637-.565,1.047-.928h4.985c.326,.304,.687,.641,1.045,.975h.97c.382-.351,.744-.684,1.045-.961h2.02c.628,.628,1.219,1.219,1.811,1.811,.145,.054,.29,.153,.435,.154,.978,.002,2.033,.207,2.66-.946h5.069c.276,.245,.641,.571,1.047,.933h7.994c.33-.308,.691-.646,1.046-.977h18.039c.38,.35,.742,.684,1.045,.963h2.973c.409-.341,.75-.625,1.084-.904l.784,.784c1.128,.312,2.289,.113,3.438,.149,.981,.031,1.963,.006,2.742,.006,.427,.427,.663,.663,.949,.949,.341-.293,.686-.59,1.078-.927h3.975c.329,.307,.689,.645,1.059,.99h.95c.373,.333,.722,.644,1.067,.952,.508-.461,.855-1.007,1.659-.98,1.82,.062,3.645,.019,5.329,.019,.371-.371,.608-.608,.845-.845,.145-.053,.29-.152,.436-.153,2.509-.009,5.018-.01,7.528,.001,.141,0,.281,.121,.422,.185,.237,.237,.473,.473,.76,.76h11.065c.275-.244,.64-.569,1.048-.932h1.971c.329,.308,.69,.645,1.043,.974h.967c.374-.333,.722-.644,1.068-.952,.508,.461,.854,1.058,1.66,.974,.662-.069,1.337-.014,2.152-.014,.279-.234,.617-.583,1.016-.834,.426-.267,.921-.28,1.346,.034,.266,.196,.479,.466,.764,.751h7.202c.517,.662,1.13,1.445,1.602,2.049h14.323c.385-.353,.748-.685,1.087-.995,.532,.003,1.017-.053,1.382,.422,.187,.243,.499,.391,.755,.581,.837,0,1.673,0,2.653,0,.287,.225,.662,.519,1.179,.923,.31,.02,.799,.118,1.271,.066,.798-.088,1.17,.475,1.68,.971h2.03c.28-.25,.644-.577,1.046-.937h4.931l1.099-1.012h.969c.389,.354,.752,.685,1.047,.954h14.068c.276-.276,.512-.512,.761-.761,.937-.394,1.935-.144,2.91-.196,.495-.026,.799,.32,.789,.982-.006,.384,.004,.712,.369,.85,.435,.165,.938,.176,1.344,.385,.413,.213,.605,.826,1.181,.78,1.278-.103,1.079,.896,1.238,1.61,.605,.605,1.197,1.197,1.791,1.791-.013,.874,.337,1.566,1.093,2.085Z"/>
</svg>
