<?xml version="1.0" encoding="UTF-8"?>
<svg preserveAspectRatio="none" id="a" data-name="AW" xmlns="http://www.w3.org/2000/svg" width="500" height="17.028" viewBox="0 0 500 17.028">
  <path id="b" data-name="3" d="M499.99,9.547c-.001-.121-.129-.242-.198-.362-.116-.08-.232-.231-.348-.231-5.963-.011-11.925-.01-17.763-.01-.437-.373-.766-.653-1.051-.896-1.42,0-2.764,.004-4.107-.005-.132,0-.264-.079-.396-.12-.211-.211-.422-.422-.77-.77-.886,0-1.916,.036-2.942-.01-1.17-.052-2.355,.193-3.46-.12-.261-.261-.472-.472-.766-.766-1.099,0-2.282-.007-3.465,.01-.118,.002-.235,.145-.352,.222-.211,.211-.422,.422-.633,.633-.32-.289-.64-.577-.973-.877h-3.519c-.34-.299-.65-.571-.934-.821-.371,.314-.7,.593-.984,.833-6.799,0-13.518,0-20.237-.005-.132,0-.263-.08-.395-.123-.211-.211-.422-.422-.633-.633-1.279-.369-2.628,.135-3.887-.303-.119-.119-.218-.231-.331-.329-.581-.499-1.06-.562-1.526-.161-.226,.194-.425,.419-.636,.631-.321-.29-.641-.579-.947-.856h-6.231c-.341,.299-.651,.571-.981,.86-.479-.722-1.106-1.008-1.915-.873-.28,.047-.56,.089-1.477,.234,.259-.01,.256,.701-.313,.474-.211-.211-.422-.422-.671-.671h-6.286c-.26,.236-.585,.531-.934,.848h-1.759c-.312-.288-.637-.587-.944-.87h-3.543c-.358,.321-.683,.613-.934,.838h-7.185c-.253-.253-.465-.464-.854-.854h-2.435c-.747,0-1.494,.019-2.24-.005-.877-.029-1.765,.125-2.625-.126l-.643-.643c-.662,.118-.948,1.129-1.888,.742-.267-.244-.59-.539-.936-.855h-.866c-.315,.29-.638,.589-.942,.87h-5.329c-.347-.3-.656-.567-.961-.831l-.819,.819c-1.445,.117-3.064-.079-4.587,.107-.277,.277-.488,.488-.76,.76-.298-.247-.602-.5-.968-.805h-1.758c-.269,.247-.592,.544-.932,.858h-8.034c-.318-.297-.641-.597-.977-.911h-2.643c-.126-.126-.228-.235-.338-.337-.794-.732-1.065-.764-1.836-.116-.352,.296-.672,.531-1.153,.477-.427-.048-.857-.062-1.215-.086l-.7-.7c-.133-.038-.267-.109-.401-.109-1.792-.007-3.584,.004-5.375-.014-.271-.003-.542-.125-.811-.191l-.661-.661c-.311,.28-.623,.561-.929,.837-.302-.275-.615-.559-.911-.828-.348,.306-.675,.594-1.025,.902h-5.285c-.261,.261-.472,.472-.716,.716-.521,.256-1.118,.13-1.692,.118-.726-.014-1.469,.158-2.157-.123-.23-.23-.441-.441-.706-.706-.301,.253-.606,.511-.966,.814h-4.447c-.277-.258-.599-.558-.932-.868h-12.509c-.331-.308-.653-.609-.97-.906-.894,.363-1.197-.605-1.802-.775-.352,.289-.684,.561-1.006,.824-1.52-.137-3.001,.093-4.376-.11-.299-.299-.51-.51-.732-.732-.206,.144-.468,.249-.611,.443-.326,.441-.773,.342-1.228,.361-.309-.289-.632-.59-.963-.899h-.855c-.326-.296-.639-.579-.961-.872-.45,1.172-2.031,.519-2.493,1.618-1.013,.204-2.04,.467-2.778-.703-.315,.269-.622,.532-.974,.833h-5.295c-.334,.312-.657,.613-.978,.913h-1.76c-.339-.312-.662-.611-.935-.863-.935-.383-1.227,.611-1.839,.744-.359-.289-.692-.558-.948-.764-.992-.072-1.882,.142-2.737-.18-.106-.106-.204-.219-.318-.316-.597-.508-1.049-.569-1.525-.181-.23,.188-.426,.418-.655,.648h-6.268c-.297-.276-.619-.577-.95-.885h-1.747c-.344-.315-.667-.611-.936-.857-.938-.385-1.226,.621-1.886,.745-.215-.215-.426-.426-.637-.637-1.014-.183-2.047-.446-2.772,.719-.316-.274-.625-.543-.97-.843h-6.226c-.307,.283-.631,.582-.944,.87h-.864c-.349-.317-.673-.612-.936-.851-.943-.389-1.225,.631-1.891,.736-.215-.215-.426-.426-.708-.708-.294,.24-.595,.487-.931,.761-1.54,.224-3.167-.11-4.62,.183l-.759,.759c-.317-.281-.633-.561-.935-.829-.311,.272-.621,.542-.903,.788-.375-.315-.705-.593-.98-.825-.966-.054-1.854,.113-2.721-.141-.211-.211-.422-.423-.633-.634-.281-.042-.563-.079-.843-.127-.813-.138-1.433,.166-1.9,.861h-5.425c-.262-.239-.586-.534-.933-.85h-6.219c-.335-.308-.659-.607-.965-.889h-.884c-.228,.228-.424,.457-.653,.646-.476,.392-.881,.332-1.529-.167-.19-.146-.411-.251-.613-.372-.229,.229-.44,.44-.713,.713l-.968-.803h-1.758c-.267,.245-.591,.542-.933,.856h-8.022c-.33,.308-.652,.609-.968,.903-.306-.014-.599-.027-.892-.04-.106-.106-.208-.215-.317-.316-.791-.731-1.059-.74-1.845-.13-.89,.691-1.052,.689-1.846,.02-.114-.096-.212-.21-.318-.315-.133-.038-.267-.11-.4-.11-1.493-.008-2.986-.005-4.479-.005-.149,0-.305-.026-.446,.008-.13,.031-.245,.126-.367,.193-.211,.211-.422,.422-.634,.634-.211-.17-.427-.334-.632-.51-.496-.424-1.052-.432-1.531-.016-.21,.182-.422,.362-.617,.529-.329-.29-.656-.578-1.007-.887h-1.352c-.758-.202-.821-.791-1.351-.691-.209,.209-.388,.484-.641,.613-.24,.122-.557,.106-.842,.123-.298,.018-.597,.004-.96,.004-.291-.254-.619-.539-.997-.869h-6.243c-.277,.258-.599,.558-.932,.868h-8.924c-.331,.309-.653,.609-.937,.875-.927,.377-1.23-.592-1.873-.772-1.213,1.118-1.272,1.118-2.595-.102-1.216,0-2.547,.042-3.875-.017-.724-.032-1.013,.493-1.475,.888h-2.688c-.281-.262-.603-.563-.933-.871h-16.99c-.331,.309-.653,.61-.933,.871h-16.135c-.131-.131-.232-.241-.343-.341-.803-.727-1.024-.73-1.846-.108q-.921,.697-1.846-.001c-.819-.62-1.044-.617-1.846,.11-.11,.1-.212,.21-.338,.336-.313-.285-.626-.571-.948-.865h-4.442c-.334,.31-.657,.61-.993,.923h-4.426q-.934,.875-1.474,.87c-1.03-.007-2.06-.002-2.97-.002-1.321-1.219-1.383-1.219-2.653-.049h-4.498c-.239-.211-.565-.499-.935-.825h-1.759c-.287,.266-.608,.564-.92,.853l-.915-.845h-5.386c-.242,.242-.445,.463-.669,.659-.074,.064-.262,.121-.304,.081q-.785-.739-1.64,.079h-5.29c-.348,.309-.674,.599-1.015,.902-.3-.274-.616-.563-.929-.85h-15.197c-.341,.314-.665,.611-1.004,.922h-8.897c-.46,.413-.765,.96-1.485,.873-.725-.088-1.47,.103-2.178-.116-.223-.223-.434-.434-.645-.645-.279-.048-.557-.135-.836-.137-1.792-.013-3.585-.047-5.374,.028-.357,.015-.694,.476-1.1,.774-.26-.224-.568-.49-.889-.767-.299,.274-.616,.563-.944,.862h-1.735c-.335,.298-.646,.574-.955,.848l-.348-.348c-.106-.106-.192-.262-.32-.309-.989-.363-1.996-.251-2.996-.08-1.187,1.098-1.256,1.097-2.531-.078h-1.806c-.252,.226-.577,.518-.934,.839h-4.407c-.341,.314-.665,.613-.977,.9h-.862c-.35-.318-.675-.612-.944-.856-1.001-.362-1.271,.671-1.858,.844-1.858,.106-3.639-.13-5.404,.165C.176,6.417,.002,6.596,0,6.703c-.002,.104,.173,.282,.293,.304,.424,.077,.857,.139,1.287,.14,8.212,.008,16.424,.004,24.637,.01,.427,0,.883-.117,1.266,.18,.097,.075,.231,.233,.206,.306-.041,.127-.189,.304-.3,.309-1.181,.059-2.365,.089-3.632,.129l-.944,.848h-2.649c-.308-.284-.632-.582-.944-.87h-3.55c-.351,.318-.675,.612-.944,.856-1.001,.363-1.271-.672-1.943-.868-.896,0-1.792,0-2.688,0-1.642,0-3.285-.018-4.927,.02-.24,.006-.474,.278-.711,.427,.236,.15,.483,.441,.705,.423,.715-.058,1.038,.451,1.495,.883h1.72c.344,.311,.669,.605,1.021,.923h14.273c.337,.311,.661,.61,.972,.897h17.879c.34-.299,.65-.571,.956-.841,.918,.853,.918,.877,1.489,.848,.729-.037,1.47,.128,2.172-.113,.225-.225,.436-.436,.779-.779,1.64,0,3.417-.042,5.188,.035,.355,.015,.689,.486,1.131,.821h6.115c.344,.311,.668,.604,.994,.899,.308-.279,.629-.569,.935-.846h9.813c.342,.299,.652,.57,.959,.838,.248-.248,.459-.46,.682-.683,.991-.345,2.029-.103,3.049-.168,1.175-.075,2.361,.138,3.498-.106,.241-.241,.452-.452,.663-.664,.281-.043,.563-.081,.843-.129,.812-.137,1.434,.162,1.901,.86h2.738c.261-.237,.585-.532,.933-.849h8.927c.313,.288,.637,.587,.978,.901h4.401c.344,.3,.654,.569,.972,.846,.433-.462,.775-.938,1.484-.875,.608,.054,.604,.016,1.924,.777,.38,.219,.828,.24,1.204-.064,.231-.187,.426-.418,.668-.66,.309,.275,.62,.552,.955,.849h.862c.315-.292,.637-.593,.935-.87h8.058c.23,.23,.433,.449,.656,.647,.081,.072,.207,.094,.313,.139l.726-.726c1.794-.217,3.712,.045,5.516-.14,.295-.295,.506-.506,.769-.769,.379-.02,.811-.063,1.243-.064,2.986-.006,5.973,.002,8.959-.012,.272-.001,.543-.122,.813-.186,.213-.213,.424-.424,.635-.635,.211,.167,.427,.328,.632,.503,.505,.43,1.074,.457,1.531,.024,.213-.202,.433-.395,.627-.572h4.492c.466,.649,1.043,1.019,1.88,.887,.274-.043,.569,.051,.8,.077,.367,.304,.698,.579,.974,.808,4.124,0,8.155,.001,12.187-.006,.129,0,.288-.059,.383-.146,1.064-.976,1.198-.994,2.167-.227,.608,.481,1.071,.534,1.528,.122,.221-.2,.424-.42,.639-.636h1.779c.323,.302,.646,.603,.931,.869h1.763c.37-.326,.697-.614,1.047-.923h7.075c1.269-1.169,1.331-1.17,2.593-.006h1.815c.227-.198,.555-.483,.935-.813h1.702c.337-.313,.659-.613,.992-.923h2.65c.322,.294,.636,.58,.948,.865,.232-.232,.434-.454,.657-.652,.371-.331,.826-.295,1.201-.091,.368,.2,.658,.544,.923,.773,4.433,0,8.763,.001,13.093-.007,.128,0,.255-.098,.383-.15,.211-.211,.422-.422,.645-.645,.206,.143,.468,.248,.611,.441,.326,.44,.772,.343,1.228,.361,.309-.288,.631-.589,.96-.896h1.754c.326,.296,.638,.58,.947,.86,.453-.394,.752-.881,1.47-.878,7.018,.028,14.035,.017,21.053,.017h2.538c.211-.211,.307-.331,.425-.42,.225-.168,.464-.319,.697-.477,.747,0,1.494-.007,2.24,.008,.128,.003,.255,.099,.382,.152l.736,.736c2.121,0,4.348-.03,6.573,.017,.723,.016,1.012-.495,1.474-.889h18.816c.28,.261,.602,.562,.917,.855,.315-.294,.637-.594,.973-.907h2.596c.359-.303,.665-.561,.966-.814,.265,.265,.476,.476,.694,.694,.854,.283,1.742,.117,2.617,.141,1.044,.029,2.091-.016,3.135,.014,.874,.025,1.763-.149,2.614,.146,.219,.219,.395,.504,.649,.624,.388,.184,.832,.237,1.203-.098,.221-.2,.424-.42,.659-.655h1.798c.284,.265,.606,.566,.932,.87h4.442c.328-.296,.64-.578,.945-.854,.46,.391,.757,.886,1.477,.874,2.687-.045,5.375-.016,8.063-.023,.134,0,.306-.029,.396-.114,.79-.744,.786-.749,1.59,.022,.136,.032,.272,.092,.408,.092,8.511,.004,17.022,.004,25.532,.004,.299,0,.599-.021,.895,.01,.126,.013,.24,.134,.36,.206,.211,.211,.422,.422,.657,.657h7.122c.334,.311,.655,.61,.968,.9,.318-.295,.641-.594,.914-.847h1.762c.383,.331,.711,.616,.971,.841,.971,.036,1.903,.232,2.475-.721,1.013-.201,2.041-.462,2.802,.747,2.912,0,5.886,.003,8.859-.009,.119,0,.238-.137,.357-.21,.211-.211,.422-.422,.655-.655h2.69c.289,.27,.612,.571,.932,.87h3.553c.34-.313,.663-.611,.933-.859h4.491c.137,.137,.237,.25,.349,.347,.798,.694,1.119,.729,1.835,.071,.277-.254,.433-.411,.644-.279,.211,.211,.422,.422,.679,.679h2.605c.348,.31,.674,.6,1.036,.923h1.706l.975,.888c.325-.297,.649-.593,.913-.835h1.76c.393,.336,.721,.617,1.007,.861,4.106,0,8.137-.001,12.169,.005,.132,0,.265,.076,.397,.117,.211,.211,.422,.422,.709,.709,.291-.236,.592-.48,1.024-.831h15.493c.149,0,.307,.03,.446-.009,.129-.036,.238-.143,.356-.219,.211-.211,.422-.422,.651-.651h2.674c.305,.281,.63,.58,.964,.888h1.742c.346,.316,.67,.611,1.011,.922h10.685c.458,.42,.773,.974,1.489,.868,.292-.043,.596-.007,.895-.007h8.959c.597,0,1.195-.007,1.792,.006,.133,.003,.265,.076,.397,.117,.211,.211,.422,.422,.708,.708,.292-.236,.592-.48,.971-.788h11.609c.533,.247,.847,1.188,1.777,.85,.321-.296,.646-.595,.96-.884h7.137c.347,.316,.671,.612,1.012,.923h5.265c.394,.336,.723,.617,1.008,.86,4.107,0,8.138-.001,12.17,.005,.132,0,.265,.077,.397,.119,.211,.211,.422,.422,.649,.649,.698,.255,1.444,.038,2.166,.131,.712,.092,1.042-.421,1.495-.859,.307,.267,.616,.536,.945,.822,.111,.008,.256,.026,.401,.028,1.734,.02,1.785,.021,1.813-1.561,.012-.696,.393-1.061,.92-1.563,0-1.379,.005-2.858-.009-4.337ZM50.15,7.597c-.057,.126-.188,.282-.308,.305-.995,.189-2.023,.466-2.714-.642-.28-.036-.562-.062-.84-.109-.806-.136-1.414,.169-1.907,.898-1.285,0-2.604-.042-3.919,.017-.71,.032-1.013-.462-1.516-.913-.79,0-1.667,.029-2.538-.024-.179-.011-.349-.321-.493-.515-.013-.017,.192-.288,.298-.288,4.419-.034,8.837-.051,13.256-.067,.533-.002,.936,.781,.682,1.339Zm5.631-.466c-.424,.074-.87,.021-1.414,.021-.376,.265-.785,.724-1.281,.857-.521,.14-1.127-.017-1.692-.082-.113-.013-.208-.193-.311-.296,.082-.103,.157-.214,.248-.308,.305-.313,.617-.62,.958-.961,1.105-.25,2.261-.059,3.407-.086,.23-.005,.467,.257,.701,.396-.205,.16-.392,.418-.617,.458Zm42.27-.899c-.877,.071-1.763,.024-2.627,.024-.329,.31-.646,.609-.95,.896h-4.44l-1.262-1.262c.16-.176,.319-.506,.482-.507,2.944-.031,5.888-.026,8.833-.01,.106,0,.242,.172,.309,.294,.112,.205-.013,.538-.343,.565Zm31.544-.123c-1.581,.242-3.167,.242-4.748,0-.117-.018-.21-.197-.314-.301,.104-.104,.2-.288,.314-.3,.862-.087,1.727-.14,2.494-.196,.822,.067,1.541,.112,2.255,.196,.115,.013,.21,.196,.314,.3-.104,.104-.197,.283-.314,.301Z"/>
</svg>
