<?xml version="1.0" encoding="UTF-8"?>
<svg preserveAspectRatio="none" id="a" data-name="AW" xmlns="http://www.w3.org/2000/svg" width="500" height="13.641" viewBox="0 0 500 13.641">
  <path id="b" data-name="2" d="M198.629,3.031c-.27,.019-.181-.016,0,0h0ZM338.743,.2l-.413,.265c.055,0,.082-.003,.136-.004,.098-.103,.189-.193,.277-.261Zm22.07,.609c.052,.011,.089,.016,.137,.026-.013-.061,.014-.123-.137-.026Zm-74.629,1.336c.111-.023,.226-.044,.38-.055-.195-.004-.302,.021-.38,.055Zm-128.726,1.965s.056-.006,.098-.01c-.079-.019-.161-.033-.243-.058l.145,.069Zm.616-.138c.083,.056-.345,.109-.518,.128,.549,.132,1.098,.135,1.651,.064-.005-.133-.753-.128-1.134-.192Zm0,0c-.021-.014-.066-.028-.167-.042,.038,.017,.098,.031,.167,.042ZM381.579,.701c.009,.077,.057,.137,.114,.189,.026,0,.045,0,.059,.001l-.173-.19Zm104.672,2.514l-.415,.183c.22-.019,.373-.048,.472-.086-.008-.031-.027-.063-.057-.097Zm2.751,.598c3.112,.118,.819-.082,.202-.27l-.204,.148c-1.866-.118-1.872-.487-2.805-.577,0,.03,.029,.065,.056,.102l.118-.051c.089,.064,.038,.11-.061,.148,.024,.079-.061,.142-.569,.126l.097-.04c-.778,.064-2.122,.023-2.707,.005l-.017-.308c-1.37,.604-9.297-.773-11.151-.768-1.869-.364-4.171,.15-6.5-.014-3.708-.051-1.862-.425-3.726-.666-2.327-.163,.476,.353-.455,.386l-2.791-.392c1.617-.058,.736-.232,.438-.347-2.407-.021-6.212-.536-6.942,.088-3.252-.252-3.264-.498-4.657-.51,.468,.106,1.396,.196,1.406,.319-1.305-.254-.62,.075-.087,.128-1.979,.293-10.314-.985-10.72-.306l-.002-.123c-.452,.508,.296,.986-1.084,1.281l-.928-.212-1.388,.234c-.936-.151-.479-.291-.48-.352-2.264,.261-5.432,.026-8.18-.006l2.932,1.331c-2.178-.268-6-.801-6.842-.498l-6.152-1.646-6.75,.24c-.612-.01-1.395-.003-2.291,.014l-.021,.068-11.344,.404-.003-.172c2.729-.011,7.862-.233,11.368-.3l.059-.187c-2.08,.028-4.443,.239-5.817,.216-.603-.065-2.044-.395-1.439-.673l-.993,.323c-6.941,.136-6.986,.156-14.238-.211l.632,.197c-1.435,.139-2.866,.275-3.271-.052-4.351-.011-8.862-.209-11.695-.689l-.61,.489c-.919-.015-2.309-.723-2.744-.044l-1.959,.238c-1.256-.02-2.021,.264-3.455,.007h-.008c-.088-.017-.181-.034-.271-.055,0,.015,.008,.027,.016,.04-2.845-.175,.036,.43-3.223,.196-.959-.3-1.124,.468-2.356,.535l-.206,.004c-.056,0-.11,0-.17-.003l-1.604-.669c-2.88-.358-3.359,.34-7.522,.396-2.003-.22-2.979-.795-1.664-1.335-1.809,.656-.821,.423-3.231,.757-.376-.255-.12-.313,.41-.554-2.15-.277-1.319,.252-2.936,.258-.461,.496-.99,1.282-1.514,1.32l.629,.145c-1.707,.284-3.575,.43-5.571,.21l.071-.247-2.117,.152-.139-.313-3.023,.137,.416,.08c-.71,.051-3.04,.19-4.376,.043l.046-.175c-3.772-.497-6.861,.259-11.267,.374l.572-.365c-1.507-.335-.402,.555-2.194,.401l-.097-.437c-1.565,.597-2.038-.096-3.126-.3l.517,.568-2.046-.095c-2.254-.161-1.393-.708-1.069-1.013l-1.525,.473-.308-.503c-1.109,.605-1.121-.08-3.078,.262-.165-.19,.329-.306-.339-.379l-3.224,.757,1.946-.342-.225,.744c-2.023,.589-2.755-.045-4.203,.181l.996-.233c-2.366,.211-2.498-.103-3.838-.25,.417,.132,1.055,.329,.097,.438-.703,.05-.386-.256-1.053-.329-.151,.496-1.846,.78-3.391,.567,.018-.071,.049-.139,.149-.185-.392,.085-.593,.215-1.28,.105l.394-.554-1.308,.54c-.88-.139-2.155,.276-2.046-.096l.497-.116-6.656-.046-.1-.438c-.647,.613-3.628-.183-3.397,.569-1.262-.395-4.937,.355-4.213-.505-4.372-.009-6.72,.84-12.041,.496-1.905-.697-7.087-.396-10.498-.428-6.662,.389-10.965,.716-17.776,1.036-4.115-.954-10.216,.48-14.636-.032l-1.201,.416c-2.942-.599-7.405,.239-11.528-.329-1.005,.188-1.533,.25-1.766,.268,.187,.017,.472,.089,.565,.342-1.177-.163-3.549,.091-3.389-.419l.298-.056c.164-.51-3.56,.284-4.878-.139l.728,.534-2.226-.063,.594-.112c-9.642,1.333-14.038-.336-23.093,.885,1.193-.609-1.783,.335-1.913-.312-2.302-.786-4.236,.231-6.109,.473,0,.032-.022,.069-.128,.121l-3.281-.035c1.945-.846-2.35,.711-.563-.01-8.562-.502-19.712,.268-29.616,.114l.438,.205c-1.466-.004-3.134,.092-4.652,.114-.487-.006-.974-.012-1.466-.013-.517-.02-1.002-.055-1.422-.124-.9-.147-1.872-.024-2.728,.151-8.402,.133-17.366,.64-26.261,.282-2.385-.475-28.565,.246-30.875,.514l3.046,.578c-9.74,.411-14.298-.148-22.63,.458l.46-.14c-1.217-.127-1.878,1.268-15.321-.25v-.062c-.466,.017-.461,.14-1.394-.012l2.325,.348c-1.386,.173-2.596,.484-4.446,.55-.395-.063-.531-.188-.571-.286l-4.54,.162-1.399-.38c-1.385,.234-.738,1.067-4.46,.647,1.41,.565-1.837,.374-1.373,.665-.189-.07-.616-.172-.96-.267-2.207,.096-6.364,.314-7.388,.627,0,0,8.663,1.116,10.998,1.71-3.112-.118-.819,.082-.202,.27l.204-.148c1.866,.118,1.872,.487,2.805,.577,0-.03-.029-.065-.056-.101l-.118,.051c-.089-.064-.038-.11,.061-.148-.024-.079,.061-.142,.569-.126l-.097,.04c.778-.064,2.122-.023,2.707-.005l.017,.308c1.371-.604,9.297,.773,11.151,.769,1.869,.364,4.171-.15,6.5,.014,3.708,.051,1.862,.425,3.726,.666,2.327,.163-.476-.353,.455-.386l2.791,.392c-1.617,.058-.736,.232-.438,.347,2.407,.021,6.212,.536,6.942-.088,3.252,.252,3.264,.498,4.657,.51-.468-.106-1.396-.196-1.406-.319,1.305,.254,.62-.075,.087-.128,1.979-.293,10.314,.985,10.72,.306l.002,.123c.452-.508-.296-.986,1.084-1.281l.928,.212,1.388-.234c.936,.151,.479,.291,.48,.352,2.264-.261,5.432-.026,8.18,.006l-2.932-1.331c2.178,.268,5.999,.801,6.842,.498l6.153,1.646,6.751-.24c.612,.009,1.395,.003,2.29-.014l.021-.068,11.344-.404,.003,.172c-2.729,.011-7.862,.233-11.368,.3l-.059,.187c2.08-.028,4.443-.239,5.817-.216,.603,.065,2.044,.395,1.439,.673l.993-.323c6.941-.136,6.986-.156,14.238,.211l-.632-.197c1.435-.139,2.866-.275,3.271,.052,4.351,.011,8.862,.209,11.695,.689l.61-.489c.919,.015,2.309,.723,2.744,.044l1.959-.238c1.256,.02,2.021-.264,3.455-.007h.008c.088,.017,.181,.034,.271,.055,0-.015-.008-.027-.016-.04,2.845,.175-.036-.43,3.223-.196,.96,.3,1.124-.468,2.357-.535l.204-.004c.056,0,.11,0,.17,.003l1.604,.669c2.88,.358,3.359-.34,7.522-.396,2.003,.22,2.979,.795,1.664,1.335,1.809-.656,.821-.423,3.231-.757,.376,.255,.12,.314-.41,.554,2.15,.277,1.319-.252,2.936-.258,.461-.496,.99-1.282,1.514-1.321l-.629-.145c1.707-.284,3.575-.43,5.571-.21l-.071,.247,2.117-.152,.139,.313,3.023-.137-.416-.08c.71-.051,3.04-.19,4.376-.043l-.046,.176c3.772,.497,6.861-.259,11.267-.374l-.572,.365c1.507,.335,.402-.555,2.194-.401l.097,.437c1.565-.597,2.038,.096,3.126,.3l-.517-.568,2.046,.095c2.254,.161,1.393,.708,1.069,1.013l1.525-.473,.308,.503c1.109-.605,1.121,.08,3.078-.262,.165,.19-.329,.306,.339,.379l3.224-.757-1.946,.342,.225-.744c2.023-.589,2.755,.045,4.203-.181l-.996,.233c2.366-.211,2.498,.103,3.838,.25-.417-.132-1.055-.329-.097-.438,.703-.05,.386,.256,1.053,.329,.151-.496,1.846-.78,3.391-.567-.018,.071-.049,.139-.149,.185,.392-.085,.593-.215,1.28-.105l-.394,.554,1.308-.54c.881,.139,2.155-.276,2.046,.096l-.498,.116,6.656,.046,.1,.438c.647-.613,3.628,.183,3.397-.569,1.262,.395,4.937-.355,4.213,.505,4.372,.009,6.72-.84,12.041-.496,1.905,.697,7.087,.396,10.498,.428,6.662-.389,10.965-.716,17.776-1.036,4.115,.954,10.216-.48,14.636,.032l1.201-.416c2.942,.599,7.405-.239,11.528,.329,1.005-.188,1.533-.25,1.766-.268-.187-.017-.472-.089-.565-.342,1.177,.163,3.549-.091,3.389,.419l-.298,.056c-.164,.51,3.56-.284,4.878,.139l-.728-.534,2.226,.063-.594,.112c9.642-1.333,14.037,.336,23.093-.885-1.193,.609,1.783-.335,1.913,.312,2.302,.786,4.236-.231,6.109-.473,0-.032,.022-.069,.128-.121l3.281,.035c-1.945,.846,2.35-.711,.563,.01,8.562,.502,19.712-.268,29.617-.114l-.438-.205c1.465,.004,3.133-.092,4.651-.114,.487,.006,.975,.012,1.468,.013,.517,.019,1.002,.055,1.422,.124,.9,.147,1.872,.024,2.728-.151,8.402-.133,17.366-.64,26.261-.282,2.385,.475,28.565-.246,30.875-.514l-3.046-.578c9.74-.411,14.298,.149,22.63-.458l-.46,.14c1.217,.127,1.878-1.268,15.321,.25v.062c.466-.017,.461-.14,1.394,.012l-2.325-.348c1.386-.173,2.596-.484,4.446-.55,.395,.063,.531,.188,.571,.286l4.54-.162,1.399,.38c1.385-.234,.738-1.067,4.46-.647-1.41-.565,1.837-.374,1.373-.665,.189,.07,.616,.172,.96,.267,2.207-.096,6.364-.314,7.388-.627,0,0-8.663-1.116-10.998-1.71ZM399.562,.633l.285-.093c-.127,.03-.216,.061-.285,.093Zm80.318,6.343l-.101,.004c.008,.214,.157,.131,.101-.004Zm-54.188-5.144c.059,0,.115,.002,.171,.003l-.648-.294,.477,.29Zm33.234-.539c.563,.005,1.056-.017,1.409-.089-1.558-.047-1.629,.006-1.409,.089Zm32.272,4.914c.459,.045,.92,.151,1.392,.197,.819,.006,.504-.117,.022-.254-.834,.037-1.414,.057-1.414,.057Zm-1.994-2.665l.252-.177c-.481,.049-.46,.112-.252,.177Zm-187.834,7.068c.181,.016,.27-.019,0,0h0Zm-140.114,2.83l.413-.265c-.055,0-.082,.003-.136,.004-.098,.103-.189,.193-.277,.261Zm-22.07-.609c-.052-.011-.089-.016-.137-.026,.013,.061-.014,.123,.137,.026Zm74.629-1.336c-.111,.023-.226,.044-.38,.055,.195,.004,.302-.021,.38-.055Zm128.726-1.965s-.056,.006-.098,.01c.08,.019,.161,.033,.243,.058l-.145-.069Zm-.616,.138c.021,.014,.066,.028,.167,.042-.038-.017-.098-.031-.167-.042Zm0,0c-.083-.056,.345-.109,.518-.128-.549-.132-1.098-.135-1.651-.064,.005,.133,.754,.128,1.134,.192Zm-223.506,3.272c-.009-.077-.057-.137-.114-.189-.026,0-.045,0-.059-.001l.173,.19ZM13.749,10.426l.415-.183c-.22,.019-.373,.048-.472,.086,.008,.031,.027,.063,.057,.097Zm86.689,2.582l-.285,.093c.127-.03,.216-.061,.285-.093ZM20.12,6.665l.101-.004c-.008-.214-.157-.131-.101,.004Zm54.188,5.144c-.059,0-.115-.002-.171-.003l.648,.294-.477-.29Zm-33.234,.539c-.563-.005-1.056,.017-1.409,.089,1.558,.047,1.629-.006,1.409-.089ZM7.41,7.238c-.819-.006-.504,.117-.022,.254,.834-.037,1.414-.057,1.414-.057-.459-.045-.92-.151-1.392-.197Zm3.386,2.861l-.252,.177c.481-.049,.46-.112,.252-.177Z" fill="#231f20"/>
</svg>
