<?xml version="1.0" encoding="UTF-8"?>
<svg preserveAspectRatio="none" id="a" data-name="AW" xmlns="http://www.w3.org/2000/svg" width="500" height="14.142" viewBox="0 0 500 14.142">
  <path id="b" data-name="1" d="M500,3.107c-.098,.1,.137,.66-.518,.611,.028,.145-.577-.487,.518-.611Zm-11.326,1.881l.191-.229-1.593,.56,1.402-.331Zm-10.106-.01c.955,.953,3.662-.154,5.463,.185l.297,.218,.812-.768c-2.188,.122-5.031,.631-6.572,.365Zm-5.389-2.06c.333,.37-1.166,.318,1.257,.115-.122-.041-.157-.064-.228-.094-.218,.006-.518,.004-1.029-.021Zm1.029,.021c1.064-.027-.696-.311,0,0h0Zm-4.59-.547c-1.438,.182-1.142,.399-.325,.759l1.402-.331c-.293-.219-1.541-.269-1.077-.428Zm-1.654,1.455l.727-.14c-.127-.092-.319-.124-.727,.14Zm1.434-.247c-.126,.282,.179,.01,.833-.189l-1.541,.296c.203,.153,.225,.462,.707-.107Zm1.706-.044c.786,.208,1.802,.338,.395,.668,2.682-.131,2.287-.801-.395-.668Zm6.949,2.408l1.051,.28,.909-.32c-.454,.159-2.026-.258-1.961,.041Zm-17.492-3.306c-.088,.203,.471,.54,.576,.8l1.036-.233c-.532-.139-1.541-.267-1.612-.567Zm.576,.8l-1.549,.348c1.384,.041,1.637-.125,1.549-.348Zm6.578,1.446l2.545-.731-3.036,.741,.491-.01Zm-13.758-2.032l.686-.24,.878-.469-1.565,.709Zm-3.239-.158c.65-.389-.891-.658-.204-.897-1.066,.069-1.977,.403-2.796,.704,.871-.168,1.799-.125,3,.193Zm-4.377,.244c.435-.093,.886-.26,1.377-.437-.463,.089-.918,.219-1.377,.437Zm9.997,.739c.186,.003,.397,.005,.61,.009-.12-.123-.351-.443-1.219-.579l.609,.57Zm.021,.018l-.021-.018c-.661-.013-1.12-.026-1.317-.032,.169,.005,.572,.02,1.338,.05Zm.589-.009c.059,.057,.094,.075,.154,.002-.056-.001-.098-.002-.154-.002Zm5.734,1.83c.653-.391-.398-.668,.972-1.147-.91,.319-2.808,.661-.972,1.147Zm-3.056-1.513l-1.767,.398,1.646,.13c-.032-.15-.329-.371,.122-.529Zm-2.573,.58l.806-.181-.61-.048-.196,.229Zm-7.892-1.11c-.711,.249-1.489,.269-2.367,.309,.941,.112,1.915,.174,2.839,.171,.13-.179,.537-.501-.472-.48Zm3.498,.159c-.049,.013-.112,.019-.158,.033,.097,.048,.175,.063,.158-.033Zm-14.374,.251c.011-.033,.018-.066,.032-.099l-.171-.005c.048,.031,.09,.071,.139,.104Zm11.506,.177c.708,.11,1.13-.029,1.534-.204-.529,.056-1.09,.094-1.692,.098-.059,.082-.07,.135,.158,.107Zm-5.862-.854c.369,.12,.786,.221,1.225,.314-.36-.181-1.095-.462-1.225-.314Zm8.333,.3c.035-.009,.067-.019,.106-.026-.232-.121-.203-.062-.106,.026Zm-.938,.349c.431-.046,.83-.107,1.176-.191-.088-.041-.176-.102-.239-.158-.364,.083-.65,.223-.938,.349Zm-14.715,.783c.569,.288,3.609,.675,2.237,1.154-2.154,.272-1.765-.188-2.813-.467,.89,.659-2.741,.959-2.272,1.927l1.889-.341c.035,.151-.649,.391-.125,.529,.125-.529,1.985-1.018,3.591-.451,1.58-.396,.547-2.135-.832-3.107-.049,.23-.049,.443-1.675,.756Zm1.708-.855l3.295,.074-.229,.079,.669-.065c-.763-.092-1.309-.303-2.314-.718-1.113,.259-1.345,.455-1.421,.631Zm6.91-.228h.015l-.003,.007c.137,.072,.182,.116,.028,.075-.01,.006-.049,.009-.066,.012-.021,.079-.08,.149-.143,.216-.918-.119-.144-.148,.143-.216,.01-.029,.035-.056,.039-.087l-.012-.007-3.174,.315c.672,.08,1.513,.064,3.005-.002-.523,.575-2.13,.821-1.145,1.443,1.964-.04,1.376-.481,2.549-.73-3.169,.143,.91-.321-1.38-.646,.623-.098,1.183-.128,1.712-.152-.571-.07-1.121-.156-1.639-.263,.029,.013,.049,.023,.073,.036Zm15.761,3.199c-.098-.051-.094-.092-.102-.134-.205,.071-.283,.119,.102,.134Zm-2.77-1.622c-.029-.039-.059-.078-.089-.12-.045,.016,.002,.062,.089,.12Zm2.833,.796l-.225,.079c-1.022-.158-2.261-.644-2.608-.875,.34,.457,.681,.807,1.464,1.275,.231-.08,.423-.31,1.173-.251,.651,.173-.003,.275,.031,.465,.452-.153,1.583-.412,.165-.693Zm-10.07,.137l-.068-.299c1.503,.117,1.179-.251,1.366-.481l-2.644,.282,1.346,.498Zm-13.138-2.571l.351-.608-1.527,.859,1.176-.251Zm-4.215-.137l.465-.163c-.627-.144-1.194-.258-1.544-.125,.456-.176,1.306-.102,1.787,.04l.199-.07-.031,.13c.102,.044,.178,.091,.188,.138l-.431-.818c-2.292-.327-4.117,.312-5.745,.719,1,.176-.088,.332-.664,.579,1.199-.103,3.872,.2,3.026-.596,1.443,.946,.987,.045,1.912,.853-1.363-.173-2.718,.161-3.957,.524-.308,.135-.795,.263-1.151,.388-.038-.006-.081-.01-.12-.016-.155,.044-.31,.088-.458,.126l1.607,.567c-1.047,1.072-3.606-.399-4.561-.036,.644-.249,2.093-.001,2.142,.238l-.431-.818c-2.292-.327-4.117,.312-5.745,.719,1.536,.27-1.864,.492-.748,1.071l1.214-.1c.557,.288-.62,.539-1.301,.778-3.836-.595-10.863-.074-12.236-.718,.784,.207,2.224,.027,2.91-.212l-1.799-.34c1.135-.023,2.09,.406,3.468,.474l1.26-.307c.05-.243,.294-.515,.355-.803-.339,.142-.482,.234-.39,.027-.483,.569-.504,.26-.707,.107l1.11-.213c.011-.138-.033-.28-.167-.423l-.341,.08c-.498-.219-.797-.385-.633-.523-1.747-.285-2.562,.009-3.431,.385,.545,.008,.967,.113,1.113,.39-1.4,.33-3.818,.532-3.942,1.061-1.282-.837,1.761-.416,1.173-.85-.571,.14-1.279,.235-2.208,.24-.028,.011-.057,.023-.085,.033,.019-.012,.03-.022,.046-.034-.209,0-.417,.001-.65-.008-.115,.04-.107,.006-.072-.062-.239,.026-.562,.037-1.017,.023l1.102-.247c.024-.212-.201-.432-1.62-.282-.728,.114-1.41,.261-2.037,.43h.07c-.049,.061-.084,.05-.128,.016-2.208,.606-3.675,1.509-3.669,2.381,1.402-.33,4.206-.99,4.636-.173-1.4,.33-3.818,.532-3.942,1.06-1.45-.946,2.644-.282,.741-1.069-.983,.022-1.404,.331-1.862,.492,.507-.303-.298-.531-.825-.721-.143,.093-.44,.146-1.14,.091l.068,.299-1.346-.498,.743-.079c-1.804-.07-3.254-.256-5.064-.377-.245,.106-.62,.186-1.402,.201-.165-.104-.252-.197-.289-.284-.122-.004-.233-.01-.359-.013-.092-.07-.232-.18-.336-.303-.595,.01-.697-.097-.72-.234-.879,.246-1.825,.715-2.398,1.173,.235,.607,.099,1.142-.692,1.34-.834-.294-1.731-.301-2.423-.169-.002,.005-.015,.008-.037,.009-.621,.125-1.073,.361-1.131,.611-.525-.138,.16-.378,.125-.529l-.667,.121c-.063,.053-.117,.114-.141,.193-.412,.027-.658,.015-.807-.022l-.273,.049c-.067-.137-.044-.26,.03-.374-.012-.114-.054-.229-.329-.303-.283,.097-.962,.4-1.008,.645-1.003-.661,1.767-1.707,.922-2.5-.608,.081-1.154,.293-1.714,.443,.008,.069-.003,.15-.048,.254,.066,.007,.129,.002,.196,0-1.106,.101-2.096,.285-2.222-.257,.331-.07,.658-.138,.956-.186l.078-.254c-.908,.031-2.262,.232-2.553,.445-.018-.079,.069-.223,.191-.398-.081,.026-.162,.051-.243,.076-.002,.18,.01,.365,.026,.553l.664,.234c-.162,.166-.369,.256-.592,.316,.153,.869,.483,1.706,1.008,2.147-.129,.531-1.612-.567-2.359-.625-2.164-.857-3.302,.67-5.102,.333l1.372-.48c-.297-.219-2.947,.063-3.367,.371-.018-.078,.07-.223,.191-.397-.201,.063-.407,.125-.581,.186-.083-.013-.176-.022-.262-.034-.443,.562-3.443,.643-3.259,1.456l-4.565-.266c.577-.024,2.338-.237,1.646-.649-1.961,.041-1.016-.13-2.325-.479,.253-.107,.537-.238,.831-.378-.858-.011-1.653-.029-2.331-.066-.095,.093-.197,.192-.265,.257-.442-.047-.734-.183-.918-.364-.341-.049-.611-.112-.787-.194,.199,.052,.44,.08,.699,.088-.229-.311-.209-.715-.092-1.05-.934,.172-1.732,.366-1.802,.664-1.282-.837,1.761-.416,1.173-.851-.459,.113-1.014,.194-1.695,.225-1.196,.651-1.984,1.563-4.233,1.417l1.313,.349c-.29,.052-.85,.046-1.44,.029,.197,.062,.346,.157,.421,.298-1.4,.33-3.818,.532-3.942,1.06-1.45-.946,2.644-.282,.741-1.069-.983,.022-1.404,.331-1.862,.492,.655-.391-.883-.658-1.176-.879-.327,0-.632-.008-.934-.017,.02,.008,.028,.025,.05,.031l-.083-.031c-1.287-.038-2.383-.136-3.516-.237,.13,.129,.269,.228,.393,.261-1.624,.345-2.577,.183-3.348,.044,.486-.1,.814-.261,1.038-.459-.441-.029-.913-.053-1.41-.072l.264,.509c-.844-.153-1.478-.241-2.592,.48l1.065-1.326c-.324-.028-.403-.115-.422-.223-1.58,.442-3.382,1.607-2.83,2.127-1.958,.041-2.062-.408-3.729-.147,2.661,.846-.521-.14-.806,.769-1.704,.111-.595-.439-1.38-.649-.283,.097-.962,.4-1.008,.645-.847-.558,.992-1.392,1.075-2.115-.579,.011-1.145,.013-1.683,.008-.561,.162-1.128,.283-1.781,.16l.435-.152,.011-.038c-.17-.006-.339-.012-.494-.02l.486-.009c.011-.007,.014-.013,.023-.02l.046-.151c-.042-.053-.14-.103-.285-.146-.876,.061-1.961,.238-2.217,.427-.024-.106,.143-.333,.33-.595-.125,.005-.248,.012-.367,.023-.074,1.231,.287,2.824,1.091,3.5-.129,.531-1.612-.567-2.359-.625-2.164-.857-3.302,.67-5.102,.333l1.372-.48c-.297-.219-2.947,.063-3.367,.371-.052-.231,.787-1.02,.799-1.534l-.874-.051c.195-.008,.525-.038,.851-.09-.033-.09-.101-.168-.228-.223-3.234-.158-6.302,1.493-6.101,2.389l4.958-.93c.174,.748-3.52,.75-3.317,1.648l-4.565-.266c.577-.024,2.338-.237,1.646-.649-1.961,.041-1.016-.13-2.325-.479,1.147-.483,2.778-1.352,4.296-2.242-.131-.037-.294-.07-.526-.088,.223,.018,.444,.012,.665,.005,.439-.259,.87-.519,1.272-.77-.162-.168-.229-.373-.243-.583-1.981,.591-3.555,1.354-5.254,1.948l-.269-.042c-.794,.676-1.396,1.289-1.706,1.584-1.606-.171-1.24-1.507-.844-1.981l-.596-.093c-.163,.014-.321,.031-.468,.056l-.11,.257-.141-.202c-2.112,.48-2.562,2.088-5.495,1.897l1.313,.349c-.826,.149-3.827-.173-3.505,.122-.693-.425-1.33-1.428-.557-1.698l-3.099,1.501c.424-.148,.199-1.259,.323-1.597l-.082,.018c-.014-.026-.012-.05-.014-.076-1.175,.056-1.968,1.474-1.207,1.675-2.43-.926-1.827-.421-3.799-1.506-.718,.09,.066,1.361,.592,1.499-1.624,.345-2.577,.183-3.348,.044,1.896-.391,1.478-1.664,1.248-2.722-1.237,.265-.447,.771-1.529,1.01,.057-.106,.169-.315-.178-.331l-1.418,.682c-.467-.199,.689-.386,.276-.608l-2.933,1.941c.196-.229,.652-1.451,.62-1.598-.286,.673-2.723,.997-5.334,1.119,.033,.11-.164,.171-.903,.135-.023-.032-.047-.066-.071-.099-1.482,.041-2.943,.024-4.025-.029l.486-.009c.211-.126,.063-.243-.27-.332-.225,.088-.512,.167-.921,.232l.042-.366c-.725-.057-1.594-.026-2.118,.158,.193-.229,.455-.16,.943-.171-1.371-.542-2.132,.294-3.066,.723,.548,.255,1.074,.471,1.241,.582-.691-.209-1.307-.307-1.872-.384-.367,.061-.777,.025-1.263-.188-.474-.09-.908-.227-1.31-.475-.875,.121-1.438,.361-1.084,.959-1.05-.28-1.995-.11-1.904-.787l-4.021,.796c.299-.136,.558-.532-.618-.623,2.255,.178,4.437-1.07,5.624-.194,.017-.245-.045-.454-.113-.648-.683,.208-1.096,.323-2.027-.583,.691,.034,1.45-.064,1.933-.23,.065-.15,.207-.306,.458-.475-.005-.008-.013-.016-.019-.024-.21,.021-.404,.051-.608,.076-.135,.05-.269,.103-.405,.151l-.358-.056c-.272,.042-.523,.095-.78,.145l-.043,.081c-.006-.02-.019-.047-.026-.068-.698,.138-1.345,.3-1.95,.481l-.134,.253c-.222-.011-.125-.111,.117-.248-1.968,.59-3.536,1.348-5.228,1.94l-3.831-.595-.162,.378-.666-.952c-.479,.218-.784,.407-.884,.317-.064-.062-.015-.146,.087-.241-.099-.002-.207-.014-.324-.035-.208,.044-.388,.097-.501,.155-.028-.093-.019-.19,.005-.287-.035-.012-.064-.018-.1-.031,.044,.002,.073-.002,.108-.003,.024-.078,.058-.156,.108-.235l-.682-.215c-.063,.449-.534,.686-1.208,.817,.095,.07,.223,.14,.397,.208l-.665-.167c-.912,.134-2.098,.126-3.18,.173-.828,.272-1.261,.354-2.588,.638-.079,.096-.136,.202-.155,.329-.186-.079-.327-.144-.439-.202-.173,.037-.358,.078-.558,.122-.175-.33,.674-.611,.102-.854-2.018,.927-4.806-.693-5.839-.521,.358,.3,.825,.578-.247,.681l-.638-.371c-1.108,.27-.379,.756-1.435,.99,.057-.106,.169-.315-.178-.331l-1.418,.682c-.574-.244,1.306-.472-.294-.768-2.734,.511-4.339,.86-6.625,.533-3.253,.161,1.393,1.357-1.355,1.222-.404-.557-.76-1.219-2.476-1.303-.906,.385-.784,.82-2.324,1.066l.097-.855c-1.424,.037-2.562,.196-2.573-.45-1.166,.365-1.968,.3-2.577,.163-2.161,.452,1.59,1.732,2.094,2.067-2.125-.641-3.592-.268-4.804-1.297l1.88-.229c-4.013-1.057-3.805,1.208-5.664-.602,1.375,.068,3.025-.388,2.214-.859l-1.991,.439c-.234-.226,1.138-.157,.225-.418-.119,.039-.267,.091-.427,.149-.098-.18-.24-.395-.401-.623-.083-.017-.161-.039-.24-.061l.614,.694c-.6,.217-1.39,.532-1.789,.752l.027-.053-3.302,.133c.415-.055,.441-.275-.129-.304l-2.357,.449c.721-.215-.017-.479-1.075-.617-3.036-.257-2.43,1.922-4.786,1.053,.343,.017,.399-.089,.746-.071l-1.211-.381c-.256,1.813-7.139,.184-7.399,1.998-1.725-.731-.12-.436,2.098-1.292l-1.838-.521c.746-.069,1.372,.069,2.17-.108-2.412-.764-4.681,.199-5.987,.671-.921-.261,.724-1.361-1.901-1.061-3.708,.354,.703,1.323-1.524,1.537l-1.613-.939c-2.844,.717-4.969,.075-7.368-.043-.543,.074-.809,.172-.941,.273-2.553-.406-5.35,.917-7.275,.61,.451-.192-1.099-.591-1.331-.818l-3.473,.581c1.537-.247,1.469-.787,1.75-1.311-1.085,.055-1.596,.351-2.335,.422,.451-.191,.906-.386,.332-.627l-3.645,.893c.215,.091,.634,.126,.984,.149-.91,.007-2.882,.346-4.185-.093,.116-.208,.563-.402,.675-.611,1.094,.592,1.716,.086,2.284-.316-2.514,.092-.627-.138-1.837-.521-1.774,.02-2.501,.736-2.036,1.189-2.004-.206-2.64-.346-4.685,.197l.388-.733-1.88,.231,1.524-.893c-3.606-.5-.663,1.256-4.667,.843l-.011-.644c-1.541,.247-2.07,1.333-3.266,.561-1.496,.39,2.558,.91-.956,1.042-.62-.333-1.953-.577-2.963-.707-.984,.258,.413,.65,1.257,.683-4.887,.182-3.078-2.192-7.713-1.362,1.624,.462-1.355,1.245,2.486,1.226-1.835,.382-3.609-.932-5.522-.232l1.246-.821c-.688-.016-1.463,.283-1.836,.382l.156-.633c-2.363,1.113-4.396-.528-5.8,.928,.977-1.145-1.762,.067-2.7-.38,1.944-.806,5.575,.021,5.833-1.037-.906-.32-1.715,.198-2.589-.114,.472-.121,1.107-.315,1.481-.496-.869,.033-2.673,.319-4.018,.143-.786,.24-1.502,.506-2.233,.617l3.2-.245c-.259,1.056-1.44,.18-2.338,1.009-1.601-.568-2.854,.255-4.16-.095,.346,.007,.37-.097,.717-.091-3.489,.026-4.46-1.696-5.847-1.728-1.363-.138-3.943,.439-3.008,.887-1.116,.294,4.634-.316,2.641,1.054-1.992-1.583-4.097,.593-8.438-.49,1.901-.562-1.117-.891,.58-1.316-2.069,.128-2.146,.364-3.067,.813l-.623-.496c-2.702,1.109-.635,.982-4.726,1.575,1.372-.387-1.642-.716-.596-1.066-1.134-.034-2.241,.116-3.07,.413l.151-.071c-4.143,.256-3.392-.624-7.165-.072l.375,.298c-4.941,.805-11.185,.286-16.299,.656l1.651,.224c-.797-.049-3.407,.461-4.89,.027,.319-.029,.869-.162,1.167-.123-.046-.335-.666-.83-1.894-.914l-.474,.51-.497-.396c-1.873-.009,.55,.732-1.324,.724-1.092-1.463-8.066-.195-9.682-1.482-1.274,1.057,3.546,.152,2.148,1.112-.57-.159-.827-.357-2.045-.441l.42,.632c-5.669-.36-7.832-.9-12.878-.767l.203-.136c-1.796-.245-2.765-.131-3.568,.417-.374-.296,.921-.448,.222-.709-3.166,1.622-6.325-1.189-8.255-.056,.252-1.279-3.883-2.497-2.159-3.494l-1.296,.153c.427-.845,4.069-.021,4.815-.904l4.092,.884c-.129-.319,.543-.79-.114-.898,1.011-.017,1.893-.061,.569-.517,.16,.035,.322,.06,.482,.093-.566-.476-.858-.926-.146-1.339l-1.296,.153c.427-.845,4.069-.021,4.815-.904l4.092,.884c-.129-.319,.543-.79-.114-.898,1.011-.017,1.893-.061,.569-.517,9.775,2.149,19.818,.068,29.444,1.212,.651-.075,.277-.372,.027-.57,1.773,.815,1.696-.426,2.666-.541l2.594,1.174c1.054-.35,.231-.708,.308-.944,1.766-.084,3.514,.011,5.215,.134l-.858-.413,1.47,.283-.426,.142c2.835,.208,5.527,.467,7.939,.11-.067-.026-.142-.053-.227-.082,.117,.026,.234,.046,.35,.068,.03-.005,.061-.006,.091-.011-.537-.463-.8-.901-.106-1.302l-1.296,.153c.427-.845,4.069-.021,4.815-.905l4.092,.884c-.129-.319,.543-.79-.114-.898,1.011-.017,1.893-.061,.569-.517,9.775,2.149,19.818,.069,29.444,1.212,.651-.075,.277-.372,.027-.57,1.773,.815,1.696-.426,2.666-.541l2.594,1.174c1.054-.35,.231-.708,.308-.944,4.913-.234,9.698,.909,13.673,.216,1.267,.421-.302,.945,1.369,1.091-2.268-1.212,4.867-.569,3.422-1.423,1.618,1.288,6.015,.275,5.283,2.064,2.001,.105,1.656-.761,1.079-.922,2.321,.068,4.194,.078,6.092-.484,1.271,.417,10.604-.446,12.675,.901-1.411-.874,.109-.453,1.464-.833l-1.222-.771,3.057,.083c.623-.074,.798-.042,.795,.029,.518,.037-.123,.444,1.194,.639,2.081,.048,2.182-.375,3.326-.774l-.318-.115,1.411-.073c1.039,.024-3.674,.767-.284,1.162,.049-.212,2.042-1.229,2.953-.676-1.731-.04-1.513,.497-.876,.724l2.426,.055-.801-.976c6.956,.054,14.195,.75,21.621,.687-.102,.856,5.258,.045,4.588,1.301l-.285-.121c-.646,.044-.762,.182-.584,.334,.174,.012,.359,.032,.539,.049l.015-.003v.004c.252,.023,.504,.046,.765,.075,.272-.1,.56-.171,.873-.195l.164,.185c.036-.034,.079-.069,.128-.104-.034-.033-.071-.071-.103-.103,.08-.003,.164,.005,.246,.006,.557-.36,1.302-.729-1.02-.844l2.917-.594c1.62-2.409,7.782,.202,12.203-.575-.312,.093-.393,.221-.432,.297,3.929-.772,8.81,.651,9.721,.266l.349,.662c3.359-1.017,3.757-1.104,7.763-.692-.053,.106-.515,.297,.119,.436,.964-.489,1.933-.978,4.675-.843l-.112,.208,4.289-.109c-.031,2.04,7.349-1.247,8.638,.964,.84-.596,3.977-.784,5.372-1.067,.01,.087,.097,.178,.329,.274,.37-.247,.822-.353,1.309-.39l1.509,1.706c.119,.008,.234,.016,.358,.022-.6-.659-1.198-1.282-1.678-1.749,1.65-.053,3.722,.722,5.082,.629,1.19-.262,.675-.61,.157-.958,2.353,.868,6.496-.967,7.355-.602,1.724,.085,.643,.783,1.116,1.236,2.562-.196-.431-1.847,3.008-1.033-.4,.088-1.138,.16-.852,.28,1.314,.172,3.661,2.517,4.969,2.045l-.864-.366c2.395-.527,5.665,1.663,6.05,.286l-.225-.641c4.126,.848,1.749-.25,5.931,.493l-.052,.105c1.824-.124,2.811,.676,3.705-.354l-.627-.139c2.262-.081,2.465-.004,4.769,.047,.27-.099,1.384-.252,1.706-.035,.105-.853,5.35-.394,6.377-.343-1.589,.109-1.139,.399-.655,.702,.086-.024,.222-.016,.4,.023,.976-.585,1.72-.626,3.118-.153,.214-1.064,.511-2.198,3.448-2.26-.455,.16-1.169,.25-.876,.469,.299,.22,.982-.02,1.213-.1,.293,.22-.652,.389-.323,.759,1.985-1.017,3.43-.072,6.306-.433-.913,.319-.127,.527,.201,.895,.223-1.206,3.935,1.047,2.842-.509,3.522,.584,8.229,.464,11.8,.538l.009-.062c2.396,.235,7.393-.733,9.218,.363,1.153-.286,1.407-.123,3.841-.853-.91,.428-.929,.699-.432,.985,.665,.057,1.307,.096,1.788,.036l.002,.003,1.426-.707,.431,.818c.903-.318,1.909-.193,2.916-.065,.893-.887,4.325-.812,4.893-1.311,.99,1.107,2.653-.281,3.379,.757,.326-.154,.746-.282,1.204-.387-.477-.484-.652-1.025,.242-.788,.077-.011,.137-.009,.21-.018l.388,.643c.91-.151,1.839-.225,2.451-.237-.277-.055-.595-.175-.928-.32,.391,.096,.752,.215,1.103,.318,.124,0,.245,.001,.326,.008-.057,.019-.123,.03-.197,.032,.557,.149,1.132,.224,1.926,.006,3.186,.985,7.086-1.351,10.599,.002-.528-.139-1.274-.198-1.474,.031,2.941-.062,5.861,.855,7.721,.364l-.133-.598c2.156-.271,3.822-.464,5.559-.426l.095-.677c2.524,.247,7.94-.844,9.488,.552,.617-.54,3.491,.159,4.926-.021l.365,.519c1.87,.17,3.025-.015,4.143-.167,3.796,1.083,7.31,.014,10.63,.09l.031,.15,3.365-.372c-.882,.47,.663-.324,1.675-.195,1.071-.252,2.809-.118,4.072,.218l2.146,.027c-2.384,.351,.169,.749,.305,1.348l1.37-.48c.552,.288-.883,.469,.129,.598,.917-.321,3.629-.302,4.475-.922-.134-.15-.463-.291-.869-.411-.116,.038-.109,.03-.035-.011-.035-.009-.06-.021-.094-.032,.045,.008,.063,.013,.115,.02,.116-.059,.297-.159,.374-.238,1.705,.133,1.079-.113,1.019-.384,1.936,.937,3.019,.304,4.5,1.402-2.01-1.236,4.438-.01,3.186-1.187,1.443,.946,.987,.045,1.912,.853-2.031-.258-4.052,.611-5.687,1.022l1.607,.567c-.587,.601-1.646,.402-2.634,.175l-.069,.286-.78-.209ZM103.304,10.096c-.296-.059-.57-.088-.841-.114-.26,.014-.528,.022-.783,.04l1.435,.194c.079-.042,.147-.082,.189-.121ZM159.224,2.029l-.48-.168c-.3,.186-.604,.354,.48,.168Zm31.721,8.209c-.215-.287-.467-.6-.735-.921-.078,.038-.156,.076-.216,.119l.819,.925c.039-.041,.08-.082,.132-.123Zm7.045,1.675c-.907-.213-1.376-.566-1.982,.172,.389,.38,1.45-.037,1.982-.172Zm41.75-1.55c-.629-.166-1.197-.19-1.698-.137,.139,.049,.271,.087,.403,.124l-.05-.128,.123,.151c.492,.128,.92,.152,1.222-.009Zm16.055,.218c-.399,.1-.927,.149-1.484,.185,.237,.169,.556,.342,.891,.504,.529-.152,.654-.421,.593-.689Zm43.704-6.744l-.01-.011-.112,.018c.041-.004,.082-.003,.123-.006Zm2.779-.355c-.025-.028-.055-.055-.108-.076l-1.814,.284,.004,.006c.675-.112,1.36-.181,1.918-.215Zm12.792,5.161c-.05-.02-.095-.029-.143-.045l-.003,.044c.049,0,.091,.002,.145,0Zm27.202,1.075c-.377-.255-.715-.662-.805-1.02-.807,.454-1.274,.958-1.271,1.452,.552-.13,1.321-.31,2.077-.432Zm.524-.074c-.24,.005-.404,.024-.452,.063,.152-.024,.303-.045,.452-.063Zm3.797-6.861c-.446,.012-.194,.082-.164,.228,.035-.083,.094-.157,.164-.228Zm6.803,5.813l-.337-.064c-.081,.075-.147,.14-.22,.21,.211-.044,.405-.093,.557-.146Zm2.535-1.858c-.196-.039-.373-.065-.548-.091-.879,.6-1.65,1.257-2.232,1.798,.731,.15,1.512,.326,2.519,.292,.216-.111,.436-.227,.66-.347,.131-.477,.948-1.062-.399-1.651Zm3.5-1.137c-1.076,.221-.473,.463,.099,.763,.021,0,.043-.001,.064,0-.166-.227-.204-.499-.164-.762Zm-1.877-.132c.048,.012,.1,.02,.146,.033l1.741,.022v-.009l-.008,.002-.534-.399c-.206,.052-.431,.097-.676,.136-.225,.066-.449,.129-.668,.216Zm4.327,3.95c-1.084-.116-2.335-.169-3.609-.197-.503,.357-.776,.721-.712,1.008l4.322-.811Zm1.781-1.323c.075-.01,.15-.021,.226-.032-.006-.016-.02-.03-.029-.045-.052,.025-.119,.051-.198,.078Zm.249,.109l-.499-.029c-.535,.166-1.187,.37-.603,.673l.876-.072c.123-.2,.221-.401,.225-.572Zm6.279-5.718l-2.356,.501-.589-.44c-.436,.084-.861,.228-1.278,.394,.044,.011,.092,.02,.135,.032l2.146,.027c-1.763,.26-.826,.545-.164,.918,.877-.548,1.632-1.057,2.107-1.432Zm2.083,3c-.131,.066-.383,.137-.631,.217-.013,.035-.023,.071-.035,.108,.211-.007,.446-.009,.689-.008,.028-.118,.028-.227-.023-.317Zm2.608,1.352c-.068-.05-.263-.073-.524-.077l.011,.209c.057-.005,.111-.009,.163-.01l.35-.122Zm37.619-3.659c.105-.232,.125-.588-1.584-.407-1.164,.182-2.215,.446-3.096,.759l.687-.076c-.881,.47,.663-.324,1.675-.195,.622-.146,1.47-.159,2.319-.081Zm.097,.677c-.823-.12-1.244-.22-.057,.031,.018-.013,.034-.021,.057-.031Zm.325,2.803c-.05-.071-.061-.145-.052-.223l-.961,.276c.316,.003,.646-.007,1.013-.053Zm8.021-5.3c.018-.013,.034-.021,.057-.031-.823-.12-1.244-.22-.057,.031Zm-3.412,3.204c-.471-.024-.888-.057-1.235-.104,.206,.122,.376,.252,.408,.394l.827-.29Zm2.857,.068c-.792-.008-1.547-.019-2.222-.041-.092,.1-.317,.183-.33,.254,.124,.024,.213,.06,.137,.086,.057,.014,.129,.028,.23,.04,.445-.156,1.313-.232,2.185-.339Zm.499-2.445c-3.788-.746-3.493,1.008-7.256,1.153,.215,.042,.425,.087,.622,.139l2.145,.027c-1.631,.241-.951,.503-.315,.836,.777,.034,1.742-.113,2.268-.296l-1.799-.34c.209-.004,.412,.01,.613,.032,.028-.261,2.077-.935,1.65-.432-.297-.22-.102,.611-.626,.472-.175,.022-.322,.037-.448,.045,1.001,.185,2.032,.504,3.583,.309-.121-.173-.027-.367,.09-.576-.333-.052-.546-.096-.666-.132,.243,.029,.465,.07,.675,.115,.04-.071,.08-.143,.118-.216h-.009l.01-.002c.178-.356,.236-.744-.655-1.134Zm-.304,1.146c.729-.038,.116-.064,0,0h0Zm3.252,2.573c.06-.139,.162-.228,.291-.282-.155,.065-.273,.148-.291,.282Zm-37.128,1.151c-.021,0-.039-.002-.063-.002,.217,.113,.179,.091,.063,.002Zm33.876-3.724c-.214,.009-.515,.021-1.015,.031,.417-.009,.805,.018,1.18,.06-.143-.04-.203-.072-.165-.091Zm-89.513,6.327c.034-.006,.052-.021,.083-.027-.034-.007-.077-.015-.108-.022l.024,.049Zm-82.793-.149l-.177,.332c.2,.01,.238-.12,.177-.332Zm3.127-8.631l.728,.823c.064-.005,.123-.019,.189-.021-.427-.416-.761-.711-.917-.801Zm125.472,8.718c-.507-.093-.79-.21-.979-.332-.028,.157,.203,.291,.979,.332Zm64.953-2.57c.231-.079,.489-.009,.717-.089l-.063-.299c-.983,.019-1.67,.261-.654,.388Zm-12.243-1.846c.125,.542,1.116,.358,2.222,.257-.067,.002-.13,.007-.196,0,.326-.757-.853-.507-2.026-.257Zm2.478,.239c.341-.025,.689-.038,1.022-.013,.13-.303-.414-.064-1.022,.013Zm-2.599,1.417l1.016,.13-.397-.669-.62,.539Zm-7.717-.362l1.767,.186c-.027-.112,.198-.177,.474-.228-1.089-.024-2.282-.156-2.241,.042Zm3.663-.153c-.307,.007-.967,.029-1.422,.112,.567,.012,1.107-.002,1.422-.112Zm-23.543,.495c.282-.098,.658-.169,.841-.261l.239,.019c-.032-.15-.329-.37,.122-.529l-1.767,.398,.256,.02-.618,.061,.362-.082-.61-.048-.196,.229,.316-.071c-.155,.219,.356,.35,1.056,.262Zm5.805,1.682l.909-.321c-.522-.139-.557-.288-.851-.508l-.059,.829Zm-57.925,1.035c-1.38,.34-2.104,.149-1.47,1.042,2.286,.326,.543-.839,2.608-.433,.537-.321-1.688-.332-1.138-.61Zm0,0c.221-.053,.455-.119,.704-.206-.4,.085-.588,.15-.704,.206Zm-91.123,2.103l.112-.209c-.228-.226-.572-.242-1.261-.278l1.149,.486Zm-36.664,.351c.683,.033,1.485-.142,2.171-.108-1.489,.141-2.356-.868-2.171,.108Zm220.964-6.246c.655,.049,.42-.51,.518-.611-1.095,.124-.491,.756-.518,.611Zm-10.808,1.27l.191-.229-1.593,.56,1.402-.331Zm-10.106-.01c.955,.953,3.662-.154,5.463,.185l.297,.219,.256-.242,.039,.004-.034-.009,.552-.522c-2.188,.122-5.031,.631-6.572,.365Zm-10.604-1.131l.727-.14c-.127-.092-.319-.124-.727,.14Zm10.088,2.117l1.051,.28,.909-.32c-.454,.158-2.026-.258-1.961,.04Zm-14.4-1.575c-.91,.319-2.808,.661-.972,1.147,.653-.391-.398-.668,.972-1.147Zm-2.665,2.384c-.098-.051-.094-.092-.102-.133-.205,.071-.283,.119,.102,.133Zm-2.77-1.622c-.029-.039-.059-.078-.089-.12-.045,.016,.002,.062,.089,.12Zm2.833,.796l-.225,.079c-1.022-.158-2.261-.644-2.608-.875,.322,.433,.658,.773,1.356,1.205l-.059-.007c-.192,.23-2.799,.66-.355,.608,.184-.215,1.906-.397,.625-.575,.198-.098,.432-.256,1.071-.207,.651,.173-.003,.275,.031,.465,.452-.153,1.583-.412,.165-.693Zm-220.505,4.193l-.777,.15c.368-.046,.604-.097,.777-.15Zm5.624,.036l.138-.261c-.26,.144-.367,.25-.138,.261Zm43.793-1.051c.335,.13,.815,.256,1.492,.374l-1.492-.374Zm-80.13,1.629l-.906,.589c1.418-.003,.794-.3,.906-.589Zm-111.391-.48c-.081-.025-.179-.038-.252-.069-.024,.079,.088,.083,.252,.069ZM9.435,6.452c.32-.037,.841-.038,1.332-.045-.239-.04-.641-.036-1.332,.045Zm92.135,4.293c-.048-.018-.104-.03-.156-.055-.735,.241-.412,.203,.156,.055Zm172.947,.935c.034-.006,.052-.021,.083-.027-.034-.007-.077-.015-.108-.022l.024,.049Zm-2.617,.431c1.114-.721,1.748-.633,2.592-.48l-.866-1.669-1.727,2.149Zm-80.272-.829c.047,.095,.075,.174,.096,.249l.046-.087-.143-.161Zm-.087-.098l.087,.098c-.016-.033-.041-.073-.06-.108l-.027,.01Zm.183,.347l-.177,.332c.2,.01,.238-.12,.177-.332Zm3.127-8.631l.728,.823c.064-.005,.123-.019,.189-.021-.427-.416-.761-.711-.917-.802Zm40.154,8.343c-.151-.109-.192-.228-.228-.35-.209,.108-.214,.233,.228,.35Zm-81.562,1.424c-.028-.005-.056-.003-.084-.007-.046,.038-.07,.078-.084,.116l.168-.109Zm166.88-1.048c-.507-.093-.79-.21-.979-.333-.028,.157,.203,.291,.979,.333Zm64.953-2.57c.231-.079,.489-.009,.717-.089l-.063-.299c-.983,.019-1.67,.261-.654,.388Zm-9.765-1.607c.341-.025,.689-.038,1.022-.013,.13-.303-.414-.063-1.022,.013Zm-2.599,1.417l1.016,.129-.397-.669-.62,.539Zm-21.792,1.662l.909-.321c-.522-.139-.557-.288-.851-.508l-.059,.829Zm-4.716-.127c-.192,.23-2.799,.66-.355,.608,.196-.228,2.128-.419,.355-.608Zm-53.209,1.162c-1.38,.34-2.104,.149-1.47,1.042,2.286,.326,.543-.839,2.608-.433,.537-.321-1.688-.332-1.138-.61Zm0,0c.221-.053,.455-.119,.704-.206-.4,.085-.588,.15-.704,.206ZM4.051,5.721l-1.47-.283,.949,.457,.521-.174ZM0,6.647c.332-.038,.976-.113,1.229,.083l-.346-.867-.883,.784Zm202.074,7.011l.112-.209c-.228-.226-.572-.242-1.261-.278l1.149,.486Zm-19.934-.648l.343,.018-.641-.783,.298,.766Zm-16.73,.999c.683,.033,1.485-.142,2.171-.108-1.489,.141-2.356-.868-2.171,.108Z" fill="#231f20"/>
</svg>
